/* XPM */
static char *result[] = {
/* columns rows colors chars-per-pixel */
"60 60 215 2 ",
"   c #000000",
".  c #040008",
"X  c #00001F",
"o  c #151616",
"O  c #171818",
"+  c #110814",
"@  c #2B0014",
"#  c #020022",
"$  c #070523",
"%  c #160025",
"&  c #081528",
"*  c #141926",
"=  c #161D2A",
"-  c #1C1C2A",
";  c #151825",
":  c #230025",
">  c #220129",
",  c #2C022A",
"<  c #2C0A2B",
"1  c #290027",
"2  c #3E002E",
"3  c #31082D",
"4  c #261E2B",
"5  c #2B182B",
"6  c #30172D",
"7  c #300F30",
"8  c #3D1A31",
"9  c #0B252A",
"0  c #11262A",
"q  c #1D222C",
"w  c #152A2A",
"e  c #1E2A2C",
"r  c #162526",
"t  c #1B332C",
"y  c #1D2030",
"u  c #24222B",
"i  c #2D232C",
"p  c #252B2D",
"a  c #2C2D2D",
"s  c #232323",
"d  c #302C2E",
"f  c #35252D",
"g  c #23352C",
"h  c #2D332D",
"j  c #33332F",
"k  c #3E3B25",
"l  c #232535",
"z  c #392838",
"x  c #2B3130",
"c  c #313331",
"v  c #3A3532",
"b  c #313B32",
"n  c #3A393A",
"m  c #40002F",
"M  c #410530",
"N  c #411533",
"B  c #422433",
"V  c #423A35",
"C  c #4B3B35",
"Z  c #413332",
"A  c #563C35",
"S  c #5E3821",
"D  c #663933",
"F  c #1A4A32",
"G  c #334433",
"H  c #344B32",
"J  c #265736",
"K  c #365938",
"L  c #28653A",
"P  c #32633B",
"I  c #3D6B3D",
"U  c #3C653C",
"Y  c #3E713E",
"T  c #367737",
"R  c #286228",
"E  c #434336",
"W  c #494337",
"Q  c #44453B",
"!  c #5D4136",
"~  c #544138",
"^  c #5D4439",
"/  c #554037",
"(  c #58513A",
")  c #43573B",
"_  c #644436",
"`  c #644539",
"'  c #684739",
"]  c #65493C",
"[  c #6B493B",
"{  c #724C3C",
"}  c #67583D",
"|  c #46663F",
" . c #467A3D",
".. c #3D3C42",
"X. c #3F4146",
"o. c #3E7A43",
"O. c #414246",
"+. c #4B4B4B",
"@. c #485948",
"#. c #5B5B5A",
"$. c #554D4C",
"%. c #674C41",
"&. c #6A4E42",
"*. c #765142",
"=. c #7A5545",
"-. c #7E5949",
";. c #71574E",
":. c #61565D",
">. c #4A6D46",
",. c #417A41",
"<. c #497945",
"1. c #7C604F",
"2. c #575B68",
"3. c #5D616A",
"4. c #686A6D",
"5. c #777679",
"6. c #835B4A",
"7. c #895E4C",
"8. c #925F51",
"9. c #8C624F",
"0. c #8F6350",
"q. c #8E6B51",
"w. c #926552",
"e. c #976854",
"r. c #986954",
"t. c #15891B",
"y. c #00A200",
"u. c #03AA07",
"i. c #1AAC1E",
"p. c #238927",
"a. c #1CAD20",
"s. c #33AE35",
"d. c #39AE3B",
"f. c #37AF39",
"g. c #37B238",
"h. c #2AAE2D",
"j. c #3E8144",
"k. c #3FB041",
"l. c #428245",
"z. c #428E4A",
"x. c #498C4A",
"c. c #478749",
"v. c #528E4C",
"b. c #46944A",
"n. c #4A934C",
"m. c #4C9B4D",
"M. c #449D47",
"N. c #509B4D",
"B. c #598157",
"V. c #4D9A50",
"C. c #549B53",
"Z. c #539554",
"A. c #4CA14F",
"S. c #47AC49",
"D. c #44B146",
"F. c #4CB34E",
"G. c #4DA250",
"H. c #52A452",
"J. c #52AC53",
"K. c #4FB250",
"L. c #4FBA55",
"P. c #55B456",
"I. c #56B957",
"U. c #57B558",
"Y. c #5AB55B",
"T. c #57B958",
"R. c #59BC5A",
"E. c #59B355",
"W. c #54AE4D",
"Q. c #5F8C61",
"!. c #6D936D",
"~. c #5FB760",
"^. c #61B561",
"/. c #64B965",
"(. c #6AB96B",
"). c #7ABF7A",
"_. c #75BD76",
"`. c #7CA07D",
"'. c #5AC45C",
"]. c #7B7E82",
"[. c #8B8D93",
"{. c #9C9E9C",
"}. c #8D908D",
"|. c #9CAD9C",
" X c #8FB490",
".X c #A0B69E",
"XX c #999CA0",
"oX c #ADACAC",
"OX c #A5A7A5",
"+X c #B2B3B3",
"@X c #BCBCBC",
"#X c #B6B9B8",
"$X c #B1AFB0",
"%X c #9AC99A",
"&X c #95C895",
"*X c #A2CDA2",
"=X c #A5D0A5",
"-X c #A7D2A8",
";X c #BBC6BA",
":X c #B4D6B4",
">X c #C2BDC2",
",X c #C2C1C2",
"<X c #CDCBCD",
"1X c #D5D5D5",
"2X c #DCDADC",
"3X c #CFD1CF",
"4X c #D4E5D4",
"5X c #DCEBDD",
"6X c #D7E8D7",
"7X c #EAEAEB",
"8X c #E9F2E9",
"9X c #F3F4F4",
"0X c #FEFEFE",
"qX c #F7F8F7",
"wX c None",
/* pixels */
"wXwXwXwXwXwXwXwXwXwXwXwXwXwXwXwXwXwXwXwXwXwXwXwXwXwXwXwXwXwXwXwXwXwXwXwXwXwXwXwXwXwXwXwXwXwXwXwXwXwXwXwXwXwXwXwXwXwXwXwX",
"wXwXwXwXwXwXwXwXwXwXwXwXwXwXwXwXwXwXwXwXwXwXwXwXwXwXwXwXwXwXwXwXwXwXwXwXwXwXwXwXwXwXwXwXwXwXwXwXwXwXwXwXwXwXwXwXwXwXwXwX",
"wXwXwXwXwXwXwXwXwXwXwXwXwXwXwXwXwXwXwXwXwXwXwXwXwXwXwXwXwXwXwXwXwXwXwXwXwXwXwXwXwXwXwXwXwXwXwXwXwXwXwXwXwXwXwXwXwXwXwXwX",
"wXwXwXwXwXwXwXwXwXwXwXwXwXwXwXwXwXwXwXwXwXwXwXwXwXwXwXwXwXwXwXwXwXwXwXwXwXwXwXwXwXwXwXwXwXwXwXwXwXwXwXwXwXwXwXwXwXwXwXwX",
"wXwXwXwXwXwXwXwXwXwXwXwXwXwXwXwXwXwXwXwXwXwXwXwXwXwXwXwXwXwXwXwXwXwXwXwXwXwXwXwXwXwXwXwXwXwXwXwXwXwXwXwXwXwXwXwXwXwXwXwX",
"wXwXwXwXwXwXwXwXwXwXwXwXwXwXwXwXwXwXwXwXwXwXwXwXwXwXwXwXwXwXwXwXwXwXwXwXwXwXwXwXwXwXwXwXwXwXwXwXwXwXwXwXwXwXwXwXwXwXwXwX",
"wXwXwXwXwXwXwXwXwXwXwXwXwXwXwXwXwXwXwXwXwXwXwXwXwXwXwXwXwXwXwXwXwXwXwXwXwXwXwXwXwXwXwXwXwXwXwXwXwXwXwXwXwXwXwXwXwXwXwXwX",
"wXwXwXwXwXwXwXwXwXwXwXwXwXwXwXwXwXwXwXwXwXwXwXwXwXwXwXwXwXwXwXwXwXwXwXwXwXwXwXwXwXwXwXwXwXwXwXwXwXwXwXwXwXwXwXwXwXwXwXwX",
"wXwXwXwXwXwXwXwXwXwXwXwXwXwXwXwXwXwXwXwXwXwXwXwXwXwXwXwXwXwXwXwXwXwXwXwXwXwXwXwXwXwXwXwXwXwXwXwXwXwXwXwXwXwXwXwXwXwXwXwX",
"wXwXwXwXwXwXwXwXwXwXwXwXwXwXwXwXwXwXwXwXwXwXwXwXwXwXwXwXwXwXwXwXwXwXwXwXwXwXwXwXwXwXwXwXwXwXwXwXwXwXwXwXwXwXwXwXwXwXwXwX",
"wXwXwXwXwXwXwXwXwXwXwXwXwXwXwXwXwXwXwXwXwXwXwXwXwXwXwXwXwXwXwXwXwXwXwXwXwXwXwXwXwXwXwXwXwXwXwXwXwXwXwXwXwXwXwXwXwXwXwXwX",
"wXwXwXwXwXwXwXwXwXwXwXwXwXwXwXwXwXwXwXwXwXwXwXwXwXwXwXwXwXwXwXwXwXwXwXwXwXwXwXwXwXwXwXwXwXwXwXwXwXwXwXwXwXwXwXwXwXwXwXwX",
"wXwXwXwXwXwXwXwXwXwXwXwXwXwXwXwXwXwXwXwXwXwXwXwXwXwXwXwXwXwXwXwXwXwXwXwXwXwXwXwXwXwXwXwXwXwXwXwXwXwXwXwXwXwXwXwXwXwXwXwX",
"wXwXwXwXwXwXwXwXwXwXwXwXwXwXwXwXwXwXwXwXwXwXwXwXwXwXwXwXwXwXwXwXwXwXwXwXwXwXwXwXwXwXwXwXwXwXwXwXwXwXwXwXwXwXwXwXwXwXwXwX",
"wXwXwXwXwXwXwXwXwXwXwXwXwXwXwXwXwXwXwXwXwXwXwXwXwXwXwXwXwXwXwXwXwXwXwXwXwXwXwXwXwXwXwXwXwXwXwXwXwXwXwXwXwXwXwXwXwXwXwXwX",
"wXwXwXwXwXwXwXwXwXwXwXwXwXwXwXwXwXwXwXwXwXwXwXwXwXwXwXwXwXwXwXwXwXwXwXwXwXwXwXwXwXwXwXwXwXwXwXwXwXwXwXwXwXwXwXwXwXwXwXwX",
"wXwXwXwXwXwXwXwXwXwXwXwXwXwXwXwXwXwXwXwXwXwXwXwXwXwXwXwXwXwXwXwXwXwXwXwXwXwXwXwXwXwXwXwXwXwXwXwXwXwXwXwXwXwXwXwXwXwXwXwX",
"wXwXwXwXwXwXwXwXwXwXwXwXwXwXwXwXwXwXwXwXwXwXwXwXwXwXwXwXwXwXwXwXwXwXwXwXwXwXwXwXwXwXwXwXwXwXwXwXwXwXwXwXwXwXwXwXwXwXwXwX",
"wXwXwXwXwXwXwXwXwXwXwXwXwXwXwXwXwXwXwXwXwXwXwXwXwXwXwXwXwXwXwXwXwXwXwXwXwXwXwXwXwXwXwXwXwXwXwXwXwXwXwXwXwXwXwXwXwXwXwXwX",
"wXwXwXwXwXwXwXwXwXwXwXwXwXwXwXwXwXwXwXwXwXwXwXwXwXwXwXwXwXwXwXwXwXwXwXwXwXwXwXwXwXwXwXwXwXwXwXwXwXwXwXwXwXwXwXwXwXwXwXwX",
"wXwXwXwXwXwXwXwXwXwXwXwXwXwXwXwXwXwXwXwXwXwXwXwXwXwXwXwXwXwXwXwXwXwXwXwXwXwXwXwXwXwXwXwXwXwXwXwXwXwXwXwXwXwXwXwXwXwXwXwX",
"wXwXwXwXwXwXwXwXwXwXwXwXwXwXwXwXwXwXwXwXwXwXwXwXwXwXwXwXwXwXwXwXwXwXwXwXwXwXwXwXwXwXwXwXwXwXwXwXwXwXwXwXwXwXwXwXwXwXwXwX",
"wXwXwXwXwXwXwXwXwXwXwXwXwXt g g g g g p wXwXwXwXwXwXwXwXwXwXwXwXwXwXwXwXwXwXwXwXwXwXwXwXwXwXwXwXwXwXwXwXwXwXwXwXwXwXwXwX",
"wXwXwXwXwXwXwXwXwXwXwXwXwX> , 1 1 1 , , # wXwXwXwXwXwXwXwXwXwXwXwXwXwXwXwXwXwXwXwXwXwXwXwXwXwXwXwXwXwXwXwXwXwXwXwXwXwXwX",
"wXwXwXwXwXwXwXwXwXwXwXwXL z.Y j.,.,.K o.P wXwXwXwXwXwXwXwXwXwXwXwXwXwXwXwXwXwXwXwXwXwXwXwXwXwXwXwXwXwXwXwXwXwXwXwXwXwXwX",
"wXwXwXwXwXwXwXwXwXwXg > l.'.U.P.T.U.n.V.c.p u wXwXwXwXwXwXu d a p a d d a d d a a - wXwXwXwXwXwXwXwXwXwXwXwXwXwXwXwXwXwX",
"wXwXwXwXwXwXwXwXwXwXu :  .I.U.U.U.U.n.n.,., 4 wXwXwXwXwXwXe w p c p w 9 0 0 9 e c = wXwXwXwXwXwXwXwXwXwXwXwXwXwXwXwXwXwX",
"wXwXwXwXwXwXwXwXX J A.m.m.P.P.P.P.P.J.J.V.,.c.P # = - # %.6.6.^ x C =.-.-.-.6.] ! A u & wXwXwXwXwXwXwXwXwXwXwXwXwXwXwXwX",
"wXwXwXwXwXwXwXr > K P.R.I.P.P.P.P.P.P.I.J.n.V.U < a a 9 %.e.r.&.x ~ w.e.w.w.e.=._ [ v p & wXwXwXwXwXwXwXwXwXwXwXwXwXwXwX",
"wXwXwXwXwXwXwXJ G H J.U.P.P.P.P.P.P.P.U.J.n.n.U i b v e ^ w.e.%.x ~ 9.0.9.w.w.*.[ ' j j i wXwXwXwXwXwXwXwXwXwXwXwXwXwXwX",
"wXwXwXwXwX% p m.I.P.P.P.U.P.U.P.U.P.P.P.P.P.U.V.z.v.0.8.0.w.w.=._ [ C n { w.w.9.8.9.[ [ ^ = * wXwXwXwXwXwXwXwXwXwXwXwXwX",
"wXwXwXwXwX> , b.R.P.d.s.D.I.I.P.P.P.P.P.P.P.U.V.z.v.q.w.w.0.w.*.! ' C g %.r.e.w.w.8.' ' ! p p wXwXwXwXwXwXwXwXwXwXwXwXwX",
"wXwXwXwXL ,.I A.K./.%X-X XM.n.J.P.P.P.P.U.U.U.H.C.N.q.8.q.w.w.-.{ *./ C ] 6.-.9.w.0.=.*.[ Z C f wXwXwXwXwXwXwXwXwXwXwXwX",
"wXwX* > l.'.I./.s.).qX0X1X5 1 n.I.P.P.U.P.F.F.P.L.E.w.8.w.w.w.w.r.w.{ [ ^ c g -.e.0.w.e.7.' [ A 0 i u 4 $ wXwXwXwXwXwXwX",
"wXwXq 7 Y I.J.~.f.).8X0X3Xj 6 m.I.P.P.P.F.D.D.S.F.K.q.w.w.w.w.w.w.9.[ [ ] V v -.e.0.w.w.6._ [ C p d i d w wXwXwXwXwXwXwX",
"wXwXq , Y T.P.P.F.~.OX@X}.h , m.I.P./.P.&X6X4X:X.X.X9.{ =.=.*.7.w.9.[ ' ^ V v -.w.0.=.=.*.' ' ^ A ( x.H.z.t r wXwXwXwXwX",
"wXwXq < Y T.P.P.R.A.      i : m.T.P.d.y.-X0X0X2X>X>X;.S ' _ ! 6.r.w.{ ' ^ v v -.e.0.' _ _ [ [ [ D } Y.'.m.< % wXwXwXwXwX",
"wXwXq , Y T.P.P.U.E.>.@.@.H H M.I.U.).(.:X0X0X1X#X#X;.D ] [ _ 6.w.9.[ [ _ E v =.w.0.[ ' ' ' ' ] ] } J.Y.n.H P F wXwXwXwX",
"wXwXq , Y T.P.P.U.P.J.J.J.J.J.^.Y.).8X8X9X0X0X1X#X#X$.k W W E ] { [ ' ' ^ V v ` [ [ ~ W W Q C <.n.v.J.P.J.J.U.j.% ; wXwX",
"wXwXq < Y T.P.U.U.U.T.T.T.T.Y.h.y.P.0X0X0X0X0X2X,X,X$.@ N B 8 ! [ ' [ { ^ V V ^ [ ' B f N 2 2 ,.b.n.I.'.T.R.'.,.3 - wXwX",
"wXwXq 1  .T.P.P.P.P.P.P.P.U.D.%X:X:XqX0X9X7X7X;X|.|.B. .>.| | ( ^ ^ ^ ^ / v V / ` ^ | >.| <.<.n.G.V.b.b.b.n.n.K 6 q wXwX",
"wXwXq 7 I T.J.P.P.P.~.~.Y./.f.5X0X0X0X0X7X+X@X`.t.b.P.T.J.b.m.>.Z E V E E W E E V H n.n.m.T.I.E.P.J.H 5 f i f d b - wXwX",
"wXwX= > o.'.U.U.T.~.a.y.u.h.y.6X0X0X0X0X7X,X<X Xp.n.P.I.J.c.n.) 2 N M M M M M N M B x.x.m.I.U.T.'.P.K > p u 4 u a * wXwX",
"wXwXwXwXJ l.o.<.R <.6X8X5X5X5X9X0X0X2X1X@X4.5.Q.b.m.P.U.J.J.J.A.N.N.N.N.N.N.N.N.C.N.J.J.J.P.P.x.I j.F wXwXwXwXwXwXwXwXwX",
"wXwXwXwXwX> 7 z   5.9X0X0X0X0X0X0X0X@X>X{.  . T b.b.P.U.U.U.P.I.T.I.T.T.T.T.T.T.I.I.U.U.P.P.T.Y 1 - wXwXwXwXwXwXwXwXwXwX",
"wXwXwXwXwX* r n   ].7XqXqXqX0X0X0X9X>X;XOX  z <.Z.Z.P.U.U.U.P.P.P.P.J.P.P.P.J.E.P.P.U.P.U.P.T. ., g wXwXwXwXwXwXwXwXwXwX",
"wXwXwXwXwXwXwXwXwXwX4.#.+.+.+.+.+.+...Q V c   {.,X#X^.K.U.U.U.V.n.x.H c G b d l.n.n.P.P.U.P.T.o.1 g wXwXwXwXwXwXwXwXwXwX",
"wXwXwXwXwXwXwXwXwXwX  o o o o o o O s s p a s OX3X@XK.a.f.s.g.S.V.n.H < x i 5 l.m.n.f.s.s.f.s.T 1 g wXwXwXwXwXwXwXwXwXwX",
"wXwXwXwXwXwXwXwXwXwXwXl q q u y y u y = y + & XX$XOX%X*X*X*X*X!.T c.F % 0 * & o.j.c.%X=X*X*X*X!.+ c wXwXwXwXwXwXwXwXwXwX",
"wXwXwXwXwXwXwXwXwXwXwXwXwXwXwXwXwXwXwXwXwXwXwX..  #.qX0X0X0X0XoX. ..wXwXwXwXwX... #.qX0X0X0X0X$X  O.wXwXwXwXwXwXwXwXwXwX",
"wXwXwXwXwXwXwXwXwXwXwXwXwXwXwXwXwXwXwXwXwXwXwX... 5.9X0X0X0X0X$X  ..wXwXwXwXwXn   5.9X0X0X0X0X+X  ..wXwXwXwXwXwXwXwXwXwX",
"wXwXwXwXwXwXwXwXwXwXwXwXwXwXwXwXwXwXwXwXwXwXwXwXwX3.#X+XoXoX@X[.wXwXwXwXwXwXwXwXwX2.#X+XoXoX#X[.wXwXwXwXwXwXwXwXwXwXwXwX",
"wXwXwXwXwXwXwXwXwXwXwXwXwXwXwXwXwXwXwXwXwXwXwXwXwXwX          wXwXwXwXwXwXwXwXwXwXwX          wXwXwXwXwXwXwXwXwXwXwXwXwX",
"wXwXwXwXwXwXwXwXwXwXwXwXwXwXwXwXwXwXwXwXwXwXwXwXwXwX..X.O.O...wXwXwXwXwXwXwXwXwXwXwX..X.O.O...wXwXwXwXwXwXwXwXwXwXwXwXwX",
"wXwXwXwXwXwXwXwXwXwXwXwXwXwXwXwXwXwXwXwXwXwXwXwXwXwXwXwXwXwXwXwXwXwXwXwXwXwXwXwXwXwXwXwXwXwXwXwXwXwXwXwXwXwXwXwXwXwXwXwX",
"wXwXwXwXwXwXwXwXwXwXwXwXwXwXwXwXwXwXwXwXwXwXwXwXwXwXwXwXwXwXwXwXwXwXwXwXwXwXwXwXwXwXwXwXwXwXwXwXwXwXwXwXwXwXwXwXwXwXwXwX",
"wXwXwXwXwXwXwXwXwXwXwXwXwXwXwXwXwXwXwXwXwXwXwXwXwXwXwXwXwXwXwXwXwXwXwXwXwXwXwXwXwXwXwXwXwXwXwXwXwXwXwXwXwXwXwXwXwXwXwXwX",
"wXwXwXwXwXwXwXwXwXwXwXwXwXwXwXwXwXwXwXwXwXwXwXwXwXwXwXwXwXwXwXwXwXwXwXwXwXwXwXwXwXwXwXwXwXwXwXwXwXwXwXwXwXwXwXwXwXwXwXwX",
"wXwXwXwXwXwXwXwXwXwXwXwXwXwXwXwXwXwXwXwXwXwXwXwXwXwXwXwXwXwXwXwXwXwXwXwXwXwXwXwXwXwXwXwXwXwXwXwXwXwXwXwXwXwXwXwXwXwXwXwX",
"wXwXwXwXwXwXwXwXwXwXwXwXwXwXwXwXwXwXwXwXwXwXwXwXwXwXwXwXwXwXwXwXwXwXwXwXwXwXwXwXwXwXwXwXwXwXwXwXwXwXwXwXwXwXwXwXwXwXwXwX"
};
