/* XPM */
static char *result[] = {
/* columns rows colors chars-per-pixel */
"60 60 209 2 ",
"   c black",
".  c #00020A",
"X  c #11000E",
"o  c #00001F",
"O  c #140012",
"+  c #1E091D",
"@  c #151512",
"#  c #300017",
"$  c #201F1C",
"%  c #083708",
"&  c #020022",
"*  c #130024",
"=  c #1B0024",
"-  c #001026",
";  c #0E1426",
":  c #0F1A26",
">  c #151A26",
",  c #1C1F29",
"<  c #151627",
"1  c #230024",
"2  c #2A0027",
"3  c #230029",
"4  c #2C012A",
"5  c #2B0A2B",
"6  c #30002C",
"7  c #310F2D",
"8  c #251E2B",
"9  c #2E1D2C",
"0  c #31122C",
"q  c #3D1B36",
"w  c #340432",
"e  c #1D232A",
"r  c #1F2B2C",
"t  c #162728",
"y  c #1B312A",
"u  c #0E2B2D",
"i  c #21232B",
"p  c #262E2E",
"a  c #2B2D2D",
"s  c #222222",
"d  c #322B2E",
"f  c #30272D",
"g  c #23342C",
"h  c #2A332E",
"j  c #31312E",
"k  c #343423",
"l  c #3E2632",
"z  c #293630",
"x  c #343332",
"c  c #3B3532",
"v  c #3F3B35",
"b  c #3A3A3C",
"n  c #373E3B",
"m  c #40002E",
"M  c #400330",
"N  c #431F35",
"B  c #422632",
"V  c #432F31",
"C  c #423534",
"Z  c #423A35",
"A  c #4C3C35",
"S  c #4F3F38",
"D  c #533C36",
"F  c #5B3F37",
"G  c #523535",
"H  c #583628",
"J  c #6F2335",
"K  c #603F38",
"L  c #633C25",
"P  c #1E5E1F",
"I  c #006600",
"U  c #2C4533",
"Y  c #354A34",
"T  c #324133",
"R  c #2E5A39",
"E  c #265736",
"W  c #385939",
"Q  c #2A663B",
"!  c #3C6B3D",
"~  c #38643B",
"^  c #3E713E",
"/  c #257427",
"(  c #434337",
")  c #454B38",
"_  c #49423A",
"`  c #5C4237",
"'  c #514438",
"]  c #5D4338",
"[  c #5C4F3D",
"{  c #4F5B3C",
"}  c #68402E",
"|  c #634437",
" . c #634639",
".. c #694739",
"X. c #634A3D",
"o. c #6C4A3B",
"O. c #704C3C",
"+. c #67553C",
"@. c #45663F",
"#. c #5D613E",
"$. c #40763F",
"%. c #3D3E42",
"&. c #373940",
"*. c #413841",
"=. c #3F4144",
"-. c #414146",
";. c #4C4C4B",
":. c #525352",
">. c #544B4C",
",. c #664B40",
"<. c #6B4D42",
"1. c #755142",
"2. c #7D5949",
"3. c #785649",
"4. c #69554D",
"5. c #5E6841",
"6. c #437643",
"7. c #427B42",
"8. c #4A7B48",
"9. c #5D7242",
"0. c #526B52",
"q. c #575A67",
"w. c #666865",
"e. c #6E717B",
"r. c #7A7A7B",
"t. c #835B4A",
"y. c #8A5D4C",
"u. c #915E50",
"i. c #8D614F",
"p. c #8E6350",
"a. c #8D6C52",
"s. c #936552",
"d. c #996A56",
"f. c #966654",
"g. c #937054",
"h. c #008700",
"j. c #168A1D",
"k. c #1C8A21",
"l. c #348C37",
"z. c #2EAD2F",
"x. c #2FAE32",
"c. c #33AD35",
"v. c #38B339",
"b. c #438245",
"n. c #468748",
"m. c #498D4A",
"M. c #458A48",
"N. c #4A934C",
"B. c #4C9B4E",
"V. c #439443",
"C. c #519C4E",
"Z. c #4F9B50",
"A. c #539853",
"S. c #4CA24F",
"D. c #4CA94D",
"F. c #51AF49",
"G. c #48B449",
"H. c #4DA251",
"J. c #51A451",
"K. c #52AB53",
"L. c #59AF55",
"P. c #55B356",
"I. c #56B857",
"U. c #57B659",
"Y. c #57BA58",
"T. c #58BB59",
"R. c #5BB459",
"E. c #61AF5B",
"W. c #739C74",
"Q. c #5EB160",
"!. c #62B764",
"~. c #6CB369",
"^. c #79A679",
"/. c #7BBF7B",
"(. c #5AC25C",
"). c #7CC07D",
"_. c #858687",
"`. c #8C9390",
"'. c #9CAE9B",
"]. c #9FBC9F",
"[. c #86B187",
"{. c #A29CA1",
"}. c #A6A7A6",
"|. c #A3A6AA",
" X c #ABABAA",
".X c #A4A5A4",
"XX c #ACAFB0",
"oX c #B4B4B5",
"OX c #BABABA",
"+X c #B5BBB4",
"@X c #A3B6A3",
"#X c #C0BBBE",
"$X c #A3C9A4",
"%X c #A4D1A4",
"&X c #BAC1BA",
"*X c #C1BFC2",
"=X c #C6C6C6",
"-X c #C9CCC9",
";X c #CED3CD",
":X c #D3D4D3",
">X c #DBDADB",
",X c #D7D8D9",
"<X c #E0E0DF",
"1X c #ECECEC",
"2X c #E1E1E1",
"3X c #F4F5F4",
"4X c #FEFEFE",
"5X c #F6FCF6",
"6X c None",
/* pixels */
"6X6X6X6X6X6X6X6X6X6X6X6X6X6X6X6X6X6X6X6X6X6X6X6X6X6X6X6X6X6X6X6X6X6X6X6X6X6X6X6X6X6X6X6X6X6X6X6X6X6X6X6X6X6X6X6X6X6X6X6X",
"6X6X6X6X6X6X6X6X6X6X6X6X6X6X6X6X6X6X6X6X6X6X6X6X6X6X6X6X6X6X6X6X6X6X6X6X6X6X6X6X6X6X6X6X6X6X6X6X6X6X6X6X6X6X6X6X6X6X6X6X",
"6X6X6X6X6X6X6X6X6X6X6X6X6X6X6X6X6X6X6X6X6X6X6X6X6X6X6X6X6X6X6X6X6X6X6X6X6X6X6X6X6X6X6X6X6X6X6X6X6X6X6X6X6X6X6X6X6X6X6X6X",
"6X6X6X6X6X6X6X6X6X6X6X6X6X6X6X6X6X6X6X6X6X6X6X6X6X6X6X6X6X6X6X6X6X6X6X6X6X6X6X6X6X6X6X6X6X6X6X6X6X6X6X6X6X6X6X6X6X6X6X6X",
"6X6X6X6X6X6X6X6X6X6X6X6X6X6X6X6X6X6X6X6X6X6X6X6X6X6X6X6X6X6X6X6X6X6X6X6X6X6X6X6X6X6X6X6X6X6X6X6X6X6X6X6X6X6X6X6X6X6X6X6X",
"6X6X6X6X6X6X6X6X6X6X6X6X6X6X6X6X6X6X6X6X6X6X6X6X6X6X6X6X6X6X6X6X6X6X6X6X6X6X6X6X6X6X6X6X6X6X6X6X6X6X6X6X6X6X6X6X6X6X6X6X",
"6X6X6X6X6X6X6X6X6X6X6X6X6X6X6X6X6X6X6X6X6X6X6X6X6X6X6X6X6X6X6X6X6X6X6X6X6X6X6X6X6X6X6X6X6X6X6X6X6X6X6X6X6X6X6X6X6X6X6X6X",
"6X6X6X6X6X6X6X6X6X6X6X6X6X6X6X6X6X6X6X6X6X6X6X6X6X6X6X6X6X6X6X6X6X6X6X6X6X6X6X6X6X6X6X6X6X6X6X6X6X6X6X6X6X6X6X6X6X6X6X6X",
"6X6X6X6X6X6X6X6X6X6X6X6X6X6X6X6X6X6X6X6X6X6X6X6X6X6X6X6X6X6X6X6X6X6X6X6X6X6X6X6X6X6X6X6X6X6X6X6X6X6X6X6X6X6X6X6X6X6X6X6X",
"6X6X6X6X6X6X6X6X6X6X6X6X6X6X6X6X6X6X6X6X6X6X6X6X6X6X6X6X6X6X6X6X6X6X6X6X6X6X6X6X6X6X6X6X6X6X6X6X6X6X6X6X6X6X6X6X6X6X6X6X",
"6X6X6X6X6X6X6X6X6X6X6X6X6X6X6X6X6X6X6X6X6X6X6X6X6X6X6X6X6X6X6X6X6X6X6X6X6X6X6X6X6X6X6X6X6X6X6X6X6X6X6X6X6X6X6X6X6X6X6X6X",
"6X6X6X6X6X6X6X6X6X6X6X6X6X6X6X6X6X6X6X6X6X6X6X6X6X6X6X6X6X6X6X6X6X6X6X6X6X6X6X6X6X6X6X6X6X6X6X6X6X6X6X6X6X6X6X6X6X6X6X6X",
"6X6X6X6X6X6X6X6X6X6X6X6X6X6X6X6X6X6X6X6X6X6X6X6X6X6X6X6X6X6X6X6X6X6X6X6X6X6X6X6X6X6X6X6X6X6X6X6X6X6X6X6X6X6X6X6X6X6X6X6X",
"6X6X6X6X6X6X6X6X6X6X6X6X6X6X6X6X6X6X6X6X6X6X6X6X6X6X6X6X6X6X6X6X6X6X6X6X6X6X6X6X6X6X6X6X6X6X6X6X6X6X6X6X6X6X6X6X6X6X6X6X",
"6X6X6X6X6X6X6X6X6X6X6X6X6X6X6X6X6X6X6X6X6X6X6X6X6X6X6X6X6X6X6X6X6X6X6X6X6X6X6X6X6X6X6X6X6X6X6X6X6X6X6X6X6X6X6X6X6X6X6X6X",
"6X6X6X6X6X6X6X6X6X6X6X6X6X6X6X6X6X6X6X6X6X6X6X6X6X6X6X6X6X6X6X6X6X6X6X6X6X6X6X6X6X6X6X6X6X6X6X6X6X6X6X6X6X6X6X6X6X6X6X6X",
"6X6X6X6X6X6X6X6X6X6X6X6X6X6X6X6X6X6X6X6X6X6X6X6X6X6X6X6X6X6X6X6X6X6X6X6X6X6X6X6X6X6X6X6X6X6X6X6X6X6X6X6X6X6X6X6X6X6X6X6X",
"6X6X6X6X6X6X6X6X6X6X6X6X6X6X6X6X6X6X6X6X6X6X6X6X6X6X6X6X6X6X6X6X6X6X6X6X6X6X6X6X6X6X6X6X6X6X6X6X6X6X6X6X6X6X6X6X6X6X6X6X",
"6X6X6X6X6X6X6X6X6X6X6X6X6X6X6X6X6X6X6X6X6X6X6X6X6X6X6X6X6X6X6X6X6X6X6X6X6X6X6X6X6X6X6X6X6X6X6X6X6X6X6X6X6X6X6X6X6X6X6X6X",
"6X6X6X6X6X6X6X6X6X6X6X6X6X6X6X6X6X6X6X6X6X6X6X6X6X6X6X6X6X6X6X6X6X6X6X6X6X6X6X6X6X6X6X6X6X6X6X6X6X6X6X6X6X6X6X6X6X6X6X6X",
"6X6X6X6X6X6X6X6X6X6X6X6X6X6X6X6X6X6X6X6X6X6X6X6X6X6X6X6X6X6X6X6X6X6X6X6X6X6X6X6X6X6X6X6X6X6X6X6X6X6X6X6X6X6X6X6X6X6X6X6X",
"6X6X6X6X6X6X6X6X6X6X6X6X6X6X6X6X6X6X6X6X6X6X6X6X6X6X6X6X6X6X6X6X6X6X6X6X6X6X6X6X6X6X6X6X6X6X6X6X6X6X6X6X6X6X6X6X6X6X6X6X",
"6X6X6X6X6X6X6X6X6X6X6X6X6Xy g g g g g r 6X6X6X6X6X6X6X6X6X6X6X6X6X6X6X6X6X6X6X6X6X6X6X6X6X6X6X6X6X6X6X6X6X6X6X6X6X6X6X6X",
"6X6X6X6X6X6X6X6X6X6X6X6X6X3 4 2 4 4 4 4 & 6X6X6X6X6X6X6X6X6X6X6X6X6X6X6X6X6X6X6X6X6X6X6X6X6X6X6X6X6X6X6X6X6X6X6X6X6X6X6X",
"6X6X6X6X6X6X6X6X6X6X6X6XQ M.7.7.$.7.! ! Q 6X6X6X6X6X6X6X6X6X6X6X6X6X6X6X6X6X6X6X6X6X6X6X6X6X6X6X6X6X6X6X6X6X6X6X6X6X6X6X",
"6X6X6X6X6X6X6X6X6X6Xg 3 b.(.P.I.I.U.N.Z.n.a i 6X6X6X6X6X6X6X6X6X6X6X6X6X6X6X6X6X6X6X6X6X6X6X6X6X6X6X6X6X6X6X6X6X6X6X6X6X",
"6X6X6X6X6X6X6X6X6X6Xi 2 ^ I.P.P.P.P.N.N.6.6 8 6X6X6X6X6X6X6X6X6X6X6X6X6X6X6X6X6X6X6X6X6X6X6X6X6X6X6X6X6X6X6X6X6X6X6X6X6X",
"6X6X6X6X6X6X6X6Xo E S.B.D.P.P.P.P.P.K.K.B.7.n.~ & 6X6X6X6X; : ; ; ; : : ; ; ; ; ; 6X6X6X6X6X6X6X6X6X6X6X6X6X6X6X6X6X6X6X",
"6X6X6X6X6X6X6Xt 1 W P.T.I.P.P.P.P.P.P.I.K.N.B.! 5 > 6X6X6Xe a a a a a a a a a a a > 6X6X6X6X6X6X6X6X6X6X6X6X6X6X6X6X6X6X",
"6X6X6X6X6X6X6XE T Y K.I.P.P.P.P.P.P.P.I.K.m.N.~ x U 6X6X8 Z c j a j c j j c x j c f 6X6X6X6X6X6X6X6X6X6X6X6X6X6X6X6X6X6X",
"6X6X6X6X6X* r B.I.P.P.P.P.P.P.P.I.P.P.P.U.P.U.B.m.N.Y & ,.f.s.,.a S i.p.i.i.s.1. ...d > 6X6X6X6X6X6X6X6X6X6X6X6X6X6X6X6X",
"6X6X6X6X6X3 4 N.T.P.I.I.P.I.I.P.P.P.P.P.P.P.I.B.m.m.U - X.f.f.,.p ' p.d.s.s.s.1.|  .x h - 6X6X6X6X6X6X6X6X6X6X6X6X6X6X6X",
"6X6X6X6XQ b.~ S.I.P.K.K.K.K.K.P.P.P.P.P.P.P.P.J.B.C.[ D 1.p.s.<.Z ` 2.2.t.s.s.2.1.1.A A V 6X6X6X6X6X6X6X6X6X6X6X6X6X6X6X",
"6X6X> 3 b.(.I.I.P.P.N.M.m.m.M.D.I.P.P.P.P.P.P.I.I.R.g.f.f.p.s.3...o.v u ,.f.s.p.f.s.o.o.| e , 6X6X6X6X6X6X6X6X6X6X6X6X6X",
"6X6Xe 0 ^ I.K.P.P.P.N.N.N.N.m.K.P.P.P.P.P.P.P.P.P.L.a.u.p.s.s.1.|  .A x ,.f.s.p.s.i.o.| F p a 6X6X6X6X6X6X6X6X6X6X6X6X6X",
"6X6Xe 4 ^ I.P.P.P.P.N.N.N.N.m.K.P.P.P.P.R.!.!.R.U.E.a.u.p.p.s.y.t.t.] ` X.,.,.y.s.p.t.t.1.D | C < i y y 6X6X6X6X6X6X6X6X",
"6X6Xe 6 ^ T.P.P.P.P.N.m.N.N.m.K.P.P.T.T.G.z.z.G.G.F.a.f.s.s.s.s.f.s.o.o.| h r 2.f.s.f.d.y. .O.A t a 5 3 & 6X6X6X6X6X6X6X",
"6X6Xe 4 ^ T.P.P.P.K.B.N.N.N.N.K.P.P.K.D.R.).).~.!.~.a.u.p.p.p.p.s.i.o. .] A v 2.f.p.i.p.t.| ..D j c Y W E 6X6X6X6X6X6X6X",
"6X6Xe 4 ^ T.P.P.P.P.P.P.P.P.K.P.P.K.0.% .X5X3X;X+X+X4.} <.o...t.s.i.o.o.] v c 2.s.i.O.o.o.....X.| +.J.I.B.z y 6X6X6X6X6X",
"6X6Xe 5 ^ T.P.P.P.P.P.P.P.U.U.I.(.P.    {.4X4X,X#X#X3.L <...| y.d.s.o.o.X.Z x t.d.s.o.| o.o.o...J +.P.(.N.4 = 6X6X6X6X6X",
"6X6Xe 4 ^ T.P.P.P.P.P.P.P.U.P.H.V.A.}.}.-X4X4X,XOXOX4.H X.] ] 1.y.t.o...] Z c 1.i.2.| ] ] ` F #.5.9.K.I.S.$.b.Q 6X6X6X6X",
"6X6Xe 0 ^ I.K.P.P.P.P.P.P.K.U.8.3 w.4X5X4X4X4X,XOXOX:.k ( v v ` ..| ....] v v ` ..| A Z ( ( C b.N.N.P.P.P.P.(.7.3 > 6X6X",
"6X6X> 3 b.(.T.T.T.T.T.I.T.R.(.I   >.3X4X4X4X4X>X*X#X>.# B B q | o...o.O. .v v | o...V B B M m 6.N.N.I.T.I.I.(.$.6 e 6X6X",
"6X6X6X6XE b.^ ! ^ ^ ^ ^ ^ 6.P OX2X>X4X4X1X:X>X@XW.^.A.C.N.8.b.{ G ' S S A Z Z S D ' $.b.n.C.C.J.P.J.^ ! ^ ! ^ Y f e 6X6X",
"6X6X6X6X6X3 0 4 4 4 O O O 4   >X4X4X4X4X1XoX*X^.h.V.R.T.K.N.B.@.q Z C c C C C Z V T N.N.C.I.I.I.I.P.Y 4 9 5 4 f x , 6X6X",
"6X6X6X6X6X> i h h x ;.;.;.:.b ,X4X4X4X4X1XoX*X[.l.A.P.U.K.m.N.@.C ( _ ( ( ( ( ( A ) m.N.C.T.P.P.P.L.R * g e e , , ; 6X6X",
"6X6X6X6X6X6X6X&.. w.1X4X3X4X5X4X4X4X=X=X.X$ *.8.N.N.P.R.P.P.P.P.P.P.P.L.P.P.P.U.P.P.P.U.P.U.U.8.x R 6X6X6X6X6X6X6X6X6X6X",
"6X6X6X6X6X6X6X%.  r.3X4X4X4X4X4X4X4X=X=X}.  9 / j.k.c.c.G.I.I.T.T.I.I.I.I.I.I.R.I.I.T.R.G.c.v.I     6X6X6X6X6X6X6X6X6X6X",
"6X6X6X6X6X6X6X6X  e.>X2X>X>X>X>X>X>X X|.`.@ + `.$X].$X%X[.B.C.B.B.N.B.B.B.B.B.N.B.B.B.N.~.%X%X'.{.|.q.6X6X6X6X6X6X6X6X6X",
"6X6X6X6X6X6X6X6X6X6X                    @ x   ,X4X4X4X4X>X1 w 4 4 4 4 4 4 4 4 4 4 1 q   {.4X4X4X4X3X_.  %.6X6X6X6X6X6X6X",
"6X6X6X6X6X6X6X6X6X6Xa b %.%.b =.=.%.x x b s e >X4X4X4X4X<Xh h z h h h h h h h h h h n   oX4X4X4X4X3Xr.. %.6X6X6X6X6X6X6X",
"6X6X6X6X6X6X6X6X6X6X6X6X6X6X6X6X6X6X6X6X6X6X6X|.oX X XOX|.6X6X6X6X6X6X6X6X6X6X6X6X6X6X6X_.#X X XoXoXq.6X6X6X6X6X6X6X6X6X",
"6X6X6X6X6X6X6X6X6X6X6X6X6X6X6X6X6X6X6X6X6X6X6X            6X6X6X6X6X6X6X6X6X6X6X6X6X6X6X6X          6X6X6X6X6X6X6X6X6X6X",
"6X6X6X6X6X6X6X6X6X6X6X6X6X6X6X6X6X6X6X6X6X6X6X6X-.-.-.-.6X6X6X6X6X6X6X6X6X6X6X6X6X6X6X6X6X%.-.-.-.&.6X6X6X6X6X6X6X6X6X6X",
"6X6X6X6X6X6X6X6X6X6X6X6X6X6X6X6X6X6X6X6X6X6X6X6X6X6X6X6X6X6X6X6X6X6X6X6X6X6X6X6X6X6X6X6X6X6X6X6X6X6X6X6X6X6X6X6X6X6X6X6X",
"6X6X6X6X6X6X6X6X6X6X6X6X6X6X6X6X6X6X6X6X6X6X6X6X6X6X6X6X6X6X6X6X6X6X6X6X6X6X6X6X6X6X6X6X6X6X6X6X6X6X6X6X6X6X6X6X6X6X6X6X",
"6X6X6X6X6X6X6X6X6X6X6X6X6X6X6X6X6X6X6X6X6X6X6X6X6X6X6X6X6X6X6X6X6X6X6X6X6X6X6X6X6X6X6X6X6X6X6X6X6X6X6X6X6X6X6X6X6X6X6X6X",
"6X6X6X6X6X6X6X6X6X6X6X6X6X6X6X6X6X6X6X6X6X6X6X6X6X6X6X6X6X6X6X6X6X6X6X6X6X6X6X6X6X6X6X6X6X6X6X6X6X6X6X6X6X6X6X6X6X6X6X6X",
"6X6X6X6X6X6X6X6X6X6X6X6X6X6X6X6X6X6X6X6X6X6X6X6X6X6X6X6X6X6X6X6X6X6X6X6X6X6X6X6X6X6X6X6X6X6X6X6X6X6X6X6X6X6X6X6X6X6X6X6X",
"6X6X6X6X6X6X6X6X6X6X6X6X6X6X6X6X6X6X6X6X6X6X6X6X6X6X6X6X6X6X6X6X6X6X6X6X6X6X6X6X6X6X6X6X6X6X6X6X6X6X6X6X6X6X6X6X6X6X6X6X"
};
