/* XPM */
static char *result[] = {
/* columns rows colors chars-per-pixel */
"60 60 208 2 ",
"   c black",
".  c #0F080D",
"X  c #1E051C",
"o  c #151512",
"O  c #21001F",
"+  c #300017",
"@  c #201F1C",
"#  c #020021",
"$  c #0C0026",
"%  c #0B0929",
"&  c #150024",
"*  c #1B0024",
"=  c #001126",
"-  c #0D1325",
";  c #0E1B24",
":  c #131427",
">  c #131B25",
",  c #1B1E29",
"<  c #250023",
"1  c #2A0027",
"2  c #260029",
"3  c #2C012A",
"4  c #2D0B2B",
"5  c #26082C",
"6  c #31062C",
"7  c #241C2B",
"8  c #2A192B",
"9  c #31122D",
"0  c #3D1B36",
"q  c #340432",
"w  c #07272A",
"e  c #1C242A",
"r  c #192A2B",
"t  c #18322C",
"y  c #133D30",
"u  c #2E242D",
"i  c #252D2D",
"p  c #2C2D2D",
"a  c #252429",
"s  c #30272E",
"d  c #322B2E",
"f  c #2A332E",
"g  c #26342B",
"h  c #32302E",
"j  c #343423",
"k  c #3E2632",
"l  c #2A3533",
"z  c #353332",
"x  c #3B3532",
"c  c #3F3B35",
"v  c #3B393D",
"b  c #353F36",
"n  c #40002E",
"m  c #400330",
"M  c #431F35",
"N  c #422632",
"B  c #432F31",
"V  c #423534",
"C  c #423A35",
"Z  c #4C3C35",
"A  c #4F3F38",
"S  c #523D36",
"D  c #5B3F37",
"F  c #543A37",
"G  c #583628",
"H  c #603F38",
"J  c #69302D",
"K  c #006900",
"L  c #364A34",
"P  c #324232",
"I  c #2E5B39",
"U  c #285836",
"Y  c #345236",
"T  c #3A5D39",
"R  c #2E4734",
"E  c #3D6C3C",
"W  c #39663D",
"Q  c #3E723E",
"!  c #276E32",
"~  c #434337",
"^  c #474739",
"/  c #5C4237",
"(  c #514438",
")  c #5D4439",
"_  c #4F5B3C",
"`  c #68402E",
"'  c #634437",
"]  c #634639",
"[  c #694739",
"{  c #634A3D",
"}  c #6C4A3B",
"|  c #704C3C",
" . c #67553C",
".. c #45663F",
"X. c #5D613E",
"o. c #40763F",
"O. c #3D3E41",
"+. c #413841",
"@. c #3F4144",
"#. c #377B42",
"$. c #3B7842",
"%. c #414146",
"&. c #414B40",
"*. c #544B4C",
"=. c #664B40",
"-. c #6B4D42",
";. c #755142",
":. c #7D5949",
">. c #785649",
",. c #69554D",
"<. c #417641",
"1. c #437C43",
"2. c #497D47",
"3. c #5D7242",
"4. c #5E6841",
"5. c #575A67",
"6. c #6F7274",
"7. c #835B4A",
"8. c #8A5D4C",
"9. c #915F50",
"0. c #8D614F",
"q. c #8E6450",
"w. c #8D6B51",
"e. c #936552",
"r. c #996A56",
"t. c #966954",
"y. c #008700",
"u. c #009E00",
"i. c #168A1D",
"p. c #00A800",
"a. c #19AC1C",
"s. c #1C8A21",
"d. c #348C37",
"f. c #2EAD2F",
"g. c #2FAD32",
"h. c #33AD35",
"j. c #37AE38",
"k. c #38B339",
"l. c #3E8044",
"z. c #458245",
"x. c #458A49",
"c. c #498D4A",
"v. c #438846",
"b. c #4A934C",
"n. c #4C9B4D",
"m. c #449647",
"M. c #52994E",
"N. c #4F9B50",
"B. c #539953",
"V. c #518C4B",
"C. c #4EA24F",
"Z. c #44B144",
"A. c #4DB34E",
"S. c #45BA4B",
"D. c #51B14A",
"F. c #4EA250",
"G. c #52A451",
"H. c #52AC53",
"J. c #59AB58",
"K. c #4FB350",
"L. c #55B456",
"P. c #56B857",
"I. c #57B658",
"U. c #5AB55B",
"Y. c #57BA58",
"T. c #58BC59",
"R. c #739C74",
"E. c #63B764",
"W. c #63B864",
"Q. c #6BB86B",
"!. c #79A679",
"~. c #79BE7A",
"^. c #6AAF66",
"/. c #5AC35C",
"(. c #858687",
"). c #86938C",
"_. c #9FBC9F",
"`. c #8DB08E",
"'. c #A29CA1",
"]. c #A6A7A6",
"[. c #A3A6AA",
"{. c #ABABAB",
"}. c #A8A1A7",
"|. c #ACAFB0",
" X c #B4B4B5",
".X c #BABABA",
"XX c #B5BBB4",
"oX c #A3B6A3",
"OX c #C0BBBE",
"+X c #9ECC9E",
"@X c #A3C9A4",
"#X c #A8D1A8",
"$X c #BEDBBF",
"%X c #C1BFC2",
"&X c #C6C6C6",
"*X c #CED4CD",
"=X c #D3D4D3",
"-X c #DBDADB",
";X c #D7D8D9",
":X c #DCEBDC",
">X c #CCE2CC",
",X c #E0E0DF",
"<X c #ECECEC",
"1X c #E3EFE2",
"2X c #F4F4F4",
"3X c #F5F9F5",
"4X c #FEFEFE",
"5X c None",
/* pixels */
"5X5X5X5X5X5X5X5X5X5X5X5X5X5X5X5X5X5X5X5X5X5X5X5X5X5X5X5X5X5X5X5X5X5X5X5X5X5X5X5X5X5X5X5X5X5X5X5X5X5X5X5X5X5X5X5X5X5X5X5X",
"5X5X5X5X5X5X5X5X5X5X5X5X5X5X5X5X5X5X5X5X5X5X5X5X5X5X5X5X5X5X5X5X5X5X5X5X5X5X5X5X5X5X5X5X5X5X5X5X5X5X5X5X5X5X5X5X5X5X5X5X",
"5X5X5X5X5X5X5X5X5X5X5X5X5X5X5X5X5X5X5X5X5X5X5X5X5X5X5X5X5X5X5X5X5X5X5X5X5X5X5X5X5X5X5X5X5X5X5X5X5X5X5X5X5X5X5X5X5X5X5X5X",
"5X5X5X5X5X5X5X5X5X5X5X5X5X5X5X5X5X5X5X5X5X5X5X5X5X5X5X5X5X5X5X5X5X5X5X5X5X5X5X5X5X5X5X5X5X5X5X5X5X5X5X5X5X5X5X5X5X5X5X5X",
"5X5X5X5X5X5X5X5X5X5X5X5X5X5X5X5X5X5X5X5X5X5X5X5X5X5X5X5X5X5X5X5X5X5X5X5X5X5X5X5X5X5X5X5X5X5X5X5X5X5X5X5X5X5X5X5X5X5X5X5X",
"5X5X5X5X5X5X5X5X5X5X5X5X5X5X5X5X5X5X5X5X5X5X5X5X5X5X5X5X5X5X5X5X5X5X5X5X5X5X5X5X5X5X5X5X5X5X5X5X5X5X5X5X5X5X5X5X5X5X5X5X",
"5X5X5X5X5X5X5X5X5X5X5X5X5X5X5X5X5X5X5X5X5X5X5X5X5X5X5X5X5X5X5X5X5X5X5X5X5X5X5X5X5X5X5X5X5X5X5X5X5X5X5X5X5X5X5X5X5X5X5X5X",
"5X5X5X5X5X5X5X5X5X5X5X5X5X5X5X5X5X5X5X5X5X5X5X5X5X5X5X5X5X5X5X5X5X5X5X5X5X5X5X5X5X5X5X5X5X5X5X5X5X5X5X5X5X5X5X5X5X5X5X5X",
"5X5X5X5X5X5X5X5X5X5X5X5X5X5X5X5X5X5X5X5X5X5X5X5X5X5X5X5X5X5X5X5X5X5X5X5X5X5X5X5X5X5X5X5X5X5X5X5X5X5X5X5X5X5X5X5X5X5X5X5X",
"5X5X5X5X5X5X5X5X5X5X5X5X5X5X5X5X5X5X5X5X5X5X5X5X5X5X5X5X5X5X5X5X5X5X5X5X5X5X5X5X5X5X5X5X5X5X5X5X5X5X5X5X5X5X5X5X5X5X5X5X",
"5X5X5X5X5X5X5X5X5X5X5X5X5X5X5X5X5X5X5X5X5X5X5X5X5X5X5X5X5X5X5X5X5X5X5X5X5X5X5X5X5X5X5X5X5X5X5X5X5X5X5X5X5X5X5X5X5X5X5X5X",
"5X5X5X5X5X5X5X5X5X5X5X5X5X5X5X5X5X5X5X5X5X5X5X5X5X5X5X5X5X5X5X5X5X5X5X5X5X5X5X5X5X5X5X5X5X5X5X5X5X5X5X5X5X5X5X5X5X5X5X5X",
"5X5X5X5X5X5X5X5X5X5X5X5X5X5X5X5X5X5X5X5X5X5X5X5X5X5X5X5X5X5X5X5X5X5X5X5X5X5X5X5X5X5X5X5X5X5X5X5X5X5X5X5X5X5X5X5X5X5X5X5X",
"5X5X5X5X5X5X5X5X5X5X5X5X5X5X5X5X5X5X5X5X5X5X5X5X5X5X5X5X5X5X5X5X5X5X5X5X5X5X5X5X5X5X5X5X5X5X5X5X5X5X5X5X5X5X5X5X5X5X5X5X",
"5X5X5X5X5X5X5X5X5X5X5X5X5X5X5X5X5X5X5X5X5X5X5X5X5X5X5X5X5X5X5X5X5X5X5X5X5X5X5X5X5X5X5X5X5X5X5X5X5X5X5X5X5X5X5X5X5X5X5X5X",
"5X5X5X5X5X5X5X5X5X5X5X5X5X5X5X5X5X5X5X5X5X5X5X5X5X5X5X5X5X5X5X5X5X5X5X5X5X5X5X5X5X5X5X5X5X5X5X5X5X5X5X5X5X5X5X5X5X5X5X5X",
"5X5X5X5X5X5X5X5X5X5X5X5X5X5X5X5X5X5X5X5X5X5X5X5X5X5X5X5X5X5X5X5X5X5X5X5X5X5X5X5X5X5X5X5X5X5X5X5X5X5X5X5X5X5X5X5X5X5X5X5X",
"5X5X5X5X5X5X5X5X5X5X5X5X5X5X5X5X5X5X5X5X5X5X5X5X5X5X5X5X5X5X5X5X5X5X5X5X5X5X5X5X5X5X5X5X5X5X5X5X5X5X5X5X5X5X5X5X5X5X5X5X",
"5X5X5X5X5X5X5X5X5X5X5X5X5X5X5X5X5X5X5X5X5X5X5X5X5X5X5X5X5X5X5X5X5X5X5X5X5X5X5X5X5X5X5X5X5X5X5X5X5X5X5X5X5X5X5X5X5X5X5X5X",
"5X5X5X5X5X5X5X5X5X5X5X5X5X5X5X5X5X5X5X5X5X5X5X5X5X5X5X5X5X5X5X5X5X5X5X5X5X5X5X5X5X5X5X5X5X5X5X5X5X5X5X5X5X5X5X5X5X5X5X5X",
"5X5X5X5X5X5X5X5X5X5X5X5X5X5X5X5X5X5X5X5X5X5X5X5X5X5X5X5X5X5X5X5X5X5X5X5X5X5X5X5X5X5X5X5X5X5X5X5X5X5X5X5X5X5X5X5X5X5X5X5X",
"5X5X5X5X5X5X5X5X5X5X5X5X5X5X5X5X5X5X5X5X5X5X5X5X5X5X5X5X5X5X5X5X5X5X5X5X5X5X5X5X5X5X5X5X5X5X5X5X5X5X5X5X5X5X5X5X5X5X5X5X",
"5X5X5X5X5X5X5X5X5X5X5X5X5X5X5X5X5X5X5X5X5X5X5X5X5X5X5X5X5X5X5X5X5X5X5X5X5X5X5X5X5X5X5X5X5X5X5X5X5X5X5X5X5X5X5X5X5X5X5X5X",
"5X5X5X5X5X5X5X5X5X5X5X5X5X5X5X5X5X5X5X5X5X5X5X5X5X5X5X5X5X5X5X5X5X5X5X5X5X5X5X5X5X5X5X5X5X5X5X5X5X5X5X5X5X5X5X5X5X5X5X5X",
"5X5X5X5X5X5X5X5X5X5X5X5X5X5X5X5X5X5X5X5X5X5X5X5X5X5X5X5X5X5X5X5X5X5X5X5X5X5X5X5X5X5X5X5X5X5X5X5X5X5X5X5X5X5X5X5X5X5X5X5X",
"5X5X5X5X5X5X5X5X5X5X5X5X5Xi f f f l f i > 5X5X5X5X5X5X5X5X5X5X5X5X5X5X5X5X5X5X5X5X5X5X5X5X5X5X5X5X5X5X5X5X5X5X5X5X5X5X5X",
"5X5X5X5X5X5X5X5X5X5X5X5X5X5 3 1 3 3 4 u $ 5X5X5X5X5X5X5X5X5X5X5X5X5X5X5X5X5X5X5X5X5X5X5X5X5X5X5X5X5X5X5X5X5X5X5X5X5X5X5X",
"5X5X5X5X5X5X5X5X5X5X5X# #.F.n.n.n.n.2.x.$.% - 5X5X5X5X5X5X- : - - - - - - : - - : 5X5X5X5X5X5X5X5X5X5X5X5X5X5X5X5X5X5X5X",
"5X5X5X5X5X5X5X5X5X5Xe 3 z.T.P.P.P.P.b.n.z.s , 5X5X5X5X5X5Xe p p p p p p p p p p p > 5X5X5X5X5X5X5X5X5X5X5X5X5X5X5X5X5X5X",
"5X5X5X5X5X5X5X5X5X5XI s $.P.L.L.L.L.b.b.1.d R t 5X5X5X5X7 C x z h d z x h x x h x s 5X5X5X5X5X5X5X5X5X5X5X5X5X5X5X5X5X5X",
"5X5X5X5X5X5X5X5X$ I H.P.L.L.L.L.L.L.L.I.G.c.b.E & e i = -.e.e.=.f S 0.q.0.0.q.;.' [ d > 5X5X5X5X5X5X5X5X5X5X5X5X5X5X5X5X",
"5X5X5X5X5X5X5X: 3 L H.I.L.L.L.P.L.L.L.I.H.c.b.W 3 u f = { t.t.=.i ( q.r.e.q.t.;.' { z i = 5X5X5X5X5X5X5X5X5X5X5X5X5X5X5X",
"5X5X5X5X5X5X5X#.$.o.H.P.L.L.L.L.L.L.L.P.H.n.N.<.Y T ) / ;.e.e.-.C ) :.:.7.9.e.:.;.;.Z Z B 5X5X5X5X5X5X5X5X5X5X5X5X5X5X5X",
"5X5X5X5X5X& a G./.I.P.P.L.P.L.L.L.L.L.L.P.I.I.G.m.B.t.r.e.q.e.;.[ [ x t =.t.e.e.e.e.| } ' e , 5X5X5X5X5X5X5X5X5X5X5X5X5X",
"5X5X5X5X5Xi 4 m.I.H.I.P.I.I.L.P.L.L.L.L.L.L.L.n.x.V.q.q.e.e.e.;.' ] Z z -.e.e.e.e.9.] ] D i p 5X5X5X5X5X5X5X5X5X5X5X5X5X",
"5X5X5X$ $.C.b.G.Y.L.n.N.N.n.n.H.P.L.L.L.I.E.W.J.H.J.w.9.q.q.e.8.7.7.{ ( { -.=.7.e.e.7.7.;.S ' V : 7 t t 5X5X5X5X5X5X5X5X",
"5X5X, 3 1./.T.P.L.L.b.c.b.b.c.H.P.H.P.I.A.f.h.Z.S.H.w.e.t.e.t.e.t.e.| } ] f r :.t.e.t.r.0.' | Z r i 4 2 # 5X5X5X5X5X5X5X",
"5X5Xe 4 Q I.H.L.L.L.c.c.c.c.x.G.P.L.L.A.W.~.~.Q.E.^.w.8.0.9.0.q.e.8.} ] ) Z c 7.t.q.0.0.7.' [ Z d x L T U 5X5X5X5X5X5X5X",
"5X5Xe 3 E T.P.L.P.H.W P Y L P n.P.P.Q.A.#X2X2X*XXXXX,.` | } } 7.t.8.} [ ) c z >.e.0.} | [ [ [ [ H  .G.P.N.l e 5X5X5X5X5X",
"5X5Xe 4 Q P.L.H.P.H.g O 1 < X b.P.L.a.u.+X4X4X-XOXOX>.H } [ ] 8.r.e.} } { C x 7.r.q.} [ [ } } } J | L./.b.5 * 5X5X5X5X5X",
"5X5Xe 4 Q P.L.L.P.L.z.o.1.o.o.D.A.U.#X#X>X4X4X=X.X.X,.G { ) / ;.8.7.} [ ) c x ;.8.7.] ) ) / D X.4.3.H.P.n.<.v.! 5X5X5X5X",
"5X5Xe 3 Q P.K.L.L.L.L.P.P.P.L.W.L.~.4X4X4X4X4X=X.X.X*.j ^ C C / ' { [ [ ) C c / [ ' C C ~ ~ V z.n.b.H.P.L.L.T.1.2 > 5X5X",
"5X5Xe 3 E P.L.L.L.L.L.L.L.P.I.j.p.L.3X4X4X4X4X-X&X.X*.+ M N 0 H | [ } } ] c x ' } [ N N N m n <.b.b.P.T.P.P./.$.6 e 5X5X",
"5X5Xe 3 Q T.L.L.L.L.L.L.L.U.j.$X1X:X4X4X2X*X;XoXR.!.B.n.b.2.2._ F ( S S Z C C ( S ( z.2.x.N.M.G.H.G.$.E Q E Q L s , 5X5X",
"5X5Xe 9 Q /.L.L.P.P.L.A.A.P.p.:X4X4X4X4X<X X%XR.y.m.L.Y.H.b.b...0 C x V V V V V k ~ b.b.N.T.P.P.Y.H.L 3 8 4 4 s z , 5X5X",
"5X5X- & l.Y.L.L.H.H.W.E.E.Q.Z.:X4X4X4X4X<X X%X`.d.B.L.I.H.c.b.<.V ^ ~ ~ ~ ^ ~ ^ ~ ^ c.b.N.P.I.L.L.L.I & i , e , , - 5X5X",
"5X5X5X5Xy Y b &.. 5.2X4X3X3X3X4X4X3X&X&X].@ C z.b.b.I.I.P.L.L.L.H.I.H.I.L.H.H.L.L.L.L.I.I.I.I.<.z I 5X5X5X5X5X5X5X5X5X5X",
"5X5X5X5X5X5 u C   (.2X4X4X4X4X4X4X4X&X&X].  8 ! s.s.h.h.Z.P.P.T.P.P.P.P.T.T.P.P.P.P.P.P.K.h.k.K     5X5X5X5X5X5X5X5X5X5X",
"5X5X5X5X5X; - l   6.,X,X;X-X-X-X-X-X{.[.).o O ).@X_.@X#X`.m.N.n.M.n.n.n.n.n.n.n.n.n.n.m.!.+X@X_.'.[.5.5X5X5X5X5X5X5X5X5X",
"5X5X5X5X5X5X5X5X5X5X                    o z   :X4X4X4X4X-XX q 3 3 3 3 3 3 1 3 3 3 3 0   [.4X4X4X4X2X(.  O.5X5X5X5X5X5X5X",
"5X5X5X5X5X5X5X5X5X5Xp O.O.O.O.O.@.O.z z v a a ;X4X4X4X4X,Xf f l f f f f f f f f f f b   |.4X4X4X4X2X(.  O.5X5X5X5X5X5X5X",
"5X5X5X5X5X5X5X5X5X5X5X5X5X5X5X5X5X5X5X5X5X5X5X[. X{.{..X[.5X5X5X5X5X5X5X5X5X5X5X5X5X5X5X(.OX{.{. X X5.5X5X5X5X5X5X5X5X5X",
"5X5X5X5X5X5X5X5X5X5X5X5X5X5X5X5X5X5X5X5X5X5X5X            5X5X5X5X5X5X5X5X5X5X5X5X5X5X5X5X          5X5X5X5X5X5X5X5X5X5X",
"5X5X5X5X5X5X5X5X5X5X5X5X5X5X5X5X5X5X5X5X5X5X5X5X%.%.%.+.5X5X5X5X5X5X5X5X5X5X5X5X5X5X5X5X5XO.%.%.@.O.5X5X5X5X5X5X5X5X5X5X",
"5X5X5X5X5X5X5X5X5X5X5X5X5X5X5X5X5X5X5X5X5X5X5X5X5X5X5X5X5X5X5X5X5X5X5X5X5X5X5X5X5X5X5X5X5X5X5X5X5X5X5X5X5X5X5X5X5X5X5X5X",
"5X5X5X5X5X5X5X5X5X5X5X5X5X5X5X5X5X5X5X5X5X5X5X5X5X5X5X5X5X5X5X5X5X5X5X5X5X5X5X5X5X5X5X5X5X5X5X5X5X5X5X5X5X5X5X5X5X5X5X5X",
"5X5X5X5X5X5X5X5X5X5X5X5X5X5X5X5X5X5X5X5X5X5X5X5X5X5X5X5X5X5X5X5X5X5X5X5X5X5X5X5X5X5X5X5X5X5X5X5X5X5X5X5X5X5X5X5X5X5X5X5X",
"5X5X5X5X5X5X5X5X5X5X5X5X5X5X5X5X5X5X5X5X5X5X5X5X5X5X5X5X5X5X5X5X5X5X5X5X5X5X5X5X5X5X5X5X5X5X5X5X5X5X5X5X5X5X5X5X5X5X5X5X",
"5X5X5X5X5X5X5X5X5X5X5X5X5X5X5X5X5X5X5X5X5X5X5X5X5X5X5X5X5X5X5X5X5X5X5X5X5X5X5X5X5X5X5X5X5X5X5X5X5X5X5X5X5X5X5X5X5X5X5X5X",
"5X5X5X5X5X5X5X5X5X5X5X5X5X5X5X5X5X5X5X5X5X5X5X5X5X5X5X5X5X5X5X5X5X5X5X5X5X5X5X5X5X5X5X5X5X5X5X5X5X5X5X5X5X5X5X5X5X5X5X5X"
};
