/* XPM */
static char *result[] = {
/* columns rows colors chars-per-pixel */
"60 60 218 2 ",
"   c black",
".  c #090815",
"X  c #151513",
"o  c #1D081D",
"O  c #003D0E",
"+  c #030021",
"@  c #020A23",
"#  c #0F0527",
"$  c #140224",
"%  c #1D0025",
"&  c #140826",
"*  c #0E1426",
"=  c #0A1726",
"-  c #151C26",
";  c #1C1D2A",
":  c #191527",
">  c #220021",
",  c #290027",
"<  c #240029",
"1  c #2C0029",
"2  c #2C092B",
"3  c #241C2A",
"4  c #2D1D2C",
"5  c #29162A",
"6  c #32192A",
"7  c #3D1B36",
"8  c #32022F",
"9  c #002A29",
"0  c #0C292D",
"q  c #1C232A",
"w  c #18292A",
"e  c #1A332B",
"r  c #15302A",
"t  c #24222B",
"y  c #2C222B",
"u  c #242F2E",
"i  c #2C2D2E",
"p  c #222222",
"a  c #31252E",
"s  c #322D2E",
"d  c #3A232B",
"f  c #2B332E",
"g  c #24312C",
"h  c #32312F",
"j  c #3E2632",
"k  c #2D3330",
"l  c #253B30",
"z  c #343331",
"x  c #3B3432",
"c  c #313B30",
"v  c #3F3B35",
"b  c #373C3C",
"n  c #393B3D",
"m  c #33343A",
"M  c #2F2F36",
"N  c #570B0B",
"B  c #40002F",
"V  c #400330",
"C  c #411D32",
"Z  c #40302F",
"A  c #422633",
"S  c #422E32",
"D  c #423534",
"F  c #423A35",
"G  c #4C3C35",
"H  c #4E3834",
"J  c #533534",
"K  c #523D36",
"L  c #5B3F37",
"P  c #5B392F",
"I  c #682433",
"U  c #653B38",
"Y  c #743735",
"T  c #623B24",
"R  c #006900",
"E  c #194130",
"W  c #254532",
"Q  c #344B34",
"!  c #374534",
"~  c #2B5A39",
"^  c #265636",
"/  c #365336",
"(  c #395B39",
")  c #3A5E37",
"_  c #2A683C",
"`  c #3C6C3C",
"'  c #3E733F",
"]  c #257427",
"[  c #434337",
"{  c #484837",
"}  c #5C4237",
"|  c #5D4338",
" . c #57463A",
".. c #57583D",
"X. c #634437",
"o. c #634639",
"O. c #694739",
"+. c #634A3C",
"@. c #6C4A3B",
"#. c #67553C",
"$. c #6C4736",
"%. c #43663E",
"&. c #40763F",
"*. c #5D613E",
"=. c #3D3D42",
"-. c #413841",
";. c #3F4144",
":. c #3C6F40",
">. c #367942",
",. c #414246",
"<. c #4E4F4E",
"1. c #664B40",
"2. c #6B4D41",
"3. c #755142",
"4. c #7D5949",
"5. c #795647",
"6. c #6E5049",
"7. c #427641",
"8. c #437C44",
"9. c #487C44",
"0. c #497F4A",
"q. c #5D6946",
"w. c #575A67",
"e. c #6C6969",
"r. c #727478",
"t. c #843B39",
"y. c #963E3C",
"u. c #88312E",
"i. c #A53F3D",
"p. c #9A423E",
"a. c #835B4A",
"s. c #8A5D4C",
"d. c #915E50",
"f. c #884746",
"g. c #AE4441",
"h. c #A34A48",
"j. c #BB4946",
"k. c #B54643",
"l. c #8D614F",
"z. c #8E6350",
"x. c #8D6C52",
"c. c #936552",
"v. c #946A54",
"b. c #996A56",
"n. c #996353",
"m. c #C94B48",
"M. c #DB514E",
"N. c #178C1E",
"B. c #1C8A21",
"V. c #328D36",
"C. c #2B8D2F",
"Z. c #33AD35",
"A. c #32AF33",
"S. c #3E8144",
"D. c #448446",
"F. c #498E4A",
"G. c #448A47",
"H. c #4A934C",
"J. c #4C9B4D",
"K. c #459648",
"L. c #519C4E",
"P. c #4F9D50",
"I. c #519653",
"U. c #48B449",
"Y. c #4EA150",
"T. c #51A550",
"R. c #52AB53",
"E. c #5AAF55",
"W. c #55B356",
"Q. c #57B659",
"!. c #5DB25D",
"~. c #57BA58",
"^. c #58BC59",
"/. c #56B857",
"(. c #4FAE4C",
"). c #61AF5B",
"_. c #66B667",
"`. c #77A678",
"'. c #7BBF7B",
"]. c #5AC25B",
"[. c #7CC07D",
"{. c #878888",
"}. c #898C90",
"|. c gray62",
" X c #99979B",
".X c #869E87",
"XX c #83A383",
"oX c #9AAC9A",
"OX c #95BD95",
"+X c #A0A69F",
"@X c #A29CA1",
"#X c #A4A4A4",
"$X c #A2A5AA",
"%X c #ABABAB",
"&X c #A8A1A7",
"*X c #B4B4B5",
"=X c #BDBDBD",
"-X c #B1B8B0",
";X c #AEB4B0",
":X c #C0BDBF",
">X c #A3C9A4",
",X c #A4D1A4",
"<X c #BAC4BA",
"1X c #C5BFC5",
"2X c #C3C3C3",
"3X c #CCCDCD",
"4X c #D6D5D5",
"5X c #DBDBDC",
"6X c #D7D8D9",
"7X c #CBD1CB",
"8X c #E3DDE2",
"9X c #EBECEB",
"0X c #E2E2E2",
"qX c #F4F4F5",
"wX c #FEFEFE",
"eX c #F4FAF5",
"rX c #EFF5EE",
"tX c None",
/* pixels */
"tXtXtXtXtXtXtXtXtXtXtXtXtXtXtXtXtXtXtXtXtXtXtXtXtXtXtXtXtXtXtXtXtXtXtXtXtXtXtXtXtXtXtXtXtXtXtXtXtXtXtXtXtXtXtXtXtXtXtXtX",
"tXtXtXtXtXtXtXtXtXtXtXtXtXtXtXtXtXtXtXtXtXtXtXtXtXtXtXtXtXtXtXtXtXtXtXtXtXtXtXtXtXtXtXtXtXtXtXtXtXtXtXtXtXtXtXtXtXtXtXtX",
"tXtXtXtXtXtXtXtXtXtXtXtXtXtXtXtXtXtXtXtXtXtXtXtXtXtXtXtXtXtXtXtXtXtXtXtXtXtXtXtXtXtXtXtXtXtXtXtXtXtXtXtXtXtXtXtXtXtXtXtX",
"tXtXtXtXtXtXtXtXtXtXtXtXtXtXtXtXtXtXtXtXtXtXtXtXtXtXtXtXtXtXtXtXtXtXtXtXtXtXtXtXtXtXtXtXtXtXtXtXtXtXtXtXtXtXtXtXtXtXtXtX",
"tXtXtXtXtXtXtXtXtXtXtXtXtXtXtXtXtXtXtXtXtXtXtXtXtXtXtXtXtXtXtXtXtXtXtXtXtXtXtXtXtXtXtXtXtXtXtXtXtXtXtXtXtXtXtXtXtXtXtXtX",
"tXtXtXtXtXtXtXtXtXtXtXtXtXtXtXtXtXtXtXtXtXtXtXtXtXtXtXtXtXtXtXtXtXtXtXtXtXtXtXtXtXtXtXtXtXtXtXtXtXtXtXtXtXtXtXtXtXtXtXtX",
"tXtXtXtXtXtXtXtXtXtXtXtXtXtXtXtXtXtXtXtXtXtXtXtXtXtXtXtXtXtXtXtXtXtXtXtXtXtXtXtXtXtXtXtXtXtXtXtXtXtXtXtXtXtXtXtXtXtXtXtX",
"tXtXtXtXtXtXtXtXtXtXtXtXtXtXtXtXtXtXtXtXtXtXtXtXtXtXtXtXtXtXtXtXtXtXtXtXtXtXtXtXtXtXtXtXtXtXtXtXtXtXtXtXtXtXtXtXtXtXtXtX",
"tXtXtXtXtXtXtXtXtXtXtXtXtXtXtXtXtXtXtXtXtXtXtXtXtXtXtXtXtXtXtXtXtXtXtXtXtXtXtXtXtXtXtXtXtXtXtXtXtXtXtXtXtXtXtXtXtXtXtXtX",
"tXtXtXtXtXtXtXtXtXtXtXtXtXtXtXtXtXtXtXtXtXtXtXtXtXtXtXtXtXtXtXtXtXtXtXtXtXtXtXtXtXtXtXtXtXtXtXtXtXtXtXtXtXtXtXtXtXtXtXtX",
"tXtXtXtXtXtXtXtXtXtXtXtXtXtXtXtXtXtXtXtXtXtXtXtXtXtXtXtXtXtXtXtXtXtXtXtXtXtXtXtXtXtXtXtXtXtXtXtXtXtXtXtXtXtXtXtXtXtXtXtX",
"tXtXtXtXtXtXtXtXtXtXtXtXtXtXtXtXtXtXtXtXtXtXtXtXtXtXtXtXtXtXtXtXtXtXtXtXtXtXtXtXtXtXtXtXtXtXtXtXtXtXtXtXtXtXtXtXtXtXtXtX",
"tXtXtXtXtXtXtXtXtXtXtXtXtXtXtXtXtXtXtXtXtXtXtXtXtXtXtXtXtXtXtXtXtXtXtXtXtXtXtXtXtXtXtXtXtXtXtXtXtXtXtXtXtXtXtXtXtXtXtXtX",
"tXtXtXtXtXtXtXtXtXtXtXtXtXtXtXtXtXtXtXtXtXtXtXtXtXtXtXtXtXtXtXtXtXtXtXtXtXtXtXtXtXtXtXtXtXtXtXtXtXtXtXtXtXtXtXtXtXtXtXtX",
"tXtXtXtXtXtXtXtXtXtXtXtXtXtXtXtXtXtXtXtXtXtXtXtXtXtXtXtXtXtXtXtXtXtXtXtXtXtXtXtXtXtXtXtXtXtXtXtXtXtXtXtXtXtXtXtXtXtXtXtX",
"tXtXtXtXtXtXtXtXtXtXtXtXtXtXtXtXtXtXtXtXtXtXtXtXtXtXtXtXtXtXtXtXtXtXtXtXtXtXtXtXtXtXtXtXtXtXtXtXtXtXtXtXtXtXtXtXtXtXtXtX",
"tXtXtXtXtXtXtXtXtXtXtXtXtXtXtXtXtXtXtXtXtXtXtXtXtXtXtXtXtXtXtXtXtXtXtXtXtXtXtXtXtXtXtXtXtXtXtXtXtXtXtXtXtXtXtXtXtXtXtXtX",
"tXtXtXtXtXtXtXtXtXtX& t y 3 : tXtXtXtXtXtXtXtXtXtXtXtXtXtXtXtXtXtXtXtXtXtXtXtXtXtXtXtXtXtXtXtXtXtXtXtXtXtXtXtXtXtXtXtXtX",
"tXtXtXtXtXtXtXtXtXtXu y 4 a i tXtXtXtXtXtXtXtXtXtXtXtXtXtXtXtXtXtXtXtXtXtXtXtXtXtXtXtXtXtXtXtXtXtXtXtXtXtXtXtXtXtXtXtXtX",
"tXtXtXtXtXtXtXtX* ~ J.J.H.H.T.>.& e q w tXtXtXtXtXtXtXtXtXtXtXtXtXtXtXtXtXtXtXtXtXtXtXtXtXtXtXtXtXtXtXtXtXtXtXtXtXtXtXtX",
"tXtXtXtXtXtXtX$ % / /.^.^.^.].8.> 4 3 5 + tXtXtXtXtXtXtXtXtXtXtXtXtXtXtXtXtXtXtXtXtXtXtXtXtXtXtXtXtXtXtXtXtXtXtXtXtXtXtX",
"tXtXtXtXtXtXtX~ / ) R./.R.R.Q.>.Q / ! Q W tXtXtXtXtXtXtXtXtXtXtXtXtXtXtXtXtXtXtXtXtXtXtXtXtXtXtXtXtXtXtXtXtXtXtXtXtXtXtX",
"tXtXtXtXtXw l J.W.R.W.W.W.W./.R.R.R.F.H.D.u q tXtXtXtXtXtXtXtXtXtXtXtXtXtXtXtXtXtXtXtXtXtXtXtXtXtXtXtXtXtXtXtXtXtXtXtXtX",
"tXtXtXtXtX% 1 H.^.W././././././././.H.H.8.1 % tXtXtXtXtXtXtXtXtXtXtXtXtXtXtXtXtXtXtXtXtXtXtXtXtXtXtXtXtXtXtXtXtXtXtXtXtX",
"tXtXtXtX_ D.' Y./.R.R.R.Y.R.R.R.W.R.P.Y.F.( :.^ tXtXtXtXtXtXtXtXtXtXtXtXtXtXtXtXtXtXtXtXtXtXtXtXtXtXtXtXtXtXtXtXtXtXtXtX",
"tXtX; < 8.]././.Q.R.H.F.H.H.F.R./././.Q.R.F.J.:.3 q tXtXtXtXtXtXtXtXtXtXtXtXtXtXtXtXtXtXtXtXtXtXtXtXtXtXtXtXtXtXtXtXtXtX",
"tXtXq 2 ' ^.W.W.Q.W.H.F.H.H.F.Y./.W.W.Q.R.F.H.( 1 ; tXtXtXtXtXtXtXtXtXtXtXtXtXtXtXtXtXtXtXtXtXtXtXtXtXtXtXtXtXtXtXtXtXtX",
"tXtXq 1 ' /.R.W.Q.W.H.H.H.H.F.R.W.W.W.W.W.T.R.F.8.D.W + - * * * * * * * * * * * * tXtXtXtXtXtXtXtXtXtXtXtXtXtXtXtXtXtXtX",
"tXtX; 6 &.Q././.W.W.H.F.H.H.F.Y.Q.W.W.W.W.Q./.Y.H.H.Q y k i i i i i i i i i i i k - tXtXtXtXtXtXtXtXtXtXtXtXtXtXtXtXtXtX",
"tXtX* $ S./.R.W./.W.H.H.H.H.H.R./.W.W.W.W.W./.J.H.H.c a m z h s i z z z h x h h x s tXtXtXtXtXtXtXtXtXtXtXtXtXtXtXtXtXtX",
"tXtXtXtXE / s H./.W.W.W.W.W.W.W.W./.W.W.W.W.W.W.Q.R.! & o.c.c.1.i K l.z.l.l.c.3.O.O.s * tXtXtXtXtXtXtXtXtXtXtXtXtXtXtXtX",
"tXtXtXtXtX< y J.^./././.Q./.Q./.W.W.W.W./.W.W.W.Q.R.W +  .v.v.1.i { l.n.v.c.c.3.X.O.z u @ tXtXtXtXtXtXtXtXtXtXtXtXtXtXtX",
"tXtXtXtXtX@ w H.Y.J.J.J.J.J.J.R./.W.W.W.W.W.W.W./.R...J 3.c.c.2.F } 4.4.s.z.c.4.3.3.H H D tXtXtXtXtXtXtXtXtXtXtXtXtXtXtX",
"tXtXtXtXtXtXtX# 1 , < , , 1 > H./.W.W./.W.W.W.W.W.E.b.n.c.z.c.5.O.@.v 0 1.c.c.z.c.c.@.@.X.q q tXtXtXtXtXtXtXtXtXtXtXtXtX",
"tXtXtXtXtXtXtX- u k c c c c 5 J./.Q.W./.W.W.W././.E.x.d.c.c.c.3.X.o.G z 2.c.c.z.c.z.o.O.L i i tXtXtXtXtXtXtXtXtXtXtXtXtX",
"tXtXtXtXtXtXtXtXtX@ t z i h y %.9.D.R.W.Q._.!.!.Q.).x.d.x.z.z.s.a.a.| } o.2.1.s.c.c.a.a.3.K } D : 3 e e tXtXtXtXtXtXtXtX",
"tXtXtXtXtXtXtXtXtXtXq h h s h $ + r W.^.U.A.A.U.U.U.x.c.c.c.c.c.v.c.@.@.X.k w 4.v.z.v.b.s.O.@.G w t 2 < + tXtXtXtXtXtXtX",
"tXtXtXtXtXtXtXtXtXtXt h i f i F H { Y.(.).'.'._._._.x.d.z.z.d.z.c.z.@.o.| G v a.v.l.l.l.a.X.@.H s v Q ( ^ tXtXtXtXtXtXtX",
"tXtXtXtXtXtXtXtXtXtXt i h Z g t.i.p.q.O +XeXrX3X-X*X4.O.2.@.@.a.c.s.@.@.| v x 5.v.s.@.@.@.@.@.+.$.#.T./.J.l w tXtXtXtXtX",
"tXtXtXtXtXtXtXtXtXtXq h u 9 9 y.m.g.     XwXwX8X1X1X6.T @.O.o.s.b.c.@.@.+.F m a.b.c.@.O.@.@.$.O.I #.E.].H.1 % tXtXtXtXtX",
"tXtXtXtXtXtXtXtXtXtXy e J Y Y Y u.f.%X%X2X9X9X<XoXoX6.P +.| L 5.s.a.@.@.| v x 3.s.a.X.| | | U *.q.q.R./.Y.' G._ tXtXtXtX",
"tXtXtXtXtXtXtXtXtXtXd 0 Y g.g.3.9 e.qXwX9X*X2XXXN.H.! F ! F v } o.o.o.@.| F F | O.X.F v [ ! D D.J.K.W.W.W.W.^.S.< - tXtX",
"tXtXtXtXtXtXtXtXtXtX0 9 Y k.j.N   <.eXwX9X*X2XXXC.F.A B C A j L @.@.@.@.X.v F | @.O.A A C B 8 9.H.F.~.^.~.~.].' 8 q tXtX",
"tXtXtXtXtXtXtXtX@ I g.k.y.U N :X0X5X4X6X3X:X2XXXV.I.L.L.H.0.D...J  .K K G F F G K  .9.9.F.L.L.T.E.T.&.` ' ` ' Q a ; tXtX",
"tXtXtXtXtXtXtX6 9 U m.M.i.9   5XwXwX2X*X=X1X1XXXC.I./.Q.R.H.J.%.7 x x D D D D F A ! H.H.P.Q.~.~.Q.W.Q 1 6 2 1 i z ; tXtX",
"tXtXtXtXtXtXtX6 0 J j.m.h.<.b 4XwXeX2X=X=X=X=XXXV.I.W.~.R.F.H.%.D { [ [ [ [ [ [ [ { H.H.L.Q.E.W.Q.R.~ $ g q q ; q * tXtX",
"tXtXtXtXtXtXtX; i s <.  #XwXwX4X=X2X=X2X#Xq -.0.J.H.W.W.W.W.W.W.W.W.E.W.W.W.E.W.W.R.W.W.W.Q.Q.8.z ~ tXtXtXtXtXtXtXtXtXtX",
"tXtXtXtXtXtXtX          #XwXwX5X=X2X2X3X#X  6 ] N.B.Z.Z.U.~.Q.^./.^.Q./.~././.^.^.Q./.~./.Z.Z.R     tXtXtXtXtXtXtXtXtXtX",
"tXtXtXtXtXtXtX X%X X|.{.=XrXqX<X@X#X#X%X{.X o XX>XoX,X,XOXK.P.J.J.J.J.J.J.J.J.J.J.J.L.K.`.,X,XoX@X$Xw.tXtXtXtXtXtXtXtXtX",
"tXtXtXtXtX. =.5XwXwXwXwX9X*X2Xe.        X z   5XwXwXwXwX5Xo 8 1 1 1 1 , 1 1 1 1 1 , 7   #XwXwXwXwXeX{.  =.tXtXtXtXtXtXtX",
"tXtXtXtXtX. b 6XwXwXeXwX9X2X3X{.X n m m n p t 6XwXwXwXwX5Xf f k f f f f f f f f f g b   ;XwXwXeXwXqX{.  =.tXtXtXtXtXtXtX",
"tXtXtXtXtXtXtX$X*X%X%X*X@Xr.}.r.tXtXtXtXtXtXtX$X*X%X%X=X$XtXtXtXtXtXtXtXtXtXtXtXtXtXtXtX}.=X%X%X*X*Xw.tXtXtXtXtXtXtXtXtX",
"tXtXtXtXtXtXtX                tXtXtXtXtXtXtXtX            tXtXtXtXtXtXtXtXtXtXtXtXtXtXtXtX          tXtXtXtXtXtXtXtXtXtX",
"tXtXtXtXtXtXtXtX;.,.,.,.=.m M tXtXtXtXtXtXtXtXtX,.,.,.-.tXtXtXtXtXtXtXtXtXtXtXtXtXtXtXtXtX=.,.,.;.=.tXtXtXtXtXtXtXtXtXtX",
"tXtXtXtXtXtXtXtXtXtXtXtXtXtXtXtXtXtXtXtXtXtXtXtXtXtXtXtXtXtXtXtXtXtXtXtXtXtXtXtXtXtXtXtXtXtXtXtXtXtXtXtXtXtXtXtXtXtXtXtX",
"tXtXtXtXtXtXtXtXtXtXtXtXtXtXtXtXtXtXtXtXtXtXtXtXtXtXtXtXtXtXtXtXtXtXtXtXtXtXtXtXtXtXtXtXtXtXtXtXtXtXtXtXtXtXtXtXtXtXtXtX",
"tXtXtXtXtXtXtXtXtXtXtXtXtXtXtXtXtXtXtXtXtXtXtXtXtXtXtXtXtXtXtXtXtXtXtXtXtXtXtXtXtXtXtXtXtXtXtXtXtXtXtXtXtXtXtXtXtXtXtXtX",
"tXtXtXtXtXtXtXtXtXtXtXtXtXtXtXtXtXtXtXtXtXtXtXtXtXtXtXtXtXtXtXtXtXtXtXtXtXtXtXtXtXtXtXtXtXtXtXtXtXtXtXtXtXtXtXtXtXtXtXtX",
"tXtXtXtXtXtXtXtXtXtXtXtXtXtXtXtXtXtXtXtXtXtXtXtXtXtXtXtXtXtXtXtXtXtXtXtXtXtXtXtXtXtXtXtXtXtXtXtXtXtXtXtXtXtXtXtXtXtXtXtX",
"tXtXtXtXtXtXtXtXtXtXtXtXtXtXtXtXtXtXtXtXtXtXtXtXtXtXtXtXtXtXtXtXtXtXtXtXtXtXtXtXtXtXtXtXtXtXtXtXtXtXtXtXtXtXtXtXtXtXtXtX"
};
