/* XPM */
static char *result[] = {
/* columns rows colors chars-per-pixel */
"60 60 213 2 ",
"   c #000000",
".  c #050615",
"X  c #001513",
"o  c #181718",
"O  c #1A0016",
"+  c #003D0E",
"@  c #020022",
"#  c #0E0525",
"$  c #190024",
"%  c #0E1427",
"&  c #0A1726",
"*  c #161A27",
"=  c #1B1E29",
"-  c #171627",
";  c #051732",
":  c #220023",
">  c #2B0027",
",  c #230029",
"<  c #2C012A",
"1  c #2A0C2A",
"2  c #30002C",
"3  c #241C2A",
"4  c #2A182A",
"5  c #331C29",
"6  c #3D1B36",
"7  c #340432",
"8  c #012A2B",
"9  c #07292A",
"0  c #1C242A",
"q  c #1B2E2A",
"w  c #192628",
"e  c #1B312B",
"r  c #2B242B",
"t  c #232E2E",
"y  c #2B2C2D",
"u  c #232428",
"i  c #322C2E",
"p  c #30272D",
"a  c #2B322E",
"s  c #24312C",
"d  c #32302E",
"f  c #3C302F",
"g  c #2A2F35",
"h  c #3E2632",
"j  c #2C3530",
"k  c #2E3B30",
"l  c #293634",
"z  c #343331",
"x  c #3B3431",
"c  c #3E3B34",
"v  c #383B39",
"b  c #720000",
"n  c #6C1A19",
"m  c #40002F",
"M  c #400330",
"N  c #411D32",
"B  c #422633",
"V  c #422E32",
"C  c #423534",
"Z  c #423A35",
"A  c #4C3C34",
"S  c #4E3B35",
"D  c #543434",
"F  c #523D36",
"G  c #5B3F37",
"H  c #51342F",
"J  c #633A36",
"K  c #763837",
"L  c #692F2D",
"P  c #006900",
"I  c #254532",
"U  c #354B34",
"Y  c #364333",
"T  c #2A5837",
"R  c #365135",
"E  c #395B39",
"W  c #355938",
"Q  c #3D6D3D",
"!  c #32623A",
"~  c #3E723E",
"^  c #256E30",
"/  c #434337",
"(  c #474638",
")  c #5C4237",
"_  c #5D4338",
"`  c #57463A",
"'  c #57583D",
"]  c #634437",
"[  c #634639",
"{  c #694739",
"}  c #634A3C",
"|  c #6C4A3B",
" . c #67553C",
".. c #6C4736",
"X. c #45663F",
"o. c #40763F",
"O. c #5D613E",
"+. c #3D3E41",
"@. c #3F4144",
"#. c #3C6F40",
"$. c #3B7B42",
"%. c #377A41",
"&. c #424246",
"*. c #4D4B4B",
"=. c #4A4947",
"-. c #515251",
";. c #664B40",
":. c #6B4D41",
">. c #7D4140",
",. c #755142",
"<. c #7D5949",
"1. c #795647",
"2. c #6D554C",
"3. c #447641",
"4. c #447B43",
"5. c #487D47",
"6. c #5B6050",
"7. c #5E6D42",
"8. c #555865",
"9. c #5B616B",
"0. c #666364",
"q. c #853B39",
"w. c #9C3F3D",
"e. c #82302D",
"r. c #9B413E",
"t. c #A7413F",
"y. c #864947",
"u. c #835B4A",
"i. c #8A5D4C",
"p. c #915E50",
"a. c #AF4441",
"s. c #B44542",
"d. c #B94945",
"f. c #8D614F",
"g. c #8E6350",
"h. c #8D6C52",
"j. c #936552",
"k. c #946A54",
"l. c #996A56",
"z. c #996353",
"x. c #CC4C49",
"c. c #C44A47",
"v. c #D7504D",
"b. c #178C1F",
"n. c #1C8A21",
"m. c #328D36",
"M. c #2B8D2F",
"N. c #2FAE32",
"B. c #33AD35",
"V. c #33B034",
"C. c #458345",
"Z. c #498D4B",
"A. c #448A47",
"S. c #4A934C",
"D. c #4C9B4E",
"F. c #459845",
"G. c #519C4E",
"H. c #4E9E50",
"J. c #519653",
"K. c #4DA54F",
"L. c #48B449",
"P. c #4EA150",
"I. c #51A551",
"U. c #52AB53",
"Y. c #5AAF55",
"T. c #55B456",
"R. c #56B857",
"E. c #57B659",
"W. c #5DB25D",
"Q. c #57BA58",
"!. c #59BD5A",
"~. c #51AF49",
"^. c #61AF5B",
"/. c #66B667",
"(. c #77A678",
"). c #7BBF7B",
"_. c #59C35C",
"`. c #7CC07D",
"'. c #818283",
"]. c #8D9491",
"[. c #83A383",
"{. c #9AAC9A",
"}. c #9FBC9F",
"|. c #8ABD8B",
" X c #A0A69F",
".X c #A29CA1",
"XX c #A3A6AA",
"oX c #ACACAC",
"OX c #A5A2A5",
"+X c #ADAFB0",
"@X c #B5B5B6",
"#X c #BCBCBC",
"$X c #B1B8B0",
"%X c #AFB9B0",
"&X c #C2B9B9",
"*X c #A3C9A4",
"=X c #A4D1A4",
"-X c #BAC4BA",
";X c #C5BFC5",
":X c #C2C1C2",
">X c #CACACC",
",X c #D5D5D5",
"<X c #DBDADB",
"1X c #D7D7DA",
"2X c #CBD1CB",
"3X c #E3DDE2",
"4X c #EAEBEA",
"5X c #E4E4E4",
"6X c #F6F6F6",
"7X c #FEFEFE",
"8X c #F4FAF5",
"9X c #EFF5EE",
"0X c None",
/* pixels */
"0X0X0X0X0X0X0X0X0X0X0X0X0X0X0X0X0X0X0X0X0X0X0X0X0X0X0X0X0X0X0X0X0X0X0X0X0X0X0X0X0X0X0X0X0X0X0X0X0X0X0X0X0X0X0X0X0X0X0X0X",
"0X0X0X0X0X0X0X0X0X0X0X0X0X0X0X0X0X0X0X0X0X0X0X0X0X0X0X0X0X0X0X0X0X0X0X0X0X0X0X0X0X0X0X0X0X0X0X0X0X0X0X0X0X0X0X0X0X0X0X0X",
"0X0X0X0X0X0X0X0X0X0X0X0X0X0X0X0X0X0X0X0X0X0X0X0X0X0X0X0X0X0X0X0X0X0X0X0X0X0X0X0X0X0X0X0X0X0X0X0X0X0X0X0X0X0X0X0X0X0X0X0X",
"0X0X0X0X0X0X0X0X0X0X0X0X0X0X0X0X0X0X0X0X0X0X0X0X0X0X0X0X0X0X0X0X0X0X0X0X0X0X0X0X0X0X0X0X0X0X0X0X0X0X0X0X0X0X0X0X0X0X0X0X",
"0X0X0X0X0X0X0X0X0X0X0X0X0X0X0X0X0X0X0X0X0X0X0X0X0X0X0X0X0X0X0X0X0X0X0X0X0X0X0X0X0X0X0X0X0X0X0X0X0X0X0X0X0X0X0X0X0X0X0X0X",
"0X0X0X0X0X0X0X0X0X0X0X0X0X0X0X0X0X0X0X0X0X0X0X0X0X0X0X0X0X0X0X0X0X0X0X0X0X0X0X0X0X0X0X0X0X0X0X0X0X0X0X0X0X0X0X0X0X0X0X0X",
"0X0X0X0X0X0X0X0X0X0X0X0X0X0X0X0X0X0X0X0X0X0X0X0X0X0X0X0X0X0X0X0X0X0X0X0X0X0X0X0X0X0X0X0X0X0X0X0X0X0X0X0X0X0X0X0X0X0X0X0X",
"0X0X0X0X0X0X0X0X0X0X0X0X0X0X0X0X0X0X0X0X0X0X0X0X0X0X0X0X0X0X0X0X0X0X0X0X0X0X0X0X0X0X0X0X0X0X0X0X0X0X0X0X0X0X0X0X0X0X0X0X",
"0X0X0X0X0X0X0X0X0X0X0X0X0X0X0X0X0X0X0X0X0X0X0X0X0X0X0X0X0X0X0X0X0X0X0X0X0X0X0X0X0X0X0X0X0X0X0X0X0X0X0X0X0X0X0X0X0X0X0X0X",
"0X0X0X0X0X0X0X0X0X0X0X0X0X0X0X0X0X0X0X0X0X0X0X0X0X0X0X0X0X0X0X0X0X0X0X0X0X0X0X0X0X0X0X0X0X0X0X0X0X0X0X0X0X0X0X0X0X0X0X0X",
"0X0X0X0X0X0X0X0X0X0X0X0X0X0X0X0X0X0X0X0X0X0X0X0X0X0X0X0X0X0X0X0X0X0X0X0X0X0X0X0X0X0X0X0X0X0X0X0X0X0X0X0X0X0X0X0X0X0X0X0X",
"0X0X0X0X0X0X0X0X0X0X0X0X0X0X0X0X0X0X0X0X0X0X0X0X0X0X0X0X0X0X0X0X0X0X0X0X0X0X0X0X0X0X0X0X0X0X0X0X0X0X0X0X0X0X0X0X0X0X0X0X",
"0X0X0X0X0X0X0X0X0X0X0X0X0X0X0X0X0X0X0X0X0X0X0X0X0X0X0X0X0X0X0X0X0X0X0X0X0X0X0X0X0X0X0X0X0X0X0X0X0X0X0X0X0X0X0X0X0X0X0X0X",
"0X0X0X0X0X0X0X0X0X0X0X0X0X0X0X0X0X0X0X0X0X0X0X0X0X0X0X0X0X0X0X0X0X0X0X0X0X0X0X0X0X0X0X0X0X0X0X0X0X0X0X0X0X0X0X0X0X0X0X0X",
"0X0X0X0X0X0X0X0X0X0X0X0X0X0X0X0X0X0X0X0X0X0X0X0X0X0X0X0X0X0X0X0X0X0X0X0X0X0X0X0X0X0X0X0X0X0X0X0X0X0X0X0X0X0X0X0X0X0X0X0X",
"0X0X0X0X0X0X0X0X0X0X0X0X0X0X0X0X0X0X0X0X0X0X0X0X0X0X0X0X0X0X0X0X0X0X0X0X0X0X0X0X0X0X0X0X0X0X0X0X0X0X0X0X0X0X0X0X0X0X0X0X",
"0X0X0X0X0X0X0X0X0X0X0X0X0X0X0X0X0X0X0X0X0X0X0X0X0X0X0X0X0X0X0X0X0X0X0X0X0X0X0X0X0X0X0X0X0X0X0X0X0X0X0X0X0X0X0X0X0X0X0X0X",
"0X0X0X0X0X0X0X0X0X0X0X0X0X0X0X0X0X0X0X0X0X0X0X0X0X0X0X0X0X0X0X0X0X0X0X0X0X0X0X0X0X0X0X0X0X0X0X0X0X0X0X0X0X0X0X0X0X0X0X0X",
"0X0X0X0X0X0X0X0X0X0X0X0X0X0X0X0X0X0X0X0X0X0X0X0X0X0X0X0X0X0X0X0X0X0X0X0X0X0X0X0X0X0X0X0X0X0X0X0X0X0X0X0X0X0X0X0X0X0X0X0X",
"0X0X0X0X0X0X0X0X0X0X0Xq e e e e q q w w 0X0X0X0X0X0X0X0X0X0X0X0X0X0X0X0X0X0X0X0X0X0X0X0X0X0X0X0X0X0X0X0X0X0X0X0X0X0X0X0X",
"0X0X0X0X0X0X0X0X0X0X$ > 1 1 1 1 1 1 4 3 @ 0X0X0X0X0X0X0X0X0X0X0X0X0X0X0X0X0X0X0X0X0X0X0X0X0X0X0X0X0X0X0X0X0X0X0X0X0X0X0X",
"0X0X0X0X0X0X0X0X0X0XW W U W R R R R Y U I 0X0X0X0X0X0X0X0X0X0X0X0X0X0X0X0X0X0X0X0X0X0X0X0X0X0X0X0X0X0X0X0X0X0X0X0X0X0X0X",
"0X0X0X0X0X0X0X0X- ! U.T.U.U.U.U.U.U.A.S.C.t w 0X0X0X0X0X0X0X0X0X0X0X0X0X0X0X0X0X0X0X0X0X0X0X0X0X0X0X0X0X0X0X0X0X0X0X0X0X",
"0X0X0X0X0X0X0X# $ Y T.!.R.R.R.R.Q.R.S.S.4.< , 0X0X0X0X0X0X0X0X0X0X0X0X0X0X0X0X0X0X0X0X0X0X0X0X0X0X0X0X0X0X0X0X0X0X0X0X0X",
"0X0X0X0X0X0X0X$.C.$.U.R.U.T.U.T.T.U.P.P.Z.E Q T 0X0X0X0X0X0X0X0X0X0X0X0X0X0X0X0X0X0X0X0X0X0X0X0X0X0X0X0X0X0X0X0X0X0X0X0X",
"0X0X0X0X0X0 j P._.T.R.T.R.T.T.T.R.T.R.E.U.Z.H.#.3 w 0X0X0X0X0X0X0X0X0X0X0X0X0X0X0X0X0X0X0X0X0X0X0X0X0X0X0X0X0X0X0X0X0X0X",
"0X0X0X0X0X, > S.Q.T.R.R.R.R.R.R.T.T.T.E.U.Z.S.E < = 0X0X0X0X0X0X0X0X0X0X0X0X0X0X0X0X0X0X0X0X0X0X0X0X0X0X0X0X0X0X0X0X0X0X",
"0X0X0X@ %.K.D.U.T.T.P.P.D.D.D.U.E.T.T.T.T.K.U.Z.5.C.I @ * % % % & % % % % % % % % 0X0X0X0X0X0X0X0X0X0X0X0X0X0X0X0X0X0X0X",
"0X0X0 1 4.!.Q.E.E.T.Z.Z.Z.S.Z.K.R.U.R.T.T.E.E.P.S.S.U r l y y y y y y y y y y y y * 0X0X0X0X0X0X0X0X0X0X0X0X0X0X0X0X0X0X",
"0X0X0 < ~ R.T.T.E.U.S.Z.S.S.S.U.R.T.T.T.T.T.E.D.S.S.k r z z x i y y x x d z x d x i 0X0X0X0X0X0X0X0X0X0X0X0X0X0X0X0X0X0X",
"0X0X0 < Q Q.U.T.E.T.S.Z.S.S.Z.U.E.T.T.T.T.T.T.T.E.U.Y # _ j.j.;.y ` f.j.g.f.g.,.{ { i * 0X0X0X0X0X0X0X0X0X0X0X0X0X0X0X0X",
"0X0X0 1 4.!.E.E.E.T.S.Z.S.S.Z.P.R.T.T.T.T.T.T.T.!.U.U @ ` k.j.;.y ( f.l.j.j.j.,.] ] z t & 0X0X0X0X0X0X0X0X0X0X0X0X0X0X0X",
"0X0X0X@ $.U.S.U.T.T.K.D.D.D.D.U.T.T.T.T.T.T.T.T.E.T.' D ,.j.j.:.Z ) <.<.u.p.j.<.,.,.S S V 0X0X0X0X0X0X0X0X0X0X0X0X0X0X0X",
"0X0X0X0X0X, > S.!.T.R.!.Q.Q.T.E.T.E.T.T.T.T.T.R.T.Y.k.z.k.g.j.,.{ | Z 9 ;.k.j.j.j.j.| | ] 0 = 0X0X0X0X0X0X0X0X0X0X0X0X0X",
"0X0X0X0X0X0 a P.!.T.R.!.R.R.Q.T.E.E.R.T.T.T.T.T.T.Y.h.p.j.j.k.,.] [ A z ;.k.j.g.j.f.{ { G t y 0X0X0X0X0X0X0X0X0X0X0X0X0X",
"0X0X0X0X0X0X0X$.C.~ ~ ~ o.5.o.o.o.C.U.T.T./.W.W.Q.^.k.p.g.g.j.i.u.u.} ) ;.:.;.u.j.g.u.u.,.F ] C - 3 e e 0X0X0X0X0X0X0X0X",
"0X0X0X0X0X0X0X@ > > : > : . @ @ @ e T.!.~.B.B.L.L.L.h.z.j.j.j.j.k.j.| | [ j t 1.j.f.k.l.i.| | S w t 1 , @ 0X0X0X0X0X0X0X",
"0X0X0X0X0X0X0Xq j k k j c ( A A H ( K.~.W.).)./././.h.i.f.f.f.g.j.f.| { [ Z Z <.k.j.f.j.u.] | S i c U E T 0X0X0X0X0X0X0X",
"0X0X0X0X0X0X0X* y d V t K y.a.a.t.r.6.+ OX8X9X>X$X$X1...| | | u.j.i.| { _ c x <.j.f.| | | { { } J :.I.Q.D.l q 0X0X0X0X0X",
"0X0X0X0X0X0X0X% i a 8 8 L a.a.a.d.t.    .X7X7X3X;X;X2.J | | ] i.l.j.| | } C x <.l.j.| ] | | | ..L  .Y._.F.> $ 0X0X0X0X0X",
"0X0X0X0X0X0X0X3 q f q.q.w.s.s.r.e.y.oXoX:X4X4X-X{.{.:.G ` [ ) ,.i.<.| | _ Z x ,.i.u.] ) _ ) G O.7.7.U.E.D.~ A.! 0X0X0X0X",
"0X0X0X0X0X0X0X5 8 D c.x.c.c.x.y.8 0.6X7X4X@X;X(.b.A.( Z / Z v ) { { [ | _ Z c ) { ] / Z / / C C.H.S.T.T.T.R.!.$., * 0X0X",
"0X0X0X0X0X0X0X5 8 D x.v.x.x.v.b   -.6X7X9X#X:X[.M.S.V m N B h G | | | | } c c J | ] B B N m 7 3.S.Z.E.!.Q.R._.~ 7 0 0X0X",
"0X0X0X0X0X0X0Xr y x K K K >.n &X5X<X,X,X>X&X:X[.m.J.G.G.S.5.C.' D ` F F A C c ` F ` 5.5.Z.G.G.I.U.I.$.#.~ Q ~ U p = 0X0X",
"0X0X0X0X0X0X0X    o X X X 8   <X7X7X:X@X#X:X:X[.M.J.R.R.U.S.D.X.6 Z x C C C C Z V Y S.S.G.!.Q.T.!.T.Y > 5 1 < p z = 0X0X",
"0X0X0X0X0X0X0X9.0.*.*.=.=.-.Y ,X7X6X:X@X#X#X:X[.m.J.T.Q.U.S.S.X.x / / / / / / / / ( Z.S.G.E.Y.T.T.T.T $ t 0 0 = = % 0X0X",
"0X0X0X0X0X. g <X7X6X6X7X7X6X7X1X:X#X-.v &.v x 5.S.S.T.T.T.U.E.T.Y.E.T.U.Y.T.U.T.T.U.E.T.E.E.Q.4.z T 0X0X0X0X0X0X0X0X0X0X",
"0X0X0X0X0X. &.<X7X7X7X7X7X7X7X<X#X:X-.  d u 4 ^ b.n.B.B.L.Q.Q.R.R.Q.Q.Q.Q.Q.!.Q.Q.Q.R.R.T.B.V.P     0X0X0X0X0X0X0X0X0X0X",
"0X0X0X0X0Xo ; :X5X<X<X<X<X<X3X@XOXoX8.  g j O [.*X}.*X=X|.D.G.D.D.D.D.D.D.D.D.D.D.D.D.F.(.=X=X{..XXX8.0X0X0X0X0X0X0X0X0X",
"0X0X0X0X0X0X0X                    . 0X0X0Xu   <X7X7X7X7X<X: 7 < > < < > > < > < < > 6   OX7X7X7X7X6X'.  +.0X0X0X0X0X0X0X",
"0X0X0X0X0X0X0Xr v +.v @.v +.&.v j u 0X0X0X- u 1X7X6X7X7X<Xa a j a j a a a a a a j s v   +X7X7X7X7X9X'.  +.0X0X0X0X0X0X0X",
"0X0X0X0X0X0X0X0X0X0X0X0X0X0X0X0X0X0X0X0X0X0X0XXX@XoXoX#XXX0X0X0X0X0X0X0X0X0X0X0X0X0X0X0X].@XoXoX@X@X8.0X0X0X0X0X0X0X0X0X",
"0X0X0X0X0X0X0X0X0X0X0X0X0X0X0X0X0X0X0X0X0X0X0X            0X0X0X0X0X0X0X0X0X0X0X0X0X0X0X0X          0X0X0X0X0X0X0X0X0X0X",
"0X0X0X0X0X0X0X0X0X0X0X0X0X0X0X0X0X0X0X0X0X0X0X0X&.&.&.+.0X0X0X0X0X0X0X0X0X0X0X0X0X0X0X0X0X+.&.&.@.+.0X0X0X0X0X0X0X0X0X0X",
"0X0X0X0X0X0X0X0X0X0X0X0X0X0X0X0X0X0X0X0X0X0X0X0X0X0X0X0X0X0X0X0X0X0X0X0X0X0X0X0X0X0X0X0X0X0X0X0X0X0X0X0X0X0X0X0X0X0X0X0X",
"0X0X0X0X0X0X0X0X0X0X0X0X0X0X0X0X0X0X0X0X0X0X0X0X0X0X0X0X0X0X0X0X0X0X0X0X0X0X0X0X0X0X0X0X0X0X0X0X0X0X0X0X0X0X0X0X0X0X0X0X",
"0X0X0X0X0X0X0X0X0X0X0X0X0X0X0X0X0X0X0X0X0X0X0X0X0X0X0X0X0X0X0X0X0X0X0X0X0X0X0X0X0X0X0X0X0X0X0X0X0X0X0X0X0X0X0X0X0X0X0X0X",
"0X0X0X0X0X0X0X0X0X0X0X0X0X0X0X0X0X0X0X0X0X0X0X0X0X0X0X0X0X0X0X0X0X0X0X0X0X0X0X0X0X0X0X0X0X0X0X0X0X0X0X0X0X0X0X0X0X0X0X0X",
"0X0X0X0X0X0X0X0X0X0X0X0X0X0X0X0X0X0X0X0X0X0X0X0X0X0X0X0X0X0X0X0X0X0X0X0X0X0X0X0X0X0X0X0X0X0X0X0X0X0X0X0X0X0X0X0X0X0X0X0X",
"0X0X0X0X0X0X0X0X0X0X0X0X0X0X0X0X0X0X0X0X0X0X0X0X0X0X0X0X0X0X0X0X0X0X0X0X0X0X0X0X0X0X0X0X0X0X0X0X0X0X0X0X0X0X0X0X0X0X0X0X"
};
