/* XPM */
static char *result[] = {
/* columns rows colors chars-per-pixel */
"60 60 210 2 ",
"   c black",
".  c #0F080D",
"X  c #001F00",
"o  c #151512",
"O  c #1E091D",
"+  c #21001F",
"@  c #300017",
"#  c #201F1C",
"$  c #020021",
"%  c #0C0026",
"&  c #0B0929",
"*  c #150024",
"=  c #1B0024",
"-  c #001126",
";  c #0D1325",
":  c #0E1B24",
">  c #131327",
",  c #131B25",
"<  c #1B1E29",
"1  c #240023",
"2  c #2A0027",
"3  c #260029",
"4  c #2C012A",
"5  c #2D0B2B",
"6  c #26082C",
"7  c #31062C",
"8  c #241C2B",
"9  c #2B172C",
"0  c #31122D",
"q  c #3A1A36",
"w  c #340432",
"e  c #07272A",
"r  c #1C242A",
"t  c #192A2B",
"y  c #18322C",
"u  c #133D30",
"i  c #2E242D",
"p  c #252D2D",
"a  c #2B2D2D",
"s  c #252429",
"d  c #30272E",
"f  c #322B2E",
"g  c #2A332E",
"h  c #27352C",
"j  c #32302E",
"k  c #343423",
"l  c #3E2632",
"z  c #2A3533",
"x  c #353332",
"c  c #3B3532",
"v  c #3F3B35",
"b  c #3B393D",
"n  c #353F36",
"m  c #40002E",
"M  c #400330",
"N  c #431F35",
"B  c #422632",
"V  c #432F31",
"C  c #423534",
"Z  c #423A35",
"A  c #4C3C35",
"S  c #4F3F38",
"D  c #523D36",
"F  c #573C37",
"G  c #583628",
"H  c #603F38",
"J  c #69302D",
"K  c #006900",
"L  c #364934",
"P  c #2E5B39",
"I  c #285836",
"U  c #365838",
"Y  c #2E4734",
"T  c #3D6C3C",
"R  c #39663D",
"E  c #3E723E",
"W  c #39793A",
"Q  c #276E32",
"!  c #434337",
"~  c #474739",
"^  c #5C4237",
"/  c #5D4439",
"(  c #514438",
")  c #4F5B3C",
"_  c #68402E",
"`  c #634437",
"'  c #634639",
"]  c #694739",
"[  c #634A3D",
"{  c #6C4A3B",
"}  c #67553C",
"|  c #704C3C",
" . c #45663F",
".. c #5D613E",
"X. c #40763F",
"o. c #3D3E41",
"O. c #413841",
"+. c #3F4144",
"@. c #397942",
"#. c #414146",
"$. c #414B40",
"%. c #544B4C",
"&. c #664B40",
"*. c #6B4D42",
"=. c #755142",
"-. c #7D5949",
";. c #785649",
":. c #69554D",
">. c #427641",
",. c #437C44",
"<. c #4B7E4B",
"1. c #497D45",
"2. c #5E6D42",
"3. c #575A67",
"4. c #636763",
"5. c #75777C",
"6. c #835B4A",
"7. c #8A5D4C",
"8. c #915F50",
"9. c #8D614F",
"0. c #8E6450",
"q. c #8D6B51",
"w. c #936552",
"e. c #996A56",
"r. c #966954",
"t. c #008700",
"y. c #009E00",
"u. c #168A1D",
"i. c #00A800",
"p. c #19AC1C",
"a. c #1C8A21",
"s. c #348C37",
"d. c #2EAD2F",
"f. c #2FAD32",
"g. c #33AD35",
"h. c #37AE38",
"j. c #3BB23C",
"k. c #3E8044",
"l. c #458246",
"z. c #498C4A",
"x. c #468949",
"c. c #4B944C",
"v. c #4C9A4D",
"b. c #459447",
"n. c #52994E",
"m. c #4F9B50",
"M. c #539953",
"N. c #518C4B",
"B. c #4EA74F",
"V. c #44B144",
"C. c #4CB24D",
"Z. c #46B549",
"A. c #4EA351",
"S. c #52A451",
"D. c #52AC53",
"F. c #59AB58",
"G. c #4FB350",
"H. c #55B356",
"J. c #56B957",
"K. c #57B458",
"L. c #5BB55C",
"P. c #57BA58",
"I. c #58BB5A",
"U. c #51B14A",
"Y. c #738F74",
"T. c #63B764",
"R. c #63B864",
"E. c #6AB96A",
"W. c #6DB56C",
"Q. c #79A679",
"!. c #78BE78",
"~. c #6AAF66",
"^. c #5AC35C",
"/. c #7EC17F",
"(. c #807F81",
"). c #858687",
"_. c #86938C",
"`. c #9FBC9F",
"'. c #8DB08E",
"]. c #A29CA1",
"[. c #A6A7A6",
"{. c #A3A6AA",
"}. c #ABABAB",
"|. c #A8A1A7",
" X c #ACAFB0",
".X c #B4B4B5",
"XX c #BABABA",
"oX c #B5BBB4",
"OX c #A3B6A3",
"+X c #C0BBBE",
"@X c #9ECC9E",
"#X c #A5C8A6",
"$X c #A8D1A8",
"%X c #BEDBBF",
"&X c #C1BFC2",
"*X c #C5C6C5",
"=X c #C8D8C8",
"-X c #D3D4D3",
";X c #DBDADB",
":X c #D9D7DA",
">X c #DCEBDC",
",X c #D9E6D9",
"<X c #CCE2CC",
"1X c #E0E0DF",
"2X c #ECECEC",
"3X c #E3EFE2",
"4X c #F3F3F4",
"5X c #F5F9F5",
"6X c #FEFEFE",
"7X c None",
/* pixels */
"7X7X7X7X7X7X7X7X7X7X7X7X7X7X7X7X7X7X7X7X7X7X7X7X7X7X7X7X7X7X7X7X7X7X7X7X7X7X7X7X7X7X7X7X7X7X7X7X7X7X7X7X7X7X7X7X7X7X7X7X",
"7X7X7X7X7X7X7X7X7X7X7X7X7X7X7X7X7X7X7X7X7X7X7X7X7X7X7X7X7X7X7X7X7X7X7X7X7X7X7X7X7X7X7X7X7X7X7X7X7X7X7X7X7X7X7X7X7X7X7X7X",
"7X7X7X7X7X7X7X7X7X7X7X7X7X7X7X7X7X7X7X7X7X7X7X7X7X7X7X7X7X7X7X7X7X7X7X7X7X7X7X7X7X7X7X7X7X7X7X7X7X7X7X7X7X7X7X7X7X7X7X7X",
"7X7X7X7X7X7X7X7X7X7X7X7X7X7X7X7X7X7X7X7X7X7X7X7X7X7X7X7X7X7X7X7X7X7X7X7X7X7X7X7X7X7X7X7X7X7X7X7X7X7X7X7X7X7X7X7X7X7X7X7X",
"7X7X7X7X7X7X7X7X7X7X7X7X7X7X7X7X7X7X7X7X7X7X7X7X7X7X7X7X7X7X7X7X7X7X7X7X7X7X7X7X7X7X7X7X7X7X7X7X7X7X7X7X7X7X7X7X7X7X7X7X",
"7X7X7X7X7X7X7X7X7X7X7X7X7X7X7X7X7X7X7X7X7X7X7X7X7X7X7X7X7X7X7X7X7X7X7X7X7X7X7X7X7X7X7X7X7X7X7X7X7X7X7X7X7X7X7X7X7X7X7X7X",
"7X7X7X7X7X7X7X7X7X7X7X7X7X7X7X7X7X7X7X7X7X7X7X7X7X7X7X7X7X7X7X7X7X7X7X7X7X7X7X7X7X7X7X7X7X7X7X7X7X7X7X7X7X7X7X7X7X7X7X7X",
"7X7X7X7X7X7X7X7X7X7X7X7X7X7X7X7X7X7X7X7X7X7X7X7X7X7X7X7X7X7X7X7X7X7X7X7X7X7X7X7X7X7X7X7X7X7X7X7X7X7X7X7X7X7X7X7X7X7X7X7X",
"7X7X7X7X7X7X7X7X7X7X7X7X7X7X7X7X7X7X7X7X7X7X7X7X7X7X7X7X7X7X7X7X7X7X7X7X7X7X7X7X7X7X7X7X7X7X7X7X7X7X7X7X7X7X7X7X7X7X7X7X",
"7X7X7X7X7X7X7X7X7X7X7X7X7X7X7X7X7X7X7X7X7X7X7X7X7X7X7X7X7X7X7X7X7X7X7X7X7X7X7X7X7X7X7X7X7X7X7X7X7X7X7X7X7X7X7X7X7X7X7X7X",
"7X7X7X7X7X7X7X7X7X7X7X7X7X7X7X7X7X7X7X7X7X7X7X7X7X7X7X7X7X7X7X7X7X7X7X7X7X7X7X7X7X7X7X7X7X7X7X7X7X7X7X7X7X7X7X7X7X7X7X7X",
"7X7X7X7X7X7X7X7X7X7X7X7X7X7X7X7X7X7X7X7X7X7X7X7X7X7X7X7X7X7X7X7X7X7X7X7X7X7X7X7X7X7X7X7X7X7X7X7X7X7X7X7X7X7X7X7X7X7X7X7X",
"7X7X7X7X7X7X7X7X7X7X7X7X7X7X7X7X7X7X7X7X7X7X7X7X7X7X7X7X7X7X7X7X7X7X7X7X7X7X7X7X7X7X7X7X7X7X7X7X7X7X7X7X7X7X7X7X7X7X7X7X",
"7X7X7X7X7X7X7X7X7X7X7X7X7X7X7X7X7X7X7X7X7X7X7X7X7X7X7X7X7X7X7X7X7X7X7X7X7X7X7X7X7X7X7X7X7X7X7X7X7X7X7X7X7X7X7X7X7X7X7X7X",
"7X7X7X7X7X7X7X7X7X7X7X7X7X7X7X7X7X7X7X7X7X7X7X7X7X7X7X7X7X7X7X7X7X7X7X7X7X7X7X7X7X7X7X7X7X7X7X7X7X7X7X7X7X7X7X7X7X7X7X7X",
"7X7X7X7X7X7X7X7X7X7X7X7X7X7X7X7X7X7X7X7X7X7X7X7X7X7X7X7X7X7X7X7X7X7X7X7X7X7X7X7X7X7X7X7X7X7X7X7X7X7X7X7X7X7X7X7X7X7X7X7X",
"7X7X7X7X7X7X7X7X7X7X7X7X7X7X7X7X7X7X7X7X7X7X7X7X7X7X7X7X7X7X7X7X7X7X7X7X7X7X7X7X7X7X7X7X7X7X7X7X7X7X7X7X7X7X7X7X7X7X7X7X",
"7X7X7X7X7X7X7X7X7X7X7X7X7X7X7X7X7X7X7X7X7X7X7X7X7X7X7X7X7X7X7X7X7X7X7X7X7X7X7X7X7X7X7X7X7X7X7X7X7X7X7X7X7X7X7X7X7X7X7X7X",
"7X7X7X7X7X7X7X7X7X7X7X7X7X7X7X7X7X7X7X7X7X7X7X7X7X7X7X7X7X7X7X7X7X7X7X7X7X7X7X7X7X7X7X7X7X7X7X7X7X7X7X7X7X7X7X7X7X7X7X7X",
"7X7X7X7X7X7X7X7X7X7X7X7X7X7X7X7X7X7X7X7X7X7X7X7X7X7X7X7X7X7X7X7X7X7X7X7X7X7X7X7X7X7X7X7X7X7X7X7X7X7X7X7X7X7X7X7X7X7X7X7X",
"7X7X7X7X7X7X7X7X7X7X7X7X7X7X7X7X7X7X7X7X7X7X7X7X7X7X7X7X7X7X7X7X7X7X7X7X7X7X7X7X7X7X7X7X7X7X7X7X7X7X7X7X7X7X7X7X7X7X7X7X",
"7X7X7X7X7X7X7X7X7X7X7X7X7X7X7X7X7X7X7X7X7X7X7X7X7X7X7X7X7X7X7X7X7X7X7X7X7X7X7X7X7X7X7X7X7X7X7X7X7X7X7X7X7X7X7X7X7X7X7X7X",
"7X7X7X7X7X7X7X7X7X7X7X7X7X7X7X7X7X7X7X7X7X7X7X7X7X7X7X7X7X7X7X7X7X7X7X7X7X7X7X7X7X7X7X7X7X7X7X7X7X7X7X7X7X7X7X7X7X7X7X7X",
"7X7X7X7X7X7X7X7X7X7X7X7X7X7X7X7X7X7X7X7X7X7X7X7X7X7X7X7X7X7X7X7X7X7X7X7X7X7X7X7X7X7X7X7X7X7X7X7X7X7X7X7X7X7X7X7X7X7X7X7X",
"7X7X7X7X7X7X7X7X7X7X7X7X7X7X7X7X7X7X7X7X7X7X7X7X7X7X7X7X7X7X7X7X7X7X7X7X7X7X7X7X7X7X7X7X7X7X7X7X7X7X7X7X7X7X7X7X7X7X7X7X",
"7X7X7X7X7X7X7X7X7X7X7X7X7Xp g g g g g a , 7X7X7X7X7X7X7X7X7X7X7X7X7X7X7X7X7X7X7X7X7X7X7X7X7X7X7X7X7X7X7X7X7X7X7X7X7X7X7X",
"7X7X7X7X7X7X7X7X7X7X7X7X7X6 4 4 4 4 0 8 % 7X7X7X7X7X7X7X7X7X7X7X7X7X7X7X7X7X7X7X7X7X7X7X7X7X7X7X7X7X7X7X7X7X7X7X7X7X7X7X",
"7X7X7X7X7X7X7X7X7X7X7X$ @.B.v.v.v.v.1.x.@.& ; 7X7X7X7X7X7X; > ; ; ; > ; ; > ; ; > 7X7X7X7X7X7X7X7X7X7X7X7X7X7X7X7X7X7X7X",
"7X7X7X7X7X7X7X7X7X7Xr 4 l.I.J.J.J.J.c.v.x.i 8 7X7X7X7X7X7Xr a a a a a a a a a g a , 7X7X7X7X7X7X7X7X7X7X7X7X7X7X7X7X7X7X",
"7X7X7X7X7X7X7X7X7X7XP d @.J.H.H.H.H.c.v.,.f Y y 7X7X7X7X8 Z c x g f x c c x x j c d 7X7X7X7X7X7X7X7X7X7X7X7X7X7X7X7X7X7X",
"7X7X7X7X7X7X7X7X% P H.H.H.H.K.H.H.H.H.H.A.z.c.T * r p - *.w.w.&.g S 7.w.9.9.0.=.] ] f , 7X7X7X7X7X7X7X7X7X7X7X7X7X7X7X7X",
"7X7X7X7X7X7X7X> 4 L D.J.H.H.H.H.H.H.K.K.D.z.c.R 4 i g - [ r.r.&.p S w.r.w.w.w.=.` ] x p - 7X7X7X7X7X7X7X7X7X7X7X7X7X7X7X",
"7X7X7X7X7X7X7X@.@.>.D.L.K.H.H.H.H.H.H.J.D.m.A.>.U U / F =.w.w.*.Z / -.-.7.0.w.-.=.=.A A V 7X7X7X7X7X7X7X7X7X7X7X7X7X7X7X",
"7X7X7X7X7X* s S.^.H.H.Z.H.J.H.H.H.H.H.H.H.I.K.S.b.M.r.e.w.0.w.=.] { Z e &.w.w.w.w.w.{ { ` r < 7X7X7X7X7X7X7X7X7X7X7X7X7X",
"7X7X7X7X7Xp 5 c.I.D.Z.V.C.J.J.K.H.H.H.H.H.H.H.n.x.N.q.0.w.w.w.=.' ` S x *.w.w.0.w.9.] ] F p a 7X7X7X7X7X7X7X7X7X7X7X7X7X",
"7X7X7X% @.m.b.F.Z.E.=X,X#XW E S.J.H.H.H.L.R.L.L.S.F.q.8.0.w.w.6.6.6./ ^ [ *.&.7.w.0.6.6.=.D ` C > s y y 7X7X7X7X7X7X7X7X",
"7X7Xr 4 ,.^.J.R.d./.5X6X:Xq 1 c.I.H.H.K.C.f.g.V.Z.C.q.w.r.w.w.r.r.w.{ { ' z t -.r.0.r.e.9.] { D t p 6 3 $ 7X7X7X7X7X7X7X",
"7X7Xr 5 E K.D.L.j.!.;X4X*Xa 0 v.J.H.H.C.T.!.!.W.E.~.q.7.9.8.0.0.w.9.{ ] / A v -.r.0.9.9.6.` ] A f c L U I 7X7X7X7X7X7X7X",
"7X7Xr 4 E J.H.H.H.D.Y.(.4.z 9 v.J.H.E.C.$X5X4X=XoXoX:._ { { { 6.w.9.{ ] / v c -.r.7.{ { { ` ] [ H } S.H.v.Y r 7X7X7X7X7X",
"7X7Xr 4 E J.H.H.I.D.X     4 + c.J.H.p.y.@X6X6X;X+X+X;.H { { ` 7.e.w.{ ] ' Z x 6.e.0.| ] ] | | ] J | H.^.c.2 * 7X7X7X7X7X",
"7X7Xr 4 E I.H.H.H.H.N.<.<.@.X.S.C.L.$X$X<X6X6X:XXXXX:.G / ' / =.7.6.{ ] / Z c =.7.6.` ^ / ^ F ..2.2.D.J.v.,.x.Q 7X7X7X7X",
"7X7Xr 4 E J.H.H.H.H.H.J.K.K.H.R.H.!.6X6X6X6X6X-XXXXX%.k ~ Z v ^ ] ` ] { ^ Z Z ^ ] ` ! v ! ! C l.c.c.H.H.H.H.P.l.3 , 7X7X",
"7X7Xr 7 E J.H.H.H.K.H.H.H.H.J.h.i.H.6X6X6X6X6X;X*X+X%.@ N B q H { ] ] { ' v Z ^ | ] B B B M m >.c.c.J.I.H.J.^.E w r 7X7X",
"7X7Xr 4 E J.H.H.H.H.H.H.H.L.h.%X3X,X6X6X4X-X:XOXQ.Q.M.v.c.<.1.) D ( S D S Z Z S D ( 1.1.x.n.n.S.D.S.@.T E T E L i < 7X7X",
"7X7Xr 0 @.J.K.H.H.H.C.H.C.H.i.>X6X6X6X6X2X.X+XQ.t.b.D.J.D.c.v. .q Z c C C C C C B L c.b.S.J.J.J.I.H.L 2 9 5 4 d x < 7X7X",
"7X7X> * k.J.D.H.H.H.R.R.R.E.V.>X6X6X6X6X2X.X&X'.s.M.H.K.D.z.c.>.C ~ ! ! ! ! ! ~ ! ~ z.c.v.L.H.H.H.D.P * h r r < < ; 7X7X",
"7X7X7X7Xu U n $.. 4.2X6X5X6X6X6X6X6X*X*X|.o Z x.c.c.H.K.H.H.H.H.H.H.D.K.K.H.D.K.K.D.H.H.H.H.L.,.x P 7X7X7X7X7X7X7X7X7X7X",
"7X7X7X7X7X6 i Z   5.4X6X6X6X6X6X6X6X*X*X}.  9 Q u.a.g.g.V.J.J.I.J.J.J.K.J.I.J.J.I.I.P.P.H.g.h.K     7X7X7X7X7X7X7X7X7X7X",
"7X7X7X7X7X: : z   5.;X1X:X;X;X;X;X;X}.{._.o + _.#X`.#X$X'.B.n.v.n.v.v.v.v.v.v.v.v.v.v.b.W.$X$X'.].{.3.7X7X7X7X7X7X7X7X7X",
"7X7X7X7X7X7X7X7X7X7X                    o x   ,X6X6X6X6X:X* w 4 4 4 4 4 4 4 4 2 4 2 q   |.6X6X6X6X5X).  o.7X7X7X7X7X7X7X",
"7X7X7X7X7X7X7X7X7X7Xa o.o.o.o.+.o.o.x x b s s :X6X6X6X6X;Xh g z g g g g g g g g g h b    X6X6X6X6X4X(.  o.7X7X7X7X7X7X7X",
"7X7X7X7X7X7X7X7X7X7X7X7X7X7X7X7X7X7X7X7X7X7X7X{..X}.}.XX[.7X7X7X7X7X7X7X7X7X7X7X7X7X7X7X).+X}.}..X.X3.7X7X7X7X7X7X7X7X7X",
"7X7X7X7X7X7X7X7X7X7X7X7X7X7X7X7X7X7X7X7X7X7X7X            7X7X7X7X7X7X7X7X7X7X7X7X7X7X7X7X          7X7X7X7X7X7X7X7X7X7X",
"7X7X7X7X7X7X7X7X7X7X7X7X7X7X7X7X7X7X7X7X7X7X7X7X#.#.#.O.7X7X7X7X7X7X7X7X7X7X7X7X7X7X7X7X7Xo.#.#.+.o.7X7X7X7X7X7X7X7X7X7X",
"7X7X7X7X7X7X7X7X7X7X7X7X7X7X7X7X7X7X7X7X7X7X7X7X7X7X7X7X7X7X7X7X7X7X7X7X7X7X7X7X7X7X7X7X7X7X7X7X7X7X7X7X7X7X7X7X7X7X7X7X",
"7X7X7X7X7X7X7X7X7X7X7X7X7X7X7X7X7X7X7X7X7X7X7X7X7X7X7X7X7X7X7X7X7X7X7X7X7X7X7X7X7X7X7X7X7X7X7X7X7X7X7X7X7X7X7X7X7X7X7X7X",
"7X7X7X7X7X7X7X7X7X7X7X7X7X7X7X7X7X7X7X7X7X7X7X7X7X7X7X7X7X7X7X7X7X7X7X7X7X7X7X7X7X7X7X7X7X7X7X7X7X7X7X7X7X7X7X7X7X7X7X7X",
"7X7X7X7X7X7X7X7X7X7X7X7X7X7X7X7X7X7X7X7X7X7X7X7X7X7X7X7X7X7X7X7X7X7X7X7X7X7X7X7X7X7X7X7X7X7X7X7X7X7X7X7X7X7X7X7X7X7X7X7X",
"7X7X7X7X7X7X7X7X7X7X7X7X7X7X7X7X7X7X7X7X7X7X7X7X7X7X7X7X7X7X7X7X7X7X7X7X7X7X7X7X7X7X7X7X7X7X7X7X7X7X7X7X7X7X7X7X7X7X7X7X",
"7X7X7X7X7X7X7X7X7X7X7X7X7X7X7X7X7X7X7X7X7X7X7X7X7X7X7X7X7X7X7X7X7X7X7X7X7X7X7X7X7X7X7X7X7X7X7X7X7X7X7X7X7X7X7X7X7X7X7X7X"
};
