/* XPM */
static char *result[] = {
/* columns rows colors chars-per-pixel */
"60 60 218 2 ",
"   c black",
".  c #090815",
"X  c #151513",
"o  c #1D081D",
"O  c #003D0E",
"+  c #030021",
"@  c #020B24",
"#  c #0F0325",
"$  c #150225",
"%  c #1D0025",
"&  c #140826",
"*  c #0E1426",
"=  c #0F1B26",
"-  c #141B26",
";  c #1C1D2A",
":  c #191527",
">  c #220021",
",  c #290027",
"<  c #240029",
"1  c #2C0029",
"2  c #2C092B",
"3  c #241C2A",
"4  c #2D1D2C",
"5  c #29162A",
"6  c #32192A",
"7  c #3D1B36",
"8  c #32022F",
"9  c #002A29",
"0  c #0C2A2D",
"q  c #1C232A",
"w  c #1D2C2C",
"e  c #152829",
"r  c #1A332A",
"t  c #15312A",
"y  c #24222B",
"u  c #2C222B",
"i  c #242E2E",
"p  c #2C2D2E",
"a  c #222222",
"s  c #31252E",
"d  c #322D2E",
"f  c #3A232B",
"g  c #2B332E",
"h  c #24312C",
"j  c #32312F",
"k  c #3E2632",
"l  c #2C3230",
"z  c #253B30",
"x  c #343331",
"c  c #3B3432",
"v  c #313B30",
"b  c #3F3B35",
"n  c #373C3C",
"m  c #393B3D",
"M  c #34343A",
"N  c #2F2F36",
"B  c #570B0B",
"V  c #40002F",
"C  c #400330",
"Z  c #411D32",
"A  c #40302F",
"S  c #422633",
"D  c #422E32",
"F  c #423534",
"G  c #423A35",
"H  c #4C3C35",
"J  c #4E3834",
"K  c #523D36",
"L  c #563936",
"P  c #5B392F",
"I  c #682433",
"U  c #653A38",
"Y  c #743735",
"T  c #623B24",
"R  c #006700",
"E  c #194130",
"W  c #254532",
"Q  c #344B34",
"!  c #374534",
"~  c #2B5A39",
"^  c #275636",
"/  c #365336",
"(  c #395B39",
")  c #3A5E37",
"_  c #2A683C",
"`  c #3C6C3C",
"'  c #3E723F",
"]  c #257427",
"[  c #434337",
"{  c #484837",
"}  c #5C4237",
"|  c #5D4338",
" . c #57463A",
".. c #57583D",
"X. c #644437",
"o. c #634639",
"O. c #694739",
"+. c #6C4A3B",
"@. c #644B3D",
"#. c #67553C",
"$. c #6C4736",
"%. c #43663E",
"&. c #40763F",
"*. c #5D613E",
"=. c #3D3D42",
"-. c #413841",
";. c #3F4144",
":. c #3C6F40",
">. c #367942",
",. c #414246",
"<. c #4E4F4E",
"1. c #664B40",
"2. c #6B4E41",
"3. c #755142",
"4. c #7D5949",
"5. c #795647",
"6. c #6E5049",
"7. c #437641",
"8. c #437C43",
"9. c #487C44",
"0. c #497F4A",
"q. c #5D6946",
"w. c #575A67",
"e. c #6C6969",
"r. c #737478",
"t. c #843B39",
"y. c #963E3C",
"u. c #88312E",
"i. c #A53F3D",
"p. c #9A423E",
"a. c #835B4A",
"s. c #8A5D4C",
"d. c #915E50",
"f. c #884746",
"g. c #AE4441",
"h. c #A34A48",
"j. c #BB4946",
"k. c #B54643",
"l. c #8C614F",
"z. c #8E6350",
"x. c #8D6C52",
"c. c #936552",
"v. c #946A54",
"b. c #996A56",
"n. c #996353",
"m. c #C94B48",
"M. c #DB514E",
"N. c #178C1E",
"B. c #1C8A21",
"V. c #328D36",
"C. c #2B8D2F",
"Z. c #33AD34",
"A. c #32AF33",
"S. c #3E8144",
"D. c #448446",
"F. c #498E4A",
"G. c #448A47",
"H. c #4A934C",
"J. c #4C9B4D",
"K. c #459648",
"L. c #519C4E",
"P. c #4F9D50",
"I. c #519653",
"U. c #48B449",
"Y. c #4EA150",
"T. c #51A550",
"R. c #52AB53",
"E. c #5AAF55",
"W. c #55B356",
"Q. c #57B659",
"!. c #5DB25D",
"~. c #57BA58",
"^. c #58BC59",
"/. c #56B857",
"(. c #4FAE4C",
"). c #61AF5B",
"_. c #67B667",
"`. c #77A678",
"'. c #7BBF7B",
"]. c #5AC25B",
"[. c #7CC07D",
"{. c #878888",
"}. c #898C90",
"|. c gray62",
" X c #99979B",
".X c #869E87",
"XX c #83A383",
"oX c #9AAC9A",
"OX c #95BD95",
"+X c #A0A69F",
"@X c #A29CA1",
"#X c #A4A4A4",
"$X c #A2A5AA",
"%X c #ABABAB",
"&X c #A8A1A7",
"*X c #B4B4B5",
"=X c #BDBDBD",
"-X c #B1B8B0",
";X c #AEB4B0",
":X c #C0BDBF",
">X c #A3C9A4",
",X c #A4D1A4",
"<X c #BAC4BA",
"1X c #C5BFC5",
"2X c #C3C3C3",
"3X c #CCCDCD",
"4X c #D6D5D5",
"5X c #DBDBDC",
"6X c #D7D8D9",
"7X c #CBD1CB",
"8X c #E3DDE2",
"9X c #EBECEB",
"0X c #E2E2E2",
"qX c #F4F4F5",
"wX c #FEFEFE",
"eX c #F4FAF5",
"rX c #EFF5EE",
"tX c None",
/* pixels */
"tXtXtXtXtXtXtXtXtXtXtXtXtXtXtXtXtXtXtXtXtXtXtXtXtXtXtXtXtXtXtXtXtXtXtXtXtXtXtXtXtXtXtXtXtXtXtXtXtXtXtXtXtXtXtXtXtXtXtXtX",
"tXtXtXtXtXtXtXtXtXtXtXtXtXtXtXtXtXtXtXtXtXtXtXtXtXtXtXtXtXtXtXtXtXtXtXtXtXtXtXtXtXtXtXtXtXtXtXtXtXtXtXtXtXtXtXtXtXtXtXtX",
"tXtXtXtXtXtXtXtXtXtXtXtXtXtXtXtXtXtXtXtXtXtXtXtXtXtXtXtXtXtXtXtXtXtXtXtXtXtXtXtXtXtXtXtXtXtXtXtXtXtXtXtXtXtXtXtXtXtXtXtX",
"tXtXtXtXtXtXtXtXtXtXtXtXtXtXtXtXtXtXtXtXtXtXtXtXtXtXtXtXtXtXtXtXtXtXtXtXtXtXtXtXtXtXtXtXtXtXtXtXtXtXtXtXtXtXtXtXtXtXtXtX",
"tXtXtXtXtXtXtXtXtXtXtXtXtXtXtXtXtXtXtXtXtXtXtXtXtXtXtXtXtXtXtXtXtXtXtXtXtXtXtXtXtXtXtXtXtXtXtXtXtXtXtXtXtXtXtXtXtXtXtXtX",
"tXtXtXtXtXtXtXtXtXtXtXtXtXtXtXtXtXtXtXtXtXtXtXtXtXtXtXtXtXtXtXtXtXtXtXtXtXtXtXtXtXtXtXtXtXtXtXtXtXtXtXtXtXtXtXtXtXtXtXtX",
"tXtXtXtXtXtXtXtXtXtXtXtXtXtXtXtXtXtXtXtXtXtXtXtXtXtXtXtXtXtXtXtXtXtXtXtXtXtXtXtXtXtXtXtXtXtXtXtXtXtXtXtXtXtXtXtXtXtXtXtX",
"tXtXtXtXtXtXtXtXtXtXtXtXtXtXtXtXtXtXtXtXtXtXtXtXtXtXtXtXtXtXtXtXtXtXtXtXtXtXtXtXtXtXtXtXtXtXtXtXtXtXtXtXtXtXtXtXtXtXtXtX",
"tXtXtXtXtXtXtXtXtXtXtXtXtXtXtXtXtXtXtXtXtXtXtXtXtXtXtXtXtXtXtXtXtXtXtXtXtXtXtXtXtXtXtXtXtXtXtXtXtXtXtXtXtXtXtXtXtXtXtXtX",
"tXtXtXtXtXtXtXtXtXtXtXtXtXtXtXtXtXtXtXtXtXtXtXtXtXtXtXtXtXtXtXtXtXtXtXtXtXtXtXtXtXtXtXtXtXtXtXtXtXtXtXtXtXtXtXtXtXtXtXtX",
"tXtXtXtXtXtXtXtXtXtXtXtXtXtXtXtXtXtXtXtXtXtXtXtXtXtXtXtXtXtXtXtXtXtXtXtXtXtXtXtXtXtXtXtXtXtXtXtXtXtXtXtXtXtXtXtXtXtXtXtX",
"tXtXtXtXtXtXtXtXtXtXtXtXtXtXtXtXtXtXtXtXtXtXtXtXtXtXtXtXtXtXtXtXtXtXtXtXtXtXtXtXtXtXtXtXtXtXtXtXtXtXtXtXtXtXtXtXtXtXtXtX",
"tXtXtXtXtXtXtXtXtXtXtXtXtXtXtXtXtXtXtXtXtXtXtXtXtXtXtXtXtXtXtXtXtXtXtXtXtXtXtXtXtXtXtXtXtXtXtXtXtXtXtXtXtXtXtXtXtXtXtXtX",
"tXtXtXtXtXtXtXtXtXtXtXtXtXtXtXtXtXtXtXtXtXtXtXtXtXtXtXtXtXtXtXtXtXtXtXtXtXtXtXtXtXtXtXtXtXtXtXtXtXtXtXtXtXtXtXtXtXtXtXtX",
"tXtXtXtXtXtXtXtXtXtXtXtXtXtXtXtXtXtXtXtXtXtXtXtXtXtXtXtXtXtXtXtXtXtXtXtXtXtXtXtXtXtXtXtXtXtXtXtXtXtXtXtXtXtXtXtXtXtXtXtX",
"tXtXtXtXtXtXtXtXtXtXtXtXtXtXtXtXtXtXtXtXtXtXtXtXtXtXtXtXtXtXtXtXtXtXtXtXtXtXtXtXtXtXtXtXtXtXtXtXtXtXtXtXtXtXtXtXtXtXtXtX",
"tXtXtXtXtXtXtXtXtXtXtXtXtXtXtXtXtXtXtXtXtXtXtXtXtXtXtXtXtXtXtXtXtXtXtXtXtXtXtXtXtXtXtXtXtXtXtXtXtXtXtXtXtXtXtXtXtXtXtXtX",
"tXtXtXtXtXtXtXtXtXtXtXtXtXtXtXtXtXtXtXtXtXtXtXtXtXtXtXtXtXtXtXtXtXtXtXtXtXtXtXtXtXtXtXtXtX: y y y & tXtXtXtXtXtXtXtXtXtX",
"tXtXtXtXtXtXtXtXtXtXtXtXtXtXtXtXtXtXtXtXtXtXtXtXtXtXtXtXtXtXtXtXtXtXtXtXtXtXtXtXtXtXtXtXtXg s u s h tXtXtXtXtXtXtXtXtXtX",
"tXtXtXtXtXtXtXtXtXtXtXtXtXtXtXtXtXtXtXtXtXtXtXtXtXtXtXtXtXtXtXtXtXtXtXtXtXtXtXtXe w r & >.J.H.H.J.J.~ & tXtXtXtXtXtXtXtX",
"tXtXtXtXtXtXtXtXtXtXtXtXtXtXtXtXtXtXtXtXtXtXtXtXtXtXtXtXtXtXtXtXtXtXtXtXtXtXtX+ 5 5 5 > 8.]././.].W./ % # tXtXtXtXtXtXtX",
"tXtXtXtXtXtXtXtXtXtXtXtXtXtXtXtXtXtXtXtXtXtXtXtXtXtXtXtXtXtXtXtXtXtXtXtXtXtXtXW Q ! / Q >.Q.E.W.W.R.) / ~ tXtXtXtXtXtXtX",
"tXtXtXtXtXtXtXtXtXtXtXtXtXtXtXtXtXtXtXtXtXtXtXtXtXtXtXtXtXtXtXtXtXtXtXtXtXw i D.H.H.R.R.E.W.W.W.W.W.R.W.Y.z e tXtXtXtXtX",
"tXtXtXtXtXtXtXtXtXtXtXtXtXtXtXtXtXtXtXtXtXtXtXtXtXtXtXtXtXtXtXtXtXtXtXtXtX% 1 8.H.H.Q./.Q.W././.W.~.W.].H.1 % tXtXtXtXtX",
"tXtXtXtXtXtXtXtXtXtXtXtXtXtXtXtXtXtXtXtXtXtXtXtXtXtXtXtXtXtXtXtXtXtXtXtX^ :.( F.Y.P.R.W.R.R.Y.R.R.R.R.~.J.&.D._ tXtXtXtX",
"tXtXtXtXtXtXtXtXtXtXtXtXtXtXtXtXtXtXtXtXtXtXtXtXtXtXtXtXtXtXtXtXtXtXq 3 :.P.H.R././.W./.R.G.H.F.F.H.W.W.W.~.^.D.1 - tXtX",
"tXtXtXtXtXtXtXtXtXtXtXtXtXtXtXtXtXtXtXtXtXtXtXtXtXtXtXtXtXtXtXtXtXtX; 1 / H.F.R./.W.W./.R.F.H.H.F.H.W.W.W.W.~.' 2 q tXtX",
"tXtXtXtXtXtXtXtXtXtXtXtXtXtXtXtXtXtXtX* * * * * * * * * * * * = # E D.0.F.R.R.R.W.W.W./.R.F.H.H.H.H.W.W.W.W.~.' 1 q tXtX",
"tXtXtXtXtXtXtXtXtXtXtXtXtXtXtXtXtXtX- g p p p p p p p p p p p p u Q H.H.P././.W.W.W.W.W.R.F.H.H.F.H.W.Q.W.W.~.&.6 ; tXtX",
"tXtXtXtXtXtXtXtXtXtXtXtXtXtXtXtXtXtXd c d x j c j c x p x c x x s v F.H.P./.W.W.W./.W./.R.F.H.H.H.H.E.Q.R.W.~.S.$ * tXtX",
"tXtXtXtXtXtXtXtXtXtXtXtXtXtXtXtX= d O.X.3.c.z.z.z.s.H p @.c.c. .# Q R./.W.W.W.W.W.W.W.W.W.W.W.W.W.W.W.~.K.x Q E tXtXtXtX",
"tXtXtXtXtXtXtXtXtXtXtXtXtXtXtX@ p x O.X.3.c.c.c.b.z. .i 1.b.b. .+ W R./.W.W.W./.W.W.W.W.W.~.~././.Q.~.^.J.s % tXtXtXtXtX",
"tXtXtXtXtXtXtXtXtXtXtXtXtXtXtXF K H 3.3.4.c.c.a.a.4.} G 2.c.c.3.L ..E.W.W.W.W.W.W.~.W./.(.J.L.J.J.J.J.Y.H.0 @ tXtXtXtXtX",
"tXtXtXtXtXtXtXtXtXtXtXtXtX; y X.+.+.c.c.c.c.c.1.0 c +.O.5.c.c.v.n.v.E.W.W.W.W.W.W.W.W.^.H.> 1 , 1 1 , 1 # tXtXtXtXtXtXtX",
"tXtXtXtXtXtXtXtXtXtXtXtXtXp i K X.O.c.c.c.c.c.2.x H o.X.3.v.c.c.d.x.E.W.W.W.W.W.W.W.W.].J.5 v v v v g i - tXtXtXtXtXtXtX",
"tXtXtXtXtXtXtXtXr w y * F } L 5.a.a.z.c.a.@.2.o. .o.a.a.a.c.l.z.d.x.!.Q.!.!._.!.W.W.8.&.%.4 g d l u @ tXtXtXtXtXtXtXtXtX",
"tXtXtXtXtXtXtX. < 2 p e K +.O.l.b.c.c.c.4.i l | +.+.c.c.c.c.c.c.c.x.R.U.U.A.A.U.^.W.t . $ j p j x ; tXtXtXtXtXtXtXtXtXtX",
"tXtXtXtXtXtXtX~ ) Q c j J $.X.a.z.s.c.c.4.G G o.O.+.l.c.z.c.c.l.s.x._._._.'.[.!.(.Y.{ J G p g p l y tXtXtXtXtXtXtXtXtXtX",
"tXtXtXtXtXe z J./.T.#.X.@.O.X.+.+.2.z.c.4.M b | O.+.z.c.a.O.+.2.U 5.-X*X7XrXeX#XO q.p.i.t.i A d l y tXtXtXtXtXtXtXtXtXtX",
"tXtXtXtXtX% 1 H.].E.+.I +.+.+.O.$.+.c.b.4.c F o.O.+.c.b.s.X.O.2.T 4.2X2X8XwXwX X    i.m.y.9 9 h x q tXtXtXtXtXtXtXtXtXtX",
"tXtXtXtX_ G.7.J.~.R.q.q.*.P | | | o.a.a.3.b b | O.+.a.s.5.} X.@.P 6.oXoX<X9X9X2X%X%Xf.u.t.Y Y J i u tXtXtXtXtXtXtXtXtXtX",
"tXtX- < 8.^.W.W.W.W.H.J.G.b [ [ G G o.O.} b G } +.o.X.$.} m G G G ! G.N.`.:X*X9XwXqXe.9 2.g.g.Y 0 6 tXtXtXtXtXtXtXtXtXtX",
"tXtXq 8 ' ].~.~.~.~.H.H.9.V 8 S S S O.+.| G b o.+.+.X.+.} 7 S Z 8 F F.C..X1X*XrXwXeX<.  B j.k.I 9 0 tXtXtXtXtXtXtXtXtXtX",
"tXtXq u Q ' ` &.` :.T.R.L.L.L.F.8.9. .K H G G H K  . .J ..D.9.H.L.L.I.V.XX2X:X3X6X4X5X0X:XB U y.k.g.I . tXtXtXtXtXtXtXtX",
"tXtX; x p 1 2 4 , Q E.~.Q././.T.H.H.G c G F F F c F G 7 %.P.H.R.^.W.I.C.XX2X:X=X*X2XwXwX5X  9 i.M.m.U 9 6 tXtXtXtXtXtXtX",
"tXtX* ; ; q q i $ ~ W.Q.E.W.Q.J.H.F.{ [ [ [ [ [ [ [ { F %.H.F.R.Q.E.I.V.XX1X=X=X=X2XqXwX4Xm <.h.m.j.P 0 6 tXtXtXtXtXtXtX",
"tXtXtXtXtXtXtXtXtXtX~ x 0.^.Q.W.W.W.R.W.W.E.E.W.W.W.W.R.W.W.Q.Q.W.W.I.H.0.G q #X2X2X2X=X4XwXwX#X  <.j g ; tXtXtXtXtXtXtX",
"tXtXtXtXtXtXtXtXtXtX    R Z.A.(.~.~.^.~.~.~./././.^././.~.~.~.Z.Z.Z.B.N.] 4   #X3X2X2X=X5XwXwX#X          tXtXtXtXtXtXtX",
"tXtXtXtXtXtXtXtXtXw.$X@XoX,X,X`.K.J.J.J.J.J.J.J.J.J.J.J.J.J.K.OX,X>XOX>X.X> X }.%X#X#X|.=XqX9X:X{.@X X%X XtXtXtXtXtXtXtX",
"tXtXtXtXtXtXtX=.  {.qXwXwXwXwX&X  k , 1 1 1 1 1 1 1 1 1 1 8 > 5XwXwXwXwX8X  x X         e.=X;XqXwXwXwXwX5Xn . tXtXtXtXtX",
"tXtXtXtXtXtXtX=.  {.qXwXeXwXwX%X  n g l g g g g g g g g l g g 0XwXeXwXwX6Xy a m M x =.X }.3X<X9XwXeXwXwX6Xm . tXtXtXtXtX",
"tXtXtXtXtXtXtXtXtXw.*X*X%X%X=X}.tXtXtXtXtXtXtXtXtXtXtXtXtXtXtX$X=X%X%X*X$XtXtXtXtXtXtXtXr.}.r.#X*X%X%X*X$XtXtXtXtXtXtXtX",
"tXtXtXtXtXtXtXtXtXtX          tXtXtXtXtXtXtXtXtXtXtXtXtXtXtXtX            tXtXtXtXtXtXtXtX                tXtXtXtXtXtXtX",
"tXtXtXtXtXtXtXtXtXtX=.;.,.,.=.tXtXtXtXtXtXtXtXtXtXtXtXtXtXtXtXtX;.,.,.,.tXtXtXtXtXtXtXtXtXl M =.,.,.,.;.tXtXtXtXtXtXtXtX",
"tXtXtXtXtXtXtXtXtXtXtXtXtXtXtXtXtXtXtXtXtXtXtXtXtXtXtXtXtXtXtXtXtXtXtXtXtXtXtXtXtXtXtXtXtXtXtXtXtXtXtXtXtXtXtXtXtXtXtXtX",
"tXtXtXtXtXtXtXtXtXtXtXtXtXtXtXtXtXtXtXtXtXtXtXtXtXtXtXtXtXtXtXtXtXtXtXtXtXtXtXtXtXtXtXtXtXtXtXtXtXtXtXtXtXtXtXtXtXtXtXtX",
"tXtXtXtXtXtXtXtXtXtXtXtXtXtXtXtXtXtXtXtXtXtXtXtXtXtXtXtXtXtXtXtXtXtXtXtXtXtXtXtXtXtXtXtXtXtXtXtXtXtXtXtXtXtXtXtXtXtXtXtX",
"tXtXtXtXtXtXtXtXtXtXtXtXtXtXtXtXtXtXtXtXtXtXtXtXtXtXtXtXtXtXtXtXtXtXtXtXtXtXtXtXtXtXtXtXtXtXtXtXtXtXtXtXtXtXtXtXtXtXtXtX",
"tXtXtXtXtXtXtXtXtXtXtXtXtXtXtXtXtXtXtXtXtXtXtXtXtXtXtXtXtXtXtXtXtXtXtXtXtXtXtXtXtXtXtXtXtXtXtXtXtXtXtXtXtXtXtXtXtXtXtXtX",
"tXtXtXtXtXtXtXtXtXtXtXtXtXtXtXtXtXtXtXtXtXtXtXtXtXtXtXtXtXtXtXtXtXtXtXtXtXtXtXtXtXtXtXtXtXtXtXtXtXtXtXtXtXtXtXtXtXtXtXtX"
};
