/* XPM */
static char *result[] = {
/* columns rows colors chars-per-pixel */
"60 60 208 2 ",
"   c black",
".  c #0F080D",
"X  c #1D051C",
"o  c #151512",
"O  c #21001F",
"+  c #300017",
"@  c #201F1C",
"#  c #020021",
"$  c #0D0026",
"%  c #060C28",
"&  c #150024",
"*  c #1B0024",
"=  c #0E1325",
"-  c #091824",
";  c #131427",
":  c #131B25",
">  c #1B1E29",
",  c #250023",
"<  c #2A0027",
"1  c #260029",
"2  c #2C012A",
"3  c #2D0B2B",
"4  c #26082C",
"5  c #31072C",
"6  c #241C2A",
"7  c #2A192B",
"8  c #31132D",
"9  c #3D1B36",
"0  c #340432",
"q  c #07272A",
"w  c #1C242A",
"e  c #192A2B",
"r  c #1B312A",
"t  c #13352F",
"y  c #133D30",
"u  c #2E242D",
"i  c #252D2D",
"p  c #2B2C2E",
"a  c #252429",
"s  c #30272E",
"d  c #322B2E",
"f  c #2A332E",
"g  c #26342B",
"h  c #32302F",
"j  c #343423",
"k  c #3E2632",
"l  c #2C3230",
"z  c #293735",
"x  c #353332",
"c  c #3B3532",
"v  c #3F3B35",
"b  c #3B393D",
"n  c #353F36",
"m  c #40002E",
"M  c #400330",
"N  c #431F35",
"B  c #422632",
"V  c #432F31",
"C  c #423534",
"Z  c #423A35",
"A  c #4C3C35",
"S  c #4F3F38",
"D  c #523D36",
"F  c #5B3F37",
"G  c #543A37",
"H  c #583628",
"J  c #603F38",
"K  c #69302D",
"L  c #006700",
"P  c #364A34",
"I  c #324232",
"U  c #2E5A39",
"Y  c #285836",
"T  c #345236",
"R  c #3A5D39",
"E  c #2E4734",
"W  c #3D6C3C",
"Q  c #39663D",
"!  c #3E723E",
"~  c #276E32",
"^  c #434337",
"/  c #474739",
"(  c #5C4237",
")  c #514438",
"_  c #5D4439",
"`  c #4F5B3C",
"'  c #68402E",
"]  c #644437",
"[  c #634639",
"{  c #694739",
"}  c #624A3D",
"|  c #6C4A3B",
" . c #704C3C",
".. c #67553C",
"X. c #45663F",
"o. c #5D613E",
"O. c #40763F",
"+. c #3D3D41",
"@. c #413841",
"#. c #3F4144",
"$. c #397942",
"%. c #414146",
"&. c #414B40",
"*. c #544B4C",
"=. c #664B40",
"-. c #6B4D42",
";. c #755142",
":. c #7D5949",
">. c #785649",
",. c #69554D",
"<. c #427641",
"1. c #437C43",
"2. c #497D47",
"3. c #5D7242",
"4. c #5E6841",
"5. c #575A67",
"6. c #6F7274",
"7. c #835B4A",
"8. c #8A5D4C",
"9. c #915F50",
"0. c #8C614F",
"q. c #8E6350",
"w. c #8D6B51",
"e. c #936552",
"r. c #996A56",
"t. c #966954",
"y. c #008700",
"u. c #009E00",
"i. c #168A1D",
"p. c #00A800",
"a. c #19AC1C",
"s. c #1C8A21",
"d. c #348C37",
"f. c #2EAD2F",
"g. c #2FAD32",
"h. c #33AD34",
"j. c #37AE38",
"k. c #38B339",
"l. c #3E8044",
"z. c #458245",
"x. c #458A49",
"c. c #498D4A",
"v. c #438846",
"b. c #4A934C",
"n. c #4C9B4D",
"m. c #449647",
"M. c #52994E",
"N. c #4F9B50",
"B. c #539953",
"V. c #518C4B",
"C. c #4EA24F",
"Z. c #44B144",
"A. c #4DB34E",
"S. c #45BA4B",
"D. c #51B14A",
"F. c #4EA250",
"G. c #52A451",
"H. c #52AC53",
"J. c #5AAB58",
"K. c #4FB350",
"L. c #55B456",
"P. c #56B857",
"I. c #57B658",
"U. c #5AB55B",
"Y. c #57BA58",
"T. c #58BC59",
"R. c #739C74",
"E. c #63B764",
"W. c #63B864",
"Q. c #6AB86B",
"!. c #79A679",
"~. c #79BE7A",
"^. c #6BAF66",
"/. c #5AC35C",
"(. c #858687",
"). c #86938C",
"_. c #9FBC9F",
"`. c #8DB08E",
"'. c #A29CA1",
"]. c #A6A7A6",
"[. c #A3A6AA",
"{. c #ABABAB",
"}. c #A8A5A7",
"|. c #ACAFB0",
" X c #B4B4B5",
".X c #BABABA",
"XX c #B5BBB4",
"oX c #A3B6A3",
"OX c #C0BBBE",
"+X c #9ECC9E",
"@X c #A3C9A4",
"#X c #A8D1A8",
"$X c #BEDBBF",
"%X c #C1BFC2",
"&X c #C6C6C6",
"*X c #CED4CD",
"=X c #D3D4D3",
"-X c #DBDADB",
";X c #D7D8D9",
":X c #DCEBDC",
">X c #CCE2CC",
",X c #E0E0DF",
"<X c #ECECEC",
"1X c #E3EFE2",
"2X c #F4F4F4",
"3X c #F5F9F5",
"4X c #FEFEFE",
"5X c None",
/* pixels */
"5X5X5X5X5X5X5X5X5X5X5X5X5X5X5X5X5X5X5X5X5X5X5X5X5X5X5X5X5X5X5X5X5X5X5X5X5X5X5X5X5X5X5X5X5X5X5X5X5X5X5X5X5X5X5X5X5X5X5X5X",
"5X5X5X5X5X5X5X5X5X5X5X5X5X5X5X5X5X5X5X5X5X5X5X5X5X5X5X5X5X5X5X5X5X5X5X5X5X5X5X5X5X5X5X5X5X5X5X5X5X5X5X5X5X5X5X5X5X5X5X5X",
"5X5X5X5X5X5X5X5X5X5X5X5X5X5X5X5X5X5X5X5X5X5X5X5X5X5X5X5X5X5X5X5X5X5X5X5X5X5X5X5X5X5X5X5X5X5X5X5X5X5X5X5X5X5X5X5X5X5X5X5X",
"5X5X5X5X5X5X5X5X5X5X5X5X5X5X5X5X5X5X5X5X5X5X5X5X5X5X5X5X5X5X5X5X5X5X5X5X5X5X5X5X5X5X5X5X5X5X5X5X5X5X5X5X5X5X5X5X5X5X5X5X",
"5X5X5X5X5X5X5X5X5X5X5X5X5X5X5X5X5X5X5X5X5X5X5X5X5X5X5X5X5X5X5X5X5X5X5X5X5X5X5X5X5X5X5X5X5X5X5X5X5X5X5X5X5X5X5X5X5X5X5X5X",
"5X5X5X5X5X5X5X5X5X5X5X5X5X5X5X5X5X5X5X5X5X5X5X5X5X5X5X5X5X5X5X5X5X5X5X5X5X5X5X5X5X5X5X5X5X5X5X5X5X5X5X5X5X5X5X5X5X5X5X5X",
"5X5X5X5X5X5X5X5X5X5X5X5X5X5X5X5X5X5X5X5X5X5X5X5X5X5X5X5X5X5X5X5X5X5X5X5X5X5X5X5X5X5X5X5X5X5X5X5X5X5X5X5X5X5X5X5X5X5X5X5X",
"5X5X5X5X5X5X5X5X5X5X5X5X5X5X5X5X5X5X5X5X5X5X5X5X5X5X5X5X5X5X5X5X5X5X5X5X5X5X5X5X5X5X5X5X5X5X5X5X5X5X5X5X5X5X5X5X5X5X5X5X",
"5X5X5X5X5X5X5X5X5X5X5X5X5X5X5X5X5X5X5X5X5X5X5X5X5X5X5X5X5X5X5X5X5X5X5X5X5X5X5X5X5X5X5X5X5X5X5X5X5X5X5X5X5X5X5X5X5X5X5X5X",
"5X5X5X5X5X5X5X5X5X5X5X5X5X5X5X5X5X5X5X5X5X5X5X5X5X5X5X5X5X5X5X5X5X5X5X5X5X5X5X5X5X5X5X5X5X5X5X5X5X5X5X5X5X5X5X5X5X5X5X5X",
"5X5X5X5X5X5X5X5X5X5X5X5X5X5X5X5X5X5X5X5X5X5X5X5X5X5X5X5X5X5X5X5X5X5X5X5X5X5X5X5X5X5X5X5X5X5X5X5X5X5X5X5X5X5X5X5X5X5X5X5X",
"5X5X5X5X5X5X5X5X5X5X5X5X5X5X5X5X5X5X5X5X5X5X5X5X5X5X5X5X5X5X5X5X5X5X5X5X5X5X5X5X5X5X5X5X5X5X5X5X5X5X5X5X5X5X5X5X5X5X5X5X",
"5X5X5X5X5X5X5X5X5X5X5X5X5X5X5X5X5X5X5X5X5X5X5X5X5X5X5X5X5X5X5X5X5X5X5X5X5X5X5X5X5X5X5X5X5X5X5X5X5X5X5X5X5X5X5X5X5X5X5X5X",
"5X5X5X5X5X5X5X5X5X5X5X5X5X5X5X5X5X5X5X5X5X5X5X5X5X5X5X5X5X5X5X5X5X5X5X5X5X5X5X5X5X5X5X5X5X5X5X5X5X5X5X5X5X5X5X5X5X5X5X5X",
"5X5X5X5X5X5X5X5X5X5X5X5X5X5X5X5X5X5X5X5X5X5X5X5X5X5X5X5X5X5X5X5X5X5X5X5X5X5X5X5X5X5X5X5X5X5X5X5X5X5X5X5X5X5X5X5X5X5X5X5X",
"5X5X5X5X5X5X5X5X5X5X5X5X5X5X5X5X5X5X5X5X5X5X5X5X5X5X5X5X5X5X5X5X5X5X5X5X5X5X5X5X5X5X5X5X5X5X5X5X5X5X5X5X5X5X5X5X5X5X5X5X",
"5X5X5X5X5X5X5X5X5X5X5X5X5X5X5X5X5X5X5X5X5X5X5X5X5X5X5X5X5X5X5X5X5X5X5X5X5X5X5X5X5X5X5X5X5X5X5X5X5X5X5X5X5X5X5X5X5X5X5X5X",
"5X5X5X5X5X5X5X5X5X5X5X5X5X5X5X5X5X5X5X5X5X5X5X5X5X5X5X5X5X5X5X5X5X5X5X5X5X5X5X5X5X5X5X5X5X5X5X5X5X5X5X5X5X5X5X5X5X5X5X5X",
"5X5X5X5X5X5X5X5X5X5X5X5X5X5X5X5X5X5X5X5X5X5X5X5X5X5X5X5X5X5X5X5X5X5X5X5X5X5X5X5X5X5X5X5X5X5X5X5X5X5X5X5X5X5X5X5X5X5X5X5X",
"5X5X5X5X5X5X5X5X5X5X5X5X5X5X5X5X5X5X5X5X5X5X5X5X5X5X5X5X5X5X5X5X5X5X5X5X5X5X5X5X5X5X5X5X5X5X5X5X5X5X5X5X5X5X5X5X5X5X5X5X",
"5X5X5X5X5X5X5X5X5X5X5X5X5X5X5X5X5X5X5X5X5X5X5X5X5X5X5X5X5X5X5X5X5X5X5X5X5X5X5X5X5X5X5X5X5X5X5X5X5X5X5X5X5X5X5X5X5X5X5X5X",
"5X5X5X5X5X5X5X5X5X5X5X5X5X5X5X5X5X5X5X5X5X5X5X5X5X5X5X5X5X5X5X5X5X5X5X5X5X5X5X5X5X5X5X5X5X5X5X5X5X5X5X5X5X5X5X5X5X5X5X5X",
"5X5X5X5X5X5X5X5X5X5X5X5X5X5X5X5X5X5X5X5X5X5X5X5X5X5X5X5X5X5X5X5X5X5X5X5X5X5X5X5X5X5X5X5X5X5X5X5X5X5X5X5X5X5X5X5X5X5X5X5X",
"5X5X5X5X5X5X5X5X5X5X5X5X5X5X5X5X5X5X5X5X5X5X5X5X5X5X5X5X5X5X5X5X5X5X5X5X5X5X5X5X5X5X5X5X5X5X5X5X5X5X5X5X5X5X5X5X5X5X5X5X",
"5X5X5X5X5X5X5X5X5X5X5X5X5X5X5X5X5X5X5X5X5X5X5X5X5X5X5X5X5X5X5X5X5X5X5X5X5X5X5X5X5X5X5X5X5X5X5X5X5X5X5X5X5X5X5X5X5X5X5X5X",
"5X5X5X5X5X5X5X5X5X5X5X5X5X5X5X5X5X5X5X5X5X5X5X5X5X5X5X5X5X5X5X5X5X5X5X5X5X5X5X: p f f g g g i 5X5X5X5X5X5X5X5X5X5X5X5X5X",
"5X5X5X5X5X5X5X5X5X5X5X5X5X5X5X5X5X5X5X5X5X5X5X5X5X5X5X5X5X5X5X5X5X5X5X5X5X5X5X& u 3 2 2 2 2 4 5X5X5X5X5X5X5X5X5X5X5X5X5X",
"5X5X5X5X5X5X5X5X5X5X5X5X5X5X5X5X5X5X5X= = ; = = = ; = = = ; = 5X5X5X5X5X5X= % $.z.z.b.n.n.n.H.$.# 5X5X5X5X5X5X5X5X5X5X5X",
"5X5X5X5X5X5X5X5X5X5X5X5X5X5X5X5X5X5X: l p p p p p p p p p p w 5X5X5X5X5X5X6 u z.n.n.I.Y.L.Y.T.z.1 w 5X5X5X5X5X5X5X5X5X5X",
"5X5X5X5X5X5X5X5X5X5X5X5X5X5X5X5X5X5Xd c d x c x x x h p h c Z 6 5X5X5X5Xt E h z.b.b.L.I.L.L.P.<.s U 5X5X5X5X5X5X5X5X5X5X",
"5X5X5X5X5X5X5X5X5X5X5X5X5X5X5X5X: d { [ ;.e.q.q.e.8.S l =.e.t.-.% a w & Q n.x.F.I.L.L.L.L.L.L.L.I.L.U & 5X5X5X5X5X5X5X5X",
"5X5X5X5X5X5X5X5X5X5X5X5X5X5X5X% i x ] ] ;.e.e.e.e.e.) p =.e.e.} q p u 2 Q b.c.H.I.L.L.L.L.L.L.L.Y.H.P 1 ; 5X5X5X5X5X5X5X",
"5X5X5X5X5X5X5X5X5X5X5X5X5X5X5XV A A  .;.7.e.e.7.7.:._ C -.e.e.;.F _ Q T <.G.n.H.L.L.L.L.L.L.L.L.P.H.O.O.! 5X5X5X5X5X5X5X",
"5X5X5X5X5X5X5X5X5X5X5X5X5X> w ] |  .e.e.e.e.t.} q Z { { >.e.e.e.e.t.M.b.G.Y.I.L.I.L.L.L.L.L.P.L.L.I.Y./.F.a & 5X5X5X5X5X",
"5X5X5X5X5X5X5X5X5X5X5X5X5Xp f F [ { e.e.9.e.t.=.x A [ [ ;.t.e.e.e.q.c.x.N.L.L.L.L.L.L.L.L.I.I.L.I.L.H.Y.b.3 f 5X5X5X5X5X",
"5X5X5X5X5X5X5X5Xr r a ; C ( D ;.7.7.q.e.7.=.-.} ( [ 7.7.7.e.q.q.9.q.J.H.J.U.E.U.L.L.L.P.L.n.n.F.C.M.L.T.H.m.n.$.$ 5X5X5X",
"5X5X5X5X5X5X5X# 1 4 i e G  .{ 8.r.e.e.e.:.e l ( { | e.t.e.e.e.t.9.w.A.S.Z.h.f.A.I.L.L.P.H.c.b.b.c.b.L.L.L.P./.O.1 > 5X5X",
"5X5X5X5X5X5X5XY R P c d A { ] 7.q.q.e.e.7.Z Z [ { | 0.e.q.q.0.q.9.w.^.^.Q.~.~.E.K.L.L.L.G.x.c.c.v.c.L.L.L.L.P.! 3 w 5X5X",
"5X5X5X5X5Xe g n.I.G...J ..{ ] | | | q.e.:.c Z _ { | q.e.7.| | -.J >.#X X*X2X3X#XA.Q.L.L.n.n P T P Q H.L.L.L.T.! 2 w 5X5X",
"5X5X5X5X5X* 2 n./.J. .K { | | { { { e.r.7.x v [ | | e.r.7.] | | K >.%X%X-X4X4X+Xu.a.L.Y.m.X < , O g H.P.L.L.P.! 5 w 5X5X",
"5X5X5X5X~ v.<.n.Y.H.3.4.o.F _ _ _ [ 7.0. .v Z _ { | 7.8.>._ _ } H ,..X.X=X4X4X>X#X#XU.A.F.! z.! O.z.L.L.L.L.P.! 2 w 5X5X",
"5X5X> 1 1.T.L.L.L.L.b.n.z.c ^ ^ Z Z ] ] ( v Z _ | ] ] { _ v Z ^ j *..X.X=X4X4X4X4X4X~.L.W.L.Y.Y.Y.I.L.L.L.L.P.! 2 w 5X5X",
"5X5Xw 2 <./.T.T.T.P.b.b.O.0 0 N B B { | _ v c [ | | { | F 9 B N + *.%X%X-X4X4X4X4X3XL.p.j.I.L.P.L.L.L.L.L.L.P.! 3 w 5X5X",
"5X5X> s P $.W ! W ! F.H.G.M.M.V.2.2.) D ) Z Z A D ) ) G ` z.2.b.M.B.!.R.oX-X=X<X4X4X:X1X$Xj.I.L.L.L.L.L.L.L.P.! 2 w 5X5X",
"5X5X> x p 2 5 7 < P H.Y.U.P.P.G.b.b.Z V Z C C V C C v 9 X.n.c.H.T.L.m.y.!.&XXX<X4X4X4X4X:Xp.L.A.A.A.L.L.L.L.T.<.8 w 5X5X",
"5X5X= > > w w i & U L.L.H.U.P.M.b.b./ ^ ^ ^ ^ / ^ ^ / C X.n.c.H.P.L.B.d.).&XXX<X4X4X4X4X:XZ.Q.W.Q.W.L.L.L.L.Y.$.& ; 5X5X",
"5X5X5X5X5X5X5X5X5X5XU x 1.T.L.L.L.H.L.H.L.L.H.L.L.L.L.H.L.L.L.P.I.L.b.b.z.Z @ ].&X&X3X4X4X4X4X3X4X<X5.. / I U y 5X5X5X5X",
"5X5X5X5X5X5X5X5X5X5X    L k.h.D.T.Y.T.Y.Y.Y.Y.Y.P.Y.Y.Y.Y.Y.Y.Z.h.j.s.i.~ 7   ].&X&X4X4X4X4X4X4X4X2X(.  b u 4 5X5X5X5X5X",
"5X5X5X5X5X5X5X5X5X5.[.'.oX+X#X!.l.H.n.n.n.n.n.n.n.n.n.n.n.n.b.`.#X+X_.@X).O o ).[.}.-X-X-X-X-X-X1X-X6.  +.- - 5X5X5X5X5X",
"5X5X5X5X5X5X5X+.  (.2X4X4X4X4X}.  k 1 2 2 2 1 2 2 2 2 2 2 0 , -X4X4X4X4X-X  x o                     5X5X5X5X5X5X5X5X5X5X",
"5X5X5X5X5X5X5X+.  (.2X4X3X4X4X|.  I l l f f f f f f f f f f f :X4X4X3X4X-Xw a v x x #.#.#.#.P @.b p 5X5X5X5X5X5X5X5X5X5X",
"5X5X5X5X5X5X5X5X5X5. X X{.{..X(.5X5X5X5X5X5X5X5X5X5X5X5X5X5X5X}..X{.{. X[.5X5X5X5X5X5X5X5X5X5X5X5X5X5X5X5X5X5X5X5X5X5X5X",
"5X5X5X5X5X5X5X5X5X5X          5X5X5X5X5X5X5X5X5X5X5X5X5X5X5X5X            5X5X5X5X5X5X5X5X5X5X5X5X5X5X5X5X5X5X5X5X5X5X5X",
"5X5X5X5X5X5X5X5X5X5X+.#.%.%.+.5X5X5X5X5X5X5X5X5X5X5X5X5X5X5X5X5X@.%.%.%.5X5X5X5X5X5X5X5X5X5X5X5X5X5X5X5X5X5X5X5X5X5X5X5X",
"5X5X5X5X5X5X5X5X5X5X5X5X5X5X5X5X5X5X5X5X5X5X5X5X5X5X5X5X5X5X5X5X5X5X5X5X5X5X5X5X5X5X5X5X5X5X5X5X5X5X5X5X5X5X5X5X5X5X5X5X",
"5X5X5X5X5X5X5X5X5X5X5X5X5X5X5X5X5X5X5X5X5X5X5X5X5X5X5X5X5X5X5X5X5X5X5X5X5X5X5X5X5X5X5X5X5X5X5X5X5X5X5X5X5X5X5X5X5X5X5X5X",
"5X5X5X5X5X5X5X5X5X5X5X5X5X5X5X5X5X5X5X5X5X5X5X5X5X5X5X5X5X5X5X5X5X5X5X5X5X5X5X5X5X5X5X5X5X5X5X5X5X5X5X5X5X5X5X5X5X5X5X5X",
"5X5X5X5X5X5X5X5X5X5X5X5X5X5X5X5X5X5X5X5X5X5X5X5X5X5X5X5X5X5X5X5X5X5X5X5X5X5X5X5X5X5X5X5X5X5X5X5X5X5X5X5X5X5X5X5X5X5X5X5X",
"5X5X5X5X5X5X5X5X5X5X5X5X5X5X5X5X5X5X5X5X5X5X5X5X5X5X5X5X5X5X5X5X5X5X5X5X5X5X5X5X5X5X5X5X5X5X5X5X5X5X5X5X5X5X5X5X5X5X5X5X",
"5X5X5X5X5X5X5X5X5X5X5X5X5X5X5X5X5X5X5X5X5X5X5X5X5X5X5X5X5X5X5X5X5X5X5X5X5X5X5X5X5X5X5X5X5X5X5X5X5X5X5X5X5X5X5X5X5X5X5X5X"
};
