/* XPM */
static char *result[] = {
/* columns rows colors chars-per-pixel */
"60 60 213 2 ",
"   c #000000",
".  c #050615",
"X  c #001514",
"o  c #181718",
"O  c #190016",
"+  c #003D0E",
"@  c #020022",
"#  c #0A0826",
"$  c #190024",
"%  c #0E1427",
"&  c #0F1B26",
"*  c #141A27",
"=  c #1B1E29",
"-  c #171627",
";  c #051732",
":  c #220023",
">  c #2B0027",
",  c #230029",
"<  c #2C012A",
"1  c #2A0B2A",
"2  c #30002C",
"3  c #241C2A",
"4  c #2A182A",
"5  c #331C29",
"6  c #3D1B36",
"7  c #340432",
"8  c #012A2B",
"9  c #07292A",
"0  c #1C242A",
"q  c #1B2D2A",
"w  c #192628",
"e  c #1B312A",
"r  c #2B242B",
"t  c #242E2E",
"y  c #2B2C2D",
"u  c #232428",
"i  c #322C2E",
"p  c #30272D",
"a  c #2B332E",
"s  c #24312C",
"d  c #32302F",
"f  c #3D302F",
"g  c #2A2F35",
"h  c #3E2632",
"j  c #2C3430",
"k  c #2E3B30",
"l  c #293634",
"z  c #343331",
"x  c #3B3432",
"c  c #3E3B34",
"v  c #383B39",
"b  c #720000",
"n  c #6C1A19",
"m  c #40002F",
"M  c #400330",
"N  c #411D32",
"B  c #422633",
"V  c #422E32",
"C  c #423534",
"Z  c #423A35",
"A  c #4C3C34",
"S  c #4E3B35",
"D  c #533432",
"F  c #523D36",
"G  c #593B37",
"H  c #51342F",
"J  c #633A36",
"K  c #763837",
"L  c #692F2D",
"P  c #006700",
"I  c #254532",
"U  c #354B34",
"Y  c #364333",
"T  c #2A5837",
"R  c #365135",
"E  c #395B39",
"W  c #355938",
"Q  c #3D6D3D",
"!  c #32623A",
"~  c #3E723E",
"^  c #256E30",
"/  c #434337",
"(  c #474638",
")  c #5C4237",
"_  c #5D4338",
"`  c #57463A",
"'  c #57583D",
"]  c #644437",
"[  c #634639",
"{  c #694739",
"}  c #6C4A3B",
"|  c #644B3D",
" . c #67553C",
".. c #6C4736",
"X. c #45663F",
"o. c #40763F",
"O. c #5D613E",
"+. c #3D3E41",
"@. c #3F4144",
"#. c #3C6F40",
"$. c #3B7B42",
"%. c #377A41",
"&. c #424246",
"*. c #4D4B4B",
"=. c #4A4947",
"-. c #515251",
";. c #664B40",
":. c #6B4E41",
">. c #7D4140",
",. c #755142",
"<. c #7D5949",
"1. c #795647",
"2. c #6D554C",
"3. c #447641",
"4. c #447B42",
"5. c #487D47",
"6. c #5B6050",
"7. c #5E6D42",
"8. c #555865",
"9. c #5B616B",
"0. c #666364",
"q. c #853B39",
"w. c #9C3F3D",
"e. c #82302D",
"r. c #9B413E",
"t. c #A7423F",
"y. c #864947",
"u. c #835B4A",
"i. c #8A5D4C",
"p. c #915E50",
"a. c #AC4340",
"s. c #B44542",
"d. c #B94945",
"f. c #8C614F",
"g. c #8E6350",
"h. c #8D6C52",
"j. c #936552",
"k. c #946A54",
"l. c #996A56",
"z. c #996353",
"x. c #CC4C49",
"c. c #C34A47",
"v. c #D7504D",
"b. c #178C1F",
"n. c #1C8A21",
"m. c #328D36",
"M. c #2B8D2F",
"N. c #2FAE31",
"B. c #33AD34",
"V. c #33B034",
"C. c #458345",
"Z. c #498D4B",
"A. c #448A47",
"S. c #4A934C",
"D. c #4C9B4E",
"F. c #449845",
"G. c #519C4E",
"H. c #4E9E50",
"J. c #519653",
"K. c #4DA54F",
"L. c #48B449",
"P. c #4EA150",
"I. c #51A551",
"U. c #52AB53",
"Y. c #5AAF55",
"T. c #55B456",
"R. c #56B857",
"E. c #57B659",
"W. c #5DB25D",
"Q. c #57BA58",
"!. c #59BD5A",
"~. c #51AF49",
"^. c #61AF5B",
"/. c #67B667",
"(. c #77A678",
"). c #7BBF7B",
"_. c #59C35C",
"`. c #7CC07D",
"'. c #818283",
"]. c #8D9491",
"[. c #83A383",
"{. c #9AAC9A",
"}. c #9FBC9F",
"|. c #8ABD8B",
" X c #A0A69F",
".X c #A29CA1",
"XX c #A3A6AA",
"oX c #ACACAC",
"OX c #A5A2A5",
"+X c #ADAFB0",
"@X c #B5B5B6",
"#X c #BCBCBC",
"$X c #B1B8B0",
"%X c #AFB9B0",
"&X c #C2B9B9",
"*X c #A3C9A4",
"=X c #A4D1A4",
"-X c #BAC4BA",
";X c #C5BFC5",
":X c #C2C1C2",
">X c #CACACC",
",X c #D5D5D5",
"<X c #DBDADB",
"1X c #D7D7DA",
"2X c #CBD1CB",
"3X c #E3DDE2",
"4X c #EAEBEA",
"5X c #E4E4E4",
"6X c #F6F6F6",
"7X c #FEFEFE",
"8X c #F4FAF5",
"9X c #EFF5EE",
"0X c None",
/* pixels */
"0X0X0X0X0X0X0X0X0X0X0X0X0X0X0X0X0X0X0X0X0X0X0X0X0X0X0X0X0X0X0X0X0X0X0X0X0X0X0X0X0X0X0X0X0X0X0X0X0X0X0X0X0X0X0X0X0X0X0X0X",
"0X0X0X0X0X0X0X0X0X0X0X0X0X0X0X0X0X0X0X0X0X0X0X0X0X0X0X0X0X0X0X0X0X0X0X0X0X0X0X0X0X0X0X0X0X0X0X0X0X0X0X0X0X0X0X0X0X0X0X0X",
"0X0X0X0X0X0X0X0X0X0X0X0X0X0X0X0X0X0X0X0X0X0X0X0X0X0X0X0X0X0X0X0X0X0X0X0X0X0X0X0X0X0X0X0X0X0X0X0X0X0X0X0X0X0X0X0X0X0X0X0X",
"0X0X0X0X0X0X0X0X0X0X0X0X0X0X0X0X0X0X0X0X0X0X0X0X0X0X0X0X0X0X0X0X0X0X0X0X0X0X0X0X0X0X0X0X0X0X0X0X0X0X0X0X0X0X0X0X0X0X0X0X",
"0X0X0X0X0X0X0X0X0X0X0X0X0X0X0X0X0X0X0X0X0X0X0X0X0X0X0X0X0X0X0X0X0X0X0X0X0X0X0X0X0X0X0X0X0X0X0X0X0X0X0X0X0X0X0X0X0X0X0X0X",
"0X0X0X0X0X0X0X0X0X0X0X0X0X0X0X0X0X0X0X0X0X0X0X0X0X0X0X0X0X0X0X0X0X0X0X0X0X0X0X0X0X0X0X0X0X0X0X0X0X0X0X0X0X0X0X0X0X0X0X0X",
"0X0X0X0X0X0X0X0X0X0X0X0X0X0X0X0X0X0X0X0X0X0X0X0X0X0X0X0X0X0X0X0X0X0X0X0X0X0X0X0X0X0X0X0X0X0X0X0X0X0X0X0X0X0X0X0X0X0X0X0X",
"0X0X0X0X0X0X0X0X0X0X0X0X0X0X0X0X0X0X0X0X0X0X0X0X0X0X0X0X0X0X0X0X0X0X0X0X0X0X0X0X0X0X0X0X0X0X0X0X0X0X0X0X0X0X0X0X0X0X0X0X",
"0X0X0X0X0X0X0X0X0X0X0X0X0X0X0X0X0X0X0X0X0X0X0X0X0X0X0X0X0X0X0X0X0X0X0X0X0X0X0X0X0X0X0X0X0X0X0X0X0X0X0X0X0X0X0X0X0X0X0X0X",
"0X0X0X0X0X0X0X0X0X0X0X0X0X0X0X0X0X0X0X0X0X0X0X0X0X0X0X0X0X0X0X0X0X0X0X0X0X0X0X0X0X0X0X0X0X0X0X0X0X0X0X0X0X0X0X0X0X0X0X0X",
"0X0X0X0X0X0X0X0X0X0X0X0X0X0X0X0X0X0X0X0X0X0X0X0X0X0X0X0X0X0X0X0X0X0X0X0X0X0X0X0X0X0X0X0X0X0X0X0X0X0X0X0X0X0X0X0X0X0X0X0X",
"0X0X0X0X0X0X0X0X0X0X0X0X0X0X0X0X0X0X0X0X0X0X0X0X0X0X0X0X0X0X0X0X0X0X0X0X0X0X0X0X0X0X0X0X0X0X0X0X0X0X0X0X0X0X0X0X0X0X0X0X",
"0X0X0X0X0X0X0X0X0X0X0X0X0X0X0X0X0X0X0X0X0X0X0X0X0X0X0X0X0X0X0X0X0X0X0X0X0X0X0X0X0X0X0X0X0X0X0X0X0X0X0X0X0X0X0X0X0X0X0X0X",
"0X0X0X0X0X0X0X0X0X0X0X0X0X0X0X0X0X0X0X0X0X0X0X0X0X0X0X0X0X0X0X0X0X0X0X0X0X0X0X0X0X0X0X0X0X0X0X0X0X0X0X0X0X0X0X0X0X0X0X0X",
"0X0X0X0X0X0X0X0X0X0X0X0X0X0X0X0X0X0X0X0X0X0X0X0X0X0X0X0X0X0X0X0X0X0X0X0X0X0X0X0X0X0X0X0X0X0X0X0X0X0X0X0X0X0X0X0X0X0X0X0X",
"0X0X0X0X0X0X0X0X0X0X0X0X0X0X0X0X0X0X0X0X0X0X0X0X0X0X0X0X0X0X0X0X0X0X0X0X0X0X0X0X0X0X0X0X0X0X0X0X0X0X0X0X0X0X0X0X0X0X0X0X",
"0X0X0X0X0X0X0X0X0X0X0X0X0X0X0X0X0X0X0X0X0X0X0X0X0X0X0X0X0X0X0X0X0X0X0X0X0X0X0X0X0X0X0X0X0X0X0X0X0X0X0X0X0X0X0X0X0X0X0X0X",
"0X0X0X0X0X0X0X0X0X0X0X0X0X0X0X0X0X0X0X0X0X0X0X0X0X0X0X0X0X0X0X0X0X0X0X0X0X0X0X0X0X0X0X0X0X0X0X0X0X0X0X0X0X0X0X0X0X0X0X0X",
"0X0X0X0X0X0X0X0X0X0X0X0X0X0X0X0X0X0X0X0X0X0X0X0X0X0X0X0X0X0X0X0X0X0X0X0X0X0X0X0X0X0X0X0X0X0X0X0X0X0X0X0X0X0X0X0X0X0X0X0X",
"0X0X0X0X0X0X0X0X0X0X0X0X0X0X0X0X0X0X0X0X0X0X0X0X0X0X0X0X0X0X0X0X0X0X0X0X0X0X0X0Xw w q e e q e e q 0X0X0X0X0X0X0X0X0X0X0X",
"0X0X0X0X0X0X0X0X0X0X0X0X0X0X0X0X0X0X0X0X0X0X0X0X0X0X0X0X0X0X0X0X0X0X0X0X0X0X0X@ 3 4 1 1 1 1 1 1 > $ 0X0X0X0X0X0X0X0X0X0X",
"0X0X0X0X0X0X0X0X0X0X0X0X0X0X0X0X0X0X0X0X0X0X0X0X0X0X0X0X0X0X0X0X0X0X0X0X0X0X0XI U v R R R R T U W W 0X0X0X0X0X0X0X0X0X0X",
"0X0X0X0X0X0X0X0X0X0X0X0X0X0X0X0X0X0X0X0X0X0X0X0X0X0X0X0X0X0X0X0X0X0X0X0X0Xw t C.S.S.I.U.U.U.U.U.T.U.! - 0X0X0X0X0X0X0X0X",
"0X0X0X0X0X0X0X0X0X0X0X0X0X0X0X0X0X0X0X0X0X0X0X0X0X0X0X0X0X0X0X0X0X0X0X0X0X, < 4.S.S.Q.Q.Q.Q.Q.R.Q.T.Y : $ 0X0X0X0X0X0X0X",
"0X0X0X0X0X0X0X0X0X0X0X0X0X0X0X0X0X0X0X0X0X0X0X0X0X0X0X0X0X0X0X0X0X0X0X0XT #.E Z.P.P.U.T.U.T.T.U.R.U.4.C.%.0X0X0X0X0X0X0X",
"0X0X0X0X0X0X0X0X0X0X0X0X0X0X0X0X0X0X0X0X0X0X0X0X0X0X0X0X0X0X0X0X0X0Xw 3 #.H.S.U.Q.T.E.T.T.T.T.E.T.R.T.!.K.k 0 0X0X0X0X0X",
"0X0X0X0X0X0X0X0X0X0X0X0X0X0X0X0X0X0X0X0X0X0X0X0X0X0X0X0X0X0X0X0X0X0X= < R S.Z.U.R.T.T.T.T.Q.E.E.R.E.T.!.S.> , 0X0X0X0X0X",
"0X0X0X0X0X0X0X0X0X0X0X0X0X0X0X0X0X0X0X% % % % % % % % % % % % & @ I C.5.Z.U.U.U.T.T.T.Q.U.D.H.H.D.H.U.Q.I.S.U.%.@ 0X0X0X",
"0X0X0X0X0X0X0X0X0X0X0X0X0X0X0X0X0X0X* a y y t y y y y y y y y y p Y S.S.P.Q.Q.T.T.T.T.E.P.Z.S.S.Z.S.U.R.R.R.!.4.1 0 0X0X",
"0X0X0X0X0X0X0X0X0X0X0X0X0X0X0X0X0X0Xi x i x x d z z z y z x d z p k S.S.D.R.T.T.T.T.T.T.U.Z.S.S.S.S.T.T.T.T.R.Q < 0 0X0X",
"0X0X0X0X0X0X0X0X0X0X0X0X0X0X0X0X* i { { ,.j.g.i.j.i.A j ;.j.j._ # U U.T.T.T.T.T.T.T.T.R.U.Z.S.S.Z.S.U.R.T.T.R.~ < 0 0X0X",
"0X0X0X0X0X0X0X0X0X0X0X0X0X0X0X# t z ] ] ,.j.j.j.l.j.` s ;.l.l.` @ I U.E.T.T.T.T.T.T.T.T.U.Z.S.S.Z.S.T.T.T.R._.4.1 0 0X0X",
"0X0X0X0X0X0X0X0X0X0X0X0X0X0X0XV S S ,.,.u.j.j.u.<.<._ Z :.j.j.,.G ' Y.T.T.T.T.T.T.T.T.T.U.D.D.D.D.D.T.R.I.D.I.%.@ 0X0X0X",
"0X0X0X0X0X0X0X0X0X0X0X0X0X0 u [ } } j.j.j.g.j.;.9 Z { { ,.j.j.j.l.k.T.T.T.T.T.T.T.T.T.R.R.E.R.R.R.E.T.!.S.> , 0X0X0X0X0X",
"0X0X0X0X0X0X0X0X0X0X0X0X0Xy g ) ] { f.g.g.j.j.:.z A [ ] ,.j.j.j.p.h.Y.T.T.T.T.T.T.T.T.R.R.E.R.R.E.E.R.!.K.k 0 0X0X0X0X0X",
"0X0X0X0X0X0X0X0Xe e 3 % C _ S ,.u.u.j.j.i.| :.[ ) [ u.u.f.g.g.j.p.h.W.E.W./.W.T.T.T.C.o.o.4.3.3.$.o.o.C.~ 0X0X0X0X0X0X0X",
"0X0X0X0X0X0X0X. , 1 y w F } { f.l.l.g.l.<.t j _ } } j.l.j.j.j.j.p.k.~.L.L.N.N.U.!.T.e @ @ @ @ : > : > > @ 0X0X0X0X0X0X0X",
"0X0X0X0X0X0X0XT E U x d H { ] u.g.i.j.j.<.Z Z [ { :.f.j.g.f.f.f.i.h./././.).`.^.~.I.( D ( S A c k k k k q 0X0X0X0X0X0X0X",
"0X0X0X0X0Xq k D.E.I. .] | { [ } } :.g.l.<.z Z _ { } g.j.u.{ } :...1.-X%X2X9X8X{.+ 6.t.w.t.t.t.K t V d y * 0X0X0X0X0X0X0X",
"0X0X0X0X0X$ > S._.Y.} L } } } { { } g.l.<.x C [ { } j.l.i.] { :.L 2.:X;X3X7X7X.X    t.d.t.t.t.J 8 8 a i % 0X0X0X0X0X0X0X",
"0X0X0X0X! A.$.H.Q.U.7.7.O.) ) _ _ [ u.i.,.x c ) { { u.u.1.) _ _ D 2.{.{.-X4X4X:XoXoXy.e.r.s.s.w.q.q.f t 3 0X0X0X0X0X0X0X",
"0X0X* , $.Q.T.T.T.T.S.H.C.x / / Z Z [ { ) c Z ) { { [ { ) Y Z / Z U A.b.[.:X@X4X7X6X0.8 y.x.c.c.x.c.H 8 5 0X0X0X0X0X0X0X",
"0X0X0 2 4._.!.Q.Q.Q.S.S.3.m 7 N h B { :._ Z Z [ } } { } J h B N m V Z.M.[.;X@X4X7X6X-.  b v.x.x.v.x.D 8 5 0X0X0X0X0X0X0X",
"0X0X0 r U ~ Q #.Q #.P.U.I.J.G.Z.5.5.` F ( C Z S F ` ` S ' 5.5.S.G.G.J.m.[.;X;X2X,X,X<X5X&Xn y.K K K x g 3 0X0X0X0X0X0X0X",
"0X0X= z p < 1 5 > U Y.Q.E.R.R.I.S.S.c f C C C x x C x N X.D.S.U.!.T.G.M.[.:X:X-X@X:X7X7X<X  8 X X X o     0X0X0X0X0X0X0X",
"0X0X% = = 0 0 t $ T T.E.Y.T.E.D.S.Z.( / ( / ( / ( / ( C X.S.Z.U.R.T.J.m.[.&X#X#X#X:X6X7X,Xv -.*.*.*.*.0.9.0X0X0X0X0X0X0X",
"0X0X0X0X0X0X0X0X0X0XT z 5.!.E.T.T.T.U.T.T.T.T.Y.U.T.T.Y.T.T.T.T.E.Y.S.S.C.x v =.z -.#X:X,X7X6X7X6X7X6X7X<Xg . 0X0X0X0X0X",
"0X0X0X0X0X0X0X0X0X0X    P V.V.~.!.Q.Q.Q.Q.E.Q.Q.Q.Q.Q.Q.R.R.R.L.B.B.n.b.^ 4 u d   -.:X#X<X7X7X7X7X7X7X7X<X&.. 0X0X0X0X0X",
"0X0X0X0X0X0X0X0X0X8.XX.X{.=X=X(.F.H.D.D.D.D.D.D.D.D.D.H.D.H.D.|.=X*X}.*X[.O z g   8.+XOX@X3X<X<X<X<X1X5X>X; o 0X0X0X0X0X",
"0X0X0X0X0X0X0X+.  '.6X7X7X7X7XXX  6 > > > > < > < > > > > 7 : <X7X7X7X7X<X  u 0X0X0X.                     0X0X0X0X0X0X0X",
"0X0X0X0X0X0X0X+.  '.6X7X7X7X7X+X  Y g j a a j a a a a a j j a <X7X7X6X7X<Xu - 0X0X0Xu z v +.+.+.+.+.+.v r 0X0X0X0X0X0X0X",
"0X0X0X0X0X0X0X0X0X8.+X@XoXoX#X'.0X0X0X0X0X0X0X0X0X0X0X0X0X0X0XXX#XoXoX@XXX0X0X0X0X0X0X0X0X0X0X0X0X0X0X0X0X0X0X0X0X0X0X0X",
"0X0X0X0X0X0X0X0X0X0X          0X0X0X0X0X0X0X0X0X0X0X0X0X0X0X0X            0X0X0X0X0X0X0X0X0X0X0X0X0X0X0X0X0X0X0X0X0X0X0X",
"0X0X0X0X0X0X0X0X0X0X+.@.&.&.+.0X0X0X0X0X0X0X0X0X0X0X0X0X0X0X0X0X+.&.&.&.0X0X0X0X0X0X0X0X0X0X0X0X0X0X0X0X0X0X0X0X0X0X0X0X",
"0X0X0X0X0X0X0X0X0X0X0X0X0X0X0X0X0X0X0X0X0X0X0X0X0X0X0X0X0X0X0X0X0X0X0X0X0X0X0X0X0X0X0X0X0X0X0X0X0X0X0X0X0X0X0X0X0X0X0X0X",
"0X0X0X0X0X0X0X0X0X0X0X0X0X0X0X0X0X0X0X0X0X0X0X0X0X0X0X0X0X0X0X0X0X0X0X0X0X0X0X0X0X0X0X0X0X0X0X0X0X0X0X0X0X0X0X0X0X0X0X0X",
"0X0X0X0X0X0X0X0X0X0X0X0X0X0X0X0X0X0X0X0X0X0X0X0X0X0X0X0X0X0X0X0X0X0X0X0X0X0X0X0X0X0X0X0X0X0X0X0X0X0X0X0X0X0X0X0X0X0X0X0X",
"0X0X0X0X0X0X0X0X0X0X0X0X0X0X0X0X0X0X0X0X0X0X0X0X0X0X0X0X0X0X0X0X0X0X0X0X0X0X0X0X0X0X0X0X0X0X0X0X0X0X0X0X0X0X0X0X0X0X0X0X",
"0X0X0X0X0X0X0X0X0X0X0X0X0X0X0X0X0X0X0X0X0X0X0X0X0X0X0X0X0X0X0X0X0X0X0X0X0X0X0X0X0X0X0X0X0X0X0X0X0X0X0X0X0X0X0X0X0X0X0X0X",
"0X0X0X0X0X0X0X0X0X0X0X0X0X0X0X0X0X0X0X0X0X0X0X0X0X0X0X0X0X0X0X0X0X0X0X0X0X0X0X0X0X0X0X0X0X0X0X0X0X0X0X0X0X0X0X0X0X0X0X0X"
};
