/* XPM */
static char *result[] = {
/* columns rows colors chars-per-pixel */
"60 60 209 2 ",
"   c black",
".  c #00030A",
"X  c #11000E",
"o  c #00001F",
"O  c #140012",
"+  c #1D091D",
"@  c #151512",
"#  c #300017",
"$  c #201F1C",
"%  c #083708",
"&  c #020022",
"*  c #000E26",
"=  c #130024",
"-  c #1B0024",
";  c #0E1326",
":  c #081626",
">  c #151A26",
",  c #1C1F29",
"<  c #151627",
"1  c #230024",
"2  c #2A0027",
"3  c #230129",
"4  c #2C012A",
"5  c #2B0A2B",
"6  c #30002C",
"7  c #310F2D",
"8  c #251E2B",
"9  c #2E1D2C",
"0  c #31122C",
"q  c #3D1B36",
"w  c #340432",
"e  c #1C232A",
"r  c #1A292A",
"t  c #1B312A",
"y  c #0E2B2D",
"u  c #20242B",
"i  c #252D2E",
"p  c #2B2D2E",
"a  c #222222",
"s  c #322B2E",
"d  c #30272D",
"f  c #23342C",
"g  c #2A332E",
"h  c #31312F",
"j  c #343423",
"k  c #3E2632",
"l  c #2C3230",
"z  c #253B30",
"x  c #343332",
"c  c #3B3532",
"v  c #3F3B35",
"b  c #3A3A3C",
"n  c #373E3B",
"m  c #40002E",
"M  c #400330",
"N  c #431F35",
"B  c #422632",
"V  c #432F31",
"C  c #423534",
"Z  c #423A35",
"A  c #4C3C35",
"S  c #4F3F38",
"D  c #533C36",
"F  c #5B3F37",
"G  c #523535",
"H  c #583628",
"J  c #6F2335",
"K  c #603F38",
"L  c #633C25",
"P  c #1E5E1F",
"I  c #006500",
"U  c #2C4533",
"Y  c #354A34",
"T  c #324133",
"R  c #2E5A39",
"E  c #265736",
"W  c #385939",
"Q  c #2A663B",
"!  c #3D6B3D",
"~  c #38643B",
"^  c #3E713E",
"/  c #257427",
"(  c #434337",
")  c #454B38",
"_  c #49423A",
"`  c #5C4237",
"'  c #514438",
"]  c #5D4338",
"[  c #5C4F3D",
"{  c #4F5B3C",
"}  c #68402E",
"|  c #644437",
" . c #634639",
".. c #694739",
"X. c #624A3D",
"o. c #6C4A3B",
"O. c #704C3C",
"+. c #67553C",
"@. c #45663F",
"#. c #5D613E",
"$. c #40763F",
"%. c #3D3D42",
"&. c #373940",
"*. c #413841",
"=. c #3F4144",
"-. c #414146",
";. c #4C4C4B",
":. c #525352",
">. c #544B4C",
",. c #664B40",
"<. c #6B4D42",
"1. c #755142",
"2. c #7D5949",
"3. c #785649",
"4. c #69554D",
"5. c #5E6841",
"6. c #447643",
"7. c #427B42",
"8. c #4A7B48",
"9. c #5D7242",
"0. c #526B52",
"q. c #575A67",
"w. c #666865",
"e. c #6E717B",
"r. c #7A7A7B",
"t. c #835B4A",
"y. c #8A5D4C",
"u. c #915E50",
"i. c #8C614F",
"p. c #8E6350",
"a. c #8D6C52",
"s. c #936552",
"d. c #996A56",
"f. c #966654",
"g. c #937054",
"h. c #008700",
"j. c #168A1D",
"k. c #1C8A21",
"l. c #348C37",
"z. c #2EAD2F",
"x. c #2FAE31",
"c. c #33AD34",
"v. c #38B339",
"b. c #438245",
"n. c #468748",
"m. c #498D4A",
"M. c #458A48",
"N. c #4A934C",
"B. c #4C9B4E",
"V. c #429444",
"C. c #519C4E",
"Z. c #4F9B50",
"A. c #539853",
"S. c #4CA24F",
"D. c #4CA94D",
"F. c #51AF49",
"G. c #48B449",
"H. c #4DA251",
"J. c #51A451",
"K. c #52AB53",
"L. c #59AF55",
"P. c #55B356",
"I. c #56B857",
"U. c #57B659",
"Y. c #57BA58",
"T. c #58BB59",
"R. c #5BB459",
"E. c #61AF5B",
"W. c #739C74",
"Q. c #5EB160",
"!. c #62B764",
"~. c #6CB369",
"^. c #79A679",
"/. c #7BBF7B",
"(. c #5AC25C",
"). c #7CC07D",
"_. c #858687",
"`. c #8C9390",
"'. c #9FBC9F",
"]. c #8DB08E",
"[. c #A29CA1",
"{. c #A6A7A6",
"}. c #A4A9A4",
"|. c #A3A6AA",
" X c #ABABAA",
".X c #A8A1A7",
"XX c #ACAFB0",
"oX c #B4B4B5",
"OX c #BABABA",
"+X c #B5BBB4",
"@X c #A3B6A3",
"#X c #C0BBBE",
"$X c #A3C9A4",
"%X c #A4D1A4",
"&X c #BAC1BA",
"*X c #C1BFC2",
"=X c #C6C6C6",
"-X c #C9CCC9",
";X c #CED3CD",
":X c #D3D4D3",
">X c #DBDADB",
",X c #D7D8D9",
"<X c #E0E0DF",
"1X c #ECECEC",
"2X c #E1E1E1",
"3X c #F4F5F4",
"4X c #FEFEFE",
"5X c #F6FCF6",
"6X c None",
/* pixels */
"6X6X6X6X6X6X6X6X6X6X6X6X6X6X6X6X6X6X6X6X6X6X6X6X6X6X6X6X6X6X6X6X6X6X6X6X6X6X6X6X6X6X6X6X6X6X6X6X6X6X6X6X6X6X6X6X6X6X6X6X",
"6X6X6X6X6X6X6X6X6X6X6X6X6X6X6X6X6X6X6X6X6X6X6X6X6X6X6X6X6X6X6X6X6X6X6X6X6X6X6X6X6X6X6X6X6X6X6X6X6X6X6X6X6X6X6X6X6X6X6X6X",
"6X6X6X6X6X6X6X6X6X6X6X6X6X6X6X6X6X6X6X6X6X6X6X6X6X6X6X6X6X6X6X6X6X6X6X6X6X6X6X6X6X6X6X6X6X6X6X6X6X6X6X6X6X6X6X6X6X6X6X6X",
"6X6X6X6X6X6X6X6X6X6X6X6X6X6X6X6X6X6X6X6X6X6X6X6X6X6X6X6X6X6X6X6X6X6X6X6X6X6X6X6X6X6X6X6X6X6X6X6X6X6X6X6X6X6X6X6X6X6X6X6X",
"6X6X6X6X6X6X6X6X6X6X6X6X6X6X6X6X6X6X6X6X6X6X6X6X6X6X6X6X6X6X6X6X6X6X6X6X6X6X6X6X6X6X6X6X6X6X6X6X6X6X6X6X6X6X6X6X6X6X6X6X",
"6X6X6X6X6X6X6X6X6X6X6X6X6X6X6X6X6X6X6X6X6X6X6X6X6X6X6X6X6X6X6X6X6X6X6X6X6X6X6X6X6X6X6X6X6X6X6X6X6X6X6X6X6X6X6X6X6X6X6X6X",
"6X6X6X6X6X6X6X6X6X6X6X6X6X6X6X6X6X6X6X6X6X6X6X6X6X6X6X6X6X6X6X6X6X6X6X6X6X6X6X6X6X6X6X6X6X6X6X6X6X6X6X6X6X6X6X6X6X6X6X6X",
"6X6X6X6X6X6X6X6X6X6X6X6X6X6X6X6X6X6X6X6X6X6X6X6X6X6X6X6X6X6X6X6X6X6X6X6X6X6X6X6X6X6X6X6X6X6X6X6X6X6X6X6X6X6X6X6X6X6X6X6X",
"6X6X6X6X6X6X6X6X6X6X6X6X6X6X6X6X6X6X6X6X6X6X6X6X6X6X6X6X6X6X6X6X6X6X6X6X6X6X6X6X6X6X6X6X6X6X6X6X6X6X6X6X6X6X6X6X6X6X6X6X",
"6X6X6X6X6X6X6X6X6X6X6X6X6X6X6X6X6X6X6X6X6X6X6X6X6X6X6X6X6X6X6X6X6X6X6X6X6X6X6X6X6X6X6X6X6X6X6X6X6X6X6X6X6X6X6X6X6X6X6X6X",
"6X6X6X6X6X6X6X6X6X6X6X6X6X6X6X6X6X6X6X6X6X6X6X6X6X6X6X6X6X6X6X6X6X6X6X6X6X6X6X6X6X6X6X6X6X6X6X6X6X6X6X6X6X6X6X6X6X6X6X6X",
"6X6X6X6X6X6X6X6X6X6X6X6X6X6X6X6X6X6X6X6X6X6X6X6X6X6X6X6X6X6X6X6X6X6X6X6X6X6X6X6X6X6X6X6X6X6X6X6X6X6X6X6X6X6X6X6X6X6X6X6X",
"6X6X6X6X6X6X6X6X6X6X6X6X6X6X6X6X6X6X6X6X6X6X6X6X6X6X6X6X6X6X6X6X6X6X6X6X6X6X6X6X6X6X6X6X6X6X6X6X6X6X6X6X6X6X6X6X6X6X6X6X",
"6X6X6X6X6X6X6X6X6X6X6X6X6X6X6X6X6X6X6X6X6X6X6X6X6X6X6X6X6X6X6X6X6X6X6X6X6X6X6X6X6X6X6X6X6X6X6X6X6X6X6X6X6X6X6X6X6X6X6X6X",
"6X6X6X6X6X6X6X6X6X6X6X6X6X6X6X6X6X6X6X6X6X6X6X6X6X6X6X6X6X6X6X6X6X6X6X6X6X6X6X6X6X6X6X6X6X6X6X6X6X6X6X6X6X6X6X6X6X6X6X6X",
"6X6X6X6X6X6X6X6X6X6X6X6X6X6X6X6X6X6X6X6X6X6X6X6X6X6X6X6X6X6X6X6X6X6X6X6X6X6X6X6X6X6X6X6X6X6X6X6X6X6X6X6X6X6X6X6X6X6X6X6X",
"6X6X6X6X6X6X6X6X6X6X6X6X6X6X6X6X6X6X6X6X6X6X6X6X6X6X6X6X6X6X6X6X6X6X6X6X6X6X6X6X6X6X6X6X6X6X6X6X6X6X6X6X6X6X6X6X6X6X6X6X",
"6X6X6X6X6X6X6X6X6X6X6X6X6X6X6X6X6X6X6X6X6X6X6X6X6X6X6X6X6X6X6X6X6X6X6X6X6X6X6X6X6X6X6X6X6X6X6X6X6X6X6X6X6X6X6X6X6X6X6X6X",
"6X6X6X6X6X6X6X6X6X6X6X6X6X6X6X6X6X6X6X6X6X6X6X6X6X6X6X6X6X6X6X6X6X6X6X6X6X6X6X6X6X6X6X6X6X6X6X6X6X6X6X6X6X6X6X6X6X6X6X6X",
"6X6X6X6X6X6X6X6X6X6X6X6X6X6X6X6X6X6X6X6X6X6X6X6X6X6X6X6X6X6X6X6X6X6X6X6X6X6X6X6X6X6X6X6X6X6X6X6X6X6X6X6X6X6X6X6X6X6X6X6X",
"6X6X6X6X6X6X6X6X6X6X6X6X6X6X6X6X6X6X6X6X6X6X6X6X6X6X6X6X6X6X6X6X6X6X6X6X6X6X6X6X6X6X6X6X6X6X6X6X6X6X6X6X6X6X6X6X6X6X6X6X",
"6X6X6X6X6X6X6X6X6X6X6X6X6X6X6X6X6X6X6X6X6X6X6X6X6X6X6X6X6X6X6X6X6X6X6X6X6X6X6X6X6X6X6X6X6X6X6X6X6X6X6X6X6X6X6X6X6X6X6X6X",
"6X6X6X6X6X6X6X6X6X6X6X6X6X6X6X6X6X6X6X6X6X6X6X6X6X6X6X6X6X6X6X6X6X6X6X6X6X6X6X6Xi f g z f g t 6X6X6X6X6X6X6X6X6X6X6X6X6X",
"6X6X6X6X6X6X6X6X6X6X6X6X6X6X6X6X6X6X6X6X6X6X6X6X6X6X6X6X6X6X6X6X6X6X6X6X6X6X6X& 4 4 1 2 2 4 - 6X6X6X6X6X6X6X6X6X6X6X6X6X",
"6X6X6X6X6X6X6X6X6X6X6X6X6X6X6X6X6X6X6X6X6X6X6X6X6X6X6X6X6X6X6X6X6X6X6X6X6X6X6XQ @.~ $.$.$.$.n.Q 6X6X6X6X6X6X6X6X6X6X6X6X",
"6X6X6X6X6X6X6X6X6X6X6X6X6X6X6X6X6X6X6X6X6X6X6X6X6X6X6X6X6X6X6X6X6X6X6X6X6Xu p n.B.B.I.I.Y.I.Y.b.3 z 6X6X6X6X6X6X6X6X6X6X",
"6X6X6X6X6X6X6X6X6X6X6X6X6X6X6X6X6X6X6X6X6X6X6X6X6X6X6X6X6X6X6X6X6X6X6X6X6X8 6 6.N.N.P.P.Y.I.I.$.1 e 6X6X6X6X6X6X6X6X6X6X",
"6X6X6X6X6X6X6X6X6X6X6X6X6X6X6X6X6X6X6X; ; ; ; ; ; ; ; ; ; < ; 6X6X6X6X& Q m.7.B.K.K.P.P.P.P.I.S.B.J.E o 6X6X6X6X6X6X6X6X",
"6X6X6X6X6X6X6X6X6X6X6X6X6X6X6X6X6X6Xe g p p p p p p p p p p e 6X6X6X< 5 ! B.N.K.I.P.P.P.I.P.P.P.Y.P.W 3 r 6X6X6X6X6X6X6X",
"6X6X6X6X6X6X6X6X6X6X6X6X6X6X6X6X6X6Xp c s x h c h c h s h c Z 8 6X6XU x ~ N.N.K.P.P.P.P.P.P.P.P.I.K.Y T E 6X6X6X6X6X6X6X",
"6X6X6X6X6X6X6X6X6X6X6X6X6X6X6X6X> s ..| 1.s.i.p.s.y.S l ,.s.f.<.& Y N.m.Z.P.P.P.P.P.I.P.P.P.P.P.P.P.P.I.S.u = 6X6X6X6X6X",
"6X6X6X6X6X6X6X6X6X6X6X6X6X6X6X* i x | | 1.f.s.s.d.p._ i ,.s.f.X.* T m.m.Z.I.P.I.P.P.P.P.I.I.I.P.I.I.P.T.N.4 3 6X6X6X6X6X",
"6X6X6X6X6X6X6X6X6X6X6X6X6X6X6XV A A O.1.t.s.s.t.2.2.` Z o.s.s.1.S [ Z.B.J.P.P.I.P.P.P.P.P.K.K.K.K.K.K.I.B.! b.Q 6X6X6X6X",
"6X6X6X6X6X6X6X6X6X6X6X6X6X, u  .o.O.s.f.s.s.s.,.y v ....3.f.s.s.f.g.R.I.P.P.P.P.P.P.P.P.K.M.m.m.m.N.P.I.I.T.(.b.- > 6X6X",
"6X6X6X6X6X6X6X6X6X6X6X6X6Xp l F  ...i.s.i.f.f.,.x A  .| 1.f.s.s.i.a.L.P.T.I.P.I.P.P.P.I.K.N.N.N.N.N.K.I.K.K.U.^ 7 e 6X6X",
"6X6X6X6X6X6X6X6Xt t a < C ` D 1.t.t.p.s.t.,.<. .`  .t.t.t.s.p.a.u.a.E.U.Q.Q.Q.U.P.P.P.P.K.N.N.N.N.N.P.P.I.P.T.^ 4 e 6X6X",
"6X6X6X6X6X6X6X& 1 5 p y G O...i.d.f.p.f.2.t l ] ..o.p.f.f.s.s.s.u.g.P.G.G.z.x.F.T.I.P.U.J.M.N.m.M.N.P.P.P.P.I.^ 4 e 6X6X",
"6X6X6X6X6X6X6XE W Y c h A ..| t.s.i.p.f.t.Z Z  ...o.p.s.p.p.p.p.y.a.~.Q.~./.).Q.D.K.P.U.K.N.B.N.N.B.P.I.P.I.I.^ 4 e 6X6X",
"6X6X6X6X6Xr z B.I.J.+.| +...| o.o.O.p.f.3.c v ] ..o.p.f.t.o.o.<.L 3.OXoX;X3X5X}.% 0.K.P.K.P.P.K.P.K.P.P.I.P.I.^ 5 e 6X6X",
"6X6X6X6X6X- 2 N.(.L.o.J ..o.o... ...s.d.2.c Z  ...o.s.d.t.| ..o.L 3.*X*X,X4X4X`.    I.T.T.I.I.U.I.I.P.P.P.P.I.^ 6 e 6X6X",
"6X6X6X6XQ M.^ B.I.K.9.5.#.F ] ] ]  .t.y.1.c Z ] ..o.t.y.3.` | X.H 4.OXOX:X4X4X-X X XA.V.B.U.P.P.P.P.P.P.I.P.I.^ 4 e 6X6X",
"6X6X> 3 b.(.P.P.P.P.N.B.b.v ( ( Z ( | ..` v Z ] o...| ..` v v ( j >.OXOX:X4X4X4X4X5Xw.1 8.U.L.L.P.P.P.L.P.K.I.^ 7 e 6X6X",
"6X6Xe 4 ^ (.T.T.T.I.N.N.6.m w N B B ..O.] c Z ] o.o...o.F k B N # >.*X*X>X4X4X4X4X3X;.  I (.T.T.Y.T.T.T.T.T.(.7.3 > 6X6X",
"6X6X, p Y ^ ! ^ ! ^ J.K.J.C.C.n.7.8.' ' ' Z Z A D ' ' G { 8.8.N.C.A.^.W.@X>X:X1X4X4X>X2X&XP 6.! ^ ^ ^ ! ! ^ 7.Q 6X6X6X6X",
"6X6X, x d 4 5 9 2 Y P.T.R.Y.Y.J.N.N.Z k Z C C C c C v q @.B.N.K.T.P.V.h.W.OXoX1X4X4X4X4X>X  4 O O O 2 5 2 0 3 6X6X6X6X6X",
"6X6X; , e e e i = R K.U.L.P.I.B.N.m.) ( ) ( ( ( ( ( ) C @.N.m.K.Y.P.A.l.].=XoX1X4X4X4X4X,Xb :.;.;.;.x x g e > 6X6X6X6X6X",
"6X6X6X6X6X6X6X6X6X6XR x 7.T.I.L.P.P.P.P.K.L.K.L.P.P.K.L.I.P.I.I.U.P.N.N.8.*.$ {.=X=X5X4X4X4X5X3X4X1Xw.. &.6X6X6X6X6X6X6X",
"6X6X6X6X6X6X6X6X6X6X    I v.c.F.Y.Y.Y.Y.Y.Y.Y.Y.Y.Y.Y.Y.Y.I.I.G.c.c.k.k./ 9   {.=X=X4X4X4X4X4X4X4X3Xr.  %.6X6X6X6X6X6X6X",
"6X6X6X6X6X6X6X6X6Xq.|.[.}.%X%X^.V.Z.B.B.B.B.B.B.B.B.B.B.B.B.V.].%X$X'.$X`.+ @ `. X|.>X>X>X>X>X,X<X>Xe.  6X6X6X6X6X6X6X6X",
"6X6X6X6X6X6X6X%.  _.3X4X4X5X4X[.  k 2 2 4 4 4 4 4 4 2 4 4 w 1 <X4X4X4X4X>X  h @                     6X6X6X6X6X6X6X6X6X6X",
"6X6X6X6X6X6X6X%.  _.3X4X5X4X4XXX  &.g g g g g g g g g g l g g >X4X4X4X4X,Xe a b x x =.=.=.%.b =.b p 6X6X6X6X6X6X6X6X6X6X",
"6X6X6X6X6X6X6X6X6Xq.oXoX X XOX`.6X6X6X6X6X6X6X6X6X6X6X6X6X6X6X|.OX X XoX|.6X6X6X6X6X6X6X6X6X6X6X6X6X6X6X6X6X6X6X6X6X6X6X",
"6X6X6X6X6X6X6X6X6X6X          6X6X6X6X6X6X6X6X6X6X6X6X6X6X6X6X            6X6X6X6X6X6X6X6X6X6X6X6X6X6X6X6X6X6X6X6X6X6X6X",
"6X6X6X6X6X6X6X6X6X6X%.=.-.-.%.6X6X6X6X6X6X6X6X6X6X6X6X6X6X6X6X6X*.-.-.-.6X6X6X6X6X6X6X6X6X6X6X6X6X6X6X6X6X6X6X6X6X6X6X6X",
"6X6X6X6X6X6X6X6X6X6X6X6X6X6X6X6X6X6X6X6X6X6X6X6X6X6X6X6X6X6X6X6X6X6X6X6X6X6X6X6X6X6X6X6X6X6X6X6X6X6X6X6X6X6X6X6X6X6X6X6X",
"6X6X6X6X6X6X6X6X6X6X6X6X6X6X6X6X6X6X6X6X6X6X6X6X6X6X6X6X6X6X6X6X6X6X6X6X6X6X6X6X6X6X6X6X6X6X6X6X6X6X6X6X6X6X6X6X6X6X6X6X",
"6X6X6X6X6X6X6X6X6X6X6X6X6X6X6X6X6X6X6X6X6X6X6X6X6X6X6X6X6X6X6X6X6X6X6X6X6X6X6X6X6X6X6X6X6X6X6X6X6X6X6X6X6X6X6X6X6X6X6X6X",
"6X6X6X6X6X6X6X6X6X6X6X6X6X6X6X6X6X6X6X6X6X6X6X6X6X6X6X6X6X6X6X6X6X6X6X6X6X6X6X6X6X6X6X6X6X6X6X6X6X6X6X6X6X6X6X6X6X6X6X6X",
"6X6X6X6X6X6X6X6X6X6X6X6X6X6X6X6X6X6X6X6X6X6X6X6X6X6X6X6X6X6X6X6X6X6X6X6X6X6X6X6X6X6X6X6X6X6X6X6X6X6X6X6X6X6X6X6X6X6X6X6X",
"6X6X6X6X6X6X6X6X6X6X6X6X6X6X6X6X6X6X6X6X6X6X6X6X6X6X6X6X6X6X6X6X6X6X6X6X6X6X6X6X6X6X6X6X6X6X6X6X6X6X6X6X6X6X6X6X6X6X6X6X"
};
