/* XPM */
static char *result[] = {
/* columns rows colors chars-per-pixel */
"60 60 214 2 ",
"   c #000000",
".  c #040008",
"X  c #00001F",
"o  c #161616",
"O  c #171818",
"+  c #110814",
"@  c #2B0014",
"#  c #020022",
"$  c #070523",
"%  c #160025",
"&  c #081528",
"*  c #151926",
"=  c #161D2A",
"-  c #1C1C2A",
";  c #151825",
":  c #230025",
">  c #220129",
",  c #2C022A",
"<  c #2C0A2B",
"1  c #290027",
"2  c #3E002E",
"3  c #31082D",
"4  c #2A1A2B",
"5  c #30172D",
"6  c #300F30",
"7  c #3D1A31",
"8  c #0B252A",
"9  c #11262A",
"0  c #1D232B",
"q  c #152A2A",
"w  c #1F2A2B",
"e  c #162526",
"r  c #1B332C",
"t  c #1D2030",
"y  c #24222B",
"u  c #2D232C",
"i  c #242B2D",
"p  c #2C2C2D",
"a  c #232323",
"s  c #302D2E",
"d  c #35252D",
"f  c #23352C",
"g  c #2C332D",
"h  c #33332F",
"j  c #3E3B25",
"k  c #232535",
"l  c #392838",
"z  c #2B3130",
"x  c #313331",
"c  c #3A3532",
"v  c #313C32",
"b  c #3A393A",
"n  c #40002F",
"m  c #410630",
"M  c #411633",
"N  c #422433",
"B  c #423A35",
"V  c #4B3B35",
"C  c #413332",
"Z  c #563C35",
"A  c #5E3821",
"S  c #663933",
"D  c #1A4A32",
"F  c #334433",
"G  c #344B32",
"H  c #255736",
"J  c #365938",
"K  c #28653A",
"L  c #32633B",
"P  c #3D6B3D",
"I  c #3C653C",
"U  c #3E713E",
"Y  c #367737",
"T  c #286228",
"R  c #434336",
"E  c #494337",
"W  c #44453B",
"Q  c #5D4136",
"!  c #544139",
"~  c #5D4439",
"^  c #554037",
"/  c #57513A",
"(  c #43573B",
")  c #644436",
"_  c #634539",
"`  c #684739",
"'  c #65493C",
"]  c #6B493B",
"[  c #724C3C",
"{  c #67583D",
"}  c #46663F",
"|  c #467A3D",
" . c #3D3C42",
".. c #3F4146",
"X. c #3E7A43",
"o. c #414246",
"O. c #4B4B4B",
"+. c #485948",
"@. c #5B5B5A",
"#. c #554D4C",
"$. c #674C41",
"%. c #6A4E42",
"&. c #765142",
"*. c #7A5545",
"=. c #7E5949",
"-. c #71574E",
";. c #61565E",
":. c #4A6D46",
">. c #417A41",
",. c #497945",
"<. c #7C604F",
"1. c #575B68",
"2. c #5D616A",
"3. c #686A6D",
"4. c #777679",
"5. c #835B4A",
"6. c #895E4C",
"7. c #925F51",
"8. c #8C624F",
"9. c #8F6350",
"0. c #8E6B51",
"q. c #926552",
"w. c #976854",
"e. c #986954",
"r. c #15891B",
"t. c #00A200",
"y. c #03AA07",
"u. c #1AAC1E",
"i. c #238927",
"p. c #1CAD20",
"a. c #33AE35",
"s. c #39AE3B",
"d. c #37AF39",
"f. c #37B238",
"g. c #2AAE2D",
"h. c #3E8144",
"j. c #3FB041",
"k. c #428245",
"l. c #428E4A",
"z. c #498C4A",
"x. c #478749",
"c. c #528E4C",
"v. c #46944A",
"b. c #4A934C",
"n. c #4C9B4D",
"m. c #449D47",
"M. c #509B4D",
"N. c #598156",
"B. c #4D9A50",
"V. c #549B53",
"C. c #539554",
"Z. c #4CA14F",
"A. c #47AC49",
"S. c #44B146",
"D. c #4CB34E",
"F. c #4DA250",
"G. c #52A452",
"H. c #52AC53",
"J. c #4FB250",
"K. c #4FBA55",
"L. c #55B456",
"P. c #56B957",
"I. c #57B558",
"U. c #5AB55B",
"Y. c #57B958",
"T. c #59BC5A",
"R. c #59B255",
"E. c #54AE4D",
"W. c #5F8C61",
"Q. c #6D936D",
"!. c #5FB760",
"~. c #61B562",
"^. c #64B965",
"/. c #6AB96B",
"(. c #7ABF7A",
"). c #75BD76",
"_. c #7CA07D",
"`. c #5AC45C",
"'. c #7B7E82",
"]. c #8B8D93",
"[. c #9C9E9C",
"{. c #8D908D",
"}. c #9CAD9C",
"|. c #8FB490",
" X c #A0B69E",
".X c #999CA0",
"XX c #ADACAC",
"oX c #A5A7A5",
"OX c #B2B3B3",
"+X c #BCBCBC",
"@X c #B6B9B8",
"#X c #B1AFB0",
"$X c #9AC99A",
"%X c #95C895",
"&X c #A2CDA2",
"*X c #A5D0A5",
"=X c #A7D2A8",
"-X c #BBC6BA",
";X c #B4D6B4",
":X c #C2BDC2",
">X c #C2C1C2",
",X c #CDCBCD",
"<X c #CFD1CF",
"1X c #D5D5D5",
"2X c #DCDADC",
"3X c #D4E5D4",
"4X c #DCEBDD",
"5X c #D7E8D7",
"6X c #EAEAEB",
"7X c #E9F2E9",
"8X c #F3F4F4",
"9X c #FEFEFE",
"0X c #F7F8F7",
"qX c None",
/* pixels */
"qXqXqXqXqXqXqXqXqXqXqXqXqXqXqXqXqXqXqXqXqXqXqXqXqXqXqXqXqXqXqXqXqXqXqXqXqXqXqXqXqXqXqXqXqXqXqXqXqXqXqXqXqXqXqXqXqXqXqXqX",
"qXqXqXqXqXqXqXqXqXqXqXqXqXqXqXqXqXqXqXqXqXqXqXqXqXqXqXqXqXqXqXqXqXqXqXqXqXqXqXqXqXqXqXqXqXqXqXqXqXqXqXqXqXqXqXqXqXqXqXqX",
"qXqXqXqXqXqXqXqXqXqXqXqXqXqXqXqXqXqXqXqXqXqXqXqXqXqXqXqXqXqXqXqXqXqXqXqXqXqXqXqXqXqXqXqXqXqXqXqXqXqXqXqXqXqXqXqXqXqXqXqX",
"qXqXqXqXqXqXqXqXqXqXqXqXqXqXqXqXqXqXqXqXqXqXqXqXqXqXqXqXqXqXqXqXqXqXqXqXqXqXqXqXqXqXqXqXqXqXqXqXqXqXqXqXqXqXqXqXqXqXqXqX",
"qXqXqXqXqXqXqXqXqXqXqXqXqXqXqXqXqXqXqXqXqXqXqXqXqXqXqXqXqXqXqXqXqXqXqXqXqXqXqXqXqXqXqXqXqXqXqXqXqXqXqXqXqXqXqXqXqXqXqXqX",
"qXqXqXqXqXqXqXqXqXqXqXqXqXqXqXqXqXqXqXqXqXqXqXqXqXqXqXqXqXqXqXqXqXqXqXqXqXqXqXqXqXqXqXqXqXqXqXqXqXqXqXqXqXqXqXqXqXqXqXqX",
"qXqXqXqXqXqXqXqXqXqXqXqXqXqXqXqXqXqXqXqXqXqXqXqXqXqXqXqXqXqXqXqXqXqXqXqXqXqXqXqXqXqXqXqXqXqXqXqXqXqXqXqXqXqXqXqXqXqXqXqX",
"qXqXqXqXqXqXqXqXqXqXqXqXqXqXqXqXqXqXqXqXqXqXqXqXqXqXqXqXqXqXqXqXqXqXqXqXqXqXqXqXqXqXqXqXqXqXqXqXqXqXqXqXqXqXqXqXqXqXqXqX",
"qXqXqXqXqXqXqXqXqXqXqXqXqXqXqXqXqXqXqXqXqXqXqXqXqXqXqXqXqXqXqXqXqXqXqXqXqXqXqXqXqXqXqXqXqXqXqXqXqXqXqXqXqXqXqXqXqXqXqXqX",
"qXqXqXqXqXqXqXqXqXqXqXqXqXqXqXqXqXqXqXqXqXqXqXqXqXqXqXqXqXqXqXqXqXqXqXqXqXqXqXqXqXqXqXqXqXqXqXqXqXqXqXqXqXqXqXqXqXqXqXqX",
"qXqXqXqXqXqXqXqXqXqXqXqXqXqXqXqXqXqXqXqXqXqXqXqXqXqXqXqXqXqXqXqXqXqXqXqXqXqXqXqXqXqXqXqXqXqXqXqXqXqXqXqXqXqXqXqXqXqXqXqX",
"qXqXqXqXqXqXqXqXqXqXqXqXqXqXqXqXqXqXqXqXqXqXqXqXqXqXqXqXqXqXqXqXqXqXqXqXqXqXqXqXqXqXqXqXqXqXqXqXqXqXqXqXqXqXqXqXqXqXqXqX",
"qXqXqXqXqXqXqXqXqXqXqXqXqXqXqXqXqXqXqXqXqXqXqXqXqXqXqXqXqXqXqXqXqXqXqXqXqXqXqXqXqXqXqXqXqXqXqXqXqXqXqXqXqXqXqXqXqXqXqXqX",
"qXqXqXqXqXqXqXqXqXqXqXqXqXqXqXqXqXqXqXqXqXqXqXqXqXqXqXqXqXqXqXqXqXqXqXqXqXqXqXqXqXqXqXqXqXqXqXqXqXqXqXqXqXqXqXqXqXqXqXqX",
"qXqXqXqXqXqXqXqXqXqXqXqXqXqXqXqXqXqXqXqXqXqXqXqXqXqXqXqXqXqXqXqXqXqXqXqXqXqXqXqXqXqXqXqXqXqXqXqXqXqXqXqXqXqXqXqXqXqXqXqX",
"qXqXqXqXqXqXqXqXqXqXqXqXqXqXqXqXqXqXqXqXqXqXqXqXqXqXqXqXqXqXqXqXqXqXqXqXqXqXqXqXqXqXqXqXqXqXqXqXqXqXqXqXqXqXqXqXqXqXqXqX",
"qXqXqXqXqXqXqXqXqXqXqXqXqXqXqXqXqXqXqXqXqXqXqXqXqXqXqXqXqXqXqXqXqXqXqXqXqXqXqXqXqXqXqXqXqXqXqXqXqXqXqXqXqXqXqXqXqXqXqXqX",
"qXqXqXqXqXqXqXqXqXqXqXqXqXqXqXqXqXqXqXqXqXqXqXqXqXqXqXqXqXqXqXqXqXqXqXqXqXqXqXqXqXqXqXqXqXqXqXqXqXqXqXqXqXqXqXqXqXqXqXqX",
"qXqXqXqXqXqXqXqXqXqXqXqXqXqXqXqXqXqXqXqXqXqXqXqXqXqXqXqXqXqXqXqXqXqXqXqXqXqXqXqXqXqXqXqXqXqXqXqXqXqXqXqXqXqXqXqXqXqXqXqX",
"qXqXqXqXqXqXqXqXqXqXqXqXqXqXqXqXqXqXqXqXqXqXqXqXqXqXqXqXqXqXqXqXqXqXqXqXqXqXqXqXqXqXqXqXqXqXqXqXqXqXqXqXqXqXqXqXqXqXqXqX",
"qXqXqXqXqXqXqXqXqXqXqXqXqXqXqXqXqXqXqXqXqXqXqXqXqXqXqXqXqXqXqXqXqXqXqXqXqXqXqXqXqXqXqXqXqXqXqXqXqXqXqXqXqXqXqXqXqXqXqXqX",
"qXqXqXqXqXqXqXqXqXqXqXqXqXqXqXqXqXqXqXqXqXqXqXqXqXqXqXqXqXqXqXqXqXqXqXqXqXqXqXqXqXqXqXqXqXqXqXqXqXqXqXqXqXqXqXqXqXqXqXqX",
"qXqXqXqXqXqXqXqXqXqXqXqXqXqXqXqXqXqXqXqXqXqXqXqXqXqXqXqXqXqXqXqXqXqXqXqXqXqXqXqXw f f f f f r qXqXqXqXqXqXqXqXqXqXqXqXqX",
"qXqXqXqXqXqXqXqXqXqXqXqXqXqXqXqXqXqXqXqXqXqXqXqXqXqXqXqXqXqXqXqXqXqXqXqXqXqXqX# , , 1 1 1 , : qXqXqXqXqXqXqXqXqXqXqXqXqX",
"qXqXqXqXqXqXqXqXqXqXqXqXqXqXqXqXqXqXqXqXqXqXqXqXqXqXqXqXqXqXqXqXqXqXqXqXqXqXqXL P P U X.U | l.K qXqXqXqXqXqXqXqXqXqXqXqX",
"qXqXqXqXqXqXqXqXqXqXqXqXqXqXqXqXqXqX- p p p s p s p u i p p y qXqXqXqXqXqXy p x.B.b.P.P.P.P.P.l.: f qXqXqXqXqXqXqXqXqXqX",
"qXqXqXqXqXqXqXqXqXqXqXqXqXqXqXqXqXqX= z w 9 9 9 9 9 z h i q w qXqXqXqXqXqX4 , >.b.z.L.P.Y.P.Y.} : y qXqXqXqXqXqXqXqXqXqX",
"qXqXqXqXqXqXqXqXqXqXqXqXqXqXqXqX& u Q Q ' =.=.=.=.*.V z ~ =.6._ # - * # L x.X.Z.H.H.L.L.L.L.L.Z.n.F.H # qXqXqXqXqXqXqXqX",
"qXqXqXqXqXqXqXqXqXqXqXqXqXqXqX& y c ` ` *.w.q.q.w.9.! z %.e.e.$.8 p p < I B.b.H.Y.P.L.L.L.L.L.I.Y.L.J > e qXqXqXqXqXqXqX",
"qXqXqXqXqXqXqXqXqXqXqXqXqXqXqXy h h ` ` *.q.q.9.q.8.! s $.q.q.$.i c v u I B.z.G.I.I.L.L.L.L.L.L.Y.H.G F H qXqXqXqXqXqXqX",
"qXqXqXqXqXqXqXqXqXqXqXqXqX* = Q ] ` 8.q.9.q.q.%.c V ' _ *.q.9.9.7.9.c.l.M.L.L.L.L.I.L.L.L.L.L.I.U.P.H.Y.n.i % qXqXqXqXqX",
"qXqXqXqXqXqXqXqXqXqXqXqXqXi g Q ` ` 8.q.9.w.w.%.z B _ ) &.w.9.q.q.0.c.l.F.L.L.P.L.L.L.L.P.Y.I.S.a.s.J.`.v., > qXqXqXqXqX",
"qXqXqXqXqXqXqXqXqXqXqXqXd V C ] &.&.9.q.6.=.5.' V ! *.&.5.q.9.q.q.0.V.n.H.U.U.I.P.L.L.P.H.n.v.|.=X$X!.L.Z.P h.K qXqXqXqX",
"qXqXqXqXqXqXqX$ 4 y u 9 V [ ` 8.w.w.q.w.=.i x ~ ] ] q.w.q.9.q.0.7.0.R.K.E.D.J.L.R.L.L.Y.b.1 5 1X9X8X(.a.~.P.`.k.: * qXqX",
"qXqXqXqXqXqXqXq p u s i V ] ) 5.w.9.q.w.=.c B _ ` ] 8.q.9.q.q.q.q.0.E.D.S.S.S.D.P.L.H.P.n.5 g <X9X7X(.d.!.L.L.U 6 w qXqX",
"qXqXqXqXqXq r l.n.z./ Z ~ ` ` [ *.&.7.q.=.c B _ ] ] 8.q.6.&.*.=.[ <. X X-X3X5X%XD.^.P.P.n.< g {.+XXXU.K.U.L.P.U 1 0 qXqX",
"qXqXqXqXqX% , n.`.I.&.S ] ] ] ` ) ` q.e.5.c B _ ` ] 9.e.5.) ) ] A -.:X:X2X9X9X*Xt.s.L.Y.b.: 4   .   A.U.L.L.Y.U , w qXqX",
"qXqXqXqXD I G b.T.H.{ ' { ) ) ` ` ] 6.q.*.c b _ ] ] 8.q.5.) ` %.S -.+X@X1X9X9X;X/.(.P.P.n.G G +.+.:.H.U.L.L.Y.P , 0 qXqX",
"qXqX; % X.P.G.J.P.H.b.c.,.E E E E E ] [ _ c B Q ] ` ] [ _ R E ! j #.@X@X1X9X9X8X7X7X).U.~.H.J.E.G.J.L.L.L.L.Y.| , 0 qXqX",
"qXqX0 , >.`.`.T.T.Y.v.b.>.2 2 M d N ' ] Q B b _ [ ] ` ] Q 7 d M @ O.>X>X2X9X9X9X9X9XL.t.a.U.P.Y.I.P.L.L.L.L.Y.U , w qXqX",
"qXqXw 5 J n.z.v.v.v.B.F.b.,.,.} :.} Q _ Z B B Z ~ ) Q ) / :.} ,.| N.}.}.-X6X6X8X9X0X;X;X$XS.I.H.L.L.P.P.L.L.Y.P 1 0 qXqX",
"qXqX- h s 4 u s 4 G J.P.L.I.T.G.b.b.G B W R R R B F W C } B.z.H.P.L.v.r._.+X#X6X9X9X9X9X4Xf.^.~.~.!.L.H.L.H.L.X.6 w qXqX",
"qXqX- i a y y p : J P.T.I.P.P.n.z.z.N n M n m m m m M n ( v.z.H.P.L.b.i.|.>X:X8X9X9X9X9X5Xt.g.y.t.u.P.Y.P.Y.`.X.: ; qXqX",
"qXqXqXqXqXqXqXqXqXD h.P z.P.I.H.H.H.M.n.M.M.M.M.M.V.M.n.M.H.H.H.R.L.C.b.W.4.3.+X2X1X0X9X8X4X4X4X7X3XN.T ,.P h.K qXqXqXqX",
"qXqXqXqXqXqXqXqXqXqX4 : U P.P.P.P.L.I.I.Y.Y.Y.Y.Y.Y.Y.P.Y.P.I.L.L.L.z.v.U .   [.+X>X0X9X9X9X9X9X9X8X4.  C < > qXqXqXqXqX",
"qXqXqXqXqXqXqXqXqXqXf 1 U T.L.L.I.L.L.L.L.H.L.H.L.H.L.P.H.P.L.I.P.L.C.V.x.d   oX>X:X8X9X0X9X9X0X9X6X'.  b 0 = qXqXqXqXqX",
"qXqXqXqXqXqXqXqXqXqXf 1 >.U.L.L.I.P.b.b.k.s F F v F z.b.V.Y.P.U.J.~.@X>X[.  z b W  .O.O.O.O.O.O.@.3.qXqXqXqXqXqXqXqXqXqX",
"qXqXqXqXqXqXqXqXqXqXf 1 Y f.a.a.a.d.b.V.k.4 u z < F b.b.m.a.a.s.p.H.-X<XoXa p p a a O O O o o o o   qXqXqXqXqXqXqXqXqXqX",
"qXqXqXqXqXqXqXqXqXqXv + Q.&X&X&X&X$Xx.>.X.& = 9 $ D x.U Q.=X&X&X*X&XoXXX[.& + t = - t k t - k - k qXqXqXqXqXqXqXqXqXqXqX",
"qXqXqXqXqXqXqXqXqXqXo.  #X9X9X9X9X0X;..  .qXqXqXqXqX .. XX9X9X9X9X8X@.  k qXqXqXqXqXqXqXqXqXqXqXqXqXqXqXqXqXqXqXqXqXqXqX",
"qXqXqXqXqXqXqXqXqXqX .  OX9X9X9X9X8X4.   .qXqXqXqXqXb   OX9X9X0X9X8X4.. ..qXqXqXqXqXqXqXqXqXqXqXqXqXqXqXqXqXqXqXqXqXqXqX",
"qXqXqXqXqXqXqXqXqXqXqXqX].@XXXXX#X@X1.qXqXqXqXqXqXqXqXqX].+XXXXXOX@X2.qXqXqXqXqXqXqXqXqXqXqXqXqXqXqXqXqXqXqXqXqXqXqXqXqX",
"qXqXqXqXqXqXqXqXqXqXqXqXqX          qXqXqXqXqXqXqXqXqXqXqX          qXqXqXqXqXqXqXqXqXqXqXqXqXqXqXqXqXqXqXqXqXqXqXqXqXqX",
"qXqXqXqXqXqXqXqXqXqXqXqXqX .o.o.o. .qXqXqXqXqXqXqXqXqXqXqX .o.o... .qXqXqXqXqXqXqXqXqXqXqXqXqXqXqXqXqXqXqXqXqXqXqXqXqXqX",
"qXqXqXqXqXqXqXqXqXqXqXqXqXqXqXqXqXqXqXqXqXqXqXqXqXqXqXqXqXqXqXqXqXqXqXqXqXqXqXqXqXqXqXqXqXqXqXqXqXqXqXqXqXqXqXqXqXqXqXqX",
"qXqXqXqXqXqXqXqXqXqXqXqXqXqXqXqXqXqXqXqXqXqXqXqXqXqXqXqXqXqXqXqXqXqXqXqXqXqXqXqXqXqXqXqXqXqXqXqXqXqXqXqXqXqXqXqXqXqXqXqX",
"qXqXqXqXqXqXqXqXqXqXqXqXqXqXqXqXqXqXqXqXqXqXqXqXqXqXqXqXqXqXqXqXqXqXqXqXqXqXqXqXqXqXqXqXqXqXqXqXqXqXqXqXqXqXqXqXqXqXqXqX",
"qXqXqXqXqXqXqXqXqXqXqXqXqXqXqXqXqXqXqXqXqXqXqXqXqXqXqXqXqXqXqXqXqXqXqXqXqXqXqXqXqXqXqXqXqXqXqXqXqXqXqXqXqXqXqXqXqXqXqXqX",
"qXqXqXqXqXqXqXqXqXqXqXqXqXqXqXqXqXqXqXqXqXqXqXqXqXqXqXqXqXqXqXqXqXqXqXqXqXqXqXqXqXqXqXqXqXqXqXqXqXqXqXqXqXqXqXqXqXqXqXqX",
"qXqXqXqXqXqXqXqXqXqXqXqXqXqXqXqXqXqXqXqXqXqXqXqXqXqXqXqXqXqXqXqXqXqXqXqXqXqXqXqXqXqXqXqXqXqXqXqXqXqXqXqXqXqXqXqXqXqXqXqX"
};
