/* XPM */
static char *result[] = {
/* columns rows colors chars-per-pixel */
"60 60 210 2 ",
"   c black",
".  c #0F080D",
"X  c #001F00",
"o  c #151512",
"O  c #1D091D",
"+  c #21001F",
"@  c #300017",
"#  c #201F1C",
"$  c #020021",
"%  c #0D0025",
"&  c #060C28",
"*  c #160025",
"=  c #1B0024",
"-  c #0E1325",
";  c #091824",
":  c #131427",
">  c #131B25",
",  c #1B1E29",
"<  c #240023",
"1  c #2A0027",
"2  c #260029",
"3  c #2C012A",
"4  c #2D0B2B",
"5  c #26082C",
"6  c #31072C",
"7  c #241C2A",
"8  c #2B172C",
"9  c #31132D",
"0  c #3A1A36",
"q  c #340432",
"w  c #07272A",
"e  c #1C242A",
"r  c #192A2B",
"t  c #18322B",
"y  c #133D30",
"u  c #2E242D",
"i  c #252D2D",
"p  c #2B2D2D",
"a  c #252429",
"s  c #30272E",
"d  c #322B2E",
"f  c #2A332E",
"g  c #27352C",
"h  c #32302F",
"j  c #343423",
"k  c #3E2632",
"l  c #2C3230",
"z  c #293735",
"x  c #353332",
"c  c #3B3532",
"v  c #3F3B35",
"b  c #3B393D",
"n  c #353F36",
"m  c #40002E",
"M  c #400330",
"N  c #431F35",
"B  c #422632",
"V  c #432F31",
"C  c #423534",
"Z  c #423A35",
"A  c #4C3C35",
"S  c #4F3F38",
"D  c #523D36",
"F  c #573C37",
"G  c #583628",
"H  c #603F38",
"J  c #69302D",
"K  c #006700",
"L  c #364934",
"P  c #2E5A39",
"I  c #285836",
"U  c #365838",
"Y  c #2E4734",
"T  c #3D6C3C",
"R  c #39663D",
"E  c #3E723E",
"W  c #39793A",
"Q  c #276E32",
"!  c #434337",
"~  c #474739",
"^  c #5C4237",
"/  c #5D4439",
"(  c #514438",
")  c #4F5B3C",
"_  c #68402E",
"`  c #644437",
"'  c #634639",
"]  c #694739",
"[  c #624A3D",
"{  c #6C4A3B",
"}  c #67553C",
"|  c #704C3C",
" . c #45663F",
".. c #5D613E",
"X. c #40763F",
"o. c #3D3D41",
"O. c #413841",
"+. c #3F4144",
"@. c #397942",
"#. c #414146",
"$. c #414B40",
"%. c #544B4C",
"&. c #664B40",
"*. c #6B4D42",
"=. c #755142",
"-. c #7D5949",
";. c #785649",
":. c #69554D",
">. c #427641",
",. c #437C43",
"<. c #4B7E4B",
"1. c #497D45",
"2. c #5E6D42",
"3. c #575A67",
"4. c #636763",
"5. c #75777C",
"6. c #835B4A",
"7. c #8A5D4C",
"8. c #915F50",
"9. c #8C614F",
"0. c #8E6350",
"q. c #8D6B51",
"w. c #936552",
"e. c #996A56",
"r. c #966954",
"t. c #008700",
"y. c #009E00",
"u. c #168A1D",
"i. c #00A800",
"p. c #19AC1C",
"a. c #1C8A21",
"s. c #348C37",
"d. c #2EAD2F",
"f. c #2FAD32",
"g. c #33AD34",
"h. c #37AE38",
"j. c #3BB23C",
"k. c #3E8044",
"l. c #458246",
"z. c #498C4A",
"x. c #468949",
"c. c #4B944C",
"v. c #4C9A4D",
"b. c #459547",
"n. c #52994E",
"m. c #4F9B50",
"M. c #539953",
"N. c #518C4B",
"B. c #4EA74F",
"V. c #44B144",
"C. c #4CB24D",
"Z. c #46B549",
"A. c #4EA250",
"S. c #51A451",
"D. c #52AC53",
"F. c #59AB58",
"G. c #4FB350",
"H. c #55B356",
"J. c #56B957",
"K. c #57B458",
"L. c #5BB55C",
"P. c #57BA58",
"I. c #58BB5A",
"U. c #51B14A",
"Y. c #738F74",
"T. c #63B764",
"R. c #63B864",
"E. c #6AB96A",
"W. c #6DB56C",
"Q. c #79A679",
"!. c #78BE78",
"~. c #6BAF66",
"^. c #5AC35C",
"/. c #7EC17F",
"(. c #807F81",
"). c #858687",
"_. c #86938C",
"`. c #9FBC9F",
"'. c #8DB08E",
"]. c #A29CA1",
"[. c #A6A7A6",
"{. c #A3A6AA",
"}. c #ABABAB",
"|. c #A8A5A7",
" X c #ACAFB0",
".X c #B4B4B5",
"XX c #BABABA",
"oX c #B5BBB4",
"OX c #A3B6A3",
"+X c #C0BBBE",
"@X c #9ECC9E",
"#X c #A5C8A6",
"$X c #A8D1A8",
"%X c #BEDBBF",
"&X c #C1BFC2",
"*X c #C5C6C5",
"=X c #C8D8C8",
"-X c #D3D4D3",
";X c #DBDADB",
":X c #D9D7DA",
">X c #DCEBDC",
",X c #D9E6D9",
"<X c #CCE2CC",
"1X c #E0E0DF",
"2X c #ECECEC",
"3X c #E3EFE2",
"4X c #F3F3F4",
"5X c #F5F9F5",
"6X c #FEFEFE",
"7X c None",
/* pixels */
"7X7X7X7X7X7X7X7X7X7X7X7X7X7X7X7X7X7X7X7X7X7X7X7X7X7X7X7X7X7X7X7X7X7X7X7X7X7X7X7X7X7X7X7X7X7X7X7X7X7X7X7X7X7X7X7X7X7X7X7X",
"7X7X7X7X7X7X7X7X7X7X7X7X7X7X7X7X7X7X7X7X7X7X7X7X7X7X7X7X7X7X7X7X7X7X7X7X7X7X7X7X7X7X7X7X7X7X7X7X7X7X7X7X7X7X7X7X7X7X7X7X",
"7X7X7X7X7X7X7X7X7X7X7X7X7X7X7X7X7X7X7X7X7X7X7X7X7X7X7X7X7X7X7X7X7X7X7X7X7X7X7X7X7X7X7X7X7X7X7X7X7X7X7X7X7X7X7X7X7X7X7X7X",
"7X7X7X7X7X7X7X7X7X7X7X7X7X7X7X7X7X7X7X7X7X7X7X7X7X7X7X7X7X7X7X7X7X7X7X7X7X7X7X7X7X7X7X7X7X7X7X7X7X7X7X7X7X7X7X7X7X7X7X7X",
"7X7X7X7X7X7X7X7X7X7X7X7X7X7X7X7X7X7X7X7X7X7X7X7X7X7X7X7X7X7X7X7X7X7X7X7X7X7X7X7X7X7X7X7X7X7X7X7X7X7X7X7X7X7X7X7X7X7X7X7X",
"7X7X7X7X7X7X7X7X7X7X7X7X7X7X7X7X7X7X7X7X7X7X7X7X7X7X7X7X7X7X7X7X7X7X7X7X7X7X7X7X7X7X7X7X7X7X7X7X7X7X7X7X7X7X7X7X7X7X7X7X",
"7X7X7X7X7X7X7X7X7X7X7X7X7X7X7X7X7X7X7X7X7X7X7X7X7X7X7X7X7X7X7X7X7X7X7X7X7X7X7X7X7X7X7X7X7X7X7X7X7X7X7X7X7X7X7X7X7X7X7X7X",
"7X7X7X7X7X7X7X7X7X7X7X7X7X7X7X7X7X7X7X7X7X7X7X7X7X7X7X7X7X7X7X7X7X7X7X7X7X7X7X7X7X7X7X7X7X7X7X7X7X7X7X7X7X7X7X7X7X7X7X7X",
"7X7X7X7X7X7X7X7X7X7X7X7X7X7X7X7X7X7X7X7X7X7X7X7X7X7X7X7X7X7X7X7X7X7X7X7X7X7X7X7X7X7X7X7X7X7X7X7X7X7X7X7X7X7X7X7X7X7X7X7X",
"7X7X7X7X7X7X7X7X7X7X7X7X7X7X7X7X7X7X7X7X7X7X7X7X7X7X7X7X7X7X7X7X7X7X7X7X7X7X7X7X7X7X7X7X7X7X7X7X7X7X7X7X7X7X7X7X7X7X7X7X",
"7X7X7X7X7X7X7X7X7X7X7X7X7X7X7X7X7X7X7X7X7X7X7X7X7X7X7X7X7X7X7X7X7X7X7X7X7X7X7X7X7X7X7X7X7X7X7X7X7X7X7X7X7X7X7X7X7X7X7X7X",
"7X7X7X7X7X7X7X7X7X7X7X7X7X7X7X7X7X7X7X7X7X7X7X7X7X7X7X7X7X7X7X7X7X7X7X7X7X7X7X7X7X7X7X7X7X7X7X7X7X7X7X7X7X7X7X7X7X7X7X7X",
"7X7X7X7X7X7X7X7X7X7X7X7X7X7X7X7X7X7X7X7X7X7X7X7X7X7X7X7X7X7X7X7X7X7X7X7X7X7X7X7X7X7X7X7X7X7X7X7X7X7X7X7X7X7X7X7X7X7X7X7X",
"7X7X7X7X7X7X7X7X7X7X7X7X7X7X7X7X7X7X7X7X7X7X7X7X7X7X7X7X7X7X7X7X7X7X7X7X7X7X7X7X7X7X7X7X7X7X7X7X7X7X7X7X7X7X7X7X7X7X7X7X",
"7X7X7X7X7X7X7X7X7X7X7X7X7X7X7X7X7X7X7X7X7X7X7X7X7X7X7X7X7X7X7X7X7X7X7X7X7X7X7X7X7X7X7X7X7X7X7X7X7X7X7X7X7X7X7X7X7X7X7X7X",
"7X7X7X7X7X7X7X7X7X7X7X7X7X7X7X7X7X7X7X7X7X7X7X7X7X7X7X7X7X7X7X7X7X7X7X7X7X7X7X7X7X7X7X7X7X7X7X7X7X7X7X7X7X7X7X7X7X7X7X7X",
"7X7X7X7X7X7X7X7X7X7X7X7X7X7X7X7X7X7X7X7X7X7X7X7X7X7X7X7X7X7X7X7X7X7X7X7X7X7X7X7X7X7X7X7X7X7X7X7X7X7X7X7X7X7X7X7X7X7X7X7X",
"7X7X7X7X7X7X7X7X7X7X7X7X7X7X7X7X7X7X7X7X7X7X7X7X7X7X7X7X7X7X7X7X7X7X7X7X7X7X7X7X7X7X7X7X7X7X7X7X7X7X7X7X7X7X7X7X7X7X7X7X",
"7X7X7X7X7X7X7X7X7X7X7X7X7X7X7X7X7X7X7X7X7X7X7X7X7X7X7X7X7X7X7X7X7X7X7X7X7X7X7X7X7X7X7X7X7X7X7X7X7X7X7X7X7X7X7X7X7X7X7X7X",
"7X7X7X7X7X7X7X7X7X7X7X7X7X7X7X7X7X7X7X7X7X7X7X7X7X7X7X7X7X7X7X7X7X7X7X7X7X7X7X7X7X7X7X7X7X7X7X7X7X7X7X7X7X7X7X7X7X7X7X7X",
"7X7X7X7X7X7X7X7X7X7X7X7X7X7X7X7X7X7X7X7X7X7X7X7X7X7X7X7X7X7X7X7X7X7X7X7X7X7X7X7X7X7X7X7X7X7X7X7X7X7X7X7X7X7X7X7X7X7X7X7X",
"7X7X7X7X7X7X7X7X7X7X7X7X7X7X7X7X7X7X7X7X7X7X7X7X7X7X7X7X7X7X7X7X7X7X7X7X7X7X7X7X7X7X7X7X7X7X7X7X7X7X7X7X7X7X7X7X7X7X7X7X",
"7X7X7X7X7X7X7X7X7X7X7X7X7X7X7X7X7X7X7X7X7X7X7X7X7X7X7X7X7X7X7X7X7X7X7X7X7X7X7X7X7X7X7X7X7X7X7X7X7X7X7X7X7X7X7X7X7X7X7X7X",
"7X7X7X7X7X7X7X7X7X7X7X7X7X7X7X7X7X7X7X7X7X7X7X7X7X7X7X7X7X7X7X7X7X7X7X7X7X7X7X7X7X7X7X7X7X7X7X7X7X7X7X7X7X7X7X7X7X7X7X7X",
"7X7X7X7X7X7X7X7X7X7X7X7X7X7X7X7X7X7X7X7X7X7X7X7X7X7X7X7X7X7X7X7X7X7X7X7X7X7X7X7X7X7X7X7X7X7X7X7X7X7X7X7X7X7X7X7X7X7X7X7X",
"7X7X7X7X7X7X7X7X7X7X7X7X7X7X7X7X7X7X7X7X7X7X7X7X7X7X7X7X7X7X7X7X7X7X7X7X7X7X7X> i f f f f f i 7X7X7X7X7X7X7X7X7X7X7X7X7X",
"7X7X7X7X7X7X7X7X7X7X7X7X7X7X7X7X7X7X7X7X7X7X7X7X7X7X7X7X7X7X7X7X7X7X7X7X7X7X7X* u 4 3 1 3 3 5 7X7X7X7X7X7X7X7X7X7X7X7X7X",
"7X7X7X7X7X7X7X7X7X7X7X7X7X7X7X7X7X7X7X- : - : - - : - - - : - 7X7X7X7X7X7X- & @.l.l.v.v.v.v.B.@.$ 7X7X7X7X7X7X7X7X7X7X7X",
"7X7X7X7X7X7X7X7X7X7X7X7X7X7X7X7X7X7X> l p p p p p p p p p p e 7X7X7X7X7X7X7 u x.v.v.J.I.J.J.I.,.3 e 7X7X7X7X7X7X7X7X7X7X",
"7X7X7X7X7X7X7X7X7X7X7X7X7X7X7X7X7X7Xd c h x x x x x h h x c Z 7 7X7X7X7Xy Y d ,.c.c.H.K.K.H.J.@.s P 7X7X7X7X7X7X7X7X7X7X",
"7X7X7X7X7X7X7X7X7X7X7X7X7X7X7X7X> d ] ` =.w.0.8.w.7.S l &.w.r.*.& a e * @.z.z.B.K.H.H.H.H.H.H.D.J.H.P * 7X7X7X7X7X7X7X7X",
"7X7X7X7X7X7X7X7X7X7X7X7X7X7X7X& i x ` ` =.w.w.w.r.0.S i &.w.r.' w p d 3 U z.z.S.J.H.H.H.J.H.H.H.J.D.L 2 : 7X7X7X7X7X7X7X",
"7X7X7X7X7X7X7X7X7X7X7X7X7X7X7XC D A | =.6.w.0.6.-.-./ Z *.r.w.*.F / R U >.A.v.D.H.H.H.H.H.H.H.K.I.F.E @.@.7X7X7X7X7X7X7X",
"7X7X7X7X7X7X7X7X7X7X7X7X7X, a ` { { w.r.w.0.w.&.w Z { ] =.r.0.r.r.r.n.c.S.P.J.H.H.J.K.H.H.J.H.H.C.C.P.^.S.a * 7X7X7X7X7X",
"7X7X7X7X7X7X7X7X7X7X7X7X7Xp i F ] ] 0.w.0.w.r.*.x A ' ` =.w.w.w.0.0.z.x.m.H.H.H.H.H.H.H.K.K.H.C.V.Z.D.J.c.4 f 7X7X7X7X7X",
"7X7X7X7X7X7X7X7Xt t a : C / D =.6.6.0.w.6.{ *.' ^ ' 6.6.7.w.0.0.8.0.F.F.F.R.T.K.H.H.J.J.S.@.E #X,X=XE.C.D.z.A.@.% 7X7X7X",
"7X7X7X7X7X7X7X$ 2 4 a r D { ] 7.e.r.w.w.;.i f / { { w.r.w.w.w.w.8.q.U.Z.V.f.d.C.I.H.H.J.c.1 0 :X6X5X!.g.R.J.^.,.3 > 7X7X",
"7X7X7X7X7X7X7XI U L c h D ] ` 6.0.9.w.w.-.c A ' ' { 0.w.0.8.0.0.8.q.~.E.W./.!.T.H.U.H.I.v.9 i *X4X:X!.j.L.D.P.T 4 e 7X7X",
"7X7X7X7X7Xr g v.J.S.} ` [ ] ] { { *.0.r.-.c v / { { 0.w.6.] { *.H ;.#X.X=X4X5X$XC.R.H.J.v.8 g 4.).Y.D.J.J.H.P.E 3 e 7X7X",
"7X7X7X7X7X= 3 c.^.K.| J ] { { ] ` { 0.e.6.x Z ' { { w.e.6.` { { J ;.&X&X;X6X6X@Xy.p.H.I.c.+ 3     X A.J.H.H.I.T 6 e 7X7X",
"7X7X7X7XQ x.>.v.P.D.2.2...F ' / / ` -.6.| v Z / { { 6.7.;./ / ' G :.XXXX-X6X6X<X$X$XL.G.A.W >.l.<.N.D.J.D.H.P.E 4 e 7X7X",
"7X7X> 2 @.I.H.H.H.D.c.v.l.c ! ! Z ! ] ] ^ Z Z / { ` ] ] / v Z ! j %.XXXX-X6X6X6X6X6X!.H.R.H.I.H.J.P.K.K.H.H.P.E 3 e 7X7X",
"7X7Xe 3 >.^.P.P.I.K.c.c.X.q q N B B ] { / c Z / { { ] { F k B N @ %.&X&X;X6X6X6X6X5XH.i.h.K.H.H.H.H.H.H.J.H.J.E 4 e 7X7X",
"7X7Xe u L >.T T T @.S.D.S.n.n.N.1.l.( D ( Z Z A D D S F ) l.1.c.v.M.Q.Q.OX:X-X2X6X6X>X3X=Xh.L.H.H.H.H.H.H.H.P.T 3 e 7X7X",
"7X7X, x u 3 4 u 1 L H.I.K.J.P.S.c.c.! k C C C C c C v 0  .v.c.D.I.H.b.t.Q.&XoX2X6X6X6X6X>Xi.J.C.G.G.H.K.H.H.I.>.9 e 7X7X",
"7X7X- , e e e i * P D.H.F.H.J.n.c.z.~ ! ~ ! ! ! ! ! ~ C  .v.z.D.K.H.M.s._.*XoX2X6X6X6X6X>XV.E.R.T.T.H.D.H.H.I.@.* - 7X7X",
"7X7X7X7X7X7X7X7X7X7XP x ,.I.H.H.H.H.F.H.H.D.D.H.H.H.H.F.H.H.H.J.K.H.c.c.l.Z # }.*X*X5X6X6X5X5X5X6X4X4.. ~ Y P y 7X7X7X7X",
"7X7X7X7X7X7X7X7X7X7X    K j.g.U.I.J.P.I.P.P.P.P.P.P.P.P.J.J.J.Z.g.g.a.u.Q 8   [.*X*X6X6X6X6X6X6X6X4X5.  b u 5 7X7X7X7X7X",
"7X7X7X7X7X7X7X7X7X3.{.].OX@X$XW.b.M.v.v.v.v.v.v.v.v.v.v.v.v.b.'.$X#X`.#X_.O o _.{.}.:X;X;X;X1X:X1X;X5.  z - ; 7X7X7X7X7X",
"7X7X7X7X7X7X7Xo.  ).4X6X6X6X6X|.  0 1 3 3 3 3 3 3 3 3 3 3 q < 1X6X6X6X6X;X  c o                     7X7X7X7X7X7X7X7X7X7X",
"7X7X7X7X7X7X7Xo.  ).4X6X5X6X6X X  o.g f f f f f f f f f f f f ;X6X5X6X6X:Xe a b x x +.+.+.o.L O.o.p 7X7X7X7X7X7X7X7X7X7X",
"7X7X7X7X7X7X7X7X7X3..X.X}.}.XX).7X7X7X7X7X7X7X7X7X7X7X7X7X7X7X{.XX}.}..X{.7X7X7X7X7X7X7X7X7X7X7X7X7X7X7X7X7X7X7X7X7X7X7X",
"7X7X7X7X7X7X7X7X7X7X          7X7X7X7X7X7X7X7X7X7X7X7X7X7X7X7X            7X7X7X7X7X7X7X7X7X7X7X7X7X7X7X7X7X7X7X7X7X7X7X",
"7X7X7X7X7X7X7X7X7X7Xo.+.#.#.O.7X7X7X7X7X7X7X7X7X7X7X7X7X7X7X7X7XO.#.#.#.7X7X7X7X7X7X7X7X7X7X7X7X7X7X7X7X7X7X7X7X7X7X7X7X",
"7X7X7X7X7X7X7X7X7X7X7X7X7X7X7X7X7X7X7X7X7X7X7X7X7X7X7X7X7X7X7X7X7X7X7X7X7X7X7X7X7X7X7X7X7X7X7X7X7X7X7X7X7X7X7X7X7X7X7X7X",
"7X7X7X7X7X7X7X7X7X7X7X7X7X7X7X7X7X7X7X7X7X7X7X7X7X7X7X7X7X7X7X7X7X7X7X7X7X7X7X7X7X7X7X7X7X7X7X7X7X7X7X7X7X7X7X7X7X7X7X7X",
"7X7X7X7X7X7X7X7X7X7X7X7X7X7X7X7X7X7X7X7X7X7X7X7X7X7X7X7X7X7X7X7X7X7X7X7X7X7X7X7X7X7X7X7X7X7X7X7X7X7X7X7X7X7X7X7X7X7X7X7X",
"7X7X7X7X7X7X7X7X7X7X7X7X7X7X7X7X7X7X7X7X7X7X7X7X7X7X7X7X7X7X7X7X7X7X7X7X7X7X7X7X7X7X7X7X7X7X7X7X7X7X7X7X7X7X7X7X7X7X7X7X",
"7X7X7X7X7X7X7X7X7X7X7X7X7X7X7X7X7X7X7X7X7X7X7X7X7X7X7X7X7X7X7X7X7X7X7X7X7X7X7X7X7X7X7X7X7X7X7X7X7X7X7X7X7X7X7X7X7X7X7X7X",
"7X7X7X7X7X7X7X7X7X7X7X7X7X7X7X7X7X7X7X7X7X7X7X7X7X7X7X7X7X7X7X7X7X7X7X7X7X7X7X7X7X7X7X7X7X7X7X7X7X7X7X7X7X7X7X7X7X7X7X7X"
};
