/* XPM */
static char *result[] = {
/* columns rows colors chars-per-pixel */
"60 60 212 2 ",
"   c #000000",
".  c #040008",
"X  c #00001F",
"o  c #161616",
"O  c #171818",
"+  c #110916",
"@  c #2B0014",
"#  c #030022",
"$  c #040826",
"%  c #160424",
"&  c #0B1726",
"*  c #151926",
"=  c #1A1C29",
"-  c #151929",
";  c #240025",
":  c #220129",
">  c #2C022A",
",  c #2B0729",
"<  c #3E002E",
"1  c #31082D",
"2  c #251E2B",
"3  c #2E1C2D",
"4  c #2C102B",
"5  c #30162D",
"6  c #300F30",
"7  c #3D1A31",
"8  c #0B252A",
"9  c #13262A",
"0  c #1D232B",
"q  c #1D2A2B",
"w  c #152728",
"e  c #1A312C",
"r  c #1E2332",
"t  c #24222B",
"y  c #2B242C",
"u  c #242B2D",
"i  c #2C2C2D",
"p  c #232323",
"a  c #302E2E",
"s  c #34252E",
"d  c #23352C",
"f  c #2C332E",
"g  c #33332F",
"h  c #3E3B25",
"j  c #212430",
"k  c #272E3B",
"l  c #382737",
"z  c #2B3130",
"x  c #303331",
"c  c #3A3532",
"v  c #313C32",
"b  c #3A3A3A",
"n  c #40002F",
"m  c #410530",
"M  c #411533",
"N  c #422433",
"B  c #423A35",
"V  c #4B3B35",
"C  c #413332",
"Z  c #563C35",
"A  c #5E3821",
"S  c #663933",
"D  c #184631",
"F  c #334433",
"G  c #344B32",
"H  c #265736",
"J  c #375737",
"K  c #28653A",
"L  c #3D6B3C",
"P  c #36653C",
"I  c #3E713E",
"U  c #367737",
"Y  c #286228",
"T  c #434336",
"R  c #494337",
"E  c #44453B",
"W  c #5D4136",
"Q  c #544138",
"!  c #5D4439",
"~  c #564838",
"^  c #4E553B",
"/  c #644436",
"(  c #644539",
")  c #684739",
"_  c #65493C",
"`  c #6B493B",
"'  c #724C3C",
"]  c #67573D",
"[  c #46663F",
"{  c #467A3D",
"}  c #3C3D42",
"|  c #3C3643",
" . c #3F4146",
".. c #3B7742",
"X. c #414246",
"o. c #4B4B4B",
"O. c #485948",
"+. c #5B5A5A",
"@. c #554D4C",
"#. c #674C41",
"$. c #6A4E42",
"%. c #765142",
"&. c #7A5545",
"*. c #7E5949",
"=. c #71574E",
"-. c #61565D",
";. c #4A6D46",
":. c #417A41",
">. c #497945",
",. c #7C604F",
"<. c #545A67",
"1. c #5D616A",
"2. c #686A6D",
"3. c #79777A",
"4. c #6F7376",
"5. c #835B4A",
"6. c #895E4C",
"7. c #925F51",
"8. c #8C624F",
"9. c #8F6350",
"0. c #8E6B51",
"q. c #926552",
"w. c #976854",
"e. c #986954",
"r. c #15891B",
"t. c #00A200",
"y. c #03AA07",
"u. c #1AAC1E",
"i. c #238927",
"p. c #1CAD20",
"a. c #33AE35",
"s. c #39AE3B",
"d. c #37AF39",
"f. c #37B238",
"g. c #2AAE2D",
"h. c #3E8144",
"j. c #3FB041",
"k. c #428245",
"l. c #498D4A",
"z. c #46894A",
"x. c #528E4C",
"c. c #46934A",
"v. c #4B934C",
"b. c #4C9B4E",
"n. c #449D47",
"m. c #509B4D",
"M. c #598157",
"N. c #4D9A50",
"B. c #549B53",
"V. c #539554",
"C. c #4AA74C",
"Z. c #44B146",
"A. c #4CB34E",
"S. c #4EA350",
"D. c #52A352",
"F. c #52AC53",
"G. c #4FB250",
"H. c #4FBA55",
"J. c #55B456",
"K. c #56B957",
"L. c #57B558",
"P. c #5AB55B",
"I. c #57B958",
"U. c #59BC5A",
"Y. c #5AB456",
"T. c #54AE4D",
"R. c #5F8C61",
"E. c #6D936D",
"W. c #5FB760",
"Q. c #61B561",
"!. c #64B965",
"~. c #6AB96B",
"^. c #7ABF7A",
"/. c #75BD76",
"(. c #7CA07D",
"). c #5BC35C",
"_. c #57C05A",
"`. c #7B7E82",
"'. c #8B8D93",
"]. c #9C9D9D",
"[. c #8D908D",
"{. c #9CAD9C",
"}. c #8FB490",
"|. c #A0B69E",
" X c #ACACAC",
".X c #A5A7A5",
"XX c #B1AFB0",
"oX c #B2B3B4",
"OX c #BCBCBC",
"+X c #B7B9B8",
"@X c #9BCA9B",
"#X c #95C895",
"$X c #A2CDA2",
"%X c #A5D0A5",
"&X c #A7D2A8",
"*X c #BBC6BA",
"=X c #B4D6B4",
"-X c #C2BDC2",
";X c #C2C1C2",
":X c #CDCBCD",
">X c #CFD1CF",
",X c #D5D5D5",
"<X c #DCDADC",
"1X c #D4E5D4",
"2X c #DCEBDD",
"3X c #D7E8D7",
"4X c #EAEAEB",
"5X c #E9F2E9",
"6X c #F3F4F3",
"7X c #FEFEFE",
"8X c #F7F9F7",
"9X c None",
/* pixels */
"9X9X9X9X9X9X9X9X9X9X9X9X9X9X9X9X9X9X9X9X9X9X9X9X9X9X9X9X9X9X9X9X9X9X9X9X9X9X9X9X9X9X9X9X9X9X9X9X9X9X9X9X9X9X9X9X9X9X9X9X",
"9X9X9X9X9X9X9X9X9X9X9X9X9X9X9X9X9X9X9X9X9X9X9X9X9X9X9X9X9X9X9X9X9X9X9X9X9X9X9X9X9X9X9X9X9X9X9X9X9X9X9X9X9X9X9X9X9X9X9X9X",
"9X9X9X9X9X9X9X9X9X9X9X9X9X9X9X9X9X9X9X9X9X9X9X9X9X9X9X9X9X9X9X9X9X9X9X9X9X9X9X9X9X9X9X9X9X9X9X9X9X9X9X9X9X9X9X9X9X9X9X9X",
"9X9X9X9X9X9X9X9X9X9X9X9X9X9X9X9X9X9X9X9X9X9X9X9X9X9X9X9X9X9X9X9X9X9X9X9X9X9X9X9X9X9X9X9X9X9X9X9X9X9X9X9X9X9X9X9X9X9X9X9X",
"9X9X9X9X9X9X9X9X9X9X9X9X9X9X9X9X9X9X9X9X9X9X9X9X9X9X9X9X9X9X9X9X9X9X9X9X9X9X9X9X9X9X9X9X9X9X9X9X9X9X9X9X9X9X9X9X9X9X9X9X",
"9X9X9X9X9X9X9X9X9X9X9X9X9X9X9X9X9X9X9X9X9X9X9X9X9X9X9X9X9X9X9X9X9X9X9X9X9X9X9X9X9X9X9X9X9X9X9X9X9X9X9X9X9X9X9X9X9X9X9X9X",
"9X9X9X9X9X9X9X9X9X9X9X9X9X9X9X9X9X9X9X9X9X9X9X9X9X9X9X9X9X9X9X9X9X9X9X9X9X9X9X9X9X9X9X9X9X9X9X9X9X9X9X9X9X9X9X9X9X9X9X9X",
"9X9X9X9X9X9X9X9X9X9X9X9X9X9X9X9X9X9X9X9X9X9X9X9X9X9X9X9X9X9X9X9X9X9X9X9X9X9X9X9X9X9X9X9X9X9X9X9X9X9X9X9X9X9X9X9X9X9X9X9X",
"9X9X9X9X9X9X9X9X9X9X9X9X9X9X9X9X9X9X9X9X9X9X9X9X9X9X9X9X9X9X9X9X9X9X9X9X9X9X9X9X9X9X9X9X9X9X9X9X9X9X9X9X9X9X9X9X9X9X9X9X",
"9X9X9X9X9X9X9X9X9X9X9X9X9X9X9X9X9X9X9X9X9X9X9X9X9X9X9X9X9X9X9X9X9X9X9X9X9X9X9X9X9X9X9X9X9X9X9X9X9X9X9X9X9X9X9X9X9X9X9X9X",
"9X9X9X9X9X9X9X9X9X9X9X9X9X9X9X9X9X9X9X9X9X9X9X9X9X9X9X9X9X9X9X9X9X9X9X9X9X9X9X9X9X9X9X9X9X9X9X9X9X9X9X9X9X9X9X9X9X9X9X9X",
"9X9X9X9X9X9X9X9X9X9X9X9X9X9X9X9X9X9X9X9X9X9X9X9X9X9X9X9X9X9X9X9X9X9X9X9X9X9X9X9X9X9X9X9X9X9X9X9X9X9X9X9X9X9X9X9X9X9X9X9X",
"9X9X9X9X9X9X9X9X9X9X9X9X9X9X9X9X9X9X9X9X9X9X9X9X9X9X9X9X9X9X9X9X9X9X9X9X9X9X9X9X9X9X9X9X9X9X9X9X9X9X9X9X9X9X9X9X9X9X9X9X",
"9X9X9X9X9X9X9X9X9X9X9X9X9X9X9X9X9X9X9X9X9X9X9X9X9X9X9X9X9X9X9X9X9X9X9X9X9X9X9X9X9X9X9X9X9X9X9X9X9X9X9X9X9X9X9X9X9X9X9X9X",
"9X9X9X9X9X9X9X9X9X9X9X9X9X9X9X9X9X9X9X9X9X9X9X9X9X9X9X9X9X9X9X9X9X9X9X9X9X9X9X9X9X9X9X9X9X9X9X9X9X9X9X9X9X9X9X9X9X9X9X9X",
"9X9X9X9X9X9X9X9X9X9X9X9X9X9X9X9X9X9X9X9X9X9X9X9X9X9X9X9X9X9X9X9X9X9X9X9X9X9X9X9X9X9X9X9X9X9X9X9X9X9X9X9X9X9X9X9X9X9X9X9X",
"9X9X9X9X9X9X9X9X9X9X9X9X9X9X9X9X9X9X9X9X9X9X9X9X9X9X9X9X9X9X9X9X9X9X9X9X9X9X9X9X9X9X9X9X9X9X9X9X9X9X9X9X9X9X9X9X9X9X9X9X",
"9X9X9X9X9X9X9X9X9X9X9X9X9X9X9X9X9X9X9X9X9X9X9X9X9X9X9X9X9X9X9X9X9X9X9X9X9X9X9X9X9X9X9X9X9X9X9X9X9X9X9X9X9X9X9X9X9X9X9X9X",
"9X9X9X9X9X9X9X9X9X9X9X9X9X9X9X9X9X9X9X9X9X9X9X9X9X9X9X9X9X9X9X9X9X9X9X9X9X9X9X9X9X9X9X9X9X9X9X9X9X9X9X9X9X9X9X9X9X9X9X9X",
"9X9X9X9X9X9X9X9X9X9X9X9X9X9X9X9X9X9X9X9X9X9X9X9X9X9X9X9X9X9X9X9X9X9X9X9X9X9X9X9X9X9X9X9X9X9X9X9X9X9X9X9X9X9X9X9X9X9X9X9X",
"9X9X9X9X9X9X9X9X9X9X9X9X9X9X9X9X9X9X9X9X9X9X9X9X9X9X9X9X9X9X9X9X9X9X9X9X9X9X9X9X9X9X9X9X9X9X9X9X9X9X9X9X9X9X9X9X9X9X9X9X",
"9X9X9X9X9X9X9X9X9X9X9X9X9X9X9X9X9X9X9X9X9X9X9X9X9X9X9X9X9X9X9X9X9X9X9X9X9X9X9X9X9X9X9X9X9X9X9X9X9X9X9X9X9X9X9X9X9X9X9X9X",
"9X9X9X9X9X9X9X9X9X9X9X9X9Xe d d d d d q 9X9X9X9X9X9X9X9X9X9X9X9X9X9X9X9X9X9X9X9X9X9X9X9X9X9X9X9X9X9X9X9X9X9X9X9X9X9X9X9X",
"9X9X9X9X9X9X9X9X9X9X9X9X9X: > > > > > > # 9X9X9X9X9X9X9X9X9X9X9X9X9X9X9X9X9X9X9X9X9X9X9X9X9X9X9X9X9X9X9X9X9X9X9X9X9X9X9X",
"9X9X9X9X9X9X9X9X9X9X9X9XK z.:.{ :.:.P ..P 9X9X9X9X9X9X9X9X9X9X9X9X9X9X9X9X9X9X9X9X9X9X9X9X9X9X9X9X9X9X9X9X9X9X9X9X9X9X9X",
"9X9X9X9X9X9X9X9X9X9Xd : k._.K.K.J.K.x.N.z.z t 9X9X9X9X9X9Xt a i u i i a a a a i i = 9X9X9X9X9X9X9X9X9X9X9X9X9X9X9X9X9X9X",
"9X9X9X9X9X9X9X9X9X9X0 > I K.J.K.K.J.v.l...> 2 9X9X9X9X9X9Xq w u x i 9 8 9 8 9 q f - 9X9X9X9X9X9X9X9X9X9X9X9X9X9X9X9X9X9X",
"9X9X9X9X9X9X9X9XX H S.b.S.K.J.J.J.J.F.F.b.:.k.P # - = # #.8.5.! z B *.*.*.*.*._ W ! y $ 9X9X9X9X9X9X9X9X9X9X9X9X9X9X9X9X",
"9X9X9X9X9X9X9Xw : J J.U.L.J.J.J.J.J.J.K.F.v.N.L , a z 8 #.w.w.$.z Q q.e.q.q.e.%.) ) g u & 9X9X9X9X9X9X9X9X9X9X9X9X9X9X9X",
"9X9X9X9X9X9X9XH F G F.J.J.K.J.J.J.J.J.K.F.l.N.P y z c u ! q.q.#.z Z 9.9.q.q.q.%.) ) g c t 9X9X9X9X9X9X9X9X9X9X9X9X9X9X9X",
"9X9X9X9X9X% t S.I.J.J.K.J.J.J.J.J.J.J.J.J.J.I.N.c.l.9.7.9.9.q.&.( ) R c ` q.q.q.q.8.` ` W = * 9X9X9X9X9X9X9X9X9X9X9X9X9X",
"9X9X9X9X9X: > c.U.F.j.a.Z.L.I.L.J.J.J.J.J.J.K.N.l.x.0.q.q.9.w.%./ ) B z #.e.q.q.q.8.` ) W u u 9X9X9X9X9X9X9X9X9X9X9X9X9X",
"9X9X9X9XK k.L D.A.Q.@X&X}.n.b.F.J.J.J.J.K.L.K.D.N.m.0.q.q.0.q.5.' %.~ V _ 5.*.6.q.9.%.&.) C V s 9X9X9X9X9X9X9X9X9X9X9X9X",
"9X9X* : h.).I.Q.a.^.8X7X,X4 > v.I.J.J.J.J.J.A.J.K.Y.q.7.q.q.q.q.q.q.' ` ( f d *.w.9.q.w.6.( ' Z 8 y t 2 2 2 % 9X9X9X9X9X",
"9X9X0 6 I J.F.Q.d.^.5X7X>Xg 5 b.I.J.J.J.A.Z.Z.Z.Z.T.0.q.q.q.q.q.q.q.` ` _ B c *.w.q.9.w.5./ ` V u g s 3 3 s f 9X9X9X9X9X",
"9X9X0 > I I.J.K.A.Q. X+X[.f , b.U.J.Q.A.#X1X1X*X|.|.8.' &.%.%.6.q.8.` ) ! B c *.q.9.&.&.%./ ) ! W ~ l.c.c.l.S.U $ 9X9X9X",
"9X9X0 1 I I.J.J.U.S.      y ; c.K.J.j.t.&X7X7X<X;X-X=.A _ / / 5.e.q.` ` ( B c *.e.9.` / ( ` ` ` S ' U.U.U._.).:.> = 9X9X",
"9X9X0 > I I.J.J.I.F.;.O.O.G G b.I.J.^.~.=X7X7X,XOX+X=.S _ ) ( 5.q.6.` ) ! B c &.q.8.` ( ` ( / ] _ ] F.K.J.S.J.L 6 t 9X9X",
"9X9X0 > I I.J.J.K.J.F.F.T.F.C.Q.P.^.5X5X6X7X7X,X+X+X@.h E R R _ ` ` ) ) ! B B _ ' ` R R R R V >.x.b.F.K.c.G J v g 0 9X9X",
"9X9X0 , I I.J.J.J.J.I.I.I.K.U.a.t.J.7X7X7X7X7X<X;X;X@.@ M N 7 Z ` ` ` ' / c b / ` ( N 7 7 < < >.v.c.K.).b.> ; i i = 9X9X",
"9X9X0 > I K.J.J.J.J.J.J.G.K.Z.@X=X=X8X7X8X4X4X*X{.{.M.{ ;.;.[ ^ W ! W W Q C c Z / ! [ [ [ >.{ m.S.b.c.m.c.q q w - 9X9X9X",
"9X9X0 6 I K.J.J.J.J.W.U.W.!.d.2X7X7X7X7X4XoX+X(.r.c.J.U.F.c.v.;.C T T T R E E T b E v.c.D.U.J.Y.I.F.G y e 9X9X9X9X9X9X9X",
"9X9X- : h.).K.I.U._.u.y.y.g.t.3X7X7X7X7X4X;X:X}.i.v.J.J.F.z.v.^ m M m m m m m M m N l.z.b.I.J.K._.I.J % w 9X9X9X9X9X9X9X",
"9X9X9X9XK ..;.>.Y 2.1X2X2X2X2X6X7X7X,X<XOX2.3.R.c.b.J.J.F.F.F.D.m.m.m.m.m.b.m.b.m.m.F.F.F.J.J.l.L h.D 9X9X9X9X9X9X9X9X9X",
"9X9X9X9X9X: 4 l   4.6X7X7X7X7X7X7X8X;XOX].  . U c.c.J.Y.J.K.J.I.I.I.I.I.U.I.I.I.I.I.J.K.J.J.K.{ ; 2 9X9X9X9X9X9X9X9X9X9X",
"9X9X9X9X9X* 0 b   `.4X7X8X8X8X7X8X6X-X;X.X  l >.B.V.J.J.K.J.L.F.J.F.F.J.F.J.J.J.J.F.L.J.K.J.K...> d 9X9X9X9X9X9X9X9X9X9X",
"9X9X9X9X9X9X9X9X9X9X2.+.o.o.o.o.@.o.X.F B f   ].;X+XQ.J.L.J.J.S.v.c.G x F v a k.v.v.J.L.J.L.L.:.> d 9X9X9X9X9X9X9X9X9X9X",
"9X9X9X9X9X9X9X9X9X9X  o O o O o O O t p i i p .X>XOXG.u.d.a.f.C.v.v.F 4 a y 5 k.v.b.s.a.a.a.a.U > d 9X9X9X9X9X9X9X9X9X9X",
"9X9X9X9X9X9X9X9X9X9X9Xj 0 r j j j j = = r o & ]. X.X$X$X$X$X$XE.U z.D # w * $ ..h.z.@X$X$X$X$XE.+ x 9X9X9X9X9X9X9X9X9X9X",
"9X9X9X9X9X9X9X9X9X9X9X9X9X9X9X9X9X9X9X9X9X9X9X|   +.6X7X7X7X7X X. | 9X9X9X9X9Xk . -.7X7X7X7X7XXX  X.9X9X9X9X9X9X9X9X9X9X",
"9X9X9X9X9X9X9X9X9X9X9X9X9X9X9X9X9X9X9X9X9X9X9X} . 3.6X7X7X7X7XXX  } 9X9X9X9X9Xb   4.8X7X7X7X7XoX  } 9X9X9X9X9X9X9X9X9X9X",
"9X9X9X9X9X9X9X9X9X9X9X9X9X9X9X9X9X9X9X9X9X9X9X9X9X1.+XoX X XOX'.9X9X9X9X9X9X9X9X9X<.oXoX X X+X'.9X9X9X9X9X9X9X9X9X9X9X9X",
"9X9X9X9X9X9X9X9X9X9X9X9X9X9X9X9X9X9X9X9X9X9X9X9X9X9X        . 9X9X9X9X9X9X9X9X9X9X9X        . 9X9X9X9X9X9X9X9X9X9X9X9X9X",
"9X9X9X9X9X9X9X9X9X9X9X9X9X9X9X9X9X9X9X9X9X9X9X9X9X9X}  .X. .} 9X9X9X9X9X9X9X9X9X9X9X}  .X. .} 9X9X9X9X9X9X9X9X9X9X9X9X9X",
"9X9X9X9X9X9X9X9X9X9X9X9X9X9X9X9X9X9X9X9X9X9X9X9X9X9X9X9X9X9X9X9X9X9X9X9X9X9X9X9X9X9X9X9X9X9X9X9X9X9X9X9X9X9X9X9X9X9X9X9X",
"9X9X9X9X9X9X9X9X9X9X9X9X9X9X9X9X9X9X9X9X9X9X9X9X9X9X9X9X9X9X9X9X9X9X9X9X9X9X9X9X9X9X9X9X9X9X9X9X9X9X9X9X9X9X9X9X9X9X9X9X",
"9X9X9X9X9X9X9X9X9X9X9X9X9X9X9X9X9X9X9X9X9X9X9X9X9X9X9X9X9X9X9X9X9X9X9X9X9X9X9X9X9X9X9X9X9X9X9X9X9X9X9X9X9X9X9X9X9X9X9X9X",
"9X9X9X9X9X9X9X9X9X9X9X9X9X9X9X9X9X9X9X9X9X9X9X9X9X9X9X9X9X9X9X9X9X9X9X9X9X9X9X9X9X9X9X9X9X9X9X9X9X9X9X9X9X9X9X9X9X9X9X9X",
"9X9X9X9X9X9X9X9X9X9X9X9X9X9X9X9X9X9X9X9X9X9X9X9X9X9X9X9X9X9X9X9X9X9X9X9X9X9X9X9X9X9X9X9X9X9X9X9X9X9X9X9X9X9X9X9X9X9X9X9X",
"9X9X9X9X9X9X9X9X9X9X9X9X9X9X9X9X9X9X9X9X9X9X9X9X9X9X9X9X9X9X9X9X9X9X9X9X9X9X9X9X9X9X9X9X9X9X9X9X9X9X9X9X9X9X9X9X9X9X9X9X"
};
