/* XPM */
static char *result[] = {
/* columns rows colors chars-per-pixel */
"60 60 213 2 ",
"   c black",
".  c #0F070D",
"X  c #1C001B",
"o  c #181614",
"O  c #300017",
"+  c #030021",
"@  c #0B0927",
"#  c #140024",
"$  c #1D0623",
"%  c #001126",
"&  c #0D1325",
"*  c #0E1B25",
"=  c #121427",
"-  c #131B25",
";  c #1B1F29",
":  c #181B26",
">  c #240023",
",  c #250029",
"<  c #2C012A",
"1  c #2C0B2A",
"2  c #27062A",
"3  c #34042D",
"4  c #2E142B",
"5  c #241C2B",
"6  c #2D1E2C",
"7  c #211128",
"8  c #31122E",
"9  c #3E0030",
"0  c #07272A",
"q  c #1D242A",
"w  c #1A2B2B",
"e  c #16332C",
"r  c #25252B",
"t  c #2D252D",
"y  c #252C2D",
"u  c #2C2C2E",
"i  c #222221",
"p  c #312C2E",
"a  c #30262F",
"s  c #2B312E",
"d  c #31312E",
"f  c #343323",
"g  c #3B2936",
"h  c #293534",
"j  c #343432",
"k  c #3A3531",
"l  c #313B30",
"z  c #3F3935",
"x  c #3B3A3D",
"c  c #373A3B",
"v  c #40002E",
"b  c #410C30",
"n  c #410630",
"m  c #441434",
"M  c #432F32",
"N  c #423A35",
"B  c #4C3B35",
"V  c #453637",
"C  c #523D36",
"Z  c #5C3E37",
"A  c #553E38",
"S  c #55312E",
"D  c #6F2235",
"F  c #633B25",
"G  c #31492E",
"H  c #354933",
"J  c #384536",
"K  c #2E5C39",
"L  c #285836",
"P  c #345337",
"I  c #3A5D39",
"U  c #2E4734",
"Y  c #29692A",
"T  c #3B623B",
"R  c #3D6E3D",
"E  c #366A3E",
"W  c #3E723E",
"Q  c #3B7A3D",
"!  c #29683C",
"~  c #424136",
"^  c #434A38",
"/  c #4A4239",
"(  c #5C4237",
")  c #5D4439",
"_  c #514738",
"`  c #68402E",
"'  c #634437",
"]  c #634639",
"[  c #694739",
"{  c #634A3D",
"}  c #6C4A3B",
"|  c #704C3C",
" . c #67553C",
".. c #57663F",
"X. c #40753F",
"o. c #3D3D42",
"O. c #3F4145",
"+. c #3C7C45",
"@. c #397A44",
"#. c #414146",
"$. c #414B40",
"%. c #4F4D4A",
"&. c #664B40",
"*. c #6B4D42",
"=. c #755142",
"-. c #74594F",
";. c #7D5949",
":. c #7B5545",
">. c #69554D",
",. c #5E6A41",
"<. c #437442",
"1. c #437C44",
"2. c #4A7C4A",
"3. c #487945",
"4. c #5D7143",
"5. c #656869",
"6. c #6F746F",
"7. c #7C7A7E",
"8. c #777377",
"9. c #6E747C",
"0. c #835B4A",
"q. c #8A5D4C",
"w. c #8D614F",
"e. c #8D6450",
"r. c #8E6951",
"t. c #936552",
"y. c #996A56",
"u. c #966954",
"i. c #00A600",
"p. c #04AA07",
"a. c #3C8F3D",
"s. c #308F36",
"d. c #34AD35",
"f. c #37AD39",
"g. c #35B236",
"h. c #36B438",
"j. c #27B129",
"k. c #458D3E",
"l. c #3EA740",
"z. c #448346",
"x. c #478949",
"c. c #498E4B",
"v. c #488449",
"b. c #4A934C",
"n. c #4C9B4E",
"m. c #449948",
"M. c #519C4E",
"N. c #53964E",
"B. c #4E9F50",
"V. c #4E9452",
"C. c #539B53",
"Z. c #589153",
"A. c #518D4A",
"S. c #64945F",
"D. c #48A749",
"F. c #45B346",
"G. c #4CB34D",
"H. c #48B84A",
"J. c #4FA351",
"K. c #51A351",
"L. c #52AC53",
"P. c #57A959",
"I. c #4EB350",
"U. c #55B456",
"Y. c #56B857",
"T. c #57B658",
"R. c #5BB45B",
"E. c #57BA58",
"W. c #59BB59",
"Q. c #5AB256",
"!. c #5C9761",
"~. c #638F63",
"^. c #6B986C",
"/. c #63A162",
"(. c #64B664",
"). c #66B866",
"_. c #69B76A",
"`. c #77B778",
"'. c #57C358",
"]. c #9F9F9F",
"[. c #898A8E",
"{. c #85B785",
"}. c #92B492",
"|. c #A4A4A4",
" X c #ACACAC",
".X c #A5A5AA",
"XX c #B4B4B4",
"oX c #B7BAB7",
"OX c #BCBCBC",
"+X c #B8B8B7",
"@X c #99C49A",
"#X c #A2CCA2",
"$X c #AAC9AA",
"%X c #A5D1A5",
"&X c #ABD4AB",
"*X c #B8D9B9",
"=X c #B3CDB3",
"-X c #C1BEC1",
";X c #C3C2C3",
":X c #CBC7CB",
">X c #C2D7C2",
",X c #D5D6D5",
"<X c #DBDBDC",
"1X c #D7D8D9",
"2X c #DBEADB",
"3X c #DBE6DB",
"4X c #E0E0DF",
"5X c #EDEDED",
"6X c #F4F3F4",
"7X c #FEFEFE",
"8X c #F7F9F7",
"9X c #E3F0E4",
"0X c None",
/* pixels */
"0X0X0X0X0X0X0X0X0X0X0X0X0X0X0X0X0X0X0X0X0X0X0X0X0X0X0X0X0X0X0X0X0X0X0X0X0X0X0X0X0X0X0X0X0X0X0X0X0X0X0X0X0X0X0X0X0X0X0X0X",
"0X0X0X0X0X0X0X0X0X0X0X0X0X0X0X0X0X0X0X0X0X0X0X0X0X0X0X0X0X0X0X0X0X0X0X0X0X0X0X0X0X0X0X0X0X0X0X0X0X0X0X0X0X0X0X0X0X0X0X0X",
"0X0X0X0X0X0X0X0X0X0X0X0X0X0X0X0X0X0X0X0X0X0X0X0X0X0X0X0X0X0X0X0X0X0X0X0X0X0X0X0X0X0X0X0X0X0X0X0X0X0X0X0X0X0X0X0X0X0X0X0X",
"0X0X0X0X0X0X0X0X0X0X0X0X0X0X0X0X0X0X0X0X0X0X0X0X0X0X0X0X0X0X0X0X0X0X0X0X0X0X0X0X0X0X0X0X0X0X0X0X0X0X0X0X0X0X0X0X0X0X0X0X",
"0X0X0X0X0X0X0X0X0X0X0X0X0X0X0X0X0X0X0X0X0X0X0X0X0X0X0X0X0X0X0X0X0X0X0X0X0X0X0X0X0X0X0X0X0X0X0X0X0X0X0X0X0X0X0X0X0X0X0X0X",
"0X0X0X0X0X0X0X0X0X0X0X0X0X0X0X0X0X0X0X0X0X0X0X0X0X0X0X0X0X0X0X0X0X0X0X0X0X0X0X0X0X0X0X0X0X0X0X0X0X0X0X0X0X0X0X0X0X0X0X0X",
"0X0X0X0X0X0X0X0X0X0X0X0X0X0X0X0X0X0X0X0X0X0X0X0X0X0X0X0X0X0X0X0X0X0X0X0X0X0X0X0X0X0X0X0X0X0X0X0X0X0X0X0X0X0X0X0X0X0X0X0X",
"0X0X0X0X0X0X0X0X0X0X0X0X0X0X0X0X0X0X0X0X0X0X0X0X0X0X0X0X0X0X0X0X0X0X0X0X0X0X0X0X0X0X0X0X0X0X0X0X0X0X0X0X0X0X0X0X0X0X0X0X",
"0X0X0X0X0X0X0X0X0X0X0X0X0X0X0X0X0X0X0X0X0X0X0X0X0X0X0X0X0X0X0X0X0X0X0X0X0X0X0X0X0X0X0X0X0X0X0X0X0X0X0X0X0X0X0X0X0X0X0X0X",
"0X0X0X0X0X0X0X0X0X0X0X0X0X0X0X0X0X0X0X0X0X0X0X0X0X0X0X0X0X0X0X0X0X0X0X0X0X0X0X0X0X0X0X0X0X0X0X0X0X0X0X0X0X0X0X0X0X0X0X0X",
"0X0X0X0X0X0X0X0X0X0X0X0X0X0X0X0X0X0X0X0X0X0X0X0X0X0X0X0X0X0X0X0X0X0X0X0X0X0X0X0X0X0X0X0X0X0X0X0X0X0X0X0X0X0X0X0X0X0X0X0X",
"0X0X0X0X0X0X0X0X0X0X0X0X0X0X0X0X0X0X0X0X0X0X0X0X0X0X0X0X0X0X0X0X0X0X0X0X0X0X0X0X0X0X0X0X0X0X0X0X0X0X0X0X0X0X0X0X0X0X0X0X",
"0X0X0X0X0X0X0X0X0X0X0X0X0X0X0X0X0X0X0X0X0X0X0X0X0X0X0X0X0X0X0X0X0X0X0X0X0X0X0X0X0X0X0X0X0X0X0X0X0X0X0X0X0X0X0X0X0X0X0X0X",
"0X0X0X0X0X0X0X0X0X0X0X0X0X0X0X0X0X0X0X0X0X0X0X0X0X0X0X0X0X0X0X0X0X0X0X0X0X0X0X0X0X0X0X0X0X0X0X0X0X0X0X0X0X0X0X0X0X0X0X0X",
"0X0X0X0X0X0X0X0X0X0X0X0X0X0X0X0X0X0X0X0X0X0X0X0X0X0X0X0X0X0X0X0X0X0X0X0X0X0X0X0X0X0X0X0X0X0X0X0X0X0X0X0X0X0X0X0X0X0X0X0X",
"0X0X0X0X0X0X0X0X0X0X0X0X0X0X0X0X0X0X0X0X0X0X0X0X0X0X0X0X0X0X0X0X0X0X0X0X0X0X0X0X0X0X0X0X0X0X0X0X0X0X0X0X0X0X0X0X0X0X0X0X",
"0X0X0X0X0X0X0X0X0X0X0X0X0X0X0X0X0X0X0X0X0X0X0X0X0X0X0X0X0X0X0X0X0X0X0X0X0X0X0X0X0X0X0X0X0X0X0X0X0X0X0X0X0X0X0X0X0X0X0X0X",
"0X0X0X0X0X0X0X0X0X0X0X0X0X0X0X0X0X0X0X0X0X0X0X0X0X0X0X0X0X0X0X0X0X0X0X0X0X0X0X0X0X0X0X0X0X0X0X0X0X0X0X0X0X0X0X0X0X0X0X0X",
"0X0X0X0X0X0X0X0X0X0X0X0X0X0X0X0X0X0X0X0X0X0X0X0X0X0X0X0X0X0X0X0X0X0X0X0X0X0X0X0X0X0X0X0X0X0X0X0X0X0X0X0X0X0X0X0X0X0X0X0X",
"0X0X0X0X0X0X0X0X0X0X0X0X0X0X0X0X0X0X0X0X0X0X0X0X0X0X0X0X0X0X0X0X0X0X0X0X0X0X0X0X0X0X0X0X0X0X0X0X0X0X0X0X0X0X0X0X0X0X0X0X",
"0X0X0X0X0X0X0X0X0X0X0X0X0X0X0X0X0X0X0X0X0X0X0X0X0X0X0X0X0X0X0X0X0X0X0X0X0X0X0X0X0X0X0X0X0X0X0X0X0X0X0X0X0X0X0X0X0X0X0X0X",
"0X0X0X0X0X0X0X0X0X0X0X0X0X0X0X0X0X0X0X0X0X0X0X0X0X0X0X0X0X0X0X0X0X0X0X0X0X0X0X0X0X0X0X0X0X0X0X0X0X0X0X0X0X0X0X0X0X0X0X0X",
"0X0X0X0X0X0X0X0X0X0X0X0X0X0X0X0X0X0X0X0X0X0X0X0X0X0X0X0X0X0X0X0X0X0X0X0X0X0X0X0X0X0X0X0X0X0X0X0X0X0X0X0X0X0X0X0X0X0X0X0X",
"0X0X0X0X0X0X0X0X0X0X0X0X0X0X0X0X0X0X0X0X0X0X0X0X0X0X0X0X0X0X0X0X0X0X0X0X0X0X0X0X0X0X0X0X0X0X0X0X0X0X0X0X0X0X0X0X0X0X0X0X",
"0X0X0X0X0X0X0X0X0X0X0X0X0X0X0X0X0X0X0X0X0X0X0X0X0X0X0X0X0X0X0X0X0X0X0X0X0X0X0X0X0X0X0X0X0X0X0X0X0X0X0X0X0X0X0X0X0X0X0X0X",
"0X0X0X0X0X0X0X0X0X0X0X0X0Xy s s s y s y - 0X0X0X0X0X0X0X0X0X0X0X0X0X0X0X0X0X0X0X0X0X0X0X0X0X0X0X0X0X0X0X0X0X0X0X0X0X0X0X",
"0X0X0X0X0X0X0X0X0X0X0X0X0X7 < < 4 1 4 6 # 0X0X0X0X0X0X0X0X0X0X0X0X0X0X0X0X0X0X0X0X0X0X0X0X0X0X0X0X0X0X0X0X0X0X0X0X0X0X0X",
"0X0X0X0X0X0X0X0X0X0X0X+ @.J.n.x.1.1.1.x.@.@ & 0X0X0X0X0X0X& = & & & & & & = * & & 0X0X0X0X0X0X0X0X0X0X0X0X0X0X0X0X0X0X0X",
"0X0X0X0X0X0X0X0X0X0Xq , z.W.E.B.b.b.b.B.v.t 5 0X0X0X0X0X0Xq u u u u y u u u y u u : 0X0X0X0X0X0X0X0X0X0X0X0X0X0X0X0X0X0X",
"0X0X0X0X0X0X0X0X0X0XK a W Y.T.B.b.b.b.b.1.p U e 0X0X0X0X5 V k j p d k k d k k p k p 0X0X0X0X0X0X0X0X0X0X0X0X0X0X0X0X0X0X",
"0X0X0X0X0X0X0X0X# K U.U.U.U.T.U.U.L.b.b.b.c.c.@.# q r % *.u.t.{ j B q.w.w.w.t.=.] [ p - 0X0X0X0X0X0X0X0X0X0X0X0X0X0X0X0X",
"0X0X0X0X0X0X0X= , H L.Y.U.U.U.U.T.U.b.c.c.b.b.T < t u 0 ) u.u.&.y / t.u.t.u.u.=.' ] j y % 0X0X0X0X0X0X0X0X0X0X0X0X0X0X0X",
"0X0X0X0X0X0X0X+.2.<.L.Y.L.U.U.U.U.U.n.n.n.b.b.@.P I ) A =.t.t.*.V ) ;.;.q.e.t.;.=.=.B B M 0X0X0X0X0X0X0X0X0X0X0X0X0X0X0X",
"0X0X0X0X0X# t D.Y.U.Y.Y.Y.U.U.U.U.U.U.Y.L.c.b.N.b.N.u.y.t.w.t.:.[ [ z 0 &.t.t.t.t.t.} } ' q ; 0X0X0X0X0X0X0X0X0X0X0X0X0X",
"0X0X0X0X0Xy 8 a.H.F.U.Y.U.U.U.U.U.U.U.U.L.c.b.c.c.A.r.t.t.t.t.=.' ] B j *.t.t.e.t.e.[ [ ( y u 0X0X0X0X0X0X0X0X0X0X0X0X0X",
"0X0X0X+ @.n.a.$X2X>X~.Y b.T.U.U.U.U.U.U.L.P.P.C.V.Z.e.w.e.t.t.q.0.0.{ ) { *.&.q.t.e.0.0.=.C ' M = r w e 0X0X0X0X0X0X0X0X",
"0X0X; < 2.'.F.2X7X7X7.  3.Y.U.U.U.U.U.U.U.F.H.m.s.x.t.t.t.t.t.u.u.t.| } ] s w ;.u.u.u.y.w.[ | B w y 2 > + 0X0X0X0X0X0X0X",
"0X0Xq 1 <.U.D.*X6X4X5.  2.T.U.U.U.U.U.U.T.).)./.!.Z.e.t.t.t.q.w.e.w.} [ { N z ;.u.w.w.w.;.' [ B d k H T L 0X0X0X0X0X0X0X",
"0X0Xq < R Y.U.^.7.6.J , 1.Y.U.U.U.R._.R.{.=XoXoX=X+X-.F *.*.[ q.u.q.} [ ] N k ;.t.q.| } } [ [  .[  .K.Y.n.h w 0X0X0X0X0X",
"0X0Xq 1 R Y.U.Y     < > R T.U.U.R.L.p.i.{.-X;X-X-X-X-.F &.[ Z q.u.t.} [ ) N j 0.y.t.[ [ [ } } [ D | Q.'.m.< # 0X0X0X0X0X",
"0X0Xq < @.Y.Y.V.2.2.1.W b.Y.U.U.G.R.&X&X=X-XOXOX;X+X>.S { ) ( :.q.0.} [ ) N k =.q.0.] ) ) ) Z ..,.4.K.L.b.Q x.! 0X0X0X0X",
"0X0Xq < R U.U.U.T.T.Y.T.U.U.U.R.U.`.7X7X5X+X;X-X;X+X%.f ^ N J ( [ ] [ } ) N N ( [ ' ~ ~ ~ ~ N 3.b.b.b.x.C.U.W.z., : 0X0X",
"0X0Xq < R Y.U.U.U.U.U.U.U.U.T.f.i.U.7X7X5X+X;X;X:XOX%.O m n 9 Z } [ } | ] k N ' } [ b 9 b b v 3.B.b.n.b.J.W.'.X.3 q 0X0X",
"0X0Xq < R E.U.U.T.U.U.U.U.R.h.>X9X3X,X,X,X+X;X}.`.{.C.n.M.C.J...S _ A / B V N / C _ N.M.N.N.K.X.P I I I T W W H a ; 0X0X",
"0X0Xq 8 W Y.U.U.U.U.U.G.G.T.i.9X7X7X-XXXOX-X;X{.j.I.T.Y.U.Y.'.3.9 ~ z z N N N ~ M ^ U.Y.Y.Y.'.W > t 4 6 8 1 < a l ; 0X0X",
"0X0X= # z.Y.I.U.U.U.(.).(._.F.2X7X8X;X-X-X+X-X{.F.Q.Q.T.U.U.T.<.9 ^ N N N N N N M ^ L.U.U.U.Y.1.t J s d u q q q ; & 0X0X",
"0X0X0X0Xe P J $.. 5.5X7X8X8X7X,X-X-X;X;X|.q V V.E.U.Q.U.L.c.b.T 1 l d d d d d s t l b.b.C.T.T.U.U.L.H 4 w 0X0X0X0X0X0X0X",
"0X0X0X0X0X7 t x   8.6X7X7X7X7X<X=X;X;X:X|.  4 s.h.d.d.g.l.b.n.T < l u u u u u l t l b.n.m.d.d.d.g.f.G 1 e 0X0X0X0X0X0X0X",
"0X0X0X0X0X* * h   9.<X9X,X1X4X+X].|.|..X[.o X {.&X#X#X%X{.+.2.P 6 s = & & & & y t l 1.+./.&X#X#X%X@X$.$ h 0X0X0X0X0X0X0X",
"0X0X0X0X0X0X0X0X0X0X                    o j   <X7X7X7X7X<X> g p j ; 0X0X0X0X0X& d d g   .X7X7X7X7X6X8.  O.0X0X0X0X0X0X0X",
"0X0X0X0X0X0X0X0X0X0Xu o.o.o.o.c j c j c x i r 1X7X7X7X7X4Xs s y r : 0X0X0X0X0X& r r c    X7X7X8X7X6X7.  O.0X0X0X0X0X0X0X",
"0X0X0X0X0X0X0X0X0X0X0X0X0X0X0X0X0X0X0X0X0X0X0X.XXX X X+X.X0X0X0X0X0X0X0X0X0X0X0X0X0X0X0X[.-X X XXXXX5.0X0X0X0X0X0X0X0X0X",
"0X0X0X0X0X0X0X0X0X0X0X0X0X0X0X0X0X0X0X0X0X0X0X            0X0X0X0X0X0X0X0X0X0X0X0X0X0X0X0X          0X0X0X0X0X0X0X0X0X0X",
"0X0X0X0X0X0X0X0X0X0X0X0X0X0X0X0X0X0X0X0X0X0X0X0X#.#.#.O.0X0X0X0X0X0X0X0X0X0X0X0X0X0X0X0X0Xo.#.#.O.o.0X0X0X0X0X0X0X0X0X0X",
"0X0X0X0X0X0X0X0X0X0X0X0X0X0X0X0X0X0X0X0X0X0X0X0X0X0X0X0X0X0X0X0X0X0X0X0X0X0X0X0X0X0X0X0X0X0X0X0X0X0X0X0X0X0X0X0X0X0X0X0X",
"0X0X0X0X0X0X0X0X0X0X0X0X0X0X0X0X0X0X0X0X0X0X0X0X0X0X0X0X0X0X0X0X0X0X0X0X0X0X0X0X0X0X0X0X0X0X0X0X0X0X0X0X0X0X0X0X0X0X0X0X",
"0X0X0X0X0X0X0X0X0X0X0X0X0X0X0X0X0X0X0X0X0X0X0X0X0X0X0X0X0X0X0X0X0X0X0X0X0X0X0X0X0X0X0X0X0X0X0X0X0X0X0X0X0X0X0X0X0X0X0X0X",
"0X0X0X0X0X0X0X0X0X0X0X0X0X0X0X0X0X0X0X0X0X0X0X0X0X0X0X0X0X0X0X0X0X0X0X0X0X0X0X0X0X0X0X0X0X0X0X0X0X0X0X0X0X0X0X0X0X0X0X0X",
"0X0X0X0X0X0X0X0X0X0X0X0X0X0X0X0X0X0X0X0X0X0X0X0X0X0X0X0X0X0X0X0X0X0X0X0X0X0X0X0X0X0X0X0X0X0X0X0X0X0X0X0X0X0X0X0X0X0X0X0X",
"0X0X0X0X0X0X0X0X0X0X0X0X0X0X0X0X0X0X0X0X0X0X0X0X0X0X0X0X0X0X0X0X0X0X0X0X0X0X0X0X0X0X0X0X0X0X0X0X0X0X0X0X0X0X0X0X0X0X0X0X"
};
