/* XPM */
static char *result[] = {
/* columns rows colors chars-per-pixel */
"60 60 209 2 ",
"   c #000000",
".  c #0B0606",
"X  c #040014",
"o  c #040518",
"O  c #190016",
"+  c #1E1D1E",
"@  c #300017",
"#  c #003B00",
"$  c #1C301C",
"%  c #030023",
"&  c #0C0024",
"*  c #0B0929",
"=  c #170626",
"-  c #001126",
";  c #0D1426",
":  c #0E1B25",
">  c #151A27",
",  c #2C012A",
"<  c #2D0C2B",
"1  c #270529",
"2  c #3C002E",
"3  c #241C2B",
"4  c #2D1D2C",
"5  c #251227",
"6  c #31172E",
"7  c #3E0030",
"8  c #07272A",
"9  c #1C242A",
"0  c #18292B",
"q  c #12372F",
"w  c #25242B",
"e  c #2E232C",
"r  c #242D2D",
"t  c #2B2D2E",
"y  c #272727",
"u  c #322B2E",
"i  c #30262F",
"p  c #2A332E",
"a  c #27302D",
"s  c #32302E",
"d  c #343323",
"f  c #2E2E31",
"g  c #392735",
"h  c #2C3234",
"j  c #343434",
"k  c #3B3532",
"l  c #32323B",
"z  c #3C3B3D",
"x  c #3F3934",
"c  c #410A30",
"v  c #441434",
"b  c #6F0F34",
"n  c #422D33",
"m  c #423A35",
"M  c #4C3B35",
"N  c #473834",
"B  c #523D36",
"V  c #5C3D37",
"C  c #553E38",
"Z  c #55312E",
"A  c #6C3D39",
"S  c #633C25",
"D  c #284733",
"F  c #334130",
"G  c #354D35",
"H  c #3C4539",
"J  c #345839",
"K  c #2F5839",
"L  c #3D6C3D",
"P  c #39663D",
"I  c #3D723D",
"U  c #327636",
"Y  c #277028",
"T  c #424236",
"R  c #494539",
"E  c #5C4237",
"W  c #5D4439",
"Q  c #524739",
"!  c #43533D",
"~  c #644437",
"^  c #634639",
"/  c #694739",
"(  c #634A3C",
")  c #6C4A3B",
"_  c #684B37",
"`  c #516B3F",
"'  c #3D3E41",
"]  c #443B42",
"[  c #3F4144",
"{  c #3D7E43",
"}  c #387A43",
"|  c #424246",
" . c #474C46",
".. c #535150",
"X. c #664B40",
"o. c #6B4D42",
"O. c #755142",
"+. c #7D5949",
"@. c #785649",
"#. c #69554D",
"$. c #5F6E41",
"%. c #417640",
"&. c #437B44",
"*. c #4B7B48",
"=. c #436F43",
"-. c #5B5E67",
";. c #686667",
":. c #7B7C7B",
">. c #76797A",
",. c #6E747C",
"<. c #835B4A",
"1. c #8A5D4C",
"2. c #915F50",
"3. c #8D614F",
"4. c #8E6450",
"5. c #8D6B51",
"6. c #936552",
"7. c #996A56",
"8. c #966954",
"9. c #008701",
"0. c #00A400",
"q. c #00A800",
"w. c #17AC1C",
"e. c #368D38",
"r. c #339435",
"t. c #27AD29",
"y. c #34AE36",
"u. c #3AAF3C",
"i. c #36AE38",
"p. c #33B236",
"a. c #39B33A",
"s. c #448245",
"d. c #4B8C4B",
"f. c #478748",
"g. c #588649",
"h. c #4B954D",
"j. c #4D9A4D",
"k. c #449549",
"l. c #519C4E",
"z. c #53964E",
"x. c #4F8550",
"c. c #4F9651",
"v. c #569B55",
"b. c #638146",
"n. c #49A84B",
"m. c #4CB24D",
"M. c #45B448",
"N. c #51B34D",
"B. c #4FA451",
"V. c #52AD54",
"C. c #56A756",
"Z. c #55B456",
"A. c #56B857",
"S. c #57B658",
"D. c #5AB55B",
"F. c #57BA58",
"G. c #59BB5A",
"H. c #6E8F6F",
"J. c #5FB560",
"K. c #63B663",
"L. c #65B866",
"P. c #68B969",
"I. c #66B869",
"U. c #7DA27D",
"Y. c #78BE78",
"T. c #69AF66",
"R. c #5AC35C",
"E. c #90988F",
"W. c #979A9A",
"Q. c #87898C",
"!. c #84A585",
"~. c #8AAE8A",
"^. c #9EB69E",
"/. c #A0BA9F",
"(. c #A4A3A4",
"). c #A5A6AA",
"_. c #ACACAC",
"`. c #A8A2A8",
"'. c #B3B4B4",
"]. c #BCBBBC",
"[. c #B5B7B5",
"{. c #A2B6A2",
"}. c #96C596",
"|. c #A2CDA2",
" X c #A4D2A5",
".X c #ACD4AD",
"XX c #A7D0A8",
"oX c #B8D9B9",
"OX c #B5C4B5",
"+X c #C2BEC2",
"@X c #BFC1C0",
"#X c #C3C3C3",
"$X c #CBC8CB",
"%X c #D4D3D4",
"&X c #DADBDB",
"*X c #D8D7D8",
"=X c #E0DCDF",
"-X c #D5E5D5",
";X c #CEE3CE",
":X c #E0E0DF",
">X c #DEDFE0",
",X c #E0DEE0",
"<X c #ECECEB",
"1X c #E0EEE0",
"2X c #EFF4EF",
"3X c #F4F5F5",
"4X c #F7F9F7",
"5X c #FEFEFE",
"6X c None",
/* pixels */
"6X6X6X6X6X6X6X6X6X6X6X6X6X6X6X6X6X6X6X6X6X6X6X6X6X6X6X6X6X6X6X6X6X6X6X6X6X6X6X6X6X6X6X6X6X6X6X6X6X6X6X6X6X6X6X6X6X6X6X6X",
"6X6X6X6X6X6X6X6X6X6X6X6X6X6X6X6X6X6X6X6X6X6X6X6X6X6X6X6X6X6X6X6X6X6X6X6X6X6X6X6X6X6X6X6X6X6X6X6X6X6X6X6X6X6X6X6X6X6X6X6X",
"6X6X6X6X6X6X6X6X6X6X6X6X6X6X6X6X6X6X6X6X6X6X6X6X6X6X6X6X6X6X6X6X6X6X6X6X6X6X6X6X6X6X6X6X6X6X6X6X6X6X6X6X6X6X6X6X6X6X6X6X",
"6X6X6X6X6X6X6X6X6X6X6X6X6X6X6X6X6X6X6X6X6X6X6X6X6X6X6X6X6X6X6X6X6X6X6X6X6X6X6X6X6X6X6X6X6X6X6X6X6X6X6X6X6X6X6X6X6X6X6X6X",
"6X6X6X6X6X6X6X6X6X6X6X6X6X6X6X6X6X6X6X6X6X6X6X6X6X6X6X6X6X6X6X6X6X6X6X6X6X6X6X6X6X6X6X6X6X6X6X6X6X6X6X6X6X6X6X6X6X6X6X6X",
"6X6X6X6X6X6X6X6X6X6X6X6X6X6X6X6X6X6X6X6X6X6X6X6X6X6X6X6X6X6X6X6X6X6X6X6X6X6X6X6X6X6X6X6X6X6X6X6X6X6X6X6X6X6X6X6X6X6X6X6X",
"6X6X6X6X6X6X6X6X6X6X6X6X6X6X6X6X6X6X6X6X6X6X6X6X6X6X6X6X6X6X6X6X6X6X6X6X6X6X6X6X6X6X6X6X6X6X6X6X6X6X6X6X6X6X6X6X6X6X6X6X",
"6X6X6X6X6X6X6X6X6X6X6X6X6X6X6X6X6X6X6X6X6X6X6X6X6X6X6X6X6X6X6X6X6X6X6X6X6X6X6X6X6X6X6X6X6X6X6X6X6X6X6X6X6X6X6X6X6X6X6X6X",
"6X6X6X6X6X6X6X6X6X6X6X6X6X6X6X6X6X6X6X6X6X6X6X6X6X6X6X6X6X6X6X6X6X6X6X6X6X6X6X6X6X6X6X6X6X6X6X6X6X6X6X6X6X6X6X6X6X6X6X6X",
"6X6X6X6X6X6X6X6X6X6X6X6X6X6X6X6X6X6X6X6X6X6X6X6X6X6X6X6X6X6X6X6X6X6X6X6X6X6X6X6X6X6X6X6X6X6X6X6X6X6X6X6X6X6X6X6X6X6X6X6X",
"6X6X6X6X6X6X6X6X6X6X6X6X6X6X6X6X6X6X6X6X6X6X6X6X6X6X6X6X6X6X6X6X6X6X6X6X6X6X6X6X6X6X6X6X6X6X6X6X6X6X6X6X6X6X6X6X6X6X6X6X",
"6X6X6X6X6X6X6X6X6X6X6X6X6X6X6X6X6X6X6X6X6X6X6X6X6X6X6X6X6X6X6X6X6X6X6X6X6X6X6X6X6X6X6X6X6X6X6X6X6X6X6X6X6X6X6X6X6X6X6X6X",
"6X6X6X6X6X6X6X6X6X6X6X6X6X6X6X6X6X6X6X6X6X6X6X6X6X6X6X6X6X6X6X6X6X6X6X6X6X6X6X6X6X6X6X6X6X6X6X6X6X6X6X6X6X6X6X6X6X6X6X6X",
"6X6X6X6X6X6X6X6X6X6X6X6X6X6X6X6X6X6X6X6X6X6X6X6X6X6X6X6X6X6X6X6X6X6X6X6X6X6X6X6X6X6X6X6X6X6X6X6X6X6X6X6X6X6X6X6X6X6X6X6X",
"6X6X6X6X6X6X6X6X6X6X6X6X6X6X6X6X6X6X6X6X6X6X6X6X6X6X6X6X6X6X6X6X6X6X6X6X6X6X6X6X6X6X6X6X6X6X6X6X6X6X6X6X6X6X6X6X6X6X6X6X",
"6X6X6X6X6X6X6X6X6X6X6X6X6X6X6X6X6X6X6X6X6X6X6X6X6X6X6X6X6X6X6X6X6X6X6X6X6X6X6X6X6X6X6X6X6X6X6X6X6X6X6X6X6X6X6X6X6X6X6X6X",
"6X6X6X6X6X6X6X6X6X6X6X6X6X6X6X6X6X6X6X6X6X6X6X6X6X6X6X6X6X6X6X6X6X6X6X6X6X6X6X6X6X6X6X6X6X6X6X6X6X6X6X6X6X6X6X6X6X6X6X6X",
"6X6X6X6X6X6X6X6X6X6X6X6X6X6X6X6X6X6X6X6X6X6X6X6X6X6X6X6X6X6X6X6X6X6X6X6X6X6X6X6X6X6X6X6X6X6X6X6X6X6X6X6X6X6X6X6X6X6X6X6X",
"6X6X6X6X6X6X6X6X6X6X6X6X6X6X6X6X6X6X6X6X6X6X6X6X6X6X6X6X6X6X6X6X6X6X6X6X6X6X6X6X6X6X6X6X6X6X6X6X6X6X6X6X6X6X6X6X6X6X6X6X",
"6X6X6X6X6X6X6X6X6X6X6X6X6X6X6X6X6X6X6X6X6X6X6X6X6X6X6X6X6X6X6X6X6X6X6X6X6X6X6X6X6X6X6X6X6X6X6X6X6X6X6X6X6X6X6X6X6X6X6X6X",
"6X6X6X6X6X6X6X6X6X6X6X6X6X6X6X6X6X6X6X6X6X6X6X6X6X6X6X6X6X6X6X6X6X6X6X6X6X6X6X6X6X6X6X6X6X6X6X6X6X6X6X6X6X6X6X6X6X6X6X6X",
"6X6X6X6X6X6X6X6X6X6X6X6X6X6X6X6X6X6X6X6X6X6X6X6X6X6X6X6X6X6X6X6X6X6X6X6X6X6X6X6X6X6X6X6X6X6X6X6X6X6X6X6X6X6X6X6X6X6X6X6X",
"6X6X6X6X6X6X6X6X6X6X6X6X6X6X6X6X6X6X6X6X6X6X6X6X6X6X6X6X6X6X6X6X6X6X6X6X6X6X6X6X6X6X6X6X6X6X6X6X6X6X6X6X6X6X6X6X6X6X6X6X",
"6X6X6X6X6X6X6X6X6X6X6X6X6X6X6X6X6X6X6X6X6X6X6X6X6X6X6X6X6X6X6X6X6X6X6X6X6X6X6X6X6X6X6X6X6X6X6X6X6X6X6X6X6X6X6X6X6X6X6X6X",
"6X6X6X6X6X6X6X6X6X6X6X6X6X6X6X6X6X6X6X6X6X6X6X6X6X6X6X6X6X6X6X6X6X6X6X6X6X6X6X6X6X6X6X6X6X6X6X6X6X6X6X6X6X6X6X6X6X6X6X6X",
"6X6X6X6X6X6X6X6X6X6X6X6X6Xr p p p p p t : 6X6X6X6X6X6X6X6X6X6X6X6X6X6X6X6X6X6X6X6X6X6X6X6X6X6X6X6X6X6X6X6X6X6X6X6X6X6X6X",
"6X6X6X6X6X6X6X6X6X6X6X6X6X1 , 1 , , < e & 6X6X6X6X6X6X6X6X6X6X6X6X6X6X6X6X6X6X6X6X6X6X6X6X6X6X6X6X6X6X6X6X6X6X6X6X6X6X6X",
"6X6X6X6X6X6X6X6X6X6X6X% } B.j.j.j.j.&.f.{ * ; 6X6X6X6X6X6X; ; ; ; ; ; ; ; ; > ; ; 6X6X6X6X6X6X6X6X6X6X6X6X6X6X6X6X6X6X6X",
"6X6X6X6X6X6X6X6X6X6X9 1 s.F.A.S.A.A.h.h.f.e 3 6X6X6X6X6X6X9 t t t t t t t t t t t > 6X6X6X6X6X6X6X6X6X6X6X6X6X6X6X6X6X6X",
"6X6X6X6X6X6X6X6X6X6XJ i } S.S.Z.Z.Z.h.j.&.t D q 6X6X6X6X4 m k s t s k s s k j s k u 6X6X6X6X6X6X6X6X6X6X6X6X6X6X6X6X6X6X",
"6X6X6X6X6X6X6X6X= J Z.Z.Z.Z.Z.Z.Z.S.Z.Z.B.d.h.P = 9 w - o.6.6.X.t C 3.4.3.3.6.O.~ / u : 6X6X6X6X6X6X6X6X6X6X6X6X6X6X6X6X",
"6X6X6X6X6X6X6X    # V.S.Z.Z.Z.Z.Z.Z.Z.S.V.d.h.P , i p - ( 8.8.X.r Q 4.7.6.4.6.O.~ / j t - 6X6X6X6X6X6X6X6X6X6X6X6X6X6X6X",
"6X6X6X6X6X6X6XW.).E.D.Z.S.D.D.Z.Z.Z.Z.A.C.j.l.%.J J ( V o.6.6.o.N E +.+.<.4.6.+.O.O.M M n 6X6X6X6X6X6X6X6X6X6X6X6X6X6X6X",
"6X6X6X6X6XX l &X5X5XY.y.D.m.m.A.S.A.Z.Z.A.A.F.B.k.z.8.7.6.6.8.O./ ) m 8 X.6.6.6.6.6.) ) ~ 9 > 6X6X6X6X6X6X6X6X6X6X6X6X6X",
"6X6X6X6X6Xr   $X5X3XY.a.D.M.M.Z.S.S.Z.Z.Z.Z.Z.l.k.x.4.4.6.4.8.O.E / M j o.8.8.6.6.1./ / C p s 6X6X6X6X6X6X6X6X6X6X6X6X6X",
"6X6X6X% } B.e.}.oXXXP.t.}.;X;X!.Y s.V.A.Z.Z.Z.C.C.C.5.2.4.6.6.<.<.<.( E ( o.X.<.6.6.<.<.O.B ~ n > 3 0 0 6X6X6X6X6X6X6X6X",
"6X6X> , &.R.J.p.q.q.K.q.oX5X5X`.  z V.A.Z.Z.Z.N.M.m.5.2.6.8.6.8.8.6.) ) ~ p 0 +.8.4.8.7.3./ ) M 0 r w < & 6X6X6X6X6X6X6X",
"6X6X9 < ` F.m.J.P.K.K.w.|.<X<XE.  ! V.A.V.Z.Z.K.I.T.5.2.3.2.4.4.6.3.) / ( N m +.8.4.3.2.<.~ / B s k F G D 6X6X6X6X6X6X6X",
"6X6X9 , I F.Z.Z.Z.Z.Z.A.v.:.:...y G V.Z.D.P.J./.@X'.@./ ) ) ) <.6.3.) ) W x k @.6.3.) ) ) _ / ( ( ( d.h.s.0 = 6X6X6X6X6X",
"6X6X9 < I A.Z.Z.Z.Z.A.K.e.      , a V.D.M.q.q.{.$X].#.S ) ) / <.7.6.) / ^ m j <.7.4.) / / ) ) A b A d.j.%.j w 6X6X6X6X6X",
"6X6Xr , I F.Z.Z.Z.Z.Z.A.C.*.*.*.I s.A.M.Y.oX.XOX#X[.#.Z ( W C @.<.<.) / W m k O.1.<.~ E E E V $.g.b.j.B.s.4 w 6X6X6X6X6X",
"6X6X9 , I S.Z.Z.A.Z.Z.Z.Z.Z.A.S.A.A.K.u..X5X5X*X].[...d T m H W / ^ / ) W x x E / / T T T T n h.F.Z.Z.F.h.4 r 6X6X6X6X6X",
"6X6X9 , I F.Z.Z.Z.Z.Z.Z.Z.S.Z.Z.A.Z.t.q.|.5X5X&X#X]...@ v c 2 V ) ) ) ) ^ x x ~ ) / v 2 c c 2 l.R.A.R.R.B.t = 6X6X6X6X6X",
"6X6X9 , L F.Z.Z.Z.Z.Z.Z.Z.Z.Z.S.m.P.-X:X-X%X*X{.U.U.v.j.l.l.j.$.Z Q B Q M m m R B Q z.l.l.l.l.s.P I U ` I 6X6X6X6X6X6X6X",
"6X6X9 6 } F.A.Z.Z.A.m.m.m.m.m.Z.a.P.5X5X<X'.].U.9.k.Z.A.A.A.R.&.2 z x x m m m x n R Z.F.F.F.G.I O 5 , < & 6X6X6X6X6X6X6X",
"6X6X; = { F.V.Z.V.Z.P.I.L.L.L.I.S.Y.3X5X<X].#X!.e.z.V.Z.m.A.A.&.n R T m m N N R m ! V.Z.Z.V.A.&.g T s p > 6X6X6X6X6X6X6X",
"6X6X6X6Xq G p  .. ;.<X5X4X5X4X4X4X4X$X@X].].+X!.r.d.G 1 ` F.S.Z.Z.V.h.h.&.e 1 j.S.V.Z.F.l.4 $ W.#X'. .o l 6X6X6X6X6X6X6X",
"6X6X6X6X6X5 t ]   :.3X5X5X5X5X5X5X5X$X@X#X#X$X!.r.z.p 1 U a.y.y.i.i.h.l.s.4 , r.a.y.y.a.r., + (.%X].-.  l 6X6X6X6X6X6X6X",
"6X6X6X6X6X: ; h   ,.>X-X&X&X&X&X&X&X_.(.(.(.(.H.U *.G O H.|.|.|.|.}.x.&.%.i   ~.XX|.|. X~.O y Q._.(.-.  6X6X6X6X6X6X6X6X",
"6X6X6X6X6X6X6X6X6X6X                          O 6 5 |   _.5X5X5X5X4X;.  ] l   ,X5X5X5X5X1X. '     o 6X6X6X6X6X6X6X6X6X6X",
"6X6X6X6X6X6X6X6X6X6Xt ' ] ' ' ' ' ' j l l j l j a r z   _.5X5X5X5X3X>.  [ y X &X5X5X5X5X>X. f l l w 6X6X6X6X6X6X6X6X6X6X",
"6X6X6X6X6X6X6X6X6X6X6X6X6X6X6X6X6X6X6X6X6X6X6X6X6X6X6X6XQ.]._._.'.[.-.6X6X6X6X).'._._.].).6X6X6X6X6X6X6X6X6X6X6X6X6X6X6X",
"6X6X6X6X6X6X6X6X6X6X6X6X6X6X6X6X6X6X6X6X6X6X6X6X6X6X6X6X6X          6X6X6X6X6X            6X6X6X6X6X6X6X6X6X6X6X6X6X6X6X",
"6X6X6X6X6X6X6X6X6X6X6X6X6X6X6X6X6X6X6X6X6X6X6X6X6X6X6X6X6X' | | | ' 6X6X6X6X6X6X[ | | ' 6X6X6X6X6X6X6X6X6X6X6X6X6X6X6X6X",
"6X6X6X6X6X6X6X6X6X6X6X6X6X6X6X6X6X6X6X6X6X6X6X6X6X6X6X6X6X6X6X6X6X6X6X6X6X6X6X6X6X6X6X6X6X6X6X6X6X6X6X6X6X6X6X6X6X6X6X6X",
"6X6X6X6X6X6X6X6X6X6X6X6X6X6X6X6X6X6X6X6X6X6X6X6X6X6X6X6X6X6X6X6X6X6X6X6X6X6X6X6X6X6X6X6X6X6X6X6X6X6X6X6X6X6X6X6X6X6X6X6X",
"6X6X6X6X6X6X6X6X6X6X6X6X6X6X6X6X6X6X6X6X6X6X6X6X6X6X6X6X6X6X6X6X6X6X6X6X6X6X6X6X6X6X6X6X6X6X6X6X6X6X6X6X6X6X6X6X6X6X6X6X",
"6X6X6X6X6X6X6X6X6X6X6X6X6X6X6X6X6X6X6X6X6X6X6X6X6X6X6X6X6X6X6X6X6X6X6X6X6X6X6X6X6X6X6X6X6X6X6X6X6X6X6X6X6X6X6X6X6X6X6X6X",
"6X6X6X6X6X6X6X6X6X6X6X6X6X6X6X6X6X6X6X6X6X6X6X6X6X6X6X6X6X6X6X6X6X6X6X6X6X6X6X6X6X6X6X6X6X6X6X6X6X6X6X6X6X6X6X6X6X6X6X6X",
"6X6X6X6X6X6X6X6X6X6X6X6X6X6X6X6X6X6X6X6X6X6X6X6X6X6X6X6X6X6X6X6X6X6X6X6X6X6X6X6X6X6X6X6X6X6X6X6X6X6X6X6X6X6X6X6X6X6X6X6X"
};
