/* XPM */
static char *result[] = {
/* columns rows colors chars-per-pixel */
"60 60 209 2 ",
"   c #000000",
".  c #0B0606",
"X  c #040014",
"o  c #040518",
"O  c #190016",
"+  c #1E1D1E",
"@  c #300017",
"#  c #003B00",
"$  c #1C301C",
"%  c #030023",
"&  c #0B0024",
"*  c #060C28",
"=  c #170626",
"-  c #0E1326",
";  c #091824",
":  c #151A27",
">  c #2C012A",
",  c #2D0C2B",
"<  c #270529",
"1  c #3C002E",
"2  c #241C2A",
"3  c #2D1D2C",
"4  c #251227",
"5  c #31172E",
"6  c #3E0030",
"7  c #07272A",
"8  c #1D242A",
"9  c #18292B",
"0  c #12372F",
"q  c #25242B",
"w  c #2E232C",
"e  c #242D2D",
"r  c #2B2D2E",
"t  c #272827",
"y  c #322B2E",
"u  c #30262F",
"i  c #2A342D",
"p  c #27302D",
"a  c #32302F",
"s  c #343323",
"d  c #2E2E31",
"f  c #3A2835",
"g  c #2D3130",
"h  c #2C323A",
"j  c #343434",
"k  c #3B3532",
"l  c #32323B",
"z  c #3C3B3D",
"x  c #3F3934",
"c  c #410A30",
"v  c #441434",
"b  c #6F0F34",
"n  c #422D33",
"m  c #423A35",
"M  c #4C3B35",
"N  c #473834",
"B  c #523D36",
"V  c #5C3D37",
"C  c #553E38",
"Z  c #55312E",
"A  c #6C3D39",
"S  c #633C25",
"D  c #284733",
"F  c #344232",
"G  c #354C35",
"H  c #3E443A",
"J  c #345839",
"K  c #2F5839",
"L  c #3D6C3D",
"P  c #39663D",
"I  c #3D723D",
"U  c #317732",
"Y  c #277028",
"T  c #424236",
"R  c #484538",
"E  c #5C4237",
"W  c #5D4439",
"Q  c #524739",
"!  c #43533D",
"~  c #644437",
"^  c #634639",
"/  c #694739",
"(  c #634B3C",
")  c #6C4A3B",
"_  c #684B37",
"`  c #516B3F",
"'  c #3D3E41",
"]  c #443B42",
"[  c #3F4144",
"{  c #3D7E43",
"}  c #377842",
"|  c #424246",
" . c #474C46",
".. c #53514F",
"X. c #664B40",
"o. c #6B4D42",
"O. c #755142",
"+. c #7D5949",
"@. c #785649",
"#. c #69554D",
"$. c #5F6E41",
"%. c #417640",
"&. c #437B44",
"*. c #4B7B48",
"=. c #436F43",
"-. c #5B5E67",
";. c #686667",
":. c #7B7C7B",
">. c #76797A",
",. c #6E747C",
"<. c #835B4A",
"1. c #8A5D4C",
"2. c #915F50",
"3. c #8C614F",
"4. c #8E6350",
"5. c #8D6B51",
"6. c #936552",
"7. c #996A56",
"8. c #966954",
"9. c #008701",
"0. c #00A400",
"q. c #00A800",
"w. c #17AC1C",
"e. c #368D38",
"r. c #339435",
"t. c #27AD29",
"y. c #34AE36",
"u. c #3AAF3C",
"i. c #36AE38",
"p. c #33B236",
"a. c #39B33A",
"s. c #448245",
"d. c #4B8C4B",
"f. c #478748",
"g. c #588649",
"h. c #4B954D",
"j. c #4D9A4D",
"k. c #449549",
"l. c #519C4E",
"z. c #53964E",
"x. c #4F8550",
"c. c #4F9651",
"v. c #569B55",
"b. c #638146",
"n. c #49A84B",
"m. c #4CB24D",
"M. c #45B448",
"N. c #51B34D",
"B. c #4FA451",
"V. c #52AD54",
"C. c #56A756",
"Z. c #55B456",
"A. c #56B857",
"S. c #57B658",
"D. c #5AB55B",
"F. c #57BA58",
"G. c #59BB5A",
"H. c #6E8F6F",
"J. c #5FB560",
"K. c #63B663",
"L. c #65B866",
"P. c #68B969",
"I. c #66B869",
"U. c #7DA27D",
"Y. c #78BE78",
"T. c #6AAF66",
"R. c #5AC35C",
"E. c #90988F",
"W. c #979A9A",
"Q. c #87898C",
"!. c #84A585",
"~. c #8AAE8A",
"^. c #9EB69E",
"/. c #A0BA9F",
"(. c #A4A3A4",
"). c #A5A6AA",
"_. c #ACACAC",
"`. c #A8A2A8",
"'. c #B3B4B4",
"]. c #BCBBBC",
"[. c #B5B7B5",
"{. c #A2B6A2",
"}. c #96C596",
"|. c #A2CDA2",
" X c #A4D2A5",
".X c #ACD4AD",
"XX c #A7D0A8",
"oX c #B8D9B9",
"OX c #B5C4B5",
"+X c #C2BEC2",
"@X c #BFC1C0",
"#X c #C3C3C3",
"$X c #CBC8CB",
"%X c #D4D3D4",
"&X c #DADBDB",
"*X c #D8D7D8",
"=X c #E0DCDF",
"-X c #D5E5D5",
";X c #CEE3CE",
":X c #E0E0DF",
">X c #DEDFE0",
",X c #E0DEE0",
"<X c #ECECEB",
"1X c #E0EEE0",
"2X c #EFF4EF",
"3X c #F4F5F5",
"4X c #F7F9F7",
"5X c #FEFEFE",
"6X c None",
/* pixels */
"6X6X6X6X6X6X6X6X6X6X6X6X6X6X6X6X6X6X6X6X6X6X6X6X6X6X6X6X6X6X6X6X6X6X6X6X6X6X6X6X6X6X6X6X6X6X6X6X6X6X6X6X6X6X6X6X6X6X6X6X",
"6X6X6X6X6X6X6X6X6X6X6X6X6X6X6X6X6X6X6X6X6X6X6X6X6X6X6X6X6X6X6X6X6X6X6X6X6X6X6X6X6X6X6X6X6X6X6X6X6X6X6X6X6X6X6X6X6X6X6X6X",
"6X6X6X6X6X6X6X6X6X6X6X6X6X6X6X6X6X6X6X6X6X6X6X6X6X6X6X6X6X6X6X6X6X6X6X6X6X6X6X6X6X6X6X6X6X6X6X6X6X6X6X6X6X6X6X6X6X6X6X6X",
"6X6X6X6X6X6X6X6X6X6X6X6X6X6X6X6X6X6X6X6X6X6X6X6X6X6X6X6X6X6X6X6X6X6X6X6X6X6X6X6X6X6X6X6X6X6X6X6X6X6X6X6X6X6X6X6X6X6X6X6X",
"6X6X6X6X6X6X6X6X6X6X6X6X6X6X6X6X6X6X6X6X6X6X6X6X6X6X6X6X6X6X6X6X6X6X6X6X6X6X6X6X6X6X6X6X6X6X6X6X6X6X6X6X6X6X6X6X6X6X6X6X",
"6X6X6X6X6X6X6X6X6X6X6X6X6X6X6X6X6X6X6X6X6X6X6X6X6X6X6X6X6X6X6X6X6X6X6X6X6X6X6X6X6X6X6X6X6X6X6X6X6X6X6X6X6X6X6X6X6X6X6X6X",
"6X6X6X6X6X6X6X6X6X6X6X6X6X6X6X6X6X6X6X6X6X6X6X6X6X6X6X6X6X6X6X6X6X6X6X6X6X6X6X6X6X6X6X6X6X6X6X6X6X6X6X6X6X6X6X6X6X6X6X6X",
"6X6X6X6X6X6X6X6X6X6X6X6X6X6X6X6X6X6X6X6X6X6X6X6X6X6X6X6X6X6X6X6X6X6X6X6X6X6X6X6X6X6X6X6X6X6X6X6X6X6X6X6X6X6X6X6X6X6X6X6X",
"6X6X6X6X6X6X6X6X6X6X6X6X6X6X6X6X6X6X6X6X6X6X6X6X6X6X6X6X6X6X6X6X6X6X6X6X6X6X6X6X6X6X6X6X6X6X6X6X6X6X6X6X6X6X6X6X6X6X6X6X",
"6X6X6X6X6X6X6X6X6X6X6X6X6X6X6X6X6X6X6X6X6X6X6X6X6X6X6X6X6X6X6X6X6X6X6X6X6X6X6X6X6X6X6X6X6X6X6X6X6X6X6X6X6X6X6X6X6X6X6X6X",
"6X6X6X6X6X6X6X6X6X6X6X6X6X6X6X6X6X6X6X6X6X6X6X6X6X6X6X6X6X6X6X6X6X6X6X6X6X6X6X6X6X6X6X6X6X6X6X6X6X6X6X6X6X6X6X6X6X6X6X6X",
"6X6X6X6X6X6X6X6X6X6X6X6X6X6X6X6X6X6X6X6X6X6X6X6X6X6X6X6X6X6X6X6X6X6X6X6X6X6X6X6X6X6X6X6X6X6X6X6X6X6X6X6X6X6X6X6X6X6X6X6X",
"6X6X6X6X6X6X6X6X6X6X6X6X6X6X6X6X6X6X6X6X6X6X6X6X6X6X6X6X6X6X6X6X6X6X6X6X6X6X6X6X6X6X6X6X6X6X6X6X6X6X6X6X6X6X6X6X6X6X6X6X",
"6X6X6X6X6X6X6X6X6X6X6X6X6X6X6X6X6X6X6X6X6X6X6X6X6X6X6X6X6X6X6X6X6X6X6X6X6X6X6X6X6X6X6X6X6X6X6X6X6X6X6X6X6X6X6X6X6X6X6X6X",
"6X6X6X6X6X6X6X6X6X6X6X6X6X6X6X6X6X6X6X6X6X6X6X6X6X6X6X6X6X6X6X6X6X6X6X6X6X6X6X6X6X6X6X6X6X6X6X6X6X6X6X6X6X6X6X6X6X6X6X6X",
"6X6X6X6X6X6X6X6X6X6X6X6X6X6X6X6X6X6X6X6X6X6X6X6X6X6X6X6X6X6X6X6X6X6X6X6X6X6X6X6X6X6X6X6X6X6X6X6X6X6X6X6X6X6X6X6X6X6X6X6X",
"6X6X6X6X6X6X6X6X6X6X6X6X6X6X6X6X6X6X6X6X6X6X6X6X6X6X6X6X6X6X6X6X6X6X6X6X6X6X6X6X6X6X6X6X6X6X6X6X6X6X6X6X6X6X6X6X6X6X6X6X",
"6X6X6X6X6X6X6X6X6X6X6X6X6X6X6X6X6X6X6X6X6X6X6X6X6X6X6X6X6X6X6X6X6X6X6X6X6X6X6X6X6X6X6X6X6X6X6X6X6X6X6X6X6X6X6X6X6X6X6X6X",
"6X6X6X6X6X6X6X6X6X6X6X6X6X6X6X6X6X6X6X6X6X6X6X6X6X6X6X6X6X6X6X6X6X6X6X6X6X6X6X6X6X6X6X6X6X6X6X6X6X6X6X6X6X6X6X6X6X6X6X6X",
"6X6X6X6X6X6X6X6X6X6X6X6X6X6X6X6X6X6X6X6X6X6X6X6X6X6X6X6X6X6X6X6X6X6X6X6X6X6X6X6X6X6X6X6X6X6X6X6X6X6X6X6X6X6X6X6X6X6X6X6X",
"6X6X6X6X6X6X6X6X6X6X6X6X6X6X6X6X6X6X6X6X6X6X6X6X6X6X6X6X6X6X6X6X6X6X6X6X6X6X6X6X6X6X6X6X6X6X6X6X6X6X6X6X6X6X6X6X6X6X6X6X",
"6X6X6X6X6X6X6X6X6X6X6X6X6X6X6X6X6X6X6X6X6X6X6X6X6X6X6X6X6X6X6X6X6X6X6X6X6X6X6X6X6X6X6X6X6X6X6X6X6X6X6X6X6X6X6X6X6X6X6X6X",
"6X6X6X6X6X6X6X6X6X6X6X6X6X6X6X6X6X6X6X6X6X6X6X6X6X6X6X6X6X6X6X6X6X6X6X6X6X6X6X6X6X6X6X6X6X6X6X6X6X6X6X6X6X6X6X6X6X6X6X6X",
"6X6X6X6X6X6X6X6X6X6X6X6X6X6X6X6X6X6X6X6X6X6X6X6X6X6X6X6X6X6X6X6X6X6X6X6X6X6X6X6X6X6X6X6X6X6X6X6X6X6X6X6X6X6X6X6X6X6X6X6X",
"6X6X6X6X6X6X6X6X6X6X6X6X6X6X6X6X6X6X6X6X6X6X6X6X6X6X6X6X6X6X6X6X6X6X6X6X6X6X6X6X6X6X6X6X6X6X6X6X6X6X6X6X6X6X6X6X6X6X6X6X",
"6X6X6X6X6X6X6X6X6X6X6X6X6X6X6X6X6X6X6X6X6X6X6X6X6X6X6X6X6X6X6X6X6X6X6X6X6X6X6X: e i i i i i e 6X6X6X6X6X6X6X6X6X6X6X6X6X",
"6X6X6X6X6X6X6X6X6X6X6X6X6X6X6X6X6X6X6X6X6X6X6X6X6X6X6X6X6X6X6X6X6X6X6X6X6X6X6X& w , > > > > 4 6X6X6X6X6X6X6X6X6X6X6X6X6X",
"6X6X6X6X6X6X6X6X6X6X6X6X6X6X6X6X6X6X6X- - - - - - - - - - - - 6X6X6X6X6X6X- * { f.s.j.j.j.j.B.} % 6X6X6X6X6X6X6X6X6X6X6X",
"6X6X6X6X6X6X6X6X6X6X6X6X6X6X6X6X6X6X8 r r r r r r r r r r r 8 6X6X6X6X6X6X2 w s.h.h.S.G.Z.A.G.&.< q 6X6X6X6X6X6X6X6X6X6X",
"6X6X6X6X6X6X6X6X6X6X6X6X6X6X6X6X6X6Xr k y k a k y k i r j k N 2 6X6X6X6X0 D y &.h.h.Z.Z.Z.Z.A.{ u K 6X6X6X6X6X6X6X6X6X6X",
"6X6X6X6X6X6X6X6X6X6X6X6X6X6X6X6X: y / ~ O.6.4.3.6.3.C h X.4.8.o.* q 8 = P c.f.V.S.Z.Z.Z.Z.Z.Z.Z.Z.Z.K = 6X6X6X6X6X6X6X6X",
"6X6X6X6X6X6X6X6X6X6X6X6X6X6X6X* e j ~ ~ O.6.6.6.8.4.C e X.8.8.^ 7 r w > P h.d.V.S.Z.Z.Z.Z.Z.Z.Z.S.V.#     6X6X6X6X6X6X6X",
"6X6X6X6X6X6X6X6X6X6X6X6X6X6X6Xn B M ) O.<.6.6.<.+.+.E N o.6.6.O.B W J J %.l.l.V.Z.Z.Z.Z.Z.D.D.Z.N.D.E.`.W.6X6X6X6X6X6X6X",
"6X6X6X6X6X6X6X6X6X6X6X6X6X: e ~ ) ) 6.7.6.4.6.X.7 m ( / @.6.6.6.7.8.l.h.B.F.F.Z.Z.Z.S.S.Z.m.m.D.p.Y.5X5X&Xl X 6X6X6X6X6X",
"6X6X6X6X6X6X6X6X6X6X6X6X6Xr e E ~ / 4.6.4.6.8.o.j M / ~ O.6.6.4.6.5.d.f.l.S.Z.Z.S.Z.Z.Z.Z.M.M.D.u.Y.3X5X$X. e 6X6X6X6X6X",
"6X6X6X6X6X6X6X6X9 9 2 : n E B O.1.<.4.6.1.( o.^ E W <.<.1.6.4.6.2.5.C.C.C.S.Z.Z.Z.Z.f.Y !.;X;X}.t.P.XXoX}.e.j.} & 6X6X6X",
"6X6X6X6X6X6X6X& 4 3 e 9 B ) / 3.7.6.6.6.<.9 g E ) ) 6.8.6.6.8.6.2.8.m.M.m.D.Z.V.A.V.m   `.5X5XoXq.K.q.q.p.G.R.&.> 8 6X6X",
"6X6X6X6X6X6X6XD G F k a M / ~ <.4.3.6.6.+.m m ^ / ) 4.6.4.4.1.4.2.5.T.I.J.Z.Z.Z.A.V. .  W.<X<X|.w.K.K.L.D.Z.A.L , 8 6X6X",
"6X6X6X6X6X= 9 s.h.f.( _ _ / / ) ) o.4.8.+.k x W / ) 4.8.<.) ) o.S +.[.+X/.J.L.D.Z.Z.G t ..:.:.v.A.Z.Z.Z.Z.Z.F.I > 8 6X6X",
"6X6X6X6X6Xq j &.h.d./ b A ) ) / ~ ) 6.7.+.k m ^ / ) 6.7.<.~ ) ) S #.+X$X^.q.q.M.F.V.i >       e.G.V.Z.Z.Z.Z.F.I > 8 6X6X",
"6X6X6X6X6Xq 3 s.B.l.$.b.$.E W W W ^ <.1.O.k m W / ) <.1.O.E E X.Z #.[.+XOX.XoXY.M.V.s.I &.*.*.C.F.Z.Z.Z.Z.Z.F.I > 8 6X6X",
"6X6X6X6X6Xq 3 h.F.Z.Z.G.j.n T T T m ~ ~ W x m E ) / ~ / W H x R s ..].[.*X5X5X.Xu.L.S.S.F.A.S.S.Z.Z.Z.Z.Z.Z.F.I > 8 6X6X",
"6X6X6X6X6X= r B.R.S.F.R.l.1 c c 6 v / ) W m x W ) ) ) ) V 6 c v @ ..].+X&X5X5X|.0.t.S.Z.Z.Z.Z.Z.Z.Z.Z.Z.Z.Z.S.I , 8 6X6X",
"6X6X6X6X6X6X6X} &.L } P s.l.l.l.l.z.Q B R N m M C B C Z =.B.l.l.z.z.U.U.{.*X%X-X1X-XI.m.S.Z.S.Z.S.Z.Z.Z.Z.Z.F.L > 8 6X6X",
"6X6X6X6X6X6X6X& < > 4 O I R.A.A.G.Z.H n m m m m x m x 1 &.G.S.Z.F.Z.k.9.U.].'.<X5X5XL.u.Z.m.m.m.m.N.Z.S.Z.Z.G.{ 5 : 6X6X",
"6X6X6X6X6X6X6X: i j H f &.Z.V.Z.S.V.! T R N m m m T R n *.F.Z.Z.Z.V.z.e.!.#X].<X5X3XY.S.L.L.L.L.L.L.C.Z.Z.V.A.{ = - 6X6X",
"6X6X6X6X6X6X6Xl .  ._.$XW.$ 3 l.F.Z.Z.F.h.> w &.h.d.Z.Z.Z.Z.D.%.> G d.r.!.+X+X#X#X#X4X5X4X5X4X4X5X2X;..  .i G 0 6X6X6X6X",
"6X6X6X6X6X6X6Xl   -.].%X(.+ > r.a.y.y.a.r.> q s.j.h.i.a.y.y.a.Y < F d.r.!.$X#X#XOX$X5X5X5X5X5X5X5X3X:.  z y 4 6X6X6X6X6X",
"6X6X6X6X6X6X6X6X  -.).'.Q.t O ~. X|.|.XX~.  y =.&.x.|.|.|.|. XH.O F *.U H.).(.`.(.).&X&X&X&X&X*X:X&X,.  h ; ; 6X6X6X6X6X",
"6X6X6X6X6X6X6X6X6X6Xo     z . >X5X5X5X5X,X  j ]   ;.3X5X5X5X5X_.  | 4 5 O                           6X6X6X6X6X6X6X6X6X6X",
"6X6X6X6X6X6X6X6X6X6Xq j g d . >X5X5X5X5X-XX q |   >.3X5X5X5X5X'.  z e p g l j j l j H | ' [ z [ z r 6X6X6X6X6X6X6X6X6X6X",
"6X6X6X6X6X6X6X6X6X6X6X6X6X6X6X).[._._.[.).6X6X6X6X-.'.'._._.].Q.6X6X6X6X6X6X6X6X6X6X6X6X6X6X6X6X6X6X6X6X6X6X6X6X6X6X6X6X",
"6X6X6X6X6X6X6X6X6X6X6X6X6X6X6X            6X6X6X6X6X          6X6X6X6X6X6X6X6X6X6X6X6X6X6X6X6X6X6X6X6X6X6X6X6X6X6X6X6X6X",
"6X6X6X6X6X6X6X6X6X6X6X6X6X6X6X6X' | | | 6X6X6X6X6X6X' | | | ' 6X6X6X6X6X6X6X6X6X6X6X6X6X6X6X6X6X6X6X6X6X6X6X6X6X6X6X6X6X",
"6X6X6X6X6X6X6X6X6X6X6X6X6X6X6X6X6X6X6X6X6X6X6X6X6X6X6X6X6X6X6X6X6X6X6X6X6X6X6X6X6X6X6X6X6X6X6X6X6X6X6X6X6X6X6X6X6X6X6X6X",
"6X6X6X6X6X6X6X6X6X6X6X6X6X6X6X6X6X6X6X6X6X6X6X6X6X6X6X6X6X6X6X6X6X6X6X6X6X6X6X6X6X6X6X6X6X6X6X6X6X6X6X6X6X6X6X6X6X6X6X6X",
"6X6X6X6X6X6X6X6X6X6X6X6X6X6X6X6X6X6X6X6X6X6X6X6X6X6X6X6X6X6X6X6X6X6X6X6X6X6X6X6X6X6X6X6X6X6X6X6X6X6X6X6X6X6X6X6X6X6X6X6X",
"6X6X6X6X6X6X6X6X6X6X6X6X6X6X6X6X6X6X6X6X6X6X6X6X6X6X6X6X6X6X6X6X6X6X6X6X6X6X6X6X6X6X6X6X6X6X6X6X6X6X6X6X6X6X6X6X6X6X6X6X",
"6X6X6X6X6X6X6X6X6X6X6X6X6X6X6X6X6X6X6X6X6X6X6X6X6X6X6X6X6X6X6X6X6X6X6X6X6X6X6X6X6X6X6X6X6X6X6X6X6X6X6X6X6X6X6X6X6X6X6X6X",
"6X6X6X6X6X6X6X6X6X6X6X6X6X6X6X6X6X6X6X6X6X6X6X6X6X6X6X6X6X6X6X6X6X6X6X6X6X6X6X6X6X6X6X6X6X6X6X6X6X6X6X6X6X6X6X6X6X6X6X6X"
};
