/* XPM */
static char *result[] = {
/* columns rows colors chars-per-pixel */
"60 60 212 2 ",
"   c #000000",
".  c #040008",
"X  c #00001F",
"o  c #161616",
"O  c #171818",
"+  c #110916",
"@  c #2B0014",
"#  c #030022",
"$  c #040826",
"%  c #160424",
"&  c #0B1726",
"*  c #161926",
"=  c #1A1C2A",
"-  c #151929",
";  c #240025",
":  c #220129",
">  c #2C022A",
",  c #2B0729",
"<  c #3E002E",
"1  c #31082D",
"2  c #251E2B",
"3  c #2E1C2D",
"4  c #2C102B",
"5  c #30162D",
"6  c #300F30",
"7  c #3D1A31",
"8  c #0B252A",
"9  c #13262A",
"0  c #1D232B",
"q  c #1D2A2B",
"w  c #152728",
"e  c #1A312C",
"r  c #1E2332",
"t  c #23222B",
"y  c #2B242C",
"u  c #242B2D",
"i  c #2D2C2D",
"p  c #232323",
"a  c #312E2F",
"s  c #34252E",
"d  c #23352C",
"f  c #2C332E",
"g  c #33332F",
"h  c #3E3B25",
"j  c #212430",
"k  c #272E3B",
"l  c #382738",
"z  c #2B3130",
"x  c #303331",
"c  c #3A3532",
"v  c #323D32",
"b  c #3A3A3A",
"n  c #40002F",
"m  c #410630",
"M  c #411633",
"N  c #422433",
"B  c #423A35",
"V  c #4B3B35",
"C  c #413332",
"Z  c #563C35",
"A  c #5E3821",
"S  c #663933",
"D  c #184631",
"F  c #334433",
"G  c #344B32",
"H  c #255736",
"J  c #375737",
"K  c #28653A",
"L  c #3D6B3C",
"P  c #36653C",
"I  c #3E713E",
"U  c #367737",
"Y  c #286228",
"T  c #434336",
"R  c #494337",
"E  c #44453B",
"W  c #5D4136",
"Q  c #544139",
"!  c #5D4439",
"~  c #564838",
"^  c #4D543B",
"/  c #644436",
"(  c #634539",
")  c #684739",
"_  c #65493C",
"`  c #6B493B",
"'  c #724C3C",
"]  c #67573D",
"[  c #46663F",
"{  c #467A3D",
"}  c #3C3D42",
"|  c #3C3643",
" . c #3F4146",
".. c #3B7742",
"X. c #414246",
"o. c #4B4B4B",
"O. c #485948",
"+. c #5B5A5A",
"@. c #554D4C",
"#. c #674C41",
"$. c #6A4E42",
"%. c #765142",
"&. c #7A5545",
"*. c #7E5949",
"=. c #71574E",
"-. c #61565E",
";. c #4A6D46",
":. c #417A41",
">. c #497945",
",. c #7C604F",
"<. c #545A67",
"1. c #5D616A",
"2. c #686A6D",
"3. c #79777A",
"4. c #6F7376",
"5. c #835B4A",
"6. c #895E4C",
"7. c #925F51",
"8. c #8C624F",
"9. c #8F6350",
"0. c #8E6B51",
"q. c #926552",
"w. c #976854",
"e. c #986954",
"r. c #15891B",
"t. c #00A200",
"y. c #03AA07",
"u. c #1AAC1E",
"i. c #238927",
"p. c #1CAD20",
"a. c #33AE35",
"s. c #39AE3B",
"d. c #37AF39",
"f. c #37B238",
"g. c #2AAE2D",
"h. c #3E8144",
"j. c #3FB041",
"k. c #428245",
"l. c #498D4A",
"z. c #46894A",
"x. c #528E4C",
"c. c #46934A",
"v. c #4B934C",
"b. c #4C9B4E",
"n. c #449D47",
"m. c #509B4D",
"M. c #598156",
"N. c #4D9A50",
"B. c #549B53",
"V. c #539554",
"C. c #4AA74C",
"Z. c #44B146",
"A. c #4CB34E",
"S. c #4EA350",
"D. c #52A352",
"F. c #52AC53",
"G. c #4FB250",
"H. c #4FBA55",
"J. c #55B456",
"K. c #56B957",
"L. c #57B558",
"P. c #5AB55B",
"I. c #57B958",
"U. c #59BC5A",
"Y. c #5AB456",
"T. c #54AE4D",
"R. c #5F8C61",
"E. c #6D936D",
"W. c #5FB760",
"Q. c #61B562",
"!. c #64B965",
"~. c #6AB96B",
"^. c #7ABF7A",
"/. c #75BD76",
"(. c #7CA07D",
"). c #5BC35C",
"_. c #57C05A",
"`. c #7B7E82",
"'. c #8B8D93",
"]. c #9C9D9D",
"[. c #8D908D",
"{. c #9CAD9C",
"}. c #8FB490",
"|. c #A0B69E",
" X c #ACACAC",
".X c #A5A7A5",
"XX c #B1AFB0",
"oX c #B2B3B4",
"OX c #BCBCBC",
"+X c #B7B9B8",
"@X c #9BCA9B",
"#X c #95C895",
"$X c #A2CDA2",
"%X c #A5D0A5",
"&X c #A7D2A8",
"*X c #BBC6BA",
"=X c #B4D6B4",
"-X c #C2BDC2",
";X c #C2C1C2",
":X c #CDCBCD",
">X c #CFD1CF",
",X c #D5D5D5",
"<X c #DCDADC",
"1X c #D4E5D4",
"2X c #DCEBDD",
"3X c #D7E8D7",
"4X c #EAEAEB",
"5X c #E9F2E9",
"6X c #F3F4F3",
"7X c #FEFEFE",
"8X c #F7F9F7",
"9X c None",
/* pixels */
"9X9X9X9X9X9X9X9X9X9X9X9X9X9X9X9X9X9X9X9X9X9X9X9X9X9X9X9X9X9X9X9X9X9X9X9X9X9X9X9X9X9X9X9X9X9X9X9X9X9X9X9X9X9X9X9X9X9X9X9X",
"9X9X9X9X9X9X9X9X9X9X9X9X9X9X9X9X9X9X9X9X9X9X9X9X9X9X9X9X9X9X9X9X9X9X9X9X9X9X9X9X9X9X9X9X9X9X9X9X9X9X9X9X9X9X9X9X9X9X9X9X",
"9X9X9X9X9X9X9X9X9X9X9X9X9X9X9X9X9X9X9X9X9X9X9X9X9X9X9X9X9X9X9X9X9X9X9X9X9X9X9X9X9X9X9X9X9X9X9X9X9X9X9X9X9X9X9X9X9X9X9X9X",
"9X9X9X9X9X9X9X9X9X9X9X9X9X9X9X9X9X9X9X9X9X9X9X9X9X9X9X9X9X9X9X9X9X9X9X9X9X9X9X9X9X9X9X9X9X9X9X9X9X9X9X9X9X9X9X9X9X9X9X9X",
"9X9X9X9X9X9X9X9X9X9X9X9X9X9X9X9X9X9X9X9X9X9X9X9X9X9X9X9X9X9X9X9X9X9X9X9X9X9X9X9X9X9X9X9X9X9X9X9X9X9X9X9X9X9X9X9X9X9X9X9X",
"9X9X9X9X9X9X9X9X9X9X9X9X9X9X9X9X9X9X9X9X9X9X9X9X9X9X9X9X9X9X9X9X9X9X9X9X9X9X9X9X9X9X9X9X9X9X9X9X9X9X9X9X9X9X9X9X9X9X9X9X",
"9X9X9X9X9X9X9X9X9X9X9X9X9X9X9X9X9X9X9X9X9X9X9X9X9X9X9X9X9X9X9X9X9X9X9X9X9X9X9X9X9X9X9X9X9X9X9X9X9X9X9X9X9X9X9X9X9X9X9X9X",
"9X9X9X9X9X9X9X9X9X9X9X9X9X9X9X9X9X9X9X9X9X9X9X9X9X9X9X9X9X9X9X9X9X9X9X9X9X9X9X9X9X9X9X9X9X9X9X9X9X9X9X9X9X9X9X9X9X9X9X9X",
"9X9X9X9X9X9X9X9X9X9X9X9X9X9X9X9X9X9X9X9X9X9X9X9X9X9X9X9X9X9X9X9X9X9X9X9X9X9X9X9X9X9X9X9X9X9X9X9X9X9X9X9X9X9X9X9X9X9X9X9X",
"9X9X9X9X9X9X9X9X9X9X9X9X9X9X9X9X9X9X9X9X9X9X9X9X9X9X9X9X9X9X9X9X9X9X9X9X9X9X9X9X9X9X9X9X9X9X9X9X9X9X9X9X9X9X9X9X9X9X9X9X",
"9X9X9X9X9X9X9X9X9X9X9X9X9X9X9X9X9X9X9X9X9X9X9X9X9X9X9X9X9X9X9X9X9X9X9X9X9X9X9X9X9X9X9X9X9X9X9X9X9X9X9X9X9X9X9X9X9X9X9X9X",
"9X9X9X9X9X9X9X9X9X9X9X9X9X9X9X9X9X9X9X9X9X9X9X9X9X9X9X9X9X9X9X9X9X9X9X9X9X9X9X9X9X9X9X9X9X9X9X9X9X9X9X9X9X9X9X9X9X9X9X9X",
"9X9X9X9X9X9X9X9X9X9X9X9X9X9X9X9X9X9X9X9X9X9X9X9X9X9X9X9X9X9X9X9X9X9X9X9X9X9X9X9X9X9X9X9X9X9X9X9X9X9X9X9X9X9X9X9X9X9X9X9X",
"9X9X9X9X9X9X9X9X9X9X9X9X9X9X9X9X9X9X9X9X9X9X9X9X9X9X9X9X9X9X9X9X9X9X9X9X9X9X9X9X9X9X9X9X9X9X9X9X9X9X9X9X9X9X9X9X9X9X9X9X",
"9X9X9X9X9X9X9X9X9X9X9X9X9X9X9X9X9X9X9X9X9X9X9X9X9X9X9X9X9X9X9X9X9X9X9X9X9X9X9X9X9X9X9X9X9X9X9X9X9X9X9X9X9X9X9X9X9X9X9X9X",
"9X9X9X9X9X9X9X9X9X9X9X9X9X9X9X9X9X9X9X9X9X9X9X9X9X9X9X9X9X9X9X9X9X9X9X9X9X9X9X9X9X9X9X9X9X9X9X9X9X9X9X9X9X9X9X9X9X9X9X9X",
"9X9X9X9X9X9X9X9X9X9X9X9X9X9X9X9X9X9X9X9X9X9X9X9X9X9X9X9X9X9X9X9X9X9X9X9X9X9X9X9X9X9X9X9X9X9X9X9X9X9X9X9X9X9X9X9X9X9X9X9X",
"9X9X9X9X9X9X9X9X9X9X9X9X9X9X9X9X9X9X9X9X9X9X9X9X9X9X9X9X9X9X9X9X9X9X9X9X9X9X9X9X9X9X9X9X9X9X9X9X9X9X9X9X9X9X9X9X9X9X9X9X",
"9X9X9X9X9X9X9X9X9X9X9X9X9X9X9X9X9X9X9X9X9X9X9X9X9X9X9X9X9X9X9X9X9X9X9X9X9X9X9X9X9X9X9X9X9X9X9X9X9X9X9X9X9X9X9X9X9X9X9X9X",
"9X9X9X9X9X9X9X9X9X9X9X9X9X9X9X9X9X9X9X9X9X9X9X9X9X9X9X9X9X9X9X9X9X9X9X9X9X9X9X9X9X9X9X9X9X9X9X9X9X9X9X9X9X9X9X9X9X9X9X9X",
"9X9X9X9X9X9X9X9X9X9X9X9X9X9X9X9X9X9X9X9X9X9X9X9X9X9X9X9X9X9X9X9X9X9X9X9X9X9X9X9X9X9X9X9X9X9X9X9X9X9X9X9X9X9X9X9X9X9X9X9X",
"9X9X9X9X9X9X9X9X9X9X9X9X9X9X9X9X9X9X9X9X9X9X9X9X9X9X9X9X9X9X9X9X9X9X9X9X9X9X9X9X9X9X9X9X9X9X9X9X9X9X9X9X9X9X9X9X9X9X9X9X",
"9X9X9X9X9X9X9X9X9X9X9X9X9X9X9X9X9X9X9X9X9X9X9X9X9X9X9X9X9X9X9X9X9X9X9X9X9X9X9X9Xq u d d d d e 9X9X9X9X9X9X9X9X9X9X9X9X9X",
"9X9X9X9X9X9X9X9X9X9X9X9X9X9X9X9X9X9X9X9X9X9X9X9X9X9X9X9X9X9X9X9X9X9X9X9X9X9X9X# , > > > > > : 9X9X9X9X9X9X9X9X9X9X9X9X9X",
"9X9X9X9X9X9X9X9X9X9X9X9X9X9X9X9X9X9X9X9X9X9X9X9X9X9X9X9X9X9X9X9X9X9X9X9X9X9X9XP L L ..:.:.{ z.K 9X9X9X9X9X9X9X9X9X9X9X9X",
"9X9X9X9X9X9X9X9X9X9X9X9X9X9X9X9X9X9X= i i i a a a i y i i i t 9X9X9X9X9X9Xt i z.N.v.K.K.K.K.U.k.; d 9X9X9X9X9X9X9X9X9X9X",
"9X9X9X9X9X9X9X9X9X9X9X9X9X9X9X9X9X9X- z q 9 9 9 8 9 i x u 9 q 9X9X9X9X9X9X2 > :.v.l.J.L.J.K.K...; t 9X9X9X9X9X9X9X9X9X9X",
"9X9X9X9X9X9X9X9X9X9X9X9X9X9X9X9X$ y W W #.*.*.&.5.&.B z ! *.6.( # = - # P z.:.b.F.F.J.J.F.J.J.S.b.S.H # 9X9X9X9X9X9X9X9X",
"9X9X9X9X9X9X9X9X9X9X9X9X9X9X9X& u c ) / &.w.q.q.w.9.Z z $.w.w.#.8 i i , P N.b.F.U.J.J.J.J.J.J.L.U.J.J : w 9X9X9X9X9X9X9X",
"9X9X9X9X9X9X9X9X9X9X9X9X9X9X9Xt g c ) ) &.q.q.9.9.8.Q x $.w.q.#.u c v y P N.l.D.L.J.K.J.J.J.J.J.K.F.G F H 9X9X9X9X9X9X9X",
"9X9X9X9X9X9X9X9X9X9X9X9X9X* - ! ) ` 8.q.9.9.q.$.b V _ / &.q.9.9.7.9.m.h.m.Y.J.J.J.J.J.J.K.J.J.J.K.J.J.K.b.u % 9X9X9X9X9X",
"9X9X9X9X9X9X9X9X9X9X9X9X9Xu f ! ) ) 8.q.q.w.e.#.z B ( / &.q.9.q.q.0.x.z.B.K.J.J.J.J.J.J.L.K.L.Z.a.s.J.U.c.> : 9X9X9X9X9X",
"9X9X9X9X9X9X9X9X9X9X9X9Xs V C ` &.%.9.q.8.*.5._ V ~ %.%.*.q.q.q.q.0.B.b.D.P.P.I.Y.Y.J.K.F.b.n.}.&X@XQ.H.m.L h.K 9X9X9X9X",
"9X9X9X9X9X% t t 2 t y 9 V ' ) 6.e.q.9.w.*.u x ! ) ' q.w.q.q.q.9.7.0.Y.H.J.A.A.J.J.J.J.K.c.> 4 ,X7X8X^.a.!.K.).h.: * 9X9X",
"9X9X9X9X9Xf s 3 3 3 g d V ` / 6.q.q.q.q.*.c V ( ) ` 8.q.9.q.q.q.q.0.T.A.Z.Z.Z.A.J.J.J.K.b.5 g >X7X5X^.d.Q.J.J.I 6 t 9X9X",
"9X9X9X# I b.c.c.b.l.~ Z ! ) ) ' &.&.8.w.*.c b / ) ` 8.q.6.&.&.&.' ,.|.|.*X1X3X#XA.!.J.K.b., f [.OX.XQ.G.L.J.I.I > w 9X9X",
"9X9X= > :.).).U.).P.%.S ` ` ` ) / ) 8.e.*.c B ! ) ` 8.e.6./ / ` A =.;X-X<X7X7X&Xt.j.J.K.c.; 3       C.P.F.J.U.I > q 9X9X",
"9X9Xq 6 L J.S.F.J.F.] _ ] / / ) ) ) 8.q.&.c B / ` ` 8.q.5./ ` $.A =.+X+X,X7X7X=X~.^.J.K.b.G G O.O.;.J.L.J.K.K.I > 0 9X9X",
"9X9Xt a v J G c.K.F.v.v.>.V R R R R ) ' ( b B ! ` ) ` ' ( T T Q B @.+X+X,X7X7X6X5X5X/.P.Q.F.T.F.F.F.J.J.J.J.K.I > 0 9X9X",
"9X9X= i i ; > b.).K.v.v.:.< < M 7 N ) ` / b B ! ' ` ) ` W 7 s M @ @.;X;X<X7X7X7X7X7XJ.t.a.U.K.K.K.L.J.K.J.J.U.I 1 0 9X9X",
"9X9X9X* w w e c.b.c.b.D.v.>.>.[ ;.[ W ( Z B B Z / W ! S ~ [ ;.>.{ M.{.{.*X4X4X6X7X8X=X=X@XZ.L.F.J.J.J.J.J.J.U.L > q 9X9X",
"9X9X9X9X9X9X9Xe y G F.K.J.K.U.D.v.v.G B T E E B T E G C ;.b.l.F.K.J.c.r.(.OXXX4X7X7X7X7X2Xf.!.Q.!.P.J.J.J.F.K...6 0 9X9X",
"9X9X9X9X9X9X9Xw % J I.).I.J.K.b.l.l.N m M m m m < m M n J v.l.D.K.J.v.i.}.;X;X6X7X7X7X7X3Xt.g.y.t.u.K.U.K.K.).k.: * 9X9X",
"9X9X9X9X9X9X9X9X9XD k.L l.I.J.F.F.D.m.b.m.m.m.m.b.B.m.m.D.F.F.F.J.Y.V.v.R.3.2.OX<X,X8X7X6X2X2X2X5X1XM.Y >.L k.H 9X9X9X9X",
"9X9X9X9X9X9X9X9X9X9X2 ; I U.J.K.L.K.L.K.K.U.K.U.K.U.K.K.K.J.L.J.J.J.c.c.U . . ].OX;X8X7X7X7X7X7X7X6X4.  C , : 9X9X9X9X9X",
"9X9X9X9X9X9X9X9X9X9Xd > I I.J.J.J.L.J.J.J.F.J.F.J.F.J.J.J.L.K.J.K.J.V.V.>.s   .X;X-X6X7X8X7X7X8X7X4X`.  | q * 9X9X9X9X9X",
"9X9X9X9X9X9X9X9X9X9Xd ; :.I.J.K.L.J.v.v.k.i v F x F v.v.B.K.K.P.G.Q.+X;X].  g b E } o.o.o.o.o.o.+.2.9X9X9X9X9X9X9X9X9X9X",
"9X9X9X9X9X9X9X9X9X9Xd > U f.a.a.a.s.v.N.k.3 y z 4 F v.v.n.a.a.s.p.T.*X>X.Xp i i p p O O O o o o o   9X9X9X9X9X9X9X9X9X9X",
"9X9X9X9X9X9X9X9X9X9Xv + E.$X$X$X$X@XM.h...$ & 9 # D z.U E.&X$X$X$X$X.X X].& + r = = r j j r r 2 r 9X9X9X9X9X9X9X9X9X9X9X",
"9X9X9X9X9X9X9X9X9X9XX.  XX7X7X7X7X8X-.. | 9X9X9X9X9X| .  X7X7X7X7X6X+.  k 9X9X9X9X9X9X9X9X9X9X9X9X9X9X9X9X9X9X9X9X9X9X9X",
"9X9X9X9X9X9X9X9X9X9X}   oX7X7X7X7X6X4.  b 9X9X9X9X9Xb   oX7X7X8X7X6X`..  .9X9X9X9X9X9X9X9X9X9X9X9X9X9X9X9X9X9X9X9X9X9X9X",
"9X9X9X9X9X9X9X9X9X9X9X9X'.+X X XXXoX<.9X9X9X9X9X9X9X9X9X'.OX X XoX+X1.9X9X9X9X9X9X9X9X9X9X9X9X9X9X9X9X9X9X9X9X9X9X9X9X9X",
"9X9X9X9X9X9X9X9X9X9X9X9X9X          9X9X9X9X9X9X9X9X9X9X9X          9X9X9X9X9X9X9X9X9X9X9X9X9X9X9X9X9X9X9X9X9X9X9X9X9X9X",
"9X9X9X9X9X9X9X9X9X9X9X9X9X} X.X.X.} 9X9X9X9X9X9X9X9X9X9X9X} X.X. .} 9X9X9X9X9X9X9X9X9X9X9X9X9X9X9X9X9X9X9X9X9X9X9X9X9X9X",
"9X9X9X9X9X9X9X9X9X9X9X9X9X9X9X9X9X9X9X9X9X9X9X9X9X9X9X9X9X9X9X9X9X9X9X9X9X9X9X9X9X9X9X9X9X9X9X9X9X9X9X9X9X9X9X9X9X9X9X9X",
"9X9X9X9X9X9X9X9X9X9X9X9X9X9X9X9X9X9X9X9X9X9X9X9X9X9X9X9X9X9X9X9X9X9X9X9X9X9X9X9X9X9X9X9X9X9X9X9X9X9X9X9X9X9X9X9X9X9X9X9X",
"9X9X9X9X9X9X9X9X9X9X9X9X9X9X9X9X9X9X9X9X9X9X9X9X9X9X9X9X9X9X9X9X9X9X9X9X9X9X9X9X9X9X9X9X9X9X9X9X9X9X9X9X9X9X9X9X9X9X9X9X",
"9X9X9X9X9X9X9X9X9X9X9X9X9X9X9X9X9X9X9X9X9X9X9X9X9X9X9X9X9X9X9X9X9X9X9X9X9X9X9X9X9X9X9X9X9X9X9X9X9X9X9X9X9X9X9X9X9X9X9X9X",
"9X9X9X9X9X9X9X9X9X9X9X9X9X9X9X9X9X9X9X9X9X9X9X9X9X9X9X9X9X9X9X9X9X9X9X9X9X9X9X9X9X9X9X9X9X9X9X9X9X9X9X9X9X9X9X9X9X9X9X9X",
"9X9X9X9X9X9X9X9X9X9X9X9X9X9X9X9X9X9X9X9X9X9X9X9X9X9X9X9X9X9X9X9X9X9X9X9X9X9X9X9X9X9X9X9X9X9X9X9X9X9X9X9X9X9X9X9X9X9X9X9X"
};
