/* XPM */
static char *result[] = {
/* columns rows colors chars-per-pixel */
"60 60 213 2 ",
"   c black",
".  c #0F070D",
"X  c #1C001B",
"o  c #181714",
"O  c #300017",
"+  c #030021",
"@  c #080A27",
"#  c #140024",
"$  c #1D0623",
"%  c #0E1325",
"&  c #091824",
"*  c #121526",
"=  c #131B25",
"-  c #1B1F29",
";  c #181B26",
":  c #240023",
">  c #250029",
",  c #2C012A",
"<  c #2C0B2A",
"1  c #27062A",
"2  c #34042D",
"3  c #2E142B",
"4  c #241C2A",
"5  c #2D1E2C",
"6  c #211128",
"7  c #31122D",
"8  c #3E0031",
"9  c #07272A",
"0  c #1D242A",
"q  c #1A2B2B",
"w  c #1B312A",
"e  c #14342D",
"r  c #25252B",
"t  c #2D252D",
"y  c #252C2D",
"u  c #2C2C2E",
"i  c #222222",
"p  c #312C2E",
"a  c #30262F",
"s  c #2B312E",
"d  c #31312F",
"f  c #343323",
"g  c #3B2936",
"h  c #2B3231",
"j  c #293735",
"k  c #343432",
"l  c #3A3532",
"z  c #313B30",
"x  c #3F3935",
"c  c #3B3A3D",
"v  c #373A3B",
"b  c #40002E",
"n  c #410C30",
"m  c #410630",
"M  c #441434",
"N  c #432F33",
"B  c #423A35",
"V  c #4C3B35",
"C  c #453637",
"Z  c #523D36",
"A  c #5C3E37",
"S  c #553E38",
"D  c #55312E",
"F  c #6F2235",
"G  c #633B25",
"H  c #31492E",
"J  c #354933",
"K  c #384536",
"L  c #2F5B39",
"P  c #285836",
"I  c #345337",
"U  c #3A5D39",
"Y  c #2E4734",
"T  c #29692A",
"R  c #3B623B",
"E  c #3D6E3D",
"W  c #366A3E",
"Q  c #3E723E",
"!  c #3B7A3D",
"~  c #29683C",
"^  c #424136",
"/  c #474538",
"(  c #5C4237",
")  c #5D4439",
"_  c #514738",
"`  c #68402E",
"'  c #644437",
"]  c #634639",
"[  c #694739",
"{  c #624A3D",
"}  c #6C4A3B",
"|  c #704C3C",
" . c #67553C",
".. c #57663F",
"X. c #40753F",
"o. c #3D3E42",
"O. c #3F4145",
"+. c #3C7C45",
"@. c #397A44",
"#. c #414247",
"$. c #414B40",
"%. c #4F4D4A",
"&. c #664B40",
"*. c #6B4D42",
"=. c #755142",
"-. c #74594F",
";. c #7D5949",
":. c #7B5545",
">. c #69554D",
",. c #5E6A41",
"<. c #437542",
"1. c #437C44",
"2. c #4A7C4A",
"3. c #487945",
"4. c #5D7143",
"5. c #656869",
"6. c #6F746F",
"7. c #7C7A7E",
"8. c #777377",
"9. c #6E747C",
"0. c #835B4A",
"q. c #8A5D4C",
"w. c #8C614F",
"e. c #8E6450",
"r. c #8E6951",
"t. c #936552",
"y. c #996A56",
"u. c #966954",
"i. c #00A600",
"p. c #04AA07",
"a. c #3C8F3D",
"s. c #308F36",
"d. c #34AD35",
"f. c #37AD39",
"g. c #35B236",
"h. c #36B438",
"j. c #27B129",
"k. c #458D3E",
"l. c #3EA740",
"z. c #448346",
"x. c #478949",
"c. c #498E4B",
"v. c #478449",
"b. c #4A934C",
"n. c #4C9B4E",
"m. c #449948",
"M. c #519C4E",
"N. c #53964E",
"B. c #4E9F50",
"V. c #4E9452",
"C. c #539B53",
"Z. c #589153",
"A. c #518D4A",
"S. c #64945F",
"D. c #48A749",
"F. c #45B346",
"G. c #4CB34D",
"H. c #48B84A",
"J. c #4FA351",
"K. c #51A351",
"L. c #52AC53",
"P. c #57A959",
"I. c #4EB350",
"U. c #55B456",
"Y. c #56B857",
"T. c #57B658",
"R. c #5BB45B",
"E. c #57BA58",
"W. c #59BB59",
"Q. c #5AB256",
"!. c #5C9761",
"~. c #638F63",
"^. c #6B986C",
"/. c #63A162",
"(. c #64B664",
"). c #66B866",
"_. c #69B76A",
"`. c #77B778",
"'. c #57C358",
"]. c #9F9F9F",
"[. c #898A8E",
"{. c #85B785",
"}. c #92B492",
"|. c #A4A4A4",
" X c #ACACAC",
".X c #A5A5AA",
"XX c #B4B4B4",
"oX c #B7BAB7",
"OX c #BCBCBC",
"+X c #B8B8B7",
"@X c #99C49A",
"#X c #A2CCA2",
"$X c #AAC9AA",
"%X c #A5D1A5",
"&X c #ABD4AB",
"*X c #B8D9B8",
"=X c #B3CDB3",
"-X c #C1BEC1",
";X c #C2C2C3",
":X c #CBC7CB",
">X c #C2D7C2",
",X c #D5D6D5",
"<X c #DBDBDC",
"1X c #D7D8D9",
"2X c #DBEADB",
"3X c #DBE6DB",
"4X c #E0E0DF",
"5X c #EDEDED",
"6X c #F4F3F4",
"7X c #FEFEFE",
"8X c #F7F9F7",
"9X c #E3F0E4",
"0X c None",
/* pixels */
"0X0X0X0X0X0X0X0X0X0X0X0X0X0X0X0X0X0X0X0X0X0X0X0X0X0X0X0X0X0X0X0X0X0X0X0X0X0X0X0X0X0X0X0X0X0X0X0X0X0X0X0X0X0X0X0X0X0X0X0X",
"0X0X0X0X0X0X0X0X0X0X0X0X0X0X0X0X0X0X0X0X0X0X0X0X0X0X0X0X0X0X0X0X0X0X0X0X0X0X0X0X0X0X0X0X0X0X0X0X0X0X0X0X0X0X0X0X0X0X0X0X",
"0X0X0X0X0X0X0X0X0X0X0X0X0X0X0X0X0X0X0X0X0X0X0X0X0X0X0X0X0X0X0X0X0X0X0X0X0X0X0X0X0X0X0X0X0X0X0X0X0X0X0X0X0X0X0X0X0X0X0X0X",
"0X0X0X0X0X0X0X0X0X0X0X0X0X0X0X0X0X0X0X0X0X0X0X0X0X0X0X0X0X0X0X0X0X0X0X0X0X0X0X0X0X0X0X0X0X0X0X0X0X0X0X0X0X0X0X0X0X0X0X0X",
"0X0X0X0X0X0X0X0X0X0X0X0X0X0X0X0X0X0X0X0X0X0X0X0X0X0X0X0X0X0X0X0X0X0X0X0X0X0X0X0X0X0X0X0X0X0X0X0X0X0X0X0X0X0X0X0X0X0X0X0X",
"0X0X0X0X0X0X0X0X0X0X0X0X0X0X0X0X0X0X0X0X0X0X0X0X0X0X0X0X0X0X0X0X0X0X0X0X0X0X0X0X0X0X0X0X0X0X0X0X0X0X0X0X0X0X0X0X0X0X0X0X",
"0X0X0X0X0X0X0X0X0X0X0X0X0X0X0X0X0X0X0X0X0X0X0X0X0X0X0X0X0X0X0X0X0X0X0X0X0X0X0X0X0X0X0X0X0X0X0X0X0X0X0X0X0X0X0X0X0X0X0X0X",
"0X0X0X0X0X0X0X0X0X0X0X0X0X0X0X0X0X0X0X0X0X0X0X0X0X0X0X0X0X0X0X0X0X0X0X0X0X0X0X0X0X0X0X0X0X0X0X0X0X0X0X0X0X0X0X0X0X0X0X0X",
"0X0X0X0X0X0X0X0X0X0X0X0X0X0X0X0X0X0X0X0X0X0X0X0X0X0X0X0X0X0X0X0X0X0X0X0X0X0X0X0X0X0X0X0X0X0X0X0X0X0X0X0X0X0X0X0X0X0X0X0X",
"0X0X0X0X0X0X0X0X0X0X0X0X0X0X0X0X0X0X0X0X0X0X0X0X0X0X0X0X0X0X0X0X0X0X0X0X0X0X0X0X0X0X0X0X0X0X0X0X0X0X0X0X0X0X0X0X0X0X0X0X",
"0X0X0X0X0X0X0X0X0X0X0X0X0X0X0X0X0X0X0X0X0X0X0X0X0X0X0X0X0X0X0X0X0X0X0X0X0X0X0X0X0X0X0X0X0X0X0X0X0X0X0X0X0X0X0X0X0X0X0X0X",
"0X0X0X0X0X0X0X0X0X0X0X0X0X0X0X0X0X0X0X0X0X0X0X0X0X0X0X0X0X0X0X0X0X0X0X0X0X0X0X0X0X0X0X0X0X0X0X0X0X0X0X0X0X0X0X0X0X0X0X0X",
"0X0X0X0X0X0X0X0X0X0X0X0X0X0X0X0X0X0X0X0X0X0X0X0X0X0X0X0X0X0X0X0X0X0X0X0X0X0X0X0X0X0X0X0X0X0X0X0X0X0X0X0X0X0X0X0X0X0X0X0X",
"0X0X0X0X0X0X0X0X0X0X0X0X0X0X0X0X0X0X0X0X0X0X0X0X0X0X0X0X0X0X0X0X0X0X0X0X0X0X0X0X0X0X0X0X0X0X0X0X0X0X0X0X0X0X0X0X0X0X0X0X",
"0X0X0X0X0X0X0X0X0X0X0X0X0X0X0X0X0X0X0X0X0X0X0X0X0X0X0X0X0X0X0X0X0X0X0X0X0X0X0X0X0X0X0X0X0X0X0X0X0X0X0X0X0X0X0X0X0X0X0X0X",
"0X0X0X0X0X0X0X0X0X0X0X0X0X0X0X0X0X0X0X0X0X0X0X0X0X0X0X0X0X0X0X0X0X0X0X0X0X0X0X0X0X0X0X0X0X0X0X0X0X0X0X0X0X0X0X0X0X0X0X0X",
"0X0X0X0X0X0X0X0X0X0X0X0X0X0X0X0X0X0X0X0X0X0X0X0X0X0X0X0X0X0X0X0X0X0X0X0X0X0X0X0X0X0X0X0X0X0X0X0X0X0X0X0X0X0X0X0X0X0X0X0X",
"0X0X0X0X0X0X0X0X0X0X0X0X0X0X0X0X0X0X0X0X0X0X0X0X0X0X0X0X0X0X0X0X0X0X0X0X0X0X0X0X0X0X0X0X0X0X0X0X0X0X0X0X0X0X0X0X0X0X0X0X",
"0X0X0X0X0X0X0X0X0X0X0X0X0X0X0X0X0X0X0X0X0X0X0X0X0X0X0X0X0X0X0X0X0X0X0X0X0X0X0X0X0X0X0X0X0X0X0X0X0X0X0X0X0X0X0X0X0X0X0X0X",
"0X0X0X0X0X0X0X0X0X0X0X0X0X0X0X0X0X0X0X0X0X0X0X0X0X0X0X0X0X0X0X0X0X0X0X0X0X0X0X0X0X0X0X0X0X0X0X0X0X0X0X0X0X0X0X0X0X0X0X0X",
"0X0X0X0X0X0X0X0X0X0X0X0X0X0X0X0X0X0X0X0X0X0X0X0X0X0X0X0X0X0X0X0X0X0X0X0X0X0X0X0X0X0X0X0X0X0X0X0X0X0X0X0X0X0X0X0X0X0X0X0X",
"0X0X0X0X0X0X0X0X0X0X0X0X0X0X0X0X0X0X0X0X0X0X0X0X0X0X0X0X0X0X0X0X0X0X0X0X0X0X0X0X0X0X0X0X0X0X0X0X0X0X0X0X0X0X0X0X0X0X0X0X",
"0X0X0X0X0X0X0X0X0X0X0X0X0X0X0X0X0X0X0X0X0X0X0X0X0X0X0X0X0X0X0X0X0X0X0X0X0X0X0X0X0X0X0X0X0X0X0X0X0X0X0X0X0X0X0X0X0X0X0X0X",
"0X0X0X0X0X0X0X0X0X0X0X0X0X0X0X0X0X0X0X0X0X0X0X0X0X0X0X0X0X0X0X0X0X0X0X0X0X0X0X0X0X0X0X0X0X0X0X0X0X0X0X0X0X0X0X0X0X0X0X0X",
"0X0X0X0X0X0X0X0X0X0X0X0X0X0X0X0X0X0X0X0X0X0X0X0X0X0X0X0X0X0X0X0X0X0X0X0X0X0X0X0X0X0X0X0X0X0X0X0X0X0X0X0X0X0X0X0X0X0X0X0X",
"0X0X0X0X0X0X0X0X0X0X0X0X0X0X0X0X0X0X0X0X0X0X0X0X0X0X0X0X0X0X0X0X0X0X0X0X0X0X0X= y s s u s s y 0X0X0X0X0X0X0X0X0X0X0X0X0X",
"0X0X0X0X0X0X0X0X0X0X0X0X0X0X0X0X0X0X0X0X0X0X0X0X0X0X0X0X0X0X0X0X0X0X0X0X0X0X0X# 5 3 < 7 > , 6 0X0X0X0X0X0X0X0X0X0X0X0X0X",
"0X0X0X0X0X0X0X0X0X0X0X0X0X0X0X0X0X0X0X% * % % * % * % % % * % 0X0X0X0X0X0X% @ +.v.1.z.1.x.n.J.@.+ 0X0X0X0X0X0X0X0X0X0X0X",
"0X0X0X0X0X0X0X0X0X0X0X0X0X0X0X0X0X0X= h u u y u u u u p u u 0 0X0X0X0X0X0X4 t z.n.b.b.b.K.W.W.z.> 0 0X0X0X0X0X0X0X0X0X0X",
"0X0X0X0X0X0X0X0X0X0X0X0X0X0X0X0X0X0Xp l p l l d k k h p k l C 4 0X0X0X0Xe Y p 1.b.b.b.b.n.T.E.X.a L 0X0X0X0X0X0X0X0X0X0X",
"0X0X0X0X0X0X0X0X0X0X0X0X0X0X0X0X= p [ [ =.t.e.q.w.q._ h &.t.u.*.@ y 0 # @.c.c.b.b.b.U.U.U.U.U.L.T.U.L # 0X0X0X0X0X0X0X0X",
"0X0X0X0X0X0X0X0X0X0X0X0X0X0X0X@ y d [ ' =.u.t.t.y.t.V y &.u.t.{ 9 p a , U b.b.c.c.b.U.U.U.U.U.U.E.L.J > % 0X0X0X0X0X0X0X",
"0X0X0X0X0X0X0X0X0X0X0X0X0X0X0XN V V =.=.0.t.e.0.0.;.( B *.t.t.*.S ) U I X.b.c.M.n.M.U.U.U.U.U.U.E.L.3.3.@.0X0X0X0X0X0X0X",
"0X0X0X0X0X0X0X0X0X0X0X0X0X- 0 ' } } t.u.t.w.t.&.9 B [ [ :.t.t.u.y.u.N.n.b.b.c.L.E.U.U.U.U.U.U.U.T.U.I.'.D.t # 0X0X0X0X0X",
"0X0X0X0X0X0X0X0X0X0X0X0X0Xu s S ' [ q.t.w.t.u.*.k V ] ' :.t.t.w.w.r.c.c.c.b.c.L.T.U.U.U.U.U.U.T.T.U.F.H.a.< u 0X0X0X0X0X",
"0X0X0X0X0X0X0X0Xw w r * N ' Z =.0.0.t.t.q.&.*.] S { 0.0.0.t.e.t.w.r.Z.V.C.P.P.L.U.U.U.U.U.U.T.b.T ~.>X2X$Xa.B.@.+ 0X0X0X",
"0X0X0X0X0X0X0X+ : < y q V | [ w.y.u.e.u.;.q h ) } | t.u.t.t.t.u.t.t.x.s.l.H.G.L.U.U.U.U.U.U.W.<.  7.8X7X2XF.'.2., - 0X0X",
"0X0X0X0X0X0X0XP U J l d Z [ ' 0.e.e.t.t.;.x V ] [ } w.t.e.e.w.e.w.e.~.!./._._.R.U.U.U.U.U.T.W.2.  6.<X6X*XF.U.<.< 0 0X0X",
"0X0X0X0X0Xq j n.U.K. .) { [ ' } } } e.u.;.l x ) [ } w.t.0.} } *.G -.+XOXXXoX=X}.T.).U.U.U.U.T.1.> O.9.y.^.L.W.E , 0 0X0X",
"0X0X0X0X0X$ : b.'.Q.| F } } } [ [ } t.y.;.l x ] } } t.y.0.' } } G -.-X;X-X;X-X`.i.p.U.T.U.U.T.E $ # .   T U.W.E < 0 0X0X",
"0X0X0X0X~ x.X.b.U.J.4.,.,.A ) ) ) ] 0.q.=.l B ) [ } ;.q.:.) ) { D >.XX;XOXOXOX=X*X&XT.I.U.U.E.c.Q X.v.2.N.U.E.E < 0 0X0X",
"0X0X; > z.W.E.B.x.c.b.b.1.l ^ B ^ ^ ' [ ( x B ) } [ [ [ ( K B / f %.oX-XOX;XOX5X7X8X`.U.(.U.U.Y.E.T.E.T.U.U.W.Q , 0 0X0X",
"0X0X0 , Q '.W.K.b.n.b.J.2.b m n 8 n [ | ) x x ) } } } } A 8 m M O %.-X:X-X;XoX5X7X7XU.i.f.T.U.U.U.U.U.U.U.U.W.Q < 0 0X0X",
"0X0X0 t J Q E R U U U I X.M.n.C.M.N._ Z _ B B V _ V / D ..M.M.M.M.C.{.`.}.;X;X:X,X,X3X9X>Xd.T.U.U.U.U.U.U.U.U.Q , 0 0X0X",
"0X0X- k p , < 3 t 3 t : X.W.E.E.E.U./ l ^ B C B B x B 8 3.'.E.U.E.E.G.j.{.-X-XOX+X-X7X7X2Xi.E.G.G.I.T.T.U.U.E.+.7 - 0X0X",
"0X0X% 0 0 0 0 u u p J t 1.E.U.U.U.L./ l ^ B B C B B ^ n <.Y.U.U.Q.U.R.F.{.-XOXOX-X;X6X7X2XF._.(.).(.U.L.U.L.E.+.# * 0X0X",
"0X0X0X0X0X0X0Xq < J L.Q.U.T.U.J.b.b.z t d d d d d p z < R b.c.L.T.U.U.W.C.C i |.;X-X;X=X,X7X7X8X7X5X5.. / Y I e 0X0X0X0X",
"0X0X0X0X0X0X0Xe < H f.g.d.d.g.m.n.b.z t d u s u u s k < R n.b.D.g.d.d.g.s.3   |.:X;X;XOX<X7X7X7X7X6X7.  c t 6 0X0X0X0X0X",
"0X0X0X0X0X0X0Xh $ %.@X%X#X#X%X^.! z.z u r @ % % % * s 5 I z.@.{.%X#X#X&X{.X o [..X|.|.].+X4X<X1X4X<X9.  j % & 0X0X0X0X0X",
"0X0X0X0X0X0X0XO.  6.6X7X7X7X7X.X  g p k % 0X0X0X0X0X- k a a : <X7X7X7X7X<X  k o                     0X0X0X0X0X0X0X0X0X0X",
"0X0X0X0X0X0X0Xo.  7.6X7X7X7X7X X  v y r % 0X0X0X0X0X; u p s s <X7X7X8X7X1Xr i c k v v k v o.o.o.c u 0X0X0X0X0X0X0X0X0X0X",
"0X0X0X0X0X0X0X0X0X5.XXXX X XOX[.0X0X0X0X0X0X0X0X0X0X0X0X0X0X0X.X+X X X+X.X0X0X0X0X0X0X0X0X0X0X0X0X0X0X0X0X0X0X0X0X0X0X0X",
"0X0X0X0X0X0X0X0X0X0X          0X0X0X0X0X0X0X0X0X0X0X0X0X0X0X0X            0X0X0X0X0X0X0X0X0X0X0X0X0X0X0X0X0X0X0X0X0X0X0X",
"0X0X0X0X0X0X0X0X0X0Xo.O.#.#.o.0X0X0X0X0X0X0X0X0X0X0X0X0X0X0X0X0X#.#.#.o.0X0X0X0X0X0X0X0X0X0X0X0X0X0X0X0X0X0X0X0X0X0X0X0X",
"0X0X0X0X0X0X0X0X0X0X0X0X0X0X0X0X0X0X0X0X0X0X0X0X0X0X0X0X0X0X0X0X0X0X0X0X0X0X0X0X0X0X0X0X0X0X0X0X0X0X0X0X0X0X0X0X0X0X0X0X",
"0X0X0X0X0X0X0X0X0X0X0X0X0X0X0X0X0X0X0X0X0X0X0X0X0X0X0X0X0X0X0X0X0X0X0X0X0X0X0X0X0X0X0X0X0X0X0X0X0X0X0X0X0X0X0X0X0X0X0X0X",
"0X0X0X0X0X0X0X0X0X0X0X0X0X0X0X0X0X0X0X0X0X0X0X0X0X0X0X0X0X0X0X0X0X0X0X0X0X0X0X0X0X0X0X0X0X0X0X0X0X0X0X0X0X0X0X0X0X0X0X0X",
"0X0X0X0X0X0X0X0X0X0X0X0X0X0X0X0X0X0X0X0X0X0X0X0X0X0X0X0X0X0X0X0X0X0X0X0X0X0X0X0X0X0X0X0X0X0X0X0X0X0X0X0X0X0X0X0X0X0X0X0X",
"0X0X0X0X0X0X0X0X0X0X0X0X0X0X0X0X0X0X0X0X0X0X0X0X0X0X0X0X0X0X0X0X0X0X0X0X0X0X0X0X0X0X0X0X0X0X0X0X0X0X0X0X0X0X0X0X0X0X0X0X",
"0X0X0X0X0X0X0X0X0X0X0X0X0X0X0X0X0X0X0X0X0X0X0X0X0X0X0X0X0X0X0X0X0X0X0X0X0X0X0X0X0X0X0X0X0X0X0X0X0X0X0X0X0X0X0X0X0X0X0X0X"
};
