/* XPM */
static char *result[] = {
/* columns rows colors chars-per-pixel */
"60 60 91 1 ",
"  c #00000B",
". c #0E000D",
"X c #16000D",
"o c #1C000D",
"O c #22010E",
"+ c #2D050F",
"@ c #310A0E",
"# c #2F0210",
"$ c #2E0810",
"% c #300410",
"& c #310811",
"* c #3B1313",
"= c #411312",
"- c #451C14",
"; c #4B1E15",
": c #551E14",
"> c #4E2216",
", c #512416",
"< c #582618",
"1 c #5B2A18",
"2 c #6E2012",
"3 c #612F1A",
"4 c #6D2D19",
"5 c #64311B",
"6 c #6B351D",
"7 c #6E391D",
"8 c #75371E",
"9 c #7A361C",
"0 c #743C1E",
"q c #7B3F1F",
"w c #763D20",
"e c #7A401F",
"r c #7E4422",
"t c #813D1F",
"y c #813E20",
"u c #844523",
"i c #894624",
"p c #864925",
"a c #8C4B26",
"s c #8D4B28",
"d c #924D26",
"f c #934E28",
"g c #925027",
"h c #9B5226",
"j c #94522B",
"k c #9C552A",
"l c #9D582C",
"z c #9B5D31",
"x c #A55727",
"c c #A1572C",
"v c #A45C2C",
"b c #A95E2D",
"n c #A35E31",
"m c #AD622E",
"M c #B3652E",
"N c #B9672F",
"B c #B8682F",
"V c #A56334",
"C c #AB6332",
"Z c #AE6937",
"A c #AD6D3A",
"S c #B36631",
"D c #B66831",
"F c #BB6B32",
"G c #B36F3A",
"H c #BD7037",
"J c #B3713C",
"K c #BB743C",
"L c #C16F34",
"P c #C47135",
"I c #C87236",
"U c #C3763A",
"Y c #C57A3F",
"T c #C87C3E",
"R c #C47C42",
"E c #C48145",
"W c #CC8445",
"Q c #C88648",
"! c #CF8B4A",
"~ c #D08545",
"^ c #D38947",
"/ c #D48C4A",
"( c #D88F4B",
") c #D7914D",
"_ c #DB934E",
"` c #DC9550",
"' c #DF9851",
"] c #E39C54",
"[ c #EBA357",
"{ c #ECA458",
"} c None",
/* pixels */
"}}}}}}}}}}}}}}}}}}}}}}}}}}}}}}}}}}}}}}}}}}}}}}}}}}}}}}}}}}}}",
"}}}}}}}}}}}}}}}}}}}}}}}}}}}}}}}}}}}}}}}}}}}}}}}}}}}}}}}}}}}}",
"}}}}}}}}}}}}}}}}}}}}}}}}}}}}}}}}}}}}}}}}}}}}}}}}}}}}}}}}}}}}",
"}}}}}}}}}}}}}}}}}}}}}}}}}}}}}}}}}}}}}}}}}}}}}}}}}}}}}}}}}}}}",
"}}}}}}}}}}}}}}}}}}}}}}}}}}}}}}}}}}}}}}}}}}}}}}}}}}}}}}}}}}}}",
"}}}}}}}}}}}}}}}}}}}}}}}}}}}}}}}}}}}}}}}}}}}}}}}}}}}}}}}}}}}}",
"}}}}}}}}}}}}}}}}}}}}}}}}}}}}}}}}}}}}}}}}}}}}}}}}}}}}}}}}}}}}",
"}}}}}}}}}}}}}}}}}}}}}}}}}}}}}}}}}}}}}}}}}}}}}}}}}}}}}}}}}}}}",
"}}}}}}}}}}}}}}}}}}}}}}}}}}}}}}}}}}}}}}}}}}}}}}}}}}}}}}}}}}}}",
"}}}}}}}}}}}}}}}}}}}}}}}}}}}}}}}}}}}}}}}}}}}}}}}}}}}}}}}}}}}}",
"}}}}}}}}}}}}}}}}}}}}}999w9999999w999999}}}}}}}}}}}}}}}}}}}}}",
"}}}}}}}}}}}}}}}}}}}}iiaaiiiiiiiiyiiidaii}}}}}}}}}}}}}}}}}}}}",
"}}}}}}}}}}}}}}}}}}}lzVKGGZGZZZZZZZZGGKVzz}}}}}}}}}}}}}}}}}}}",
"}}}}}}}}9999}}}}}}yzJE//WWWQQQWQWW!W/)EGzy}}}}}}999w}}}}}}}}",
"}}}}}}}uyyyyy}}}}2iVE)]'````____`_``]]/RVi2}}}}wyyyyy}}}}}}}",
"}}}}}}jjnSSnj}}}}snR/_]``````_]````)`]]/RVs}}}}jnSSnjj}}}}}}",
"}}}}}jVGR~QRAV}}VAE/^^/WEEQ~//^/~WEEW/^^/RGV}}VAR~WRAVj}}}}}",
"}}}}ujJR/``)EAssGQ_(WUFZVVSKUUUUKSVVVHU~((QGfdAR/``/EJjy}}}}",
"}}}9ynR)]]['/JjfJ/`(RFxhaihmNNFNmkiihbNR(]/JjjJ!]][]/Rny9}}}",
"}}}wyCR`]{{])KljJ~(/IMxduihbNLNNmhiydxMU^//JjzK)]{{]`WSi9}}}",
"}}}yybR`]{{]/JjpnKTTLNbkffvNLIIPNvffxbNHTTKbdkK)]{{]`RVy9}}}",
"}}}9ynR)]]]]!JjihMFFFDMldfvSLLLLDcfflmDFFFbhijJ!]]]]/Rny9}}}",
"}}}4wjGW/]`)QGldhbMNFDmcsikmDFNNmkaalMFFNMvdrsAE/]')QGf84}}}",
"}}}:1pVUR~~RYDVvbmMNLFMvf}}}}}}}}}}jcMFLFNvi6wzJR~^RKVi3,}}}",
"}}}#=7jCHHHHDDSSSDFFIFSS}}}}}}}}}}}}SSFUHBVu11pmLUIHCj6=&}}}",
"}}} O1ivMNNMMDDDDFDFIFS}}}}}}}}}}}}}}SPILBve>-evNFNMvi1O }}}",
"}}} O1ivMNMMMDDFDDDFIFD}}}}}}}}}}}}}}DFILBve>-ecMNFMvi1O }}}",
"}}}X@3imNFDNDDDDDDDFIFD}}}}}}}}}}}}}}DFIPBVe>>evNFLNva5$X}}}",
"}}}X@3aVBFFDDDDDDDDFPFD}}}}}}}}}}}}}}DFPPBvr,,rVFLFDma3@X}}}",
"}}}X$5abDFDDDDDDDDDFLFSC}}}}}}}}}}}}CSFIHDvr,,rvDFLDva5@X}}}",
"}}}X@3abDFDDSDDDDDDFFFSnjuuuuuiuurujvMFFFFme,,rvFFFFba3@X}}}",
"}}}X@3abFFDDDDSDDDDDFNbcfppiippipiiglmFFFDvr,,rvFFFFba3$o}}}",
"}}}X&3abFFDDDDDDDSDDFNMvhfjkcccclhfhvSNFFFvr>,rVDFFDna3$X}}}",
"}}}X&3abFFBDDDDDDDDDBDmcffknbmSbvkffvMFFFFvr,,rvFLLFba3&o}}}",
"}}}X&3abDFBDDDDDNDDDFDmlsakbDDDSbksslCFFFFcu>,rvDFFDbd3&X}}}",
"}}}X@5avDFFDDDDDDDDDFDmkiacSFFFFSksskbSFFFvr,>emFLFFba3&X}}}",
"}}}X&3amBHDDDDDMMDDDFDmkdslMNFFFSlssfkvmMDme,,rmFFFDba3&o}}}",
"}}}X&3abBBDDDDDDDDDDFDmksskMFFFFblspppjcSMmp,,eVFFLDba3$X}}}",
"}}}X&3abBHDDDDDDDDDDFDmkaslmDFFDMcdiiuskSDme,,emFFFDba3&X}}}",
"}}}X&3abBBDDDDDDDDDFDDmlsilbDFFDbcfissjvMDme,,eVFLFDma3&X}}}",
"}}}X@3abFFBDDDFFDDDBBFmkaalmDFFDmlgpglmMDDme,,eVDFFDva3&o}}}",
"}}}X&5abBFFDDDDDDDDDFDmlaakmDFFDmkaakmDBHDme,,emFLLFba3&X}}}",
"}}}X&3amDBFDDmmmMMDDDDmlaalmDHFBmkaalmFHHDme>,eVDFFDba5&X}}}",
"}}}X&3abDHFDDmvvVDDDFDmlaglmBBFDmlgglMFFFBve,,emFLFFba3&X}}}",
"}}}X&3abFFFDmlgjcmBBFDmlfslmDFFDSlgglmBFBBmr,,emDFLDba5&X}}}",
"}}}X&3abFFFFmjuijmBHFFmjpakmFFBFmjpphmFFFBmr,,evFLFFma3&o}}}",
"}}}X@6gmFPHFms07gmFFPFmgregmFPPBmg0egmFHHFVr,,rmFPIFmd5&X}}}",
"}}}X&6gMFPIFma31imHIPFmp15imFPPHmp55amFPPHmr,,rmFIPFMg6&X}}}",
"}}}X@1aVDFFDve>>rcDBHDve>>rvDFBBve>>evDFBDve,,rvDFFDva3@X}}}",
"}}}}&1egcmmlg7--7gvvbvg0--0avVvvg7--0gvVmcg0>>0gvvmcge1@}}}}",
"}}}}}}70iaiue3;;30uppu03;;50uppue3>;30uupuw5>>5wuiau07}}}}}}",
"}}}}}}}>,<,,>>;;;,,,,,>>;;>>,,,,>>-;>>,,,,,;>;;>,,1,>}}}}}}}",
"}}}}}}}OOOoO+*--*+OooO+*--*+OooO+*--*+OooO+*--*+OoOOO}}}}}}}",
"}}}}}}}}}}}}}}}}}}}}}}}}}}}}}}}}}}}}}}}}}}}}}}}}}}}}}}}}}}}}",
"}}}}}}}}}}}}}}}}}}}}}}}}}}}}}}}}}}}}}}}}}}}}}}}}}}}}}}}}}}}}",
"}}}}}}}}}}}}}}}}}}}}}}}}}}}}}}}}}}}}}}}}}}}}}}}}}}}}}}}}}}}}",
"}}}}}}}}}}}}}}}}}}}}}}}}}}}}}}}}}}}}}}}}}}}}}}}}}}}}}}}}}}}}",
"}}}}}}}}}}}}}}}}}}}}}}}}}}}}}}}}}}}}}}}}}}}}}}}}}}}}}}}}}}}}",
"}}}}}}}}}}}}}}}}}}}}}}}}}}}}}}}}}}}}}}}}}}}}}}}}}}}}}}}}}}}}",
"}}}}}}}}}}}}}}}}}}}}}}}}}}}}}}}}}}}}}}}}}}}}}}}}}}}}}}}}}}}}"
};
