/* XPM */
static char *result[] = {
/* columns rows colors chars-per-pixel */
"60 60 82 1 ",
"  c #02000B",
". c #0E000D",
"X c #17000D",
"o c #1C000E",
"O c #22000E",
"+ c #2C030E",
"@ c #260010",
"# c #2F0610",
"$ c #300710",
"% c #310911",
"& c #3E1512",
"* c #401512",
"= c #4A1513",
"- c #451A14",
"; c #4A1D15",
": c #4F2216",
"> c #522317",
", c #572519",
"< c #5C2B19",
"1 c #662A17",
"2 c #612F1A",
"3 c #682E19",
"4 c #63311A",
"5 c #6A331C",
"6 c #75331C",
"7 c #7A351C",
"8 c #733B1F",
"9 c #7C391D",
"0 c #763E20",
"q c #7F3C20",
"w c #774020",
"e c #7D4222",
"r c #80391E",
"t c #813E20",
"y c #844523",
"u c #894624",
"i c #874924",
"p c #8C4C25",
"a c #914D27",
"s c #924E28",
"d c #935027",
"f c #94522A",
"g c #9A532A",
"h c #9C592D",
"j c #9E5D30",
"k c #A65D2D",
"l c #A85E2D",
"z c #A25D31",
"x c #AA5F30",
"c c #AD622F",
"v c #B3642E",
"b c #BA672F",
"n c #A66132",
"m c #AC6433",
"M c #A96837",
"N c #B46731",
"B c #BA6730",
"V c #B66932",
"C c #BD6C33",
"Z c #B36E3A",
"A c #B96F3A",
"S c #B6713A",
"D c #BC743D",
"F c #BE793F",
"G c #C06E34",
"H c #C47134",
"J c #C2773C",
"K c #C57B3E",
"L c #C37B41",
"P c #C68043",
"I c #CA8244",
"U c #CA8548",
"Y c #CF8849",
"T c #D18847",
"R c #D38C4A",
"E c #D7904D",
"W c #D9924E",
"Q c #DD9650",
"! c #E39C53",
"~ c #EAA257",
"^ c #ECA259",
"/ c None",
/* pixels */
"////////////////////////////////////////////////////////////",
"////////////////////////////////////////////////////////////",
"////////////////////////////////////////////////////////////",
"/////ut97tyu////////////////////////////////////////////////",
"////iuutttuup///////////////////////////////////////////////",
"///upzzzzzzgi///////////////////////////////////////////////",
"///ttzALLFZgy///////////////////////////////////////////////",
"///9tzLYRUAsq///////////////////////////////////////////////",
"///9tzLRQRDs9///////////////////////////////////////////////",
"///9tzLTRTZsq///////////////////////////////////////////////",
"///yygNDJAmae//////////////////////////////////q9797q///////",
"///yuglNNNlau//////////////////////////////////yuaauy///////",
"///yygNACVxay/////////////////////////////////jjZAGZzh//////",
"///qyhALILZsq////////////////////////////////fMDLRELSMf/////",
"///9tjLRQYZsq///////////////////////////////tgSU!!!!UZht////",
"///9tzLQ!RDs9//////////////////////////////9tnIW!!!!WLMt9///",
"///9ynPQ!RDf9//////////////////////////////9rmIW~^^~WImy9///",
"///9ynPQ!EFfr//////////////////////////////9ynPW!~~!WLxyr///",
"///79hKEQRDa9//////////////////////////////79zFT!!!WRLhe6///",
"///15fSIRLMy3//////////////////////////////15sZPTEERLZf61///",
"///=,ecFKSh5=//////////////////////////////=>ekSKIKKZkw,=///",
"///O%5dcVni>+//////////////////////////////@%5pkCGHGca4%O///",
"/// o<plcke- ////////////////////////////// o<ykvbbvky<o ///",
"/// O1plvkt:X////////////////////////////// @<pkvCCvkp<+ ///",
"///X#4dcvcy:o//////////////////////////////X#4pkbCCVlp4%X///",
"///X%4dcvcy:O//////////////////////////////X#4pkbGGVlp2%X///",
"///X+4dcNny:O//////////////////////////////X$2pnNCCVlp2%X///",
"///X%4dcvni:O//////////////////////////////X$2akNHCNlp2%X///",
"///X%4dcNcy:@//////////////////////////////X$2pkbGGVlp2%X///",
"///X$4dcNky:@//////////////////////////////X$2pkNCCVlp2%X///",
"///X$4dcNnu:o//////////////////////////////X%2pkNHGVlp2+X///",
"///X+4dcNky:O//////////////////////////////X#2pcNCCNlp4%X///",
"///X%4dcNli:o//////////////////////////////X$2akVCCNnp2%X///",
"///X+4dcNky:O//////////////////////////////X$2akVCCCcp2%X///",
"///X%4dcNky:O//////////////////////////////X#2pkCCCNkp2%X///",
"///X#4dcNci:O//////////////////////////////X$2pnVCCCkp2%X///",
"///X%4dcNky:O//////////////////////////////X$2pkCCCVcp<%X///",
"///X$4dvNki:O//////////////////////////////X$2akVCCNkp2%X///",
"///X%4scNni:O//////////////////////////////X$2pkNCCNkp2%X///",
"///X$4dcNly:O//////////////////////////////X$2pnCCGvcp2%X///",
"///X#4dcNly:O//////////////////////////////X$2plNCCCnp2%X///",
"///X%4dcNky:O//////////////////////////////X$2alCCCVcp2%X///",
"///X#4dvNny>O//////////////////////////////X#2anCGCbkp4%X///",
"///X#4dvCci>o//////////////////////////////X#5dcCHHCcd3%X///",
"///.$4gvVci>o//////////////////////////////X#5dcCHHCcd5%X///",
"///O%2pkchy:+///////////////////////////////#<yhvbVvhy<%////",
"///%&<edgp0:%////////////////////////////////<8pgkngpw</////",
"///*-,48852>-/////////////////////////////////458ww054//////",
"///;;;-&*-;-://////////////////////////////////&*---&///////",
"////:&%Oo#&-;//////////////////////////////////XXoooX///////",
"////////////////////////////////////////////////////////////",
"////////////////////////////////////////////////////////////",
"////////////////////////////////////////////////////////////",
"////////////////////////////////////////////////////////////",
"////////////////////////////////////////////////////////////",
"////////////////////////////////////////////////////////////",
"////////////////////////////////////////////////////////////",
"////////////////////////////////////////////////////////////",
"////////////////////////////////////////////////////////////",
"////////////////////////////////////////////////////////////"
};
