/* XPM */
static char *result[] = {
/* columns rows colors chars-per-pixel */
"60 60 63 1 ",
"  c #00AA4E",
". c #748945",
"X c #52B854",
"o c #52B954",
"O c #13C455",
"+ c #1DC457",
"@ c #1FCB5E",
"# c #21C554",
"$ c #22C554",
"% c #21C457",
"& c #2CC95B",
"* c #2DC95B",
"= c #2CC85C",
"- c #39C55A",
"; c #40C45A",
": c #8F8E39",
"> c #908E39",
", c #999D4E",
"< c #9A9D4E",
"1 c #ACA149",
"2 c #ADA149",
"3 c #BDAE64",
"4 c #DF9248",
"5 c #D8944C",
"6 c #D8944D",
"7 c #D58051",
"8 c #D68051",
"9 c #EB975D",
"0 c #D4AE73",
"q c #E9A969",
"w c #F1AF70",
"e c #F1AF71",
"r c #EFB072",
"t c #E7BF7C",
"y c #F5B779",
"u c #F5B77A",
"i c #FCB578",
"p c #BCC170",
"a c #BDC170",
"s c #C9C073",
"d c #CAC074",
"f c #CCC075",
"g c #F9BD81",
"h c #FABD81",
"j c #FBBD81",
"k c #FABE81",
"l c #FABE82",
"z c #FBBE82",
"x c #FEBD83",
"c c #FCBE82",
"v c #FCBE83",
"b c #FCBF83",
"n c #FEBE83",
"m c #FFBD84",
"M c #FFBD85",
"N c #FBC184",
"B c #FCC084",
"V c #FDC084",
"C c #FEC185",
"Z c #FEC285",
"A c #FDC186",
"S c #FDC286",
"D c #FFC388",
/* pixels */
";;-=& .54qVbzzzzzzzzzlzmp$O%++++%O$pmzlzzzzzzzzzbVq45. &=-;;",
";@o>130rwuvzzzzzzzzzzzzntsdffffffdstnzzzzzzzzzzzzvuwr031>o@;",
"-o,79iDCABzzzzzzzzzzzzzlnMMMMMMMMMMnlzzzzzzzzzzzzzBAZDi97,X-",
"=:7NBghhjzzzzzzzzzzzzzzzlkkkkkkkkkklzzzzzzzzzzzzzzzjhhgBN7>=",
"*29BVzzzzzzzzzzzzzzzzzzzzzzzzzzzzzzzzzzzzzzzzzzzzzzzzzzVB91&",
" 3igzzzzzzzzzzzzzzzzzzzzzzzzzzzzzzzzzzzzzzzzzzzzzzzzzzzzgi3 ",
".0DhzzzzzzzzzzzzzzzzzzzzzzzzzzzzzzzzzzzzzzzzzzzzzzzzzzzzhD0.",
"5rChzzzzzzzzzzzzzzzzzzzzzzzzzzzzzzzzzzzzzzzzzzzzzzzzzzzzhZr5",
"4eSjzzzzzzzzzzzzzzzzzzzzzzzzzzzzzzzzzzzzzzzzzzzzzzzzzzzzjAe4",
"qyBzzzzzzzzzzzzzzzzzzzzzzzzzzzzzzzzzzzzzzzzzzzzzzzzzzzzzzBuq",
"VczzzzzzzzzzzzzzzzzzzzzzzzzzzzzzzzzzzzzzzzzzzzzzzzzzzzzzzzvV",
"bzzzzzzzzzzzzzzzzzzzzzzzzzzzzzzzzzzzzzzzzzzzzzzzzzzzzzzzzzzb",
"zzzzzzzzzzzzzzzzzzzzzzzzzzzzzzzzzzzzzzzzzzzzzzzzzzzzzzzzzzzz",
"zzzzzzzzzzzzzzzzzzzzzzzzzzzzzzzzzzzzzzzzzzzzzzzzzzzzzzzzzzzz",
"zzzzzzzzzzzzzzzzzzzzzzzzzzzzzzzzzzzzzzzzzzzzzzzzzzzzzzzzzzzz",
"zzzzzzzzzzzzzzzzzzzzzzzzzzzzzzzzzzzzzzzzzzzzzzzzzzzzzzzzzzzz",
"zzzzzzzzzzzzzzzzzzzzzzzzzzzzzzzzzzzzzzzzzzzzzzzzzzzzzzzzzzzz",
"zzzzzzzzzzzzzzzzzzzzzzzzzzzzzzzzzzzzzzzzzzzzzzzzzzzzzzzzzzzz",
"zzzzzzzzzzzzzzzzzzzzzzzzzzzzzzzzzzzzzzzzzzzzzzzzzzzzzzzzzzzz",
"zzzzzzzzzzzzzzzzzzzzzzzzzzzzzzzzzzzzzzzzzzzzzzzzzzzzzzzzzzzz",
"zzzzzzzzzzzzzzzzzzzzzzzzzzzzzzzzzzzzzzzzzzzzzzzzzzzzzzzzzzzz",
"lzzzzzzzzzzzzzzzzzzzzzzzzzzzzzzzzzzzzzzzzzzzzzzzzzzzzzzzzzzl",
"zzzzzzzzzzzzzzzzzzzzzzzzzzzzzzzzzzzzzzzzzzzzzzzzzzzzzzzzzzzz",
"mnlzzzzzzzzzzzzzzzzzzzzzzzzzzzzzzzzzzzzzzzzzzzzzzzzzzzzzzlnm",
"atnlzzzzzzzzzzzzzzzzzzzzzzzzzzzzzzzzzzzzzzzzzzzzzzzzzzzzlxta",
"#sMkzzzzzzzzzzzzzzzzzzzzzzzzzzzzzzzzzzzzzzzzzzzzzzzzzzzzkMs#",
"OdMkzzzzzzzzzzzzzzzzzzzzzzzzzzzzzzzzzzzzzzzzzzzzzzzzzzzzkMdO",
"%fMkzzzzzzzzzzzzzzzzzzzzzzzzzzzzzzzzzzzzzzzzzzzzzzzzzzzzkMf%",
"+fMkzzzzzzzzzzzzzzzzzzzzzzzzzzzzzzzzzzzzzzzzzzzzzzzzzzzzkMf+",
"+fMkzzzzzzzzzzzzzzzzzzzzzzzzzzzzzzzzzzzzzzzzzzzzzzzzzzzzkMf+",
"+fMkzzzzzzzzzzzzzzzzzzzzzzzzzzzzzzzzzzzzzzzzzzzzzzzzzzzzkMf+",
"+fMkzzzzzzzzzzzzzzzzzzzzzzzzzzzzzzzzzzzzzzzzzzzzzzzzzzzzkMf+",
"%fMkzzzzzzzzzzzzzzzzzzzzzzzzzzzzzzzzzzzzzzzzzzzzzzzzzzzzkMf%",
"OdMkzzzzzzzzzzzzzzzzzzzzzzzzzzzzzzzzzzzzzzzzzzzzzzzzzzzzkMdO",
"#sMkzzzzzzzzzzzzzzzzzzzzzzzzzzzzzzzzzzzzzzzzzzzzzzzzzzzzkMs#",
"atnlzzzzzzzzzzzzzzzzzzzzzzzzzzzzzzzzzzzzzzzzzzzzzzzzzzzzlxta",
"mnlzzzzzzzzzzzzzzzzzzzzzzzzzzzzzzzzzzzzzzzzzzzzzzzzzzzzzzlnm",
"zzzzzzzzzzzzzzzzzzzzzzzzzzzzzzzzzzzzzzzzzzzzzzzzzzzzzzzzzzzz",
"lzzzzzzzzzzzzzzzzzzzzzzzzzzzzzzzzzzzzzzzzzzzzzzzzzzzzzzzzzzl",
"zzzzzzzzzzzzzzzzzzzzzzzzzzzzzzzzzzzzzzzzzzzzzzzzzzzzzzzzzzzz",
"zzzzzzzzzzzzzzzzzzzzzzzzzzzzzzzzzzzzzzzzzzzzzzzzzzzzzzzzzzzz",
"zzzzzzzzzzzzzzzzzzzzzzzzzzzzzzzzzzzzzzzzzzzzzzzzzzzzzzzzzzzz",
"zzzzzzzzzzzzzzzzzzzzzzzzzzzzzzzzzzzzzzzzzzzzzzzzzzzzzzzzzzzz",
"zzzzzzzzzzzzzzzzzzzzzzzzzzzzzzzzzzzzzzzzzzzzzzzzzzzzzzzzzzzz",
"zzzzzzzzzzzzzzzzzzzzzzzzzzzzzzzzzzzzzzzzzzzzzzzzzzzzzzzzzzzz",
"zzzzzzzzzzzzzzzzzzzzzzzzzzzzzzzzzzzzzzzzzzzzzzzzzzzzzzzzzzzz",
"zzzzzzzzzzzzzzzzzzzzzzzzzzzzzzzzzzzzzzzzzzzzzzzzzzzzzzzzzzzz",
"zzzzzzzzzzzzzzzzzzzzzzzzzzzzzzzzzzzzzzzzzzzzzzzzzzzzzzzzzzzz",
"bzzzzzzzzzzzzzzzzzzzzzzzzzzzzzzzzzzzzzzzzzzzzzzzzzzzzzzzzzzb",
"VczzzzzzzzzzzzzzzzzzzzzzzzzzzzzzzzzzzzzzzzzzzzzzzzzzzzzzzzvV",
"qyBzzzzzzzzzzzzzzzzzzzzzzzzzzzzzzzzzzzzzzzzzzzzzzzzzzzzzzBuq",
"4eSjzzzzzzzzzzzzzzzzzzzzzzzzzzzzzzzzzzzzzzzzzzzzzzzzzzzzjAe4",
"6rChzzzzzzzzzzzzzzzzzzzzzzzzzzzzzzzzzzzzzzzzzzzzzzzzzzzzhZr5",
".0DhzzzzzzzzzzzzzzzzzzzzzzzzzzzzzzzzzzzzzzzzzzzzzzzzzzzzhD0.",
" 3igzzzzzzzzzzzzzzzzzzzzzzzzzzzzzzzzzzzzzzzzzzzzzzzzzzzzgi3 ",
"*19BVzzzzzzzzzzzzzzzzzzzzzzzzzzzzzzzzzzzzzzzzzzzzzzzzzzVB91&",
"=>8NBghhjzzzzzzzzzzzzzzzlkkkkkkkkkklzzzzzzzzzzzzzzzjhhgBN7>=",
"-o<89iDCABzzzzzzzzzzzzzlxMMMMMMMMMMnlzzzzzzzzzzzzzVAZDi97,X-",
";@o>130reyczzzzzzzzzzzzntsdffffffdstnzzzzzzzzzzzzvuwr032:o@;",
";;-=* .64qVbzzzzzzzzzlzmp$O%++++%O$pmzlzzzzzzzzzbVq46. *=-;;"
};
