/* XPM */
static char *result[] = {
/* columns rows colors chars-per-pixel */
"60 60 200 2 ",
"   c #3E0004",
".  c #591E29",
"X  c #6C2F30",
"o  c #6C3A35",
"O  c #763F39",
"+  c #743A31",
"@  c #6E4034",
"#  c #B93C22",
"$  c #BB3D2A",
"%  c #B33E23",
"&  c #C03D21",
"*  c #BC431C",
"=  c #B6491E",
"-  c #BD4E19",
";  c #BA551A",
":  c #9C432C",
">  c #94562B",
",  c #8C4D37",
"<  c #9A4C34",
"1  c #954E37",
"2  c #975137",
"3  c #AF472B",
"4  c #A1442A",
"5  c #B54223",
"6  c #BC4524",
"7  c #BB4926",
"8  c #B4462B",
"9  c #BC462B",
"0  c #B64A2B",
"q  c #BB4B2B",
"w  c #B64C27",
"e  c #A65225",
"r  c #BC5026",
"t  c #BE512B",
"y  c #BE5B2F",
"u  c #A34B36",
"i  c #AF4931",
"p  c #A0483A",
"a  c #B64731",
"s  c #BB4631",
"d  c #B34C33",
"f  c #BD4B31",
"g  c #B04E3C",
"h  c #A95636",
"j  c #A05238",
"k  c #AE5D36",
"l  c #BE5435",
"z  c #BB5D31",
"x  c #BB533D",
"c  c #B35338",
"v  c #BC6927",
"b  c #BC6235",
"n  c #C1461F",
"m  c #C44A1C",
"M  c #D1571F",
"N  c #D25C1C",
"B  c #E1681E",
"V  c #F66E15",
"C  c #F56C1C",
"Z  c #EE7415",
"A  c #EE741C",
"S  c #F5751D",
"D  c #F9761E",
"F  c #F4791D",
"G  c #F9791C",
"H  c #F07516",
"J  c #C14724",
"K  c #C34C25",
"L  c #C84A20",
"P  c #C2462C",
"I  c #C24C2B",
"U  c #C94E2C",
"Y  c #C55124",
"T  c #CB5325",
"R  c #C5512C",
"E  c #CB522B",
"W  c #CE5A2C",
"Q  c #D25426",
"!  c #DA5727",
"~  c #D45B24",
"^  c #DB5C25",
"/  c #D1542D",
"(  c #D35C2C",
")  c #DA5D2B",
"_  c #C14E32",
"`  c #C65236",
"'  c #CC5331",
"]  c #C55A33",
"[  c #CA5A31",
"{  c #D45D31",
"}  c #C6642B",
"|  c #CB642B",
" . c #CC6327",
".. c #DC6525",
"X. c #D4632A",
"o. c #DC622C",
"O. c #D7692C",
"+. c #DE6A2B",
"@. c #D97F2C",
"#. c #CF6E39",
"$. c #C86836",
"%. c #D26636",
"&. c #DC6433",
"*. c #DA6738",
"=. c #DB6932",
"-. c #CF763F",
";. c #D67230",
":. c #D87034",
">. c #D8773E",
",. c #E36524",
"<. c #E46A25",
"1. c #EA6D25",
"2. c #E2662C",
"3. c #E46A2A",
"4. c #EB6D2B",
"5. c #F16F25",
"6. c #F26E2C",
"7. c #ED7325",
"8. c #ED7B23",
"9. c #E7722D",
"0. c #EE732A",
"q. c #EC7A2A",
"w. c #F57523",
"e. c #FA7623",
"r. c #F57924",
"t. c #FA7924",
"y. c #F4742A",
"u. c #FA752B",
"i. c #F57A2A",
"p. c #FC7B2B",
"a. c #E06332",
"s. c #E56D33",
"d. c #F26E31",
"f. c #EB7332",
"g. c #E17438",
"h. c #E77838",
"j. c #F37433",
"k. c #F37932",
"l. c #FA7C32",
"z. c #F57C3A",
"x. c #F67437",
"c. c #EF861B",
"v. c #F3811F",
"b. c #CA853B",
"n. c #D3803B",
"m. c #EB8226",
"M. c #EF812A",
"N. c #ED8D2D",
"B. c #F58223",
"V. c #F68A27",
"C. c #F3852D",
"Z. c #F88125",
"A. c #EC922F",
"S. c #F4942F",
"D. c #F8922B",
"F. c #F89E2C",
"G. c #EF8E32",
"H. c #EB8135",
"J. c #FF8236",
"K. c #FA823A",
"L. c #F88C35",
"P. c #EF953B",
"I. c #F59934",
"U. c #F99930",
"Y. c #F69B3A",
"T. c #F99335",
"R. c #F7A035",
"E. c #FCA535",
"W. c #FCA33D",
"Q. c #F6A93E",
"!. c #FFAC3B",
"~. c #FDAA36",
"^. c #FFB13D",
"/. c #AE8C49",
"(. c #E08242",
"). c #EF9E42",
"_. c #F1A740",
"`. c #FAA543",
"'. c #F4AD44",
"]. c #F5AE4A",
"[. c #F5B242",
"{. c #F7B048",
"}. c #F7BB4A",
"|. c #F9B842",
" X c #EEB856",
".X c #F3BE58",
"XX c #ECBF63",
"oX c #F4C44D",
"OX c #F7C453",
"+X c #FFDD5D",
"@X c #F9D15A",
"#X c #FEED5F",
"$X c #FCDA63",
"%X c #FCD560",
"&X c #FFE167",
"*X c #FFEA64",
"=X c #FDE26B",
"-X c #FFEA6A",
";X c #FCE471",
":X c None",
/* pixels */
":X:X:X:X:X:X:X:X:X:X:X:X:X:X:X:X:X:X:X:X:X:X:X:X:X:X:X:X:X:X:X:X:X:X:X:X:X:X:X:X:X:X:X:X:X:X:X:X:X:X:X:X:X:X:X:X:X:X:X:X",
":X:X:X:X:X:X:X:X:X:X:X:X:X:X:X:X:X:X:X:X:X:X:X:X:X:X:X:X:X:X:X:X:X:X:X:X:X:X:X:X:X:X:X:X:X:X:X:X:X:X:X:X:X:X:X:X:X:X:X:X",
":X:X:X:X:X:X:X:X:X:X:X:X:X:X:X:X:X:X:X:X:X:X:X:X:X:X:X:X:X:X:X:X:X:X:X:X:X:X:X:X:X:X:X:X:X:X:X:X:X:X:X:X:X:X:X:X:X:X:X:X",
":X:X:X:X:X:X:X:X:X:X:X:X:X:X:X:X:X:X:X:X:X:X:X:X:X:X:X:X:X:X:X:X:X:X:X:X:X:X:X:X:X:X:X:X:X:X:X:X:X:X:X:X:X:X:X:X:X:X:X:X",
":X:X:X:X:X:X:X:X:X:X:X:X:X:X:X:X:X:X:X:X:X:X:X:X:X:X:X:X:X:X:X:X:X:X:X:X:X:X:X:X:X:X:X:X:X:X:X:X:X:X:X:X:X:X:X:X:X:X:X:X",
":X:X:X:X:X:X:X:X:X:X:X:X:X:X:X:X:X:X:X:X:X:X:X:X:X:X:X:X:X:X:X:X:X:X:X:X:X:X:X:X:X:X:X:X:X:X:X:X:X:X:X:X:X:X:X:X:X:X:X:X",
":X:X:X:X:X:X:X:X:X:X:X:X0 E U I :X:X:X:X:X:X:X:X:X:X:X:X:X:X:X:X:X:X:X:X:X:X:X:X:X:X:X:X:X:X:X:X:X:X:X:X:X:X:X:X:X:X:X:X",
":X:X:X:X:X:X:X:X:X:X:X:XI I I I :X:X:X:X:X:X:X:X:X:X:X:X:X:X:X:X:X:X:X:X:X:X:X:X:X:X:X:X:X:X:X:X:X:X:X:X:X:X:X:X:X:X:X:X",
":X:X:X:X:X:X:X:X:X:XE I :X:X:X:X:X:X:X:X:X:X:X:X:X:X:X:X:X:X:X:X:X:X:X:X:X:X:X:X:X:X:X:X:X:X:X:X:X:X:X:X:X:X:X:X:X:X:X:X",
":X:X:X:X:X:X:X:X:X:XU I :X:X:X:X:X:X:X:X:X:X:X:X:X:X:X:X:X:X:X:X:X:X:X:X:X:X:X:X:X:X:X:X:X:X:X:X:X:X:X:X:X:X:X:X:X:X:X:X",
":X:X:X:X:X:X:X:X:X:XE U :X:X:X:X:X:X:X:X:X:X:X:X:XE U U U U U E R R R R R E R R R R R R R R R R U U E U R E :X:X:X:X:X:X",
":X:X:X:X:X:X:X:X:X:XU q :X:X:X:X:X:X:X:X:X:X:X:X:XU U I I I I I q q 0 f q d q 0 0 s 0 0 f q 0 q 0 q I I I I q :X:X:X:X:X",
":X:X:X:X:X:X:X:X:X:X:X:Xq 7 I 7 7 7 q q 7 I q q I :X:X:X:X:X:X:X:X:X:X:X:X:X:X:X:X:X:X:X:X:X:X:X:X:X:X:X:X:X:Xu 1 :X:X:X",
":X:X:X:X:X:X:X:X:X:X:X:XI I 7 I I I I 7 I I 7 U 7 :X:X:X:X:X:X:X:X:X:X:X:X:X:X:X:X:X:X:X:X:X:X:X:X:X:X:X:X:X:Xx u :X:X:X",
":X:X:X:X:X:X:X:X:X:X:X:X:X:X:X:X:X:X:X:X:X:X:X:X:X:X:X:X:X:X:X:X:X:X:X:X:X:X:X:X:X:X:X:X:X:X:X:X:X:X:X:X:X:X:Xx p :X:X:X",
":X:X:X:X:X:X:X:X:X:X:X:X:X:X:X:X:X:X:X:X:X:X:X:X:X:X:X:X:X:X:X:X:X:X:X:X:X:X:X:X:X:X:X:X:X:X:X:X:X:X:X:X:X:X:Xc u :X:X:X",
":X:X:X:X:X:X:X:X:X:X:X:X:X:X:X:X:X:X:X:X:X:X:X:X:X:X:X:X:X:X:X:X:X:X:X:X:X:X:X:X:X:X:X:X:X:X:X:X:X:X:X:X:X:X:Xx u :X:X:X",
":X:X:X:X:X:X:X:X:X:X:X:X:X:X:X:X:X:X:X:X:X:X:X:X:X:X:X:X:X:X:X:X:X:X:X:X:X:X:X:X:X:X:X:X:X:X:X:X:X:X:X:X:X:X:Xg p :X:X:X",
":X:X:X:X:X:X:X:X:X:X:X:X:X:X:X:X:X:X:X:X:Xw.i.w.w.y.7.q.q.y.i.i.y.y.y.r.i.b o , $.y.i.0.i.y.i.r.i.y.:X:X:X: :X:X:X:X:X:X",
":X:X:X:X:X:X:X:X:X:X:X:X:X:X:X:X:X:X:X:Xt.p.e.t.p.t.t.t.t.r.y.j.r.F y.p.K.$.X k H.Z.p.i.r.i.p.l.J.k.:X:Xq / 7 :X:X:X:X:X",
":X:X:X:X:X:X:X:X:X:X:X:X:X:X:X:X:Xq.:X:X3.r.e.e.B.D.D.D.I.Q.[.[.'.{.{.-.y 2 + 2 b O.L.D.D.L.....&.&.W :XW a.[ :X:X:X:X:X",
":X:X:X:X:X:X:X:X:X:X:X:X:X:X:X:Xy.p.( q O.u.u.S V.!.^.!.|.+X*X#X*X-X;X/.  o O o . > '.^.!.`.; 5 9 9 a 8 3.l.[ :X:X:X:X:X",
":X:X:X:X:X:X:X:X:X:X:X:X:X:X:X:Xi.p.) P ..r.e.S B.S.U.U.R.}.oXoXoXoXOXb.e 2 + , h } I.F.U.P...~ ! ) ) ( X.| :X:X:X:X:X:X",
":X:X:X:X:X:X:X:X:X:X:X:X:X:Xr.r.S V Q $ o.r.r.e.u.8.H F F Z Z 7.A Z A 8.k.z . h h.i.e.8.w.e.e.w.p.p.Z.x.:X:X:X:X:X:X:X:X",
":X:X:X:X:X:X:X:X:X:X:X:X:X:Xy.r.G.P.;.T o.3.4.e.D e.e.e.D e.e.w.e.S S w.r.| : W q.D e.w.w.D r.r.q.q.i.k.:X:X:X:X:X:X:X:X",
":X:X:X:X:X:X:X:X:X:X:X:Xq _ 9.A OX=X).7.o.& o.i.G e.e.e.e.e.e.e.e.D e.e.r.y.y.y.F S G e.p.t.t.k.:X:X:X:X:X:X:X:X:X:X:X:X",
":X:X:X:X:X:X:X:X:X:X:X:Xq E q.c.}.@XI.w.<.L ) 4.7.w.w.S S e.e.D e.e.w.e.S S e.e.w.e.e.e.1.3.y.f.:X:X:X:X:X:X:X:X:X:X:X:X",
":X:X:X:X:X:X:X:X:X:X>.:.q r Y.E.A.m.r.D y.y.2.m ~ e.e.r.e.e.D D F w.r.e.D r.e.e.t.e.e.w.! I :X:X:X:X:X:X:X:X:X:X:X:X:X:X",
":X:X:X:X:X:X:X:X:X:Xk.u.I t Y.E.M.C e.e.e.r.<.m Q 6.6.y.7.y.6.5.w.0.0.0.w.6.y.y.r.y.i.4.I q :X:X:X:X:X:X:X:X:X:X:X:X:X:X",
":X:X:X:X:X:X:X:X:X:Xx.u.Y 7 q.r.8.F F e.e.r.7.0.2.R Y R R E U ` ` E U E U R E W :X:X:X:X:X:X:X:X:X:X:X:X:X:X:X:X:X:X:X:X",
":X:X:X:X:X:X:X:X:X:Xf.y.- w 4.i.i.e.r.F e.w.e.t.3.K 7 7 q 8 d d a s q a i 3 q K :X:X:X:X:X:X:X:X:X:X:X:X:X:X:X:X:X:X:X:X",
":X:X:X:X:X:X:X:X4 z y.C. XXX| U / Q 3.r.r.w.S S y.4.4.d.3.:X:X:X:Xf ` q :X:X:X:X0 0 :X:X:X:X:X:X:X:X:X:X:X:X:X:X:X:X:X:X",
":X:X:X:X:X:X:X:Xr X.C G.$X=Xv 5 J J o.u.w.i.w.e.e.r.y.p.i.:X:X:X:XU ` :X:X:X:X:XU I :X:X:X:X:X:X:X:X:X:X:X:X:X:X:X:X:X:X",
":X:X:X:X:X:X:X:X+.0.V A.$X&X@...3.2.X.~ ^ / 2.i.1.~ { ! ^ k.h.:X:X:X:X:X:X:X:X:X:X:XU q I q %.%.R I :X:X:X:X:X:X:X:X:X:X",
":X:X:X:X:X:X:X:Xl.l.V N.%X$XN.e.p.j.~ * 9 $ ~ i.2.6 9 % Y H.h.:X:X:X:X:X:X:X:X:X:X:X_ ' I Q k.k.) I :X:X:X:X:X:X:X:X:X:X",
":X:X:X:X:X:X:X:Xt.e.S B._._.r.S S w.<.....o.o.o...2.2.2.3.:.h.3.:X:X:X:X:X:X:X:Xq q q R ) ,.e.u.W q :X:X:X:X:X:X:X:X:X:X",
":X:X:X:X:X:X:X:Xp.p.e.G Z 7.e.e.q.S e.e.e.i.a.$ M p.l.J.t.:X:XW I :X:X:X:X:X:X:XP I 8 T y.e.e.y.{ q :X:X:X:X:X:X:X:X:X:X",
":X:X:X:X:X:X:X:X<.3.o.B e.w.e.w.w.e.e.i.4...2.) =.0.0.7.7.:X:XY :X:X:X:X:X:X:X[ &.) X...w.5.B O.R :X:X:X:X:X:X:X:X:X:X:X",
":X:X:X:X:X:X:X:XK I % Y y.t.e.e.r.r.t.u.o.# ) K.(.:X:X:X:XI 7 :X:X:X:X:X:X:X9 ( y.w.y.y.u.x.W 9 :X:X:X:X:X:X:X:X:X:X:X:X",
":X:X:X:X:X:X:X:XI E W ) 2.3.2.3.3.3.<.3.( 7 / s.#.:X:X:X:XI I :X:X:X:X:X:Xl ( <.e.D e.w.3.*.t J :X:X:X:X:X:X:X:X:X:X:X:X",
":X:X:X:X:X:X:X:X_ ' y.9.K 6 P P 9 P I 9 s q I P W f.+.U q :X:Xq I :X:Xq 7 &.y.w.u.e.t.7.E 0 :X:X:X:X:X:X:X:X:X:X:X:X:X:X",
":X:X:X:X:X:X:X:X_ / y.y. .} E E E T T T R T U s / j.4.! Y :X:Xq R 0 :XY T ,.e.G e.y.4.=.q 9 :X:X:X:X:X:X:X:X:X:X:X:X:X:X",
":X:X:X:X:X:X:X:Xq { 5.Z.`.W.m.y.w.i.y.w.y.x.2.q f 9 T d.h._ q d q d d o.y.y.e.S e.1.T q :X:X:X:X:X:X:X:X:X:X:X:X:X:X:X:X",
":X:X:X:X:X:X:X:Xq ( 5.B.~.!.v.D e.e.F G r.y.o.7 I U N w.x.U 7 U Y ` _ 2.t.r.y.y.0.&.I q :X:X:X:X:X:X:X:X:X:X:X:X:X:X:X:X",
":X:X:X:X:X:X:X:XI ) 7.C.E.!.r.S r.e.G e.,.K _ 9 / d.y.G 0.U 7 s.6.W 9 2.e.G e.<.T q :X:X:X:X:X:X:X:X:X:X:X:X:X:X:X:X:X:X",
":X:X:X:X:X:X:X:X9 E 9.M.E.W.8.S y.y.y.j.{ q I I ~ y.e.i.f.Y m 0.i.~ m &.j.e.D +.q q :X:X:X:X:X:X:X:X:X:X:X:X:X:X:X:X:X:X",
":X:X:X:X:X:X:X:X:X:XU ^ r.r.r.y.X.K T U I 7 ( f.7.e.1.Y T 3.4.e.i.4.1.) K ..J.>.:X:X:X:X:X:X:X:X:X:X:X:X:X:X:X:X:X:X:X:X",
":X:X:X:X:X:X:X:X:X:XP [ f.i.u.x.Q * P J K * ^ y.S e.1.K U w.e.e.i.e.e.^ 0 ( g.-.:X:X:X:X:X:X:X:X:X:X:X:X:X:X:X:X:X:X:X:X",
":X:X:X:X:X:X:X:X:X:X:X:X] { ( ( 2.4.4.2.4.3.5.e.D t.3.U U 0.e.D e.e.e.o._ q :X:X:X:X:X:X:X:X:X:X:X:X:X:X:X:X:X:X:X:X:X:X",
":X:X:X:X:X:X:X:X:X:X:X:X8 q w 7 4.u.e.i.i.i.u.e.w.r.4.L U 0.w.y.w.e.i.&.f :X:X:X:X:X:X:X:X:X:X:X:X:X:X:X:X:X:X:X:X:X:X:X",
":X:X:X:X:X:X:X:X:X:X:X:X:X:X:X:XR o.( ) ) ) ) ) ) o.( U U ( o.) ( ..:X:X:X:X:X:X:X:X:X:X:X:X:X:X:X:X:X:X:X:X:X:X:X:X:X:X",
":X:X:X:X:X:X:X:X:X:X:X:X:X:X:X:X3 _ P q q f I q 9 P q _ q f 9 I 0 :X:X:X:X:X:X:X:X:X:X:X:X:X:X:X:X:X:X:X:X:X:X:X:X:X:X:X",
":X:X:X:X:X:X:X:X:X:X:X:X:X:X:X:X:X:X:X:X:X:X:X:X:X:X:X:X:X:X:X:X:X:X:X:X:X:X:X:X:X:X:X:X:X:X:X:X:X:X:X:X:X:X:X:X:X:X:X:X",
":X:X:X:X:X:X:X:X:X:X:X:X:X:X:X:X:X:X:X:X:X:X:X:X:X:X:X:X:X:X:X:X:X:X:X:X:X:X:X:X:X:X:X:X:X:X:X:X:X:X:X:X:X:X:X:X:X:X:X:X",
":X:X:X:X:X:X:X:X:X:X:X:X:X:X:X:X:X:X:X:X:X:X:X:X:X:X:X:X:X:X:X:X:X:X:X:X:X:X:X:X:X:X:X:X:X:X:X:X:X:X:X:X:X:X:X:X:X:X:X:X",
":X:X:X:X:X:X:X:X:X:X:X:X:X:X:X:X:X:X:X:X:X:X:X:X:X:X:X:X:X:X:X:X:X:X:X:X:X:X:X:X:X:X:X:X:X:X:X:X:X:X:X:X:X:X:X:X:X:X:X:X",
":X:X:X:X:X:X:X:X:X:X:X:X:X:X:X:X:X:X:X:X:X:X:X:X:X:X:X:X:X:X:X:X:X:X:X:X:X:X:X:X:X:X:X:X:X:X:X:X:X:X:X:X:X:X:X:X:X:X:X:X",
":X:X:X:X:X:X:X:X:X:X:X:X:X:X:X:X:X:X:X:X:X:X:X:X:X:X:X:X:X:X:X:X:X:X:X:X:X:X:X:X:X:X:X:X:X:X:X:X:X:X:X:X:X:X:X:X:X:X:X:X",
":X:X:X:X:X:X:X:X:X:X:X:X:X:X:X:X:X:X:X:X:X:X:X:X:X:X:X:X:X:X:X:X:X:X:X:X:X:X:X:X:X:X:X:X:X:X:X:X:X:X:X:X:X:X:X:X:X:X:X:X",
":X:X:X:X:X:X:X:X:X:X:X:X:X:X:X:X:X:X:X:X:X:X:X:X:X:X:X:X:X:X:X:X:X:X:X:X:X:X:X:X:X:X:X:X:X:X:X:X:X:X:X:X:X:X:X:X:X:X:X:X"
};
