/* XPM */
static char *result[] = {
/* columns rows colors chars-per-pixel */
"60 60 181 2 ",
"   c #008847",
".  c #028A47",
"X  c #038A47",
"o  c #098C48",
"O  c #0A8C48",
"+  c #0C8E48",
"@  c #0F8F48",
"#  c #0F8F49",
"$  c #109049",
"%  c #119049",
"&  c #139249",
"*  c #13914A",
"=  c #149249",
"-  c #14924A",
";  c #15934A",
":  c #16934A",
">  c #15944A",
",  c #16944A",
"<  c #17944A",
"1  c #16954A",
"2  c #17954A",
"3  c #17954B",
"4  c #18964A",
"5  c #19964B",
"6  c #1A964B",
"7  c #1A974B",
"8  c #1A974C",
"9  c #1B974C",
"0  c #1B984B",
"q  c #1B994B",
"w  c #1C984B",
"e  c #1C994B",
"r  c #1D994B",
"t  c #1C994C",
"y  c #1D994C",
"u  c #1D9A4C",
"i  c #1E9A4C",
"p  c #1E9B4C",
"a  c #1F9B4D",
"s  c #1F9C4D",
"d  c #209C4D",
"f  c #219C4D",
"g  c #219D4D",
"h  c #219E4D",
"j  c #229E4D",
"k  c #239F4D",
"l  c #239F4E",
"z  c #249F4E",
"x  c #23A04E",
"c  c #24A04D",
"v  c #24A04E",
"b  c #24A14E",
"n  c #25A14E",
"m  c #25A14F",
"M  c #26A24E",
"N  c #26A34E",
"B  c #26A24F",
"V  c #26A34F",
"C  c #27A34F",
"Z  c #27A44F",
"A  c #28A44F",
"S  c #28A54F",
"D  c #29A550",
"F  c #2AA650",
"G  c #2AA750",
"H  c #2BA750",
"J  c #2AA850",
"K  c #2BA850",
"L  c #2BA851",
"P  c #2BA951",
"I  c #2CA850",
"U  c #2CA950",
"Y  c #2CA951",
"T  c #2DAA51",
"R  c #2DAB51",
"E  c #2EAB52",
"W  c #2DAC52",
"Q  c #2FAC52",
"!  c #2FAD52",
"~  c #2FAD53",
"^  c #30AD52",
"/  c #30AD53",
"(  c #30AE52",
")  c #30AE53",
"_  c #30AF53",
"`  c #31AF53",
"'  c #32AF53",
"]  c #32B053",
"[  c #32B153",
"{  c #33B153",
"}  c #32B154",
"|  c #33B154",
" . c #32B254",
".. c #33B254",
"X. c #33B355",
"o. c #34B254",
"O. c #34B354",
"+. c #34B355",
"@. c #34B454",
"#. c #35B454",
"$. c #35B455",
"%. c #35B555",
"&. c #36B555",
"*. c #36B655",
"=. c #37B655",
"-. c #36B755",
";. c #37B755",
":. c #38B755",
">. c #37B856",
",. c #38B856",
"<. c #38B956",
"1. c #38B857",
"2. c #38B957",
"3. c #39B957",
"4. c #38BA56",
"5. c #39BA56",
"6. c #39BB56",
"7. c #39BA57",
"8. c #39BB57",
"9. c #3ABB56",
"0. c #3ABA57",
"q. c #3ABB57",
"w. c #3BBC57",
"e. c #3ABD57",
"r. c #3BBD57",
"t. c #3CBD57",
"y. c #3ABB58",
"u. c #3ABC58",
"i. c #3BBD58",
"p. c #3CBD58",
"a. c #3CBE58",
"s. c #3CBF58",
"d. c #3DBF58",
"f. c #3CBF59",
"g. c #3DBF59",
"h. c #3DC058",
"j. c #3DC059",
"k. c #3DC159",
"l. c #3EC058",
"z. c #3EC158",
"x. c #3EC059",
"c. c #3EC159",
"v. c #3FC159",
"b. c #3EC259",
"n. c #3FC259",
"m. c #3FC359",
"M. c #3EC25A",
"N. c #3FC25A",
"B. c #3FC35A",
"V. c #3FC45A",
"C. c #40C259",
"Z. c #40C359",
"A. c #40C35A",
"S. c #40C45A",
"D. c #41C45A",
"F. c #40C55A",
"G. c #41C55A",
"H. c #40C45B",
"J. c #40C55B",
"K. c #41C55B",
"L. c #42C55A",
"P. c #42C55B",
"I. c #40C65A",
"U. c #41C65A",
"Y. c #41C65B",
"T. c #41C75B",
"R. c #42C65A",
"E. c #42C65B",
"W. c #42C75B",
"Q. c #43C75B",
"!. c #42C85B",
"~. c #43C85B",
"^. c #44C95B",
"/. c #42C85C",
"(. c #43C85C",
"). c #43C95C",
"_. c #44C95C",
"`. c #44CA5C",
"'. c #45CA5C",
"]. c #44CB5C",
"[. c #45CB5D",
/* pixels */
"S.S.S.S.S.S.S.S.S.S.S.S.S.S.S.S.S.S.S.S.S.S.S.S.S.S.S.S.S.S.S.S.S.S.S.S.S.S.E.W.D.S.S.S.S.S.S.S.S.S.S.S.S.S.S.S.S.S.S.S.",
"S.S.S.S.S.S.S.S.S.S.S.S.S.S.S.S.S.S.S.S.S.S.S.S.S.S.S.S.S.S.S.S.S.S.S.S.T.H.<.-.x.G.S.S.S.S.S.S.S.S.S.S.S.S.S.S.S.S.S.S.",
"S.S.S.S.S.S.S.S.S.S.S.S.S.S.S.S.S.S.S.S.S.S.S.S.S.S.S.S.S.S.S.S.S.S.S.S._.n.k r q.~.S.S.S.S.S.S.S.S.S.S.S.S.S.S.S.S.S.S.",
"S.S.S.S.S.S.S.S.S.S.S.S.S.S.S.S.S.S.U.R.S.S.S.S.S.S.S.S.S.S.S.S.G.E.R.S.7.) C U a.E.S.S.S.S.S.S.S.S.S.S.S.S.S.S.S.S.S.S.",
"S.S.S.S.S.S.S.S.S.S.S.S.S.S.S.S.S.S.H.S.S.S.S.S.S.S.S.S.S.S.S.S.S.S.W.A.S < %.E.G.S.S.S.S.S.S.S.S.S.S.S.S.S.S.S.S.S.S.S.",
"S.S.S.S.S.S.S.S.S.S.S.S.S.S.S.S.E.b.! E c.).F.A.A.Y.W.G.S.S.F.U.2.K ;.S.v X &.].G.A.S.S.S.S.S.S.S.S.S.S.S.S.S.S.S.S.S.S.",
"S.S.S.S.S.S.S.S.S.S.S.S.S.S.S.S.!.j.j 7 <.Y.S.S.S.n.n.Z.S.S.I.W.o.= W S.I 4 &.W.F.S.S.S.S.S.S.S.S.S.S.S.S.S.S.S.S.S.S.S.",
"S.S.S.S.S.S.S.S.S.S.S.S.S.S.S.S.J.N.,.! A ! c._.(...n *.U.G.F.G.i...8.S.7.$.s.K.S.S.S.S.S.S.S.E.W.G.S.S.S.S.S.S.S.S.S.S.",
"S.S.S.S.S.S.S.S.S.S.S.S.S.S.S.S.S.G.'.t.: e d.W.a.D 5 @.W.G.S.S.G.W.K.S.K.E.G.S.S.S.S.S.S.F.S.d.a.n.G.S.S.S.S.S.S.S.S.S.",
"S.S.S.S.S.S.S.S.S.S.S.S.S.S.S.S.S.S._.9.$ y c.;.u F 5.c.D.S.S.S.S.G.S.S.G.G.S.S.S.S.S.S.S.E.N.Y n 7.!./.T.S.S.S.S.S.S.S.",
"S.S.S.S.S.S.S.S.S.S.S.S.S.S.S.S.S.S.T.i.C Y m.#.u } )./.S.S.S.S.S.S.S.S.S.A.S.S.S.S.S.S.S.W.c.a + ,.G.3.8.m.F.S.S.S.S.S.",
"S.S.S.S.S.S.S.S.S.S.S.S.S.S.S.S.S.S.S.B.s.d.S.c.r.x.G.F.S.S.S.S.S.S.S.S.S.S.S.S.S.S.S.S.S.!.c.d # 8.r.t B n.W.S.S.S.S.S.",
"S.S.S.S.S.S.S.S.S.S.S.S.S.S.S.S.S.S.S.S.W.W.S.K.!.R.S.S.S.S.S.S.S.S.S.S.S.S.S.S.S.S.S.S.S.U.B.) K j.p.C T N.W.S.S.S.S.S.",
"S.S.S.S.S.S.S.S.S.S.S.S.S.S.S.S.S.S.S.S.S.S.S.S.S.S.S.S.S.S.S.S.S.S.S.S.S.S.S.S.S.S.S.S.S.S.S.B.M.S.S.n.n.S.S.S.S.S.S.S.",
"S.S.S.S.S.S.S.S.S.S.S.S.S.S.S.S.S.S.S.S.S.S.S.S.S.S.S.S.S.S.S.S.S.S.S.S.S.S.S.S.S.S.S.S.S.S.S.T.W.D.F.W.W.S.S.S.S.S.S.S.",
"S.S.S.S.S.S.S.S.S.S.S.S.S.S.S.S.S.S.S.S.S.S.S.S.S.S.S.S.S.S.S.S.S.S.S.S.S.S.S.S.S.S.S.S.S.S.S.S.S.S.S.S.S.S.S.S.S.S.S.S.",
"S.S.S.S.S.S.S.S.D.W.W.S.S.S.S.S.S.S.S.S.S.S.S.S.S.S.S.S.S.S.S.S.S.S.S.S.S.S.S.S.S.S.S.S.S.S.S.S.S.S.S.S.S.S.S.S.S.S.S.S.",
"S.S.S.S.S.S.S.S.A.c.k.B.S.S.S.S.S.S.S.S.S.S.S.S.S.S.S.S.S.S.S.S.S.S.S.S.S.S.S.S.S.S.S.S.S.S.S.S.S.S.S.S.S.S.S.S.S.S.S.S.",
"S.S.S.S.S.E.~.(.s.J K d.~.~.T.S.S.S.S.S.S.S.S.S.S.S.S.S.S.S.S.S.S.S.S.S.S.S.S.S.S.S.S.S.S.S.S.S.S.S.S.S.S.S.S.S.S.S.S.S.",
"S.S.S.S.S.a.q.D.p.1 3 r.F.q.s.S.S.S.S.S.S.S.S.S.S.S.S.S.S.S.S.S.S.S.S.G.S.S.S.S.S.S.S.S.S.S.S.S.S.S.S.S.S.S.S.S.S.S.S.S.",
"S.S.S.Y.F.R q <.h.5 4 j.<.w T S.Y.S.S.S.S.S.S.S.S.S.S.S.S.S.S.S.S.S.U.W.K.S.A.S.S.S.S.S.S.S.S.S.S.S.S.S.S.S.S.S.S.S.S.S.",
"S.S.S.U.S.! h ,.b.P L n.<.g ^ S.E.S.S.S.S.S.S.S.S.S.S.S.S.S.S.S.F.S.i.;.a.G.G.K.S.S.S.S.S.S.S.S.S.S.S.S.S.S.S.S.S.S.S.S.",
"S.S.S.S.S.v.g.B.S.z.k.S.n.g.c.S.S.S.S.S.S.S.S.S.S.S.S.S.S.S.S.S.U.K.^ 7 ] E.W.K.G.S.S.S.S.S.S.S.S.S.S.S.S.S.S.S.S.S.S.S.",
"S.S.S.S.S.U.Q.G.S.E.W.S.G.W.E.S.S.S.S.S.S.S.S.S.S.S.S.S.S.S.S.S.R.U.G   ^ K.%.] h.K.S.S.S.S.S.S.S.S.S.S.S.S.S.S.S.S.S.S.",
"S.S.S.S.S.S.S.S.S.S.S.S.S.S.S.S.S.S.S.S.S.S.S.S.S.S.S.S.S.S.S.S.R.Y.T % ..n.l 8 q.~.S.S.S.S.S.S.S.S.S.S.S.S.S.S.S.S.S.S.",
"S.S.S.S.S.S.S.S.S.S.S.S.S.S.S.S.S.S.S.S.S.S.S.S.S.S.S.S.S.S.S.S.G.G.1._ u.C.[ ~ f.R.S.S.S.S.S.S.S.S.S.S.S.S.S.S.S.S.S.S.",
"S.S.S.S.S.S.S.S.S.S.S.S.S.S.S.S.S.S.S.S.S.S.S.S.S.S.S.S.S.S.S.S.S.S.G.Y.D.S.G.K.S.S.S.S.S.S.S.S.S.S.S.S.S.S.S.S.S.S.S.S.",
"S.S.S.S.S.S.S.S.S.S.S.S.S.S.S.S.S.S.S.S.S.S.S.S.S.S.S.S.S.S.S.S.S.S.G.U.F.S.G.U.S.S.S.S.S.S.S.S.S.S.S.S.S.S.S.S.S.S.S.S.",
"S.S.S.S.S.S.S.S.S.S.S.S.S.S.S.S.S.S.S.S.S.S.S.S.S.S.S.S.S.S.S.S.S.S.S.S.S.S.S.S.S.S.S.S.S.S.S.S.S.S.S.S.S.S.S.S.S.S.S.S.",
"S.S.S.S.S.S.S.S.S.S.S.S.S.S.S.S.S.S.S.S.S.S.S.S.S.S.S.S.S.S.S.S.S.S.S.S.S.S.S.S.S.S.S.S.S.S.S.S.S.S.S.S.S.S.S.S.S.S.S.S.",
"S.S.S.S.S.S.S.S.S.S.S.G.S.S.S.S.S.S.S.S.S.S.S.S.S.S.S.S.S.S.S.S.S.S.S.S.S.S.S.S.S.S.S.S.S.S.S.S.S.S.S.S.S.S.S.S.S.S.S.S.",
"S.S.S.S.S.S.S.S.S.S.J.W.Y.S.S.S.S.S.S.S.S.S.S.S.S.S.S.S.S.S.S.S.S.S.S.S.S.S.S.S.S.S.S.S.S.S.S.S.S.S.S.S.S.S.S.S.S.S.S.S.",
"S.S.S.S.S.S.S.G.R.U.h.%.,.A.F.S.S.S.S.S.S.S.S.S.S.S.S.S.S.S.S.S.S.S.S.S.S.S.S.S.S.S.S.S.S.S.S.S.S.S.S.S.S.S.S.S.S.S.S.S.",
"S.S.S.S.S.S.S.G.R.~.<.0 V v.W.S.S.S.S.S.S.S.S.S.S.S.S.S.S.S.S.S.S.S.S.S.S.S.S.S.S.S.S.S.S.S.S.S.S.S.S.S.S.S.S.S.S.S.S.S.",
"S.S.S.S.S.G.m. .^ n.<.o u k.!.S.S.S.S.S.S.S.S.S.S.S.S.S.S.S.S.S.S.S.S.S.S.S.U.W.S.S.S.S.S.S.S.S.S.S.S.S.S.S.S.S.S.S.S.S.",
"S.S.S.S.S.W.b.v 5 w.w.6 b c.W.S.S.S.S.S.S.S.S.S.S.S.S.S.S.S.S.S.S.S.S.S.S.S.A.B.V.S.S.S.S.S.S.S.S.S.S.S.S.S.S.S.S.S.S.S.",
"S.S.S.S.S.G.B.#.] j.c.O.*.A.K.S.S.S.S.S.S.S.S.S.S.S.S.S.S.S.S.S.S.S.G.W.!.c.( E a.E.S.S.S.S.S.S.S.S.S.S.S.S.S.S.S.S.S.S.",
"S.S.S.S.S.S.S.G.Y.S.S.G.K.S.S.S.S.S.S.S.S.S.S.S.S.S.S.S.S.S.S.S.S.S.v.g.Y.h.p , 5.~.S.S.S.S.S.S.S.S.S.S.S.S.S.S.S.S.S.S.",
"S.S.S.S.S.S.S.G.K.S.S.G.K.S.S.S.S.S.S.S.S.S.S.S.S.S.S.S.S.S.S.S.G.G.] g ;.c.t @ 4.~.S.S.S.S.S.S.S.S.S.S.S.S.S.S.S.S.S.S.",
"S.S.S.S.S.S.S.S.S.S.S.S.S.S.S.S.S.S.S.S.S.S.S.S.S.S.S.S.S.S.S.S.U.K./ 9 #.m.G v i.W.S.S.S.S.S.S.S.S.S.S.S.S.S.S.S.S.S.S.",
"S.S.S.S.S.S.S.S.S.S.S.S.S.S.S.S.S.S.S.S.S.S.S.S.S.S.S.S.S.S.S.S.S.S.f.q.l.V.a.w.n.F.S.S.S.S.S.S.S.S.S.S.S.S.S.S.S.S.S.S.",
"S.S.S.S.S.S.S.S.S.S.S.S.S.S.S.S.S.S.S.S.S.S.K.F.S.S.S.J.K.F.S.S.S.S.R.~.K.S.W.W.S.S.S.S.S.S.S.S.S.S.S.S.S.S.S.S.S.S.S.S.",
"S.S.S.S.S.S.S.S.S.S.S.S.S.S.S.S.S.S.S.S.S.F.Y.G.S.S.S.U.E.F.S.S.S.S.S.S.S.S.S.S.S.S.S.S.S.S.S.S.S.S.S.S.S.S.S.S.S.S.S.S.",
"S.S.S.S.S.S.S.S.S.S.S.S.S.S.S.S.S.S.S.S.K.a...:.A.(.G.&.] a.Y.S.S.S.S.S.S.S.S.S.S.S.S.S.S.S.S.S.S.S.S.S.S.S.S.S.S.S.S.S.",
"S.S.S.S.S.S.S.S.S.S.S.S.S.S.S.S.S.S.S.F.W.&.> Z n.`.n.v , >.W.F.S.S.S.S.S.S.S.S.S.S.S.S.S.S.S.S.S.S.S.S.S.S.S.S.S.S.S.S.",
"S.S.S.S.S.S.S.S.S.S.S.S.S.S.S.S.S.S.A.G.!.X.. c B.<.F D ` s.Y.S.S.S.S.S.S.S.S.S.S.S.S.S.S.S.S.S.S.S.S.S.S.S.S.S.S.S.S.S.",
"S.S.S.S.S.S.S.S.S.S.S.S.S.S.S.S.S.S.S.F.W.*.2 P S.R * +.^.R.S.S.S.S.S.S.S.S.S.S.S.S.S.S.S.S.S.S.S.S.S.S.S.S.S.S.S.S.S.S.",
"S.S.S.S.S.S.S.S.S.S.S.S.S.S.S.S.S.S.S.S.G.s.$.6.S.7.o.a.W.G.S.S.S.S.S.S.S.S.S.S.S.S.S.S.S.T.~.K.A.A.F.W.E.S.S.S.S.S.S.S.",
"S.S.S.S.S.S.F.S.S.S.S.F.F.S.S.S.S.S.S.S.S.G.W.G.S.U.W.F.S.S.S.S.S.S.S.S.S.S.S.S.S.S.S.S.S.j.t.b.G.F.N.a.d.S.S.S.S.F.S.S.",
"S.S.S.S.S.E.Q.G.B.S.K.W.E.S.S.S.S.S.S.S.S.S.G.S.S.F.J.F.S.S.S.S.S.S.S.S.S.S.S.S.S.S.S.Y.S.E i ;.`.).7.m Y B.Y.B.W.!.G.S.",
"S.S.S.F.S.i.,.x.Y.K.c.7.w.A.F.S.S.S.S.S.S.S.S.S.S.S.S.S.S.S.S.S.S.S.S.S.S.S.S.S.S.S.S.E.S.! e E a.R.>.$ f c.).G.r.,.j.G.",
"S.S.S.E.S.Y 5 &.`._.<.d D v.W.S.S.S.S.S.S.S.S.S.S.S.S.S.S.S.S.S.S.S.S.S.S.S.S.S.S.S.S.S.S.B.q.M g a.q.3 z c.[.U.H 6 *.W.",
"S.S.S.G.S.[ x L =.F.>.o i k.!.S.S.S.S.S.S.S.S.S.S.S.S.S.S.S.S.S.S.S.S.S.S.S.S.S.S.S.S.S.S.`.G.s O 0.w.= k n.x.| N V 4.E.",
"S.S.S.S.S.P.h.l 7 e.y.; j c.W.S.S.S.S.S.S.S.S.S.S.S.S.S.S.S.S.S.S.S.S.S.S.S.S.S.S.S.S.S.S.Q.v.j : u.q.- n A.' & ! F.J.S.",
"S.S.S.S.S.~.K.] Y d.j.! { B.R.S.S.S.S.S.S.S.S.S.S.S.S.S.S.S.S.S.S.S.S.S.S.S.S.S.S.S.S.S.S.L.N.{ ! j.j.Q O.S.;.H 5._.Y.S.",
"S.S.S.S.S.S.S.S.F.S.S.S.S.S.S.S.S.S.S.S.S.S.S.S.S.S.S.S.S.S.S.S.S.S.S.S.S.S.S.S.S.S.S.S.S.S.S.S.S.S.S.S.S.S.S.G.S.S.S.S.",
"S.S.S.S.S.S.S.G.Y.S.S.R.U.S.S.S.S.S.S.S.S.S.S.S.S.S.S.S.S.S.S.S.S.S.S.S.S.S.S.S.S.S.S.S.S.S.S.U.R.S.S.Y.G.S.G.E.G.S.S.S.",
"S.S.S.S.S.S.S.S.S.S.S.S.S.S.S.S.S.S.S.S.S.S.S.S.S.S.S.S.S.S.S.S.S.S.S.S.S.S.S.S.S.S.S.S.S.S.S.S.S.S.S.S.S.S.S.S.S.S.S.S.",
"S.S.S.S.S.S.S.S.S.S.S.S.S.S.S.S.S.S.S.S.S.S.S.S.S.S.S.S.S.S.S.S.S.S.S.S.S.S.S.S.S.S.S.S.S.S.S.S.S.S.S.S.S.S.S.S.S.S.S.S.",
"S.S.S.S.S.S.S.S.S.S.S.S.S.S.S.S.S.S.S.S.S.S.S.S.S.S.S.S.S.S.S.S.S.S.S.S.S.S.S.S.S.S.S.S.S.S.S.S.S.S.S.S.S.S.S.S.S.S.S.S."
};
